<svg xmlns="http://www.w3.org/2000/svg" role="img" xmlns:xlink="http://www.w3.org/1999/xlink" viewBox="-5.23 -5.23 272.22 265.22"><title>alcide.input.svg logo</title><use fill="#0031E2" transform="translate(4085 289) translate(-4085 -289)" xlink:href="#path0_fill"/><defs><path id="path0_fill" fill-rule="evenodd" d="M129.063 139.611c-32.0717 0-60.5436-18.086-74.278-28.502l74.278-77.9808 74.28 77.9808c-13.743 10.42-42.211 28.502-74.28 28.502zm22.023-43.5611l-22.224-22.2005-22.224 22.2005 22.224 22.2001 22.224-22.2001zM30.0726 120.219c1.7981 1.718 44.7043 42.054 98.9904 42.054 54.288 0 97.194-40.336 98.992-42.054l8.132-7.757L129.063 0 21.9409 112.462l8.1317 7.757zm43.8885 68.455l-14.7775.004L59.202 255l14.7775-.004-.0184-66.322zm-41.4849 30.214c1.9626 1.567 3.4356 3.666 4.4176 6.299l.0026 10.25c-1.2265 2.131-2.6667 3.808-4.3231 5.032-1.6552 1.222-3.6185 1.834-5.8872 1.835-1.6565 0-3.1898-.329-4.6005-.986-1.4126-.658-2.6233-1.551-3.6361-2.679-1.0121-1.128-1.8099-2.459-2.3926-3.996-.5841-1.535-.8751-3.211-.8751-5.03-.0007-1.693.2589-3.323.78-4.89.5205-1.567 1.2717-2.963 2.2537-4.185.98-1.223 2.1297-2.195 3.4493-2.916 1.3176-.721 2.7742-1.083 4.3704-1.083 2.3296-.001 4.4764.783 6.441 2.349zm-18.8978 34.187c2.7898 1.283 5.8727 1.926 9.246 1.925 3.3123-.001 6.1186-.707 8.4188-2.118 2.2995-1.412 4.1855-3.465 5.6565-6.161l.0019 7.334 14.7216-.004-.0138-48.709-14.7216.004.002 7.429c-1.4723-2.758-3.5745-4.951-6.3034-6.581-2.7302-1.629-5.8131-2.443-9.2474-2.442-3.0684.001-5.9036.66-8.5105 1.977-2.607 1.317-4.86071 3.121-6.76039 5.409-1.90162 2.289-3.38836 5.001-4.46079 8.135C.53427 222.409-.00066 225.762 0 229.335c.00133 3.699.55393 7.1 1.65914 10.202 1.10517 3.103 2.66925 5.815 4.69411 8.132 2.0249 2.32 4.43265 4.122 7.22515 5.406zm67.7991-23.909c-.0007-3.407.5744-6.673 1.7245-9.797 1.1494-3.124 2.817-5.869 4.9973-8.236 2.1811-2.367 4.8621-4.245 8.0423-5.635 3.181-1.387 6.8014-2.084 10.8604-2.085 5.514-.002 10.15 1.213 13.908 3.64 3.758 2.429 6.576 5.599 8.456 9.511l-14.178 4.453c-1.879-3.155-4.636-4.733-8.272-4.731-3.031 0-5.56 1.17-7.5895 3.504-2.0302 2.337-3.0424 5.46-3.0417 9.372.0006 1.957.2732 3.739.8192 5.347.5452 1.61 1.3029 2.982 2.273 4.117.969 1.136 2.105 2.02 3.41 2.65 1.302.631 2.681.946 4.136.945 1.817-.001 3.483-.458 4.998-1.374 1.514-.914 2.636-2.098 3.362-3.55l14.181 4.539c-1.757 3.85-4.558 7.005-8.405 9.468-3.848 2.462-8.53 3.694-14.043 3.696-3.999.001-7.5892-.708-10.7701-2.127-3.1822-1.419-5.8793-3.311-8.0915-5.677-2.2134-2.366-3.8959-5.111-5.0466-8.234-1.1527-3.123-1.729-6.388-1.7303-9.796zm51.7905-21.863l.014 47.697 14.777-.004-.013-47.697-14.778.004zm-.002-5.451l-.003-13.173 14.778-.005.003 13.174-14.778.004zm54.689 18.732c2.065 1.493 3.592 3.464 4.578 5.913l.003 9.858c-.986 2.032-2.403 3.63-4.252 4.796-1.848 1.165-3.852 1.748-6.009 1.748-1.665.001-3.205-.296-4.623-.893-1.42-.597-2.636-1.434-3.654-2.509-1.017-1.075-1.819-2.359-2.405-3.853-.587-1.493-.879-3.106-.879-4.839-.001-1.614.26-3.182.784-4.706.523-1.523 1.278-2.852 2.265-3.988.984-1.134 2.125-2.047 3.419-2.734 1.295-.687 2.742-1.032 4.346-1.032 2.219-.001 4.36.746 6.427 2.239zm4.584 26.704l.002 6.811 14.702-.003-.019-65.422-14.793.004.006 26.079c-1.541-2.627-3.669-4.718-6.381-6.271-2.714-1.553-5.796-2.329-9.247-2.328-3.083.001-5.933.629-8.553 1.884-2.619 1.256-4.885 2.975-6.794 5.155-1.91 2.182-3.389 4.766-4.435 7.753-1.049 2.989-1.571 6.185-1.57 9.59.001 3.526.571 6.766 1.713 9.723 1.141 2.957 2.73 5.542 4.765 7.751 2.035 2.21 4.453 3.928 7.26 5.151 2.804 1.223 5.871 1.836 9.199 1.835 6.411-.002 11.126-2.572 14.145-7.712zm50.932-30.06c1.878 1.819 2.968 4.294 3.273 7.428l-20.534.006c.302-3.071 1.375-5.532 3.224-7.383 1.846-1.849 4.192-2.775 7.04-2.775 2.785-.001 5.119.907 6.997 2.724zm-25.659 30.192c2.211 2.32 4.908 4.153 8.088 5.499 3.18 1.346 6.769 2.02 10.767 2.019 5.51-.002 10.235-1.225 14.173-3.672 3.936-2.446 6.841-5.612 8.719-9.499l-12.357-3.57c-.667 1.818-1.984 3.26-3.951 4.326-1.969 1.068-4.013 1.6-6.132 1.601-2.667 0-5.044-.86-7.134-2.584-2.089-1.723-3.257-4.245-3.5-7.569l35.252-.01c.122-.626.212-1.364.273-2.21.059-.846.091-1.707.09-2.586-.001-3.385-.563-6.613-1.684-9.685-1.122-3.07-2.772-5.782-4.953-8.133-2.181-2.35-4.848-4.213-7.998-5.592-3.15-1.377-6.754-2.066-10.813-2.065-4.058.001-7.676.693-10.856 2.071-3.179 1.38-5.859 3.262-8.039 5.645-2.179 2.383-3.846 5.158-4.995 8.323-1.15 3.166-1.725 6.536-1.723 10.109 0 3.324.576 6.504 1.729 9.544 1.15 3.041 2.832 5.721 5.044 8.038z"/></defs></svg>