<svg xmlns="http://www.w3.org/2000/svg" role="img" viewBox="-23.98 -22.98 1194.96 209.96"><title>alibaba-cloud.input.svg logo</title><style>svg {enable-background:new 0 0 1149 164.9700012}</style><style>.st0{fill:#373c41}</style><g id="Layer_2"><g id="Layer_1-2"><path d="M36.1 1C24 3.45 11 13.15 5.6 23.75S0 36.95 0 81.55c0 23.8.4 43.4 1 46.5 3.55223 18.15398 17.74603 32.34778 35.9 35.90001 5.5 1 77.1 1.5 77.1.4 0-.8-6.1-24.8-6.4-25.10001-.1-.2-12.8-3-28.2-6.3-35.9-7.8-34.8-7.5-37.8-11.1l-2.6-3.1v-72.6L41.6 43c3-3.6 1.9-3.3 37.8-11.1 15.4-3.3 28.1-6.1 28.2-6.3.3-.3 6.4-24.3 6.4-25.1 0-.95-73.1-.5-77.9.5zm115.9.15c.1 1.8 5.7 23.8 6.3 24.4.2.3 13.9 3.4 30.3 6.9s31 7.1 32.3 7.8a12.22007 12.22007 0 014.30001 4.2c1.6 2.8 1.8 5.8 1.8 38s-.2 35.2-1.8 38a13.15 13.15 0 01-4.3 4.2c-1.3.7-15.8 4.2-32.3 7.8s-30.10001 6.6-30.3 6.9c-.60001.6-6.2 22.6-6.30001 24.39998 0 1.10001 7.2 1.3 38.8 1 43.6-.39999 44.1-.5 55.2-8 7.97368-5.48689 13.99698-13.3662 17.20001-22.5 2.29999-6.7 2.29999-7.3 2.29999-51.8s0-45.1-2.29999-51.8C259.99698 21.5162 253.97368 13.63688 246 8.15c-11.1-7.5-11.6-7.6-55.2-8-31.6-.3-38.8-.15-38.8 1zm186.1 34c-6.89999 14.4-13.79998 32.2-20.89999 53.8C312.40002 103.45 303 135.85 303 137.65a67.07867 67.07867 0 008 .3h7.9l1.1-4.3c.70001-2.3 2.4-8.5 3.9-13.7l2.7-9.5h54.9l2.79999 10c1.5 5.5 3.20001 11.7 3.79999 13.7l1 3.8h7.89999c4.4 0 8-.1 8-.3s-2-7.60001-4.5-16.6c-9.1-32.9-20.70001-65.3-30.5-85.6l-5.20001-10.5H343l-4.9 10.2zm23.70002 20c4.9 11.5 14.20001 36.7 14.20001 38.4 0 .2-9.9.4-22 .4s-22-.4-22-.8c0-1.7 10.1-28.6 15-40.1 3.79999-8.9 5.70001-12.1 7-12.1s3.29999 3.7 7.79999 14.2zM415 81.45v56.5h16v-113h-16v56.5zm36-55.2a12.99998 12.99998 0 00-4.4 5c-1.6 3.4-1.7 4.2-.39999 7.5 1.72855 5.01916 7.12671 7.76248 12.20001 6.2 5-1.6 7.10001-4.5 7.10001-9.7 0-3.8-.5-4.9-3.29999-7.4-3.5-3.1-7.1-3.7-11.20001-1.6H451zm29 55v56.4l12.29999.89999c6.70001.4 17.20001.9 23.20001.9 10.09998 0 11.5-.2 16.79999-2.9 6.25152-2.84093 10.93402-8.29164 12.79999-14.9.59997-2.4.90002-13 .7-27.5-.29998-22.3-.40002-23.9-2.5-27.9-3.90002-7.2-9.79998-10.7-20.7-12.2-5.8-.8-20.20002 0-24.60001 1.4-1.9.6-2 .2-2-14.9v-15.6h-16L480 81.25zm45.5-10.8c1.9535.71361 3.56226 2.14367 4.5 4 1.29999 3.4 1.29999 40.6 0 43.9-1.5 4.1-6.40002 6-16 6a91.93979 91.93979 0 01-13.20001-.8L496 122.85v-51.7l5.79999-1c8.9-1.5 19.79999-1.4 23.70001.3zM639 81.35v56.4l9.79999.5c5.29999.4 14.5.9 20.40002 1.3 13.70001.8 22.29999-1.4 27.90003-7.3 7.2-7.4 7.40002-8.3 7.7-33.5.3-18.3.09998-23.8-1.2-28-2.70002-9.4-10.5-15.3-22.40003-16.7-6-.7-21.70001.1-24.90002 1.4-1 .3-1.29999-3.1-1.29999-15v-15.5h-16v56.4zM683.90002 70c1.70002.6 3.59998 1.9 4.09998 2.9 1.09998 2 1.40002 43.8.40002 46.5-1.7 4.4-15.2 6.3-28.59997 4.1l-4.79999-.7V71.15l5.79999-1c8-1.3 19.29999-1.4 23.09997-.15zM842.8 25.95c-10 1.8-15.09998 4.2-20.29999 9.4-8 8-8.5 10.9-8.5 47.1s.5 39.1 8.59998 47.2c4.2 4.3 6.40002 5.6 12.5 7.5 6.40002 2 9.5 2.3 22.90002 2.3 11.59998 0 17.59998-.5 23.59998-1.9A66.73186 66.73186 0 00891 134.95c.79999-.5.70001-2.3-.5-7.1a43.58405 43.58405 0 00-2.29999-7.1c-.40002-.4-2.90002-.1-5.5.7-8.90002 2.7-24.5 3.8-34.20001 2.6s-13.29999-2.8-16.40002-6.7c-2-2.6-2.09998-3.7-2.09998-34.9s.09998-32.3 2.09998-34.9c3.09997-3.9 6.59997-5.4 16.40002-6.7s25.29999-.1 34.20001 2.6c2.70001.8 5.09998 1.5 5.40003 1.5.79998 0 4.29998-13.9 3.7-14.5-.29998-.3-4-1.4-8.40002-2.6-8.79998-2.3-32.29998-3.4-40.59997-1.9h-.00006zm63.2 55.5v56.5h15v-113h-15v56.5zm227-41.5v15l-5.69995-.6c-3.19995-.3-6.80005-.7-8-1-3.40003-.6-16 1.4-19.59998 3.2a26.85013 26.85013 0 00-11 10.9c-2 3.7-2.19995 5.8-2.5 26.2-.40002 27.30001.40003 31.30001 7.69995 38.40002 6.5 6.3 14.19996 8.4 27.30005 7.5 5.09998-.3 13.5-.9 18.59998-1.2l9.19995-.6V24.95h-16v15zm-1.69995 30.5c1.59997.7 1.69995 2.9 1.69995 26.6v25.8l-3.69995.69999c-6.40003 1.3-18.59998 1-22.09998-.5-1.80005-.8-3.69995-2.2-4.19995-3.2s-1-11.6-1-23.6c0-23.8.19995-24.6 5.5-26.3 3.19995-1 20.80005-.6 23.80005.5h-.00012zM583 54a129.15818 129.15818 0 00-13.29999 2.5c-5.40002 1.3-6.70001 2-6.29999 3.3.3.9 1 3.8 1.70002 6.6s1.40002 5.3 1.79998 5.6 4.70002-.2 9.59998-1.2c16.70001-3.5 28-1.9 29.59998 4.1a46.41148 46.41148 0 01.79998 8.1l.09998 5.6-9.5-.5c-25.40003-1.3-40.70001 8.2-40.90003 25.3-.09997 8.1 2.5 14.4 7.90003 19.39999 6.29999 5.8 13 7.5 25.90002 6.7 5.59998-.3 15-.9 20.90003-1.2l10.79999-.7-.3-33.6L621.5 70.4l-2.79999-4.7C613.10004 56.25 599.8 51.85 583 54zm23.29999 50.6c1 .6.90002 18.3-.09998 18.3-.5 0-5.59997.5-11.40002 1.1C578.09998 125.6 572 123.1 572 114.5c0-3.7.5-4.80001 3-7a16.66005 16.66005 0 017.79999-3.1c2.59997-.3 5.40002-.8 6.20001-1 1.79999-.4 16.20001.55 17.29999 1.25v-.05zM742.5 53.85a134.49275 134.49275 0 00-13.29999 2.6c-6.70001 1.6-7.29999 2-6.79999 3.9.3 1.1 1.09998 4.5 1.8 7.4 1.09997 5 1.29998 5.3 3.7 4.7 13.40003-3.5 26.3-4.5 31.40003-2.6 4.70001 1.8 5.70001 3.8 5.70001 11.4v7.2h-12.20001c-15.70001 0-22.90003 2-29.79999 8.2-6 5.4-8.5 11.9-7.70001 20 1.70001 16.39999 13.29999 24.2 34.09997 22.89999 5.59998-.3 15-.9 20.90003-1.2l10.79999-.7-.3-33.1c-.29998-31.79999-.40002-33.29999-2.5-37.2-5.7-10.7-18.59997-15.5-35.79998-13.5H742.5zm19.79999 50.1H765v18.9l-5.70001.7c-11 1.4-21.70001 1.1-24.5-.8-5.59998-3.7-5.40003-13.4.29999-16.4 3.90002-2 13.2-3.40001 19.40002-2.80001 2.79999.2 6.20001.4 7.79999.4zm193.79999-50c-5.8 1.2-12.20002 5.1-15.5 9.4C935.5 70.05 935 73.35 935 97.35c0 24.6.70001 27.5 7.29999 34.4 6.40002 6.7 9.59997 7.7 24.70001 7.7 15.5 0 19-1.2 25.40002-8.6 6.09998-7.2 6.8-10.80001 6.40003-36.1-.29999-20.6-.5-22.6-2.5-26.4-2.95868-5.4536-7.53546-9.8557-13.09998-12.6-5.09997-2.3-20.09997-3.3-27.09997-1.8h-.00012zm22 16.6C983.19995 73.15 984 76.75 984 96.45c0 18.7-.70001 22.2-5 26-3.09998 2.8-17.20001 3.5-22.29999 1-6-2.8-6.70001-5.7-6.70001-27 0-20.4.59998-23.1 5.79999-25.9 3.79999-2.1 18.29999-2.1 22.29999 0zM448 96.45v41.5h15v-83h-15v41.5zm563.40002-40.2c-.29998.8-.40002 15.8-.2 33.3.29998 28.8.5 32.2 2.2 35.4 5.90003 11.1 15.90003 15.7 32.19996 14.6 5.19995-.3 13.69995-.9 18.90002-1.2l9.5-.6v-82.8h-15v67.9l-4.69995.7c-8.69995 1.4-19.5.9-23-.9-1.80005-1-3.40003-1.9-3.5-2s-.5-14.8-.80005-32.7l-.5-32.5-7.29999-.3c-5.5-.2-7.40002 0-7.79999 1.1z" class="st0"/><path d="M107.4 80.35a7.21 7.21 0 00-.2 3.3c.3 1.7 2.1 1.8 25.6 2.1l25.2.2v-7h-25c-20.9 0-25.2.2-25.6 1.4z" class="st0"/></g></g></svg>