<svg xmlns="http://www.w3.org/2000/svg" role="img" viewBox="-12.32 -13.32 795.64 1004.64"><title>alibaba-cloud-function-compute.input.svg logo</title><style>svg {enable-background:new 0 0 772 976}</style><style>.st0{fill:#00c1de}</style><path d="M184.2289 204.3677l44.71808 44.69971L51.70842 426.28763 7.00869 381.58789l177.2202-177.2202z" class="st0"/><path d="M7.00868 381.97339l44.69974-44.6997 177.2202 177.2202-44.69972 44.71815L7.00868 381.97339zm579.92168 177.23859l-44.71808-44.69977 177.22015-177.22019 44.71808 44.69974-177.22015 177.22022z" class="st0"/><path d="M764.16895 381.60626L719.4508 426.306 542.23059 249.06741l44.6997-44.71808 177.23866 177.25693zM502.76266 70.61727l22.35904 22.35904-311.30104 311.28272-22.3407-22.3407 311.2827-311.30106z" class="st0"/><path d="M345.93729 492.6488l-22.35904 22.3407-132.906-132.906 22.35906-22.3407 132.90598 132.906z" class="st0"/><path d="M390.82059 404.00198l22.35904 22.35907-88.62848 88.62845-22.35904-22.35907 88.62848-88.62845zm144.67294-288.35454c-30.50961 0-55.31018-24.59863-55.31018-54.81454C480.18335 30.59862 504.98392 6 535.49353 6c30.50964 0 55.32855 24.59862 55.32855 54.8329s-24.8189 54.81454-55.32855 54.81454zm0-78.31173c-13.07031 0-23.6991 10.53702-23.6991 23.49719 0 12.9418 10.64716 23.49719 23.6991 23.49719 13.08868 0 23.71753-10.55538 23.71753-23.4972 0-12.96016-10.64722-23.49719-23.71753-23.49718zM267.97437 693.458L245.6153 671.099 556.91638 359.7979l22.34064 22.35907-311.28265 311.30103z" class="st0"/><path d="M424.81805 271.40811l22.3407-22.3407 132.906 132.90598-22.35906 22.34067L424.81805 271.4081z" class="st0"/><path d="M379.95316 360.05493l-22.35907-22.35904 88.6101-88.61012 22.35904 22.34068-88.61007 88.62848zM235.2435 648.40948c30.50963 0 55.32854 24.59864 55.32854 54.8329 0 30.2343-24.81888 54.83288-55.32854 54.83288-30.50962 0-55.32855-24.59858-55.32855-54.83289 0-30.23425 24.8189-54.83289 55.32855-54.83289zm0 78.33014c13.0703 0 23.69912-10.53704 23.69912-23.49719s-10.64717-23.49713-23.69912-23.49713c-13.08866 0-23.71746 10.53705-23.71746 23.49713 0 12.9602 10.64715 23.4972 23.71748 23.4972h-.00001z" class="st0"/><g><path d="M123.4853 871.58203h-12.91114l20.91797-58.66797h14.13672l20.67285 58.66797h-13.31934l-3.75879-12.09277h-21.65332l-4.08496 12.09277zm7.3535-22.22558h14.95313l-7.27246-23.20606h-.16309l-7.51757 23.20606zm54.17676 22.22558h-11.43945v-58.66797h11.43945v58.66797zm22.71778-48.61816h-11.43946V812.3418h11.43946v10.62207zm0 5.14843v43.46973h-11.43946V828.1123h11.43946zm22.06445 5.6377h.16309c1.79785-2.77832 5.22949-6.78223 12.58398-6.78223 9.55957 0 18.05762 7.3545 18.05762 22.38868 0 11.92968-5.39258 23.36914-18.30274 23.36914-4.73925 0-9.80566-1.71582-12.58398-6.61817h-.16309v5.47461h-11.19433v-58.66797h11.43945V833.75zm9.31543 3.1045c-7.84473 0-9.80566 7.02734-9.80566 13.97265 0 6.45508 2.86035 12.50195 10.13183 12.50195 7.3545 0 9.39746-8.00781 9.39746-13.15527 0-6.86328-2.45215-13.31934-9.72363-13.31934zm64.7168 26.22948c0 5.14747 1.14453 6.292 2.5332 6.78223v1.71582h-12.33789c-.6543-2.04297-.81738-2.69629-1.0625-5.14746-2.61523 2.69629-6.292 6.29102-14.05469 6.29102-6.53613 0-13.2373-3.67676-13.2373-12.66504 0-8.49805 5.39355-12.82813 12.66601-13.89063l10.29492-1.55273c1.79786-.24512 4.00391-.98047 4.00391-3.43164 0-4.8213-4.5752-5.0664-7.51758-5.0664-5.71972 0-6.7002 3.51366-7.02636 6.04687h-11.03125c1.30761-13.31836 10.54101-15.19825 19.44726-15.19825 6.12793 0 17.32227 1.87989 17.32227 12.58399v23.53222zm-11.19434-12.66503c-1.14355.89843-3.02344 1.63378-7.7627 2.36914-4.24902.73632-7.76171 1.79785-7.76171 6.5371 0 4.00391 3.10449 5.2295 5.31054 5.2295 5.06641 0 10.21387-3.26856 10.21387-8.5791v-5.55664zM325.1601 833.75h.16308c1.79785-2.77832 5.2295-6.78223 12.58399-6.78223 9.55957 0 18.05761 7.3545 18.05761 22.38868 0 11.92968-5.39258 23.36914-18.30273 23.36914-4.73926 0-9.80567-1.71582-12.58399-6.61817h-.16308v5.47461h-11.19434v-58.66797h11.43946V833.75zm9.31542 3.1045c-7.84472 0-9.80566 7.02734-9.80566 13.97265 0 6.45508 2.86035 12.50195 10.13184 12.50195 7.35449 0 9.39746-8.00781 9.39746-13.15527 0-6.86328-2.45215-13.31934-9.72364-13.31934zm64.71778 26.22948c0 5.14747 1.14453 6.292 2.5332 6.78223v1.71582h-12.33789c-.6543-2.04297-.81738-2.69629-1.0625-5.14746-2.61523 2.69629-6.292 6.29102-14.05469 6.29102-6.53613 0-13.2373-3.67676-13.2373-12.66504 0-8.49805 5.39355-12.82813 12.66601-13.89063l10.29493-1.55273c1.79785-.24512 4.0039-.98047 4.0039-3.43164 0-4.8213-4.5752-5.0664-7.51758-5.0664-5.71972 0-6.7002 3.51366-7.02636 6.04687h-11.03125c1.30761-13.31836 10.54101-15.19825 19.44726-15.19825 6.12793 0 17.32227 1.87989 17.32227 12.58399v23.53222zm-11.19434-12.66503c-1.14355.89843-3.02344 1.63378-7.7627 2.36914-4.24902.73632-7.76171 1.79785-7.76171 6.5371 0 4.00391 3.10449 5.2295 5.31055 5.2295 5.0664 0 10.21386-3.26856 10.21386-8.5791v-5.55664zm82.45215-18.30372c-.98047-3.5127-2.86035-10.13183-12.99219-10.13183-5.8828 0-14.54492 3.92187-14.54492 20.50976 0 10.54004 4.16797 20.01856 14.54492 20.01856 6.78223 0 11.52149-3.83985 12.9922-11.03027h12.25683c-2.45215 12.74707-10.78614 21.65332-25.49414 21.65332-15.60645 0-26.80079-10.54102-26.80079-30.80567 0-20.50879 11.84766-30.96777 26.96387-30.96777 17.56836 0 24.67676 12.09277 25.33106 20.7539H470.4511zm32.4414 39.4668h-11.43945v-58.66797h11.43946v58.66797zm30.64454 1.14356c-11.68457 0-22.22559-7.19043-22.22559-22.87891s10.54102-22.8789 22.22559-22.8789 22.2246 7.19042 22.2246 22.8789-10.54003 22.8789-22.2246 22.8789zm0-36.11622c-8.8252 0-10.45899 7.68165-10.45899 13.23731 0 5.55664 1.6338 13.2373 10.45899 13.2373 8.82422 0 10.45898-7.68066 10.45898-13.2373 0-5.55566-1.63476-13.2373-10.45898-13.2373zm69.45703 34.97266h-10.94922v-6.12793h-.16309c-2.61523 4.65723-7.19042 7.27149-13.2373 7.27149-8.58008 0-14.79004-4.90235-14.79004-16.01465V828.1123h11.43945v26.96387c0 6.7002 3.92286 8.00781 7.43653 8.00781 3.75781 0 8.82422-2.12402 8.82422-9.88671V828.1123h11.43945v43.46973zm50.41797 0H642.2177v-5.4746h-.16308c-2.77832 4.90234-7.84473 6.61816-12.58399 6.61816-12.91015 0-18.30273-11.43946-18.30273-23.36914 0-15.03418 8.49804-22.38868 18.05761-22.38868 7.3545 0 10.78614 4.00391 12.58399 6.78223h.16309v-20.83594h11.43945v58.66797zm-21.08106-8.25293c7.27246 0 10.13184-6.04687 10.13184-12.50195 0-6.94531-1.96094-13.97266-9.80469-13.97266-7.27246 0-9.72363 6.45606-9.72363 13.31934 0 5.14746 2.042 13.15527 9.39648 13.15527zM44.05658 955.4502H31.79974v-58.66797h41.75391v10.37695H44.05658v13.2373h25.82031v10.37696H44.05658v24.67676zm71.5 0h-10.94922v-6.12793h-.16309c-2.61523 4.65722-7.19042 7.27148-13.2373 7.27148-8.58008 0-14.79004-4.90234-14.79004-16.01465v-28.59863h11.43945v26.96387c0 6.7002 3.92286 8.0078 7.43653 8.0078 3.75781 0 8.82422-2.12401 8.82422-9.88671v-25.08496h11.43945v43.46973zm50.01074 0h-11.43945v-26.39258c0-3.18653-.16406-8.58008-7.43555-8.58008-5.0664 0-8.98828 3.43262-8.98828 10.05078v24.92188H126.2646v-43.46973h10.94922v6.37305h.16308c1.55274-2.61524 4.8213-7.51758 13.07422-7.51758 8.49707 0 15.11621 4.98437 15.11621 14.54492v30.06934zm48.04883-15.85157c-.4082 4.49414-3.92188 16.99512-19.85547 16.99512-16.3418 0-20.10058-12.50098-20.10058-21.65332 0-14.05371 6.12792-24.1045 20.83593-24.1045 6.86426 0 18.13965 3.10548 19.20215 16.66895h-11.60254c-.49023-2.77832-2.125-7.02734-7.02734-7.02734h-.57227c-7.19043 0-9.06933 7.1914-9.06933 12.58398 0 4.73926.16308 14.13575 8.82422 14.13575 5.80175 0 7.7627-5.55665 7.7627-7.59864h11.60253zm20.83984-27.61816h7.10938v8.1709h-7.10938v23.61426c0 2.5332.08203 3.51367 4.73926 3.51367.73535 0 1.55274-.08203 2.37012-.16407v8.66211c-1.79785.08106-3.5957.16309-5.39356.16309h-1.4707c-9.88672 0-11.68457-3.75879-11.68457-9.39648v-26.39258h-5.88281v-8.1709h5.88281v-11.7666H234.456v11.7666zm26.14844-5.14844h-11.43945v-10.62207h11.43945v10.62207zm0 5.14844v43.46973h-11.43945v-43.46973h11.43945zm30.64453 44.61328c-11.68457 0-22.22558-7.19043-22.22558-22.8789s10.54101-22.87891 22.22558-22.87891 22.22461 7.19043 22.22461 22.8789-10.54004 22.87891-22.2246 22.87891zm0-36.11621c-8.8252 0-10.45898 7.68164-10.45898 13.2373 0 5.55664 1.63379 13.2373 10.45898 13.2373 8.82422 0 10.45899-7.68066 10.45899-13.2373 0-5.55566-1.63477-13.2373-10.45899-13.2373zm69.53809 34.97266H349.3476v-26.39258c0-3.18653-.16407-8.58008-7.43555-8.58008-5.0664 0-8.98828 3.43262-8.98828 10.05078v24.92188H321.4843v-43.46973h10.94922v6.37305h.16309c1.55273-2.61524 4.82129-7.51758 13.07422-7.51758 8.49707 0 15.1162 4.98437 15.1162 14.54492v30.06934zm71.66601-39.4668c-.98046-3.5127-2.86035-10.13184-12.99218-10.13184-5.88282 0-14.54493 3.92188-14.54493 20.50977 0 10.54004 4.16797 20.01855 14.54493 20.01855 6.78222 0 11.52148-3.83984 12.99218-11.03027h12.25684c-2.45215 12.74707-10.78613 21.65332-25.49414 21.65332-15.60645 0-26.80078-10.54102-26.80078-30.80566 0-20.5088 11.84765-30.96778 26.96387-30.96778 17.56835 0 24.67675 12.09278 25.33105 20.7539h-12.25684zm40.36817 40.61035c-11.68457 0-22.22559-7.19043-22.22559-22.8789s10.54102-22.87891 22.22559-22.87891 22.2246 7.19043 22.2246 22.8789-10.54003 22.87891-22.2246 22.87891zm0-36.11621c-8.8252 0-10.45899 7.68164-10.45899 13.2373 0 5.55664 1.6338 13.2373 10.45899 13.2373 8.82422 0 10.45898-7.68066 10.45898-13.2373 0-5.55566-1.63476-13.2373-10.45898-13.2373zm92.41797 34.97266h-11.43946v-26.39258c0-6.45508-2.86035-8.58008-6.20996-8.58008-5.71972 0-7.7627 3.75879-7.7627 8.90723v26.06543h-11.43945v-26.14747c0-3.67675 0-8.8252-6.86328-8.8252-5.39355 0-7.10937 3.7588-7.10937 8.49806v26.4746h-11.43945v-43.46972h10.94921v6.37305h.16309c1.4707-2.86036 4.6582-7.51758 12.33887-7.51758 6.29199 0 9.15136 2.28808 12.09277 6.94531 1.4707-2.12402 4.6582-6.94531 11.60352-6.94531 8.49804 0 15.1162 4.98437 15.1162 14.54492v30.06934zm21.16797-37.17872h.16308c2.12402-3.43164 5.31152-7.43554 12.99219-7.43554 9.55957 0 18.05762 7.35449 18.05762 22.38867 0 11.92969-5.39258 23.36914-18.30274 23.36914-8.00781 0-10.86816-4.33008-12.25683-6.7002h-.16309v22.4707h-11.43945v-60.38378h10.94922v6.29101zm10.0498 28.92579c7.3545 0 9.39746-8.00782 9.39746-13.15528 0-6.86328-2.45215-13.31933-9.72363-13.31933-7.84473 0-9.72363 7.02734-9.72363 13.97265 0 6.45508 2.77832 12.50196 10.0498 12.50196zm68.3955 8.25293h-10.94921v-6.12793h-.16309c-2.61523 4.65722-7.19043 7.27148-13.2373 7.27148-8.58008 0-14.79004-4.90234-14.79004-16.01465v-28.59863h11.43945v26.96387c0 6.7002 3.92285 8.0078 7.43653 8.0078 3.7578 0 8.82421-2.12401 8.82421-9.88671v-25.08496h11.43946v43.46973zm23.53614-43.46973h7.10938v8.1709h-7.10938v23.61426c0 2.5332.08203 3.51367 4.73926 3.51367.73535 0 1.55273-.08203 2.37012-.16407v8.66211c-1.79786.08106-3.5957.16309-5.39356.16309h-1.4707c-9.88672 0-11.68457-3.75879-11.68457-9.39648v-26.39258h-5.88281v-8.1709h5.8828v-11.7666h11.43946v11.7666zm50.49902 30.72266c-3.02343 10.45898-11.68457 13.89062-19.12109 13.89062-12.25586 0-21.65332-5.88281-21.65332-23.77734 0-5.2295 1.79785-21.98047 20.83691-21.98047 8.5791 0 20.42774 4.08593 20.42774 23.9414v2.04297h-29.82422c.32617 3.26856.98047 10.62207 10.21289 10.62207 3.1875 0 6.45606-1.63379 7.3545-4.73926h11.7666zm-11.27636-13.31836c-.65332-7.02735-5.14746-9.15235-8.8252-9.15235-5.39258 0-8.25195 3.43262-8.90625 9.15235h17.73145z"/></g></svg>