<svg xmlns="http://www.w3.org/2000/svg" role="img" viewBox="23.24 23.49 429.26 126.76"><title>amazon-eks.input.svg logo</title><defs><linearGradient id="b" x1="0" x2="1" y1="0" y2="0" gradientTransform="scale(-281.224 281.224) rotate(58.747 -2.952 -1.176)" gradientUnits="userSpaceOnUse" spreadMethod="pad"><stop offset="0" stop-color="#4f66b9"/><stop offset="1" stop-color="#484fab"/></linearGradient><linearGradient id="d" x1="0" x2="1" y1="0" y2="0" gradientTransform="scale(-658.545 658.545) rotate(59.853 -1.447 -.937)" gradientUnits="userSpaceOnUse" spreadMethod="pad"><stop offset="0" stop-color="#4f66b9"/><stop offset="1" stop-color="#484fab"/></linearGradient><linearGradient id="f" x1="0" x2="1" y1="0" y2="0" gradientTransform="scale(-731.715 731.715) rotate(60.473 -.797 -.602)" gradientUnits="userSpaceOnUse" spreadMethod="pad"><stop offset="0" stop-color="#4c68bb"/><stop offset="1" stop-color="#5180c9"/></linearGradient><clipPath id="a" clipPathUnits="userSpaceOnUse"><path d="M525.438 782.113h33.964V681.938l97.801 100.175h44.836L594.727 671.742l114.097-127.355h-43.465L559.402 663.246V544.387h-33.964z"/></clipPath><clipPath id="c" clipPathUnits="userSpaceOnUse"><path d="M631.824 876.457l167.266-96.57c2.851-1.653 4.609-4.699 4.609-7.989V578.754c0-3.293 1.77-6.34 4.621-7.988l149.266-86.184c6.152-3.555 13.84.891 13.84 7.988v376.172c0 3.293-1.758 6.336-4.61 7.988l-325.761 188.08c-6.153 3.55-13.852-.89-13.852-7.99V884.445c0-3.289 1.762-6.336 4.621-7.988z"/></clipPath><clipPath id="e" clipPathUnits="userSpaceOnUse"><path d="M775.75 530.344l-167.266-96.571c-2.851-1.652-6.375-1.652-9.226 0L408.652 543.82c-2.851 1.653-4.621 4.7-4.621 7.989v220.097c0 3.293 1.77 6.336 4.621 7.989l167.266 96.574c2.859 1.648 4.617 4.695 4.617 7.984v172.367c0 7.1-7.695 11.54-13.847 7.99L240.926 876.73c-2.852-1.652-4.61-4.695-4.61-7.988V454.973c0-3.289 1.758-6.336 4.61-7.989l358.332-206.882c2.851-1.653 6.375-1.653 9.226 0l325.762 188.074c6.152 3.554 6.152 12.433 0 15.984L784.98 530.344c-2.863 1.652-6.378 1.652-9.23 0z"/></clipPath></defs><path fill="#232a3a" d="M163.09859 90.35216h12.1797l-6.11852-17.7173zm16.9409 14.56057l-3.21058-9.63363H161.4933l-3.09993 9.63363h-6.75583l14.03298-38.36731h7.30782l13.81566 38.3673h-6.7545m45.73219 0V85.8132c0-1.69795-.33333-2.91659-.9973-3.65617-.664-.73705-1.7533-1.1057-3.2666-1.1057-1.1453 0-2.36394.19266-3.65457.57958-1.2933.38812-2.41727.87771-3.37725 1.46716v21.81466h-6.53184V85.8132c0-1.69795-.33332-2.91659-.9973-3.65617-.66399-.73705-1.7533-1.1057-3.26792-1.1057-1.0693 0-2.22261.17439-3.45992.52598-1.23596.34892-2.42793.85838-3.57057 1.52076v21.81466h-6.53184v-28.1801h5.42386l.60932 2.82286c1.84529-1.25516 3.58925-2.177 5.23187-2.7682 1.6413-.58998 3.29459-.8853 4.95721-.8853 3.43058 0 5.79319 1.27183 7.08516 3.81857 3.6919-2.54674 7.23448-3.81857 10.6304-3.81857 2.61993 0 4.65055.70984 6.08918 2.13008 1.43996 1.42183 2.15861 3.48018 2.15861 6.17437v20.70629h-6.5305m22.15011-3.82124c1.04398 0 2.14261-.22813 3.29325-.69118 1.1493-.46253 2.26528-1.1161 3.34525-1.96502v-5.31507c-1.90662-.40519-3.59857-.60932-5.0732-.60932-3.74258 0-5.61186 1.49477-5.61186 4.4843 0 1.29263.35865 2.2978 1.07997 3.01658.71865.72185 1.70796 1.0797 2.9666 1.0797zm7.46915 3.82124l-.49866-2.71194c-1.2933 1.10518-2.72126 1.97489-4.28922 2.60154-1.57063.62758-3.12926.94104-4.67988.94104-2.58394 0-4.67855-.77438-6.28385-2.3254-1.6053-1.5521-2.4066-3.56192-2.4066-6.03479 0-2.7306.9853-4.90774 2.95992-6.5337 1.97595-1.62396 4.62255-2.43634 7.94514-2.43634 1.95595 0 4.09723.2776 6.4225.83065V85.9788c0-1.88435-.40532-3.19165-1.21863-3.93123-.81065-.73852-2.23328-1.10771-4.26256-1.10771-2.87993 0-6.18252.60878-9.90909 1.82649v-4.59522c1.3893-.70145 3.08926-1.25517 5.09987-1.65983 2.01062-.40465 4.02924-.60931 6.05852-.60931 3.68257 0 6.39584.73958 8.1438 2.21447 1.74662 1.4765 2.62126 3.7843 2.62126 6.92063v19.87564h-5.70252m9.90775 0v-4.81762l15.72494-18.38087H265.8547v-4.9816h22.19944v4.816l-15.72227 18.38141h15.89027v4.98268H265.2987m39.30968-4.3187c4.65056 0 6.97583-3.26711 6.97583-9.80082 0-6.49463-2.32527-9.74189-6.97583-9.74189-4.65055 0-6.97582 3.24726-6.97582 9.7419 0 6.5337 2.32527 9.80081 6.97582 9.80081zm0 5.14934c-4.28255 0-7.62247-1.31863-10.02108-3.95923-2.40127-2.639-3.59857-6.30038-3.59857-10.99093 0-4.68468 1.1973-8.34085 3.59857-10.96066 2.3986-2.62073 5.73853-3.93056 10.02108-3.93056 4.28256 0 7.62115 1.30983 10.02109 3.93056 2.3986 2.6198 3.59857 6.27598 3.59857 10.96066 0 4.69055-1.19997 8.35193-3.59857 10.99093-2.39994 2.6406-5.73853 3.95923-10.02109 3.95923m37.70173-.83064V86.25426c0-1.80822-.36666-3.12752-1.10664-3.95817-.73865-.83078-1.91862-1.24477-3.54258-1.24477-2.43594 0-4.92788.81038-7.47448 2.43488v21.42653h-6.53317v-28.1801h5.4252l.66398 3.09992c3.47058-2.62073 7.08783-3.93056 10.85173-3.93056 2.6946 0 4.74388.70984 6.14518 2.13008 1.40263 1.42183 2.10395 3.48018 2.10395 6.17437v20.70629h-6.53317m19.6555 0V66.54542h22.64477v2.9338H365.2322v14.1179h16.60892v2.93473H365.2322v15.44655h19.37818v2.93433h-22.64476m29.17527 0V66.54542h3.26792v17.77196l17.60622-17.77196h4.20923L397.6194 85.25695l20.15417 19.65578H413.287l-18.8782-18.38088v18.38088h-3.26791m37.20573-19.37819c-2.84126-1.1057-4.92787-2.42593-6.25584-3.95723-1.3293-1.53223-1.99328-3.42431-1.99328-5.67532 0-3.06406 1.0973-5.5452 3.29325-7.44675 2.19728-1.90102 5.08387-2.85153 8.66512-2.85153 1.62262 0 3.33058.1928 5.1212.58132 1.78929.38639 3.47858.9333 5.06654 1.63382v2.82287c-3.76524-1.3281-7.10649-1.99382-10.02108-1.99382-2.8426 0-5.01988.62038-6.5345 1.85675-1.51463 1.23597-2.26928 2.99886-2.26928 5.28534 0 1.29263.232 2.3358.69331 3.12859.46.79571 1.21864 1.5145 2.26928 2.15874 1.05197.64745 2.5546 1.3401 4.51189 2.07702l5.92385 2.27087c2.6586 1.03224 4.59588 2.29515 5.81319 3.7915 1.21863 1.49477 1.82662 3.3682 1.82662 5.6196 0 3.28485-1.2093 5.94372-3.62524 7.9722-2.41728 2.03022-5.60253 3.0442-9.55043 3.0442-4.09723 0-7.7518-.77439-10.96106-2.32382v-2.82446c3.87457 1.4037 7.43581 2.10408 10.68373 2.10408 3.0626 0 5.50786-.71971 7.33582-2.15821 1.82795-1.44063 2.74126-3.39631 2.74126-5.87012 0-1.51143-.49865-2.80473-1.49596-3.87497-.99597-1.07024-2.60127-2.02862-4.81721-2.88006l-6.42118-2.4906"/><g clip-path="url(#a)" transform="matrix(.13333 0 0 -.13333 0 173.987)"><path fill="url(#b)" d="M525.438 782.113h33.964V681.938l97.801 100.175h44.836L594.727 671.742l114.097-127.355h-43.465L559.402 663.246V544.387h-33.964v237.726"/></g><g clip-path="url(#c)" transform="matrix(.13333 0 0 -.13333 0 173.987)"><path fill="url(#d)" d="M631.824 876.457l167.266-96.57c2.851-1.653 4.609-4.699 4.609-7.989V578.754c0-3.293 1.77-6.34 4.621-7.988l149.266-86.184c6.152-3.555 13.84.891 13.84 7.988v376.172c0 3.293-1.758 6.336-4.61 7.988l-325.761 188.08c-6.153 3.55-13.852-.89-13.852-7.99V884.445c0-3.289 1.762-6.336 4.621-7.988"/></g><g clip-path="url(#e)" transform="matrix(.13333 0 0 -.13333 0 173.987)"><path fill="url(#f)" d="M775.75 530.344l-167.266-96.571c-2.851-1.652-6.375-1.652-9.226 0L408.652 543.82c-2.851 1.653-4.621 4.7-4.621 7.989v220.097c0 3.293 1.77 6.336 4.621 7.989l167.266 96.574c2.859 1.648 4.617 4.695 4.617 7.984v172.367c0 7.1-7.695 11.54-13.847 7.99L240.926 876.73c-2.852-1.652-4.61-4.695-4.61-7.988V454.973c0-3.289 1.758-6.336 4.61-7.989l358.332-206.882c2.851-1.653 6.375-1.653 9.226 0l325.762 188.074c6.152 3.554 6.152 12.433 0 15.984L784.98 530.344c-2.863 1.652-6.378 1.652-9.23 0"/></g></svg>