<svg xmlns="http://www.w3.org/2000/svg" role="img" viewBox="100.69 -1.30 233.36 262.86"><title>amazon-ecr.input.svg logo</title><defs><style>.cls-1{fill:#f58534}.cls-2{fill:#9d5125}.cls-3{fill:#fff}</style></defs><path d="M115.156 229.89551h6.12939l9.17188 25.9248h-5.874l-1.71094-5.3291h-9.54692l-1.75732 5.3291h-5.6665zm-.357 16.12793h6.6392l-3.2749-10.20117zm42.47123-9.30371a5.57542 5.57542 0 0 1 2.23389 1.72363 5.50849 5.50849 0 0 1 1.09033 2.46191 17.04433 17.04433 0 0 1 .17578 2.832l-.03516 12.083h-5.13575v-12.206a4.00846 4.00846 0 0 0-.35156-1.79395 2.5008 2.5008 0 0 0-2.4624-1.33691 2.88138 2.88138 0 0 0-2.8667 1.72363 5.40943 5.40943 0 0 0-.40479 2.19824v11.415h-5.04735v-11.415a6.411 6.411 0 0 0-.35205-2.47949 2.456 2.456 0 0 0-2.48-1.38965 2.9601 2.9601 0 0 0-2.88428 1.38965 5.34741 5.34741 0 0 0-.40479 2.35645v11.53809h-5.08249v-19.13576h4.87158v2.79688a8.07708 8.07708 0 0 1 1.75879-2.12891 6.96288 6.96288 0 0 1 7.33447-.1582 5.6368 5.6368 0 0 1 1.65332 2.30469 6.36818 6.36818 0 0 1 2.44434-2.48047 7.464 7.464 0 0 1 3.44727-.791 6.67669 6.67669 0 0 1 2.49755.49217zm15.70117 7.43945a7.93043 7.93043 0 0 0 2.002-.43945 1.50777 1.50777 0 0 0 1.081-1.4248 1.6846 1.6846 0 0 0-.8291-1.627 5.2421 5.2421 0 0 0-2.43359-.44824 3.19276 3.19276 0 0 0-2.54932.87988 3.6243 3.6243 0 0 0-.71338 1.75879h-4.83646a7.33615 7.33615 0 0 1 1.41309-4.13379q1.99585-2.53271 6.854-2.53223a12.22836 12.22836 0 0 1 5.61719 1.248q2.45508 1.24953 2.45508 4.71387v8.79395q0 .91555.03516 2.21582a2.78637 2.78637 0 0 0 .29883 1.33691 1.78826 1.78826 0 0 0 .73877.58105v.73828h-5.45216a5.53885 5.53885 0 0 1-.31689-1.09082q-.08789-.50974-.14062-1.16016a10.35838 10.35838 0 0 1-2.40576 1.917 7.27417 7.27417 0 0 1-3.67969.93163 6.34812 6.34812 0 0 1-4.32568-1.48633 5.28358 5.28358 0 0 1-1.707-4.21191 5.45942 5.45942 0 0 1 2.74609-5.11816 12.28971 12.28971 0 0 1 4.42974-1.23147zm3.06494 2.33984a5.5391 5.5391 0 0 1-.97168.4834 8.21369 8.21369 0 0 1-1.3457.34277l-1.14111.21094a7.49836 7.49836 0 0 0-2.3042.68652 2.288 2.288 0 0 0-1.18408 2.12793 2.22458 2.22458 0 0 0 .72314 1.85547 2.75055 2.75055 0 0 0 1.75928.57129 5.24063 5.24063 0 0 0 3.02686-.94922 4.023 4.023 0 0 0 1.4375-3.46484zm8.28418-5.76953v-4.08008h15.16113v4.168l-9.40674 10.8877h9.74072v4.11523h-16.16308V251.916l9.50293-11.18652zm35.08839 12.74512q-2.42725 2.99707-7.36914 2.99609-4.94312 0-7.36963-2.99609a11.893 11.893 0 0 1 0-14.40039q2.42725-3.041 7.36963-3.04 4.94165 0 7.36914 3.04a11.891 11.891 0 0 1 0 14.40039zm-4.00977-2.76953a8.951 8.951 0 0 0 0-8.87793 4.45445 4.45445 0 0 0-6.7627 0 8.89029 8.89029 0 0 0 0 8.87793 4.44 4.44 0 0 0 6.7627 0zm25.48437-12.95608q1.88232 1.55564 1.88281 5.16211v12.90918h-5.13574v-11.6611a5.35666 5.35666 0 0 0-.40137-2.32129 2.82119 2.82119 0 0 0-2.79395-1.47754 3.463 3.463 0 0 0-3.47461 2.16309 7.478 7.478 0 0 0-.48828 2.91992v10.377h-5.0127v-19.1358h4.85352v2.79688a8.51625 8.51625 0 0 1 1.82227-2.12891 6.31056 6.31056 0 0 1 3.90527-1.16016 7.34921 7.34921 0 0 1 4.84278 1.55662zm36.12696-3.26267h-13.71875v5.50488h12.59277v4.502h-12.59277v6.666h14.35156v4.66113h-19.64551v-25.9248h19.0127zm7.3291-1.88184a10.67136 10.67136 0 0 1 7.96973-3.20117q6.47312 0 9.46582 4.291a9.35514 9.35514 0 0 1 1.77441 4.83691h-5.417a7.38308 7.38308 0 0 0-1.32715-2.81445 5.34079 5.34079 0 0 0-4.29-1.68848 5.28756 5.28756 0 0 0-4.56641 2.38379 11.64561 11.64561 0 0 0-1.6709 6.74512q0 4.3623 1.76367 6.5332a5.52737 5.52737 0 0 0 4.48145 2.17285 5.08036 5.08036 0 0 0 4.25-1.86426 8.18424 8.18424 0 0 0 1.3418-3.00781h5.38184a11.67566 11.67566 0 0 1-3.55859 6.89453 10.35571 10.35571 0 0 1-7.334 2.65526 11.00034 11.00034 0 0 1-8.69922-3.58789q-3.167-3.605-3.167-9.88379-.00002-6.7895 3.60155-10.46481zm40.15043-2.04101a6.41692 6.41692 0 0 1 2.42676 1.81152 8.07535 8.07535 0 0 1 1.30371 2.18164 7.26312 7.26312 0 0 1 .48047 2.72559 7.76857 7.76857 0 0 1-.93262 3.63184 5.20727 5.20727 0 0 1-3.07812 2.52441 4.84424 4.84424 0 0 1 2.542 2.04883 8.53364 8.53364 0 0 1 .74707 4.05371v1.74121a13.062 13.062 0 0 0 .14355 2.41016 2.16362 2.16362 0 0 0 1 1.47754v.65039h-5.98052q-.24612-.86133-.35156-1.38965a12.75987 12.75987 0 0 1-.22852-2.2334l-.03516-2.40918q-.03371-2.48-.85645-3.30664a4.36715 4.36715 0 0 0-3.08691-.82715h-5.29v10.166h-5.29395v-25.9248h12.39941a11.30194 11.30194 0 0 1 4.09084.66798zm-11.19629 3.835v6.96484h5.83008a6.18979 6.18979 0 0 0 2.60547-.42285 2.91542 2.91542 0 0 0 1.53613-2.91895 3.27235 3.27235 0 0 0-1.48633-3.166 5.37349 5.37349 0 0 0-2.50586-.457z" class="cls-1"/><path d="M313.74562 107.84429a96.23345 96.23345 0 1 1-96.23346-96.23344 96.26964 96.26964 0 0 1 96.23346 96.23344z" class="cls-2"/><path d="M313.746 107.844H121.279v-7.877h192.467v7.877z" class="cls-2"/><path d="M313.74562 99.96678a96.23345 96.23345 0 1 1-96.23344-96.23345 96.26964 96.26964 0 0 1 96.23346 96.23344z" class="cls-1"/><path d="M223.686 89.534h-12.455l-6.6-57.378h25.762l-6.707 57.378z" class="cls-3"/><path d="M273.187 131.69l4.897-4.045-17.991-26.933-39.387-13.732-3.194 21.716 35.449 3.406 20.226 19.588zm-111.35 0l-4.897-4.045 17.991-26.933 39.388-13.732 3.193 21.716-35.555 3.406-20.12 19.588zm73.55926-99.53374a17.85471 17.85471 0 1 1 0-.05882q.00004.02941 0 .05882z" class="cls-3"/><path d="M217.51218 15.97542a16.2873 16.2873 0 1 0 16.28729 16.28731 16.35587 16.35587 0 0 0-16.28729-16.28731zm0 35.66173a19.48088 19.48088 0 1 1 19.4809-19.48088 19.48088 19.48088 0 0 1-19.4809 19.48088z" class="cls-1"/><path d="M223.36708 32.15626a5.85491 5.85491 0 1 1-5.8549-5.85491 5.97836 5.97836 0 0 1 5.8549 5.85491z" class="cls-1"/><path d="M230.393 97.62481a12.85721 12.85721 0 1 1 0-.04724q.00005.02362 0 .04724z" class="cls-3"/><path d="M217.51218 86.3408a11.284 11.284 0 1 0 11.284 11.284 11.2897 11.2897 0 0 0-11.284-11.284zm0 25.7616a14.4776 14.4776 0 1 1 14.4776-14.4776 14.49271 14.49271 0 0 1-14.4776 14.4776z" class="cls-1"/><path d="M221.45094 97.62481a3.93875 3.93875 0 1 1-3.93875-3.93875 3.99953 3.99953 0 0 1 3.93875 3.93875z" class="cls-1"/><path d="M259.029 173.206h-83.033v-45.881h83.033v45.881z" class="cls-3"/><path fill="#fcbf92" d="M186.428 169.481h-6.281v-38.43h6.281v38.43zm11.39 0h-6.28v-38.43h6.28v38.43zm11.391 0h-6.281v-38.43h6.281v38.43zm11.39 0h-6.28v-38.43h6.28v38.43zm11.497 0h-6.387v-38.43h6.387v38.43zm11.391 0H237.1v-38.43h6.387v38.43zm11.39 0h-6.387v-38.43h6.387v38.43z"/></svg>