<svg xmlns="http://www.w3.org/2000/svg" role="img" viewBox="100.69 -1.30 233.36 262.86"><title>amazon-ecr.input.svg logo</title><defs><style>.cls-1{fill:#f58534}.cls-2{fill:#9d5125}.cls-3{fill:#fff}</style></defs><path d="M115.156 229.896h6.13l9.171 25.924h-5.874l-1.71-5.329h-9.548l-1.757 5.33h-5.666zm-.357 16.127h6.64l-3.276-10.2zm42.471-9.303a5.575 5.575 0 012.234 1.723 5.508 5.508 0 011.09 2.462 17.044 17.044 0 01.176 2.832l-.035 12.083H155.6v-12.206a4.008 4.008 0 00-.351-1.794 2.5 2.5 0 00-2.463-1.337 2.881 2.881 0 00-2.866 1.724 5.41 5.41 0 00-.405 2.198v11.415h-5.047v-11.415a6.411 6.411 0 00-.353-2.48 2.456 2.456 0 00-2.48-1.389 2.96 2.96 0 00-2.884 1.39 5.347 5.347 0 00-.405 2.356v11.538h-5.082v-19.135h4.871v2.796a8.077 8.077 0 011.76-2.128 6.963 6.963 0 017.334-.159 5.637 5.637 0 011.653 2.305 6.368 6.368 0 012.444-2.48 7.464 7.464 0 013.448-.791 6.677 6.677 0 012.497.492zm15.701 7.44a7.93 7.93 0 002.002-.44 1.508 1.508 0 001.081-1.425 1.685 1.685 0 00-.829-1.627 5.242 5.242 0 00-2.433-.448 3.193 3.193 0 00-2.55.88 3.624 3.624 0 00-.713 1.758h-4.836a7.336 7.336 0 011.413-4.133q1.995-2.533 6.854-2.533a12.228 12.228 0 015.617 1.248q2.455 1.25 2.455 4.714v8.794q0 .916.035 2.216a2.786 2.786 0 00.299 1.337 1.788 1.788 0 00.739.58v.74h-5.452a5.539 5.539 0 01-.317-1.092q-.088-.51-.141-1.16a10.358 10.358 0 01-2.406 1.917 7.274 7.274 0 01-3.68.932 6.348 6.348 0 01-4.325-1.486 5.284 5.284 0 01-1.707-4.212 5.46 5.46 0 012.746-5.119 12.29 12.29 0 014.43-1.231zm3.065 2.339a5.54 5.54 0 01-.971.483 8.214 8.214 0 01-1.346.343l-1.141.211a7.498 7.498 0 00-2.304.687 2.288 2.288 0 00-1.184 2.128 2.225 2.225 0 00.723 1.855 2.75 2.75 0 001.759.571 5.24 5.24 0 003.027-.949 4.023 4.023 0 001.437-3.465zm8.284-5.769v-4.08h15.162v4.167l-9.407 10.888h9.74v4.115h-16.162v-3.904l9.502-11.187zm35.089 12.745q-2.427 2.997-7.37 2.996-4.942 0-7.369-2.996a11.893 11.893 0 010-14.4q2.427-3.042 7.37-3.04 4.941 0 7.369 3.04a11.891 11.891 0 010 14.4zm-4.01-2.77a8.951 8.951 0 000-8.878 4.454 4.454 0 00-6.763 0 8.89 8.89 0 000 8.878 4.44 4.44 0 006.763 0zm25.485-12.956q1.882 1.556 1.882 5.162v12.91h-5.135v-11.662a5.357 5.357 0 00-.402-2.321 2.821 2.821 0 00-2.794-1.478 3.463 3.463 0 00-3.474 2.163 7.478 7.478 0 00-.489 2.92v10.377h-5.012v-19.135h4.853v2.796a8.516 8.516 0 011.822-2.128 6.31 6.31 0 013.906-1.16 7.35 7.35 0 014.843 1.556zm36.126-3.263h-13.718v5.505h12.592v4.502h-12.592v6.666h14.351v4.661h-19.645v-25.924h19.012zm7.33-1.882a10.671 10.671 0 017.97-3.2q6.472 0 9.465 4.29a9.355 9.355 0 011.775 4.837h-5.417a7.383 7.383 0 00-1.328-2.814 5.34 5.34 0 00-4.29-1.689 5.288 5.288 0 00-4.566 2.384 11.646 11.646 0 00-1.67 6.745q0 4.363 1.763 6.533a5.527 5.527 0 004.481 2.173 5.08 5.08 0 004.25-1.864 8.184 8.184 0 001.342-3.008h5.382a11.676 11.676 0 01-3.559 6.895 10.356 10.356 0 01-7.334 2.655 11 11 0 01-8.699-3.588q-3.167-3.605-3.167-9.884 0-6.79 3.602-10.465zm40.15-2.041a6.417 6.417 0 012.427 1.812 8.075 8.075 0 011.303 2.182 7.263 7.263 0 01.48 2.725 7.769 7.769 0 01-.932 3.632 5.207 5.207 0 01-3.078 2.524 4.844 4.844 0 012.542 2.05 8.534 8.534 0 01.747 4.053v1.741a13.062 13.062 0 00.144 2.41 2.164 2.164 0 001 1.478v.65h-5.98q-.247-.861-.352-1.39a12.76 12.76 0 01-.229-2.233l-.035-2.409q-.034-2.48-.856-3.307a4.367 4.367 0 00-3.087-.827h-5.29v10.166H308v-25.924h12.4a11.302 11.302 0 014.09.667zm-11.196 3.835v6.965h5.83a6.19 6.19 0 002.605-.423 2.915 2.915 0 001.536-2.918 3.272 3.272 0 00-1.486-3.166 5.373 5.373 0 00-2.506-.457z" class="cls-1"/><path d="M313.746 107.844a96.233 96.233 0 11-96.234-96.233 96.27 96.27 0 0196.234 96.233z" class="cls-2"/><path d="M313.746 107.844H121.279v-7.877h192.467v7.877z" class="cls-2"/><path d="M313.746 99.967a96.233 96.233 0 11-96.234-96.234 96.27 96.27 0 0196.234 96.234z" class="cls-1"/><path d="M223.686 89.534h-12.455l-6.6-57.378h25.762l-6.707 57.378z" class="cls-3"/><path d="M273.187 131.69l4.897-4.045-17.991-26.933-39.387-13.732-3.194 21.716 35.449 3.406 20.226 19.588zm-111.35 0l-4.897-4.045 17.991-26.933 39.388-13.732 3.193 21.716-35.555 3.406-20.12 19.588zm73.559-99.534a17.855 17.855 0 110-.059v.06z" class="cls-3"/><path d="M217.512 15.975A16.287 16.287 0 10233.8 32.263a16.356 16.356 0 00-16.287-16.288zm0 35.662a19.48 19.48 0 1119.481-19.48 19.48 19.48 0 01-19.48 19.48z" class="cls-1"/><path d="M223.367 32.156a5.855 5.855 0 11-5.855-5.855 5.978 5.978 0 015.855 5.855z" class="cls-1"/><path d="M230.393 97.625a12.857 12.857 0 110-.047v.047z" class="cls-3"/><path d="M217.512 86.34a11.284 11.284 0 1011.284 11.285 11.29 11.29 0 00-11.284-11.284zm0 25.762a14.478 14.478 0 1114.478-14.477 14.493 14.493 0 01-14.478 14.477z" class="cls-1"/><path d="M221.45 97.625a3.939 3.939 0 11-3.938-3.939 4 4 0 013.939 3.939z" class="cls-1"/><path d="M259.029 173.206h-83.033v-45.881h83.033v45.881z" class="cls-3"/><path fill="#fcbf92" d="M186.428 169.481h-6.281v-38.43h6.281v38.43zm11.39 0h-6.28v-38.43h6.28v38.43zm11.391 0h-6.281v-38.43h6.281v38.43zm11.39 0h-6.28v-38.43h6.28v38.43zm11.497 0h-6.387v-38.43h6.387v38.43zm11.391 0H237.1v-38.43h6.387v38.43zm11.39 0h-6.387v-38.43h6.387v38.43z"/></svg>