<svg xmlns="http://www.w3.org/2000/svg" role="img" viewBox="100.69 -1.30 233.36 262.86"><title>amazon-ecr.input.svg logo</title><defs><style>.cls-1{fill:#f58534}.cls-2{fill:#9d5125}.cls-3{fill:#fff}</style></defs><path d="M115.156 229.89551h6.12939l9.17188 25.9248h-5.874l-1.71094-5.3291h-9.54692l-1.75732 5.3291h-5.6665zm-.357 16.12793h6.6392l-3.2749-10.20117zM157.27023 236.71973a5.57542 5.57542 0 012.23389 1.72363 5.50849 5.50849 0 011.09033 2.46191 17.04433 17.04433 0 01.17578 2.832l-.03516 12.083h-5.13575v-12.206a4.00846 4.00846 0 00-.35156-1.79395 2.5008 2.5008 0 00-2.4624-1.33691 2.88138 2.88138 0 00-2.8667 1.72363 5.40943 5.40943 0 00-.40479 2.19824v11.415h-5.04735v-11.415a6.411 6.411 0 00-.35205-2.47949 2.456 2.456 0 00-2.48-1.38965 2.9601 2.9601 0 00-2.88428 1.38965 5.34741 5.34741 0 00-.40479 2.35645v11.53809h-5.08249V236.68457h4.87158v2.79688a8.07708 8.07708 0 011.75879-2.12891 6.96288 6.96288 0 017.33447-.1582 5.6368 5.6368 0 011.65332 2.30469 6.36818 6.36818 0 012.44434-2.48047 7.464 7.464 0 013.44727-.791A6.67669 6.67669 0 01157.27023 236.71973zM172.9714 244.15918a7.93043 7.93043 0 002.002-.43945 1.50777 1.50777 0 001.081-1.4248 1.6846 1.6846 0 00-.8291-1.627 5.2421 5.2421 0 00-2.43359-.44824 3.19276 3.19276 0 00-2.54932.87988 3.6243 3.6243 0 00-.71338 1.75879h-4.83646a7.33615 7.33615 0 011.41309-4.13379q1.99585-2.53271 6.854-2.53223a12.22836 12.22836 0 015.61719 1.248q2.45508 1.24953 2.45508 4.71387v8.79395q0 .91555.03516 2.21582a2.78637 2.78637 0 00.29883 1.33691 1.78826 1.78826 0 00.73877.58105v.73828h-5.45216a5.53885 5.53885 0 01-.31689-1.09082q-.08789-.50974-.14062-1.16016a10.35838 10.35838 0 01-2.40576 1.917 7.27417 7.27417 0 01-3.67969.93163 6.34812 6.34812 0 01-4.32568-1.48633 5.28358 5.28358 0 01-1.707-4.21191 5.45942 5.45942 0 012.74609-5.11816A12.28971 12.28971 0 01171.2527 244.37zm3.06494 2.33984a5.5391 5.5391 0 01-.97168.4834 8.21369 8.21369 0 01-1.3457.34277l-1.14111.21094a7.49836 7.49836 0 00-2.3042.68652 2.288 2.288 0 00-1.18408 2.12793 2.22458 2.22458 0 00.72314 1.85547 2.75055 2.75055 0 001.75928.57129 5.24063 5.24063 0 003.02686-.94922 4.023 4.023 0 001.4375-3.46484zM184.32052 240.72949v-4.08008h15.16113v4.168l-9.40674 10.8877h9.74072v4.11523H183.65255V251.916l9.50293-11.18652zM219.40891 253.47461q-2.42725 2.99707-7.36914 2.99609-4.94312 0-7.36963-2.99609a11.893 11.893 0 010-14.40039q2.42725-3.041 7.36963-3.04 4.94165 0 7.36914 3.04A11.891 11.891 0 01219.40891 253.47461zm-4.00977-2.76953a8.951 8.951 0 000-8.87793 4.45445 4.45445 0 00-6.7627 0 8.89029 8.89029 0 000 8.87793 4.44 4.44 0 006.7627 0zM240.88351 237.749q1.88232 1.55564 1.88281 5.16211v12.90918h-5.13574v-11.6611a5.35666 5.35666 0 00-.40137-2.32129 2.82119 2.82119 0 00-2.79395-1.47754 3.463 3.463 0 00-3.47461 2.16309 7.478 7.478 0 00-.48828 2.91992v10.377h-5.0127V236.68457h4.85352v2.79688a8.51625 8.51625 0 011.82227-2.12891 6.31056 6.31056 0 013.90527-1.16016A7.34921 7.34921 0 01240.88351 237.749zM277.01047 234.48633H263.29172v5.50488h12.59277v4.502H263.29172v6.666h14.35156v4.66113H257.99777v-25.9248h19.0127zM284.33957 232.60449a10.67136 10.67136 0 017.96973-3.20117q6.47312 0 9.46582 4.291a9.35514 9.35514 0 011.77441 4.83691h-5.417a7.38308 7.38308 0 00-1.32715-2.81445 5.34079 5.34079 0 00-4.29-1.68848 5.28756 5.28756 0 00-4.56641 2.38379 11.64561 11.64561 0 00-1.6709 6.74512q0 4.3623 1.76367 6.5332a5.52737 5.52737 0 004.48145 2.17285 5.08036 5.08036 0 004.25-1.86426 8.18424 8.18424 0 001.3418-3.00781h5.38184a11.67566 11.67566 0 01-3.55859 6.89453 10.35571 10.35571 0 01-7.334 2.65526 11.00034 11.00034 0 01-8.69922-3.58789q-3.167-3.605-3.167-9.88379Q280.738 236.2798 284.33957 232.60449zM324.49 230.56348a6.41692 6.41692 0 012.42676 1.81152 8.07535 8.07535 0 011.30371 2.18164 7.26312 7.26312 0 01.48047 2.72559 7.76857 7.76857 0 01-.93262 3.63184 5.20727 5.20727 0 01-3.07812 2.52441 4.84424 4.84424 0 012.542 2.04883 8.53364 8.53364 0 01.74707 4.05371v1.74121a13.062 13.062 0 00.14355 2.41016 2.16362 2.16362 0 001 1.47754v.65039H323.1423q-.24612-.86133-.35156-1.38965a12.75987 12.75987 0 01-.22852-2.2334l-.03516-2.40918q-.03371-2.48-.85645-3.30664a4.36715 4.36715 0 00-3.08691-.82715h-5.29v10.166h-5.29395v-25.9248h12.39941A11.30194 11.30194 0 01324.49 230.56348zm-11.19629 3.835v6.96484h5.83008a6.18979 6.18979 0 002.60547-.42285 2.91542 2.91542 0 001.53613-2.91895 3.27235 3.27235 0 00-1.48633-3.166 5.37349 5.37349 0 00-2.50586-.457z" class="cls-1"/><path d="M313.74562,107.84429a96.23345,96.23345,0,1,1-96.23346-96.23344h0a96.26964,96.26964,0,0,1,96.23346,96.23344Z" class="cls-2"/><path d="M313.746 107.844L121.279 107.844 121.279 99.967 313.746 99.967 313.746 107.844z" class="cls-2"/><path d="M313.74562,99.96678A96.23345,96.23345,0,1,1,217.51218,3.73333h0a96.26964,96.26964,0,0,1,96.23346,96.23344Z" class="cls-1"/><path d="M223.686 89.534L211.231 89.534 204.631 32.156 230.393 32.156 223.686 89.534z" class="cls-3"/><path d="M273.187 131.69L278.084 127.645 260.093 100.712 220.706 86.98 217.512 108.696 252.961 112.102 273.187 131.69zM161.837 131.69L156.94 127.645 174.931 100.712 214.319 86.98 217.512 108.696 181.957 112.102 161.837 131.69zM235.39626 32.15626a17.85471 17.85471 0 110-.05882Q235.3963 32.12685 235.39626 32.15626z" class="cls-3"/><path d="M217.51218,15.97542a16.2873,16.2873,0,1,0,16.28729,16.28731h0A16.35587,16.35587,0,0,0,217.51218,15.97542Zm0,35.66173a19.48088,19.48088,0,1,1,19.4809-19.48088A19.48088,19.48088,0,0,1,217.51218,51.63715Z" class="cls-1"/><path d="M223.36708,32.15626a5.85491,5.85491,0,1,1-5.8549-5.85491h0A5.97836,5.97836,0,0,1,223.36708,32.15626Z" class="cls-1"/><path d="M230.393,97.62481a12.85721,12.85721,0,1,1,0-.04724Q230.39305,97.60119,230.393,97.62481Z" class="cls-3"/><path d="M217.51218,86.3408a11.284,11.284,0,1,0,11.284,11.284h0A11.2897,11.2897,0,0,0,217.51218,86.3408Zm0,25.7616a14.4776,14.4776,0,1,1,14.4776-14.4776h0A14.49271,14.49271,0,0,1,217.51218,112.1024Z" class="cls-1"/><path d="M221.45094,97.62481a3.93875,3.93875,0,1,1-3.93875-3.93875A3.99953,3.99953,0,0,1,221.45094,97.62481Z" class="cls-1"/><path d="M259.029 173.206L175.996 173.206 175.996 127.325 259.029 127.325 259.029 173.206z" class="cls-3"/><path fill="#fcbf92" d="M186.428 169.481L180.147 169.481 180.147 131.051 186.428 131.051 186.428 169.481zM197.818 169.481L191.538 169.481 191.538 131.051 197.818 131.051 197.818 169.481zM209.209 169.481L202.928 169.481 202.928 131.051 209.209 131.051 209.209 169.481zM220.599 169.481L214.319 169.481 214.319 131.051 220.599 131.051 220.599 169.481zM232.096 169.481L225.709 169.481 225.709 131.051 232.096 131.051 232.096 169.481zM243.487 169.481L237.1 169.481 237.1 131.051 243.487 131.051 243.487 169.481zM254.877 169.481L248.49 169.481 248.49 131.051 254.877 131.051 254.877 169.481z"/></svg>