<svg xmlns="http://www.w3.org/2000/svg" role="img" viewBox="23.24 23.49 429.26 126.76"><title>amazon-eks.input.svg logo</title><defs><linearGradient id="b" x1="0" x2="1" y1="0" y2="0" gradientTransform="scale(-281.224 281.224) rotate(58.747 -2.952 -1.176)" gradientUnits="userSpaceOnUse" spreadMethod="pad"><stop offset="0" stop-color="#4f66b9"/><stop offset="1" stop-color="#484fab"/></linearGradient><linearGradient id="d" x1="0" x2="1" y1="0" y2="0" gradientTransform="scale(-658.545 658.545) rotate(59.853 -1.447 -.937)" gradientUnits="userSpaceOnUse" spreadMethod="pad"><stop offset="0" stop-color="#4f66b9"/><stop offset="1" stop-color="#484fab"/></linearGradient><linearGradient id="f" x1="0" x2="1" y1="0" y2="0" gradientTransform="scale(-731.715 731.715) rotate(60.473 -.797 -.602)" gradientUnits="userSpaceOnUse" spreadMethod="pad"><stop offset="0" stop-color="#4c68bb"/><stop offset="1" stop-color="#5180c9"/></linearGradient><clipPath id="a" clipPathUnits="userSpaceOnUse"><path d="M525.438 782.113h33.964V681.938l97.801 100.175h44.836L594.727 671.742l114.097-127.355h-43.465L559.402 663.246V544.387h-33.964z"/></clipPath><clipPath id="c" clipPathUnits="userSpaceOnUse"><path d="M631.824 876.457l167.266-96.57c2.851-1.653 4.609-4.699 4.609-7.989V578.754c0-3.293 1.77-6.34 4.621-7.988l149.266-86.184c6.152-3.555 13.84.891 13.84 7.988v376.172c0 3.293-1.758 6.336-4.61 7.988l-325.761 188.08c-6.153 3.55-13.852-.89-13.852-7.99V884.445c0-3.289 1.762-6.336 4.621-7.988z"/></clipPath><clipPath id="e" clipPathUnits="userSpaceOnUse"><path d="M775.75 530.344l-167.266-96.571c-2.851-1.652-6.375-1.652-9.226 0L408.652 543.82c-2.851 1.653-4.621 4.7-4.621 7.989v220.097c0 3.293 1.77 6.336 4.621 7.989l167.266 96.574c2.859 1.648 4.617 4.695 4.617 7.984v172.367c0 7.1-7.695 11.54-13.847 7.99L240.926 876.73c-2.852-1.652-4.61-4.695-4.61-7.988V454.973c0-3.289 1.758-6.336 4.61-7.989l358.332-206.882c2.851-1.653 6.375-1.653 9.226 0l325.762 188.074c6.152 3.554 6.152 12.433 0 15.984L784.98 530.344c-2.863 1.652-6.378 1.652-9.23 0z"/></clipPath></defs><path fill="#232a3a" d="M163.10266 90.34974h12.18L169.164 72.632zm16.94134 14.56093l-3.21067-9.63386h-15.336l-3.1 9.63386h-6.756l14.03333-38.36826h7.308l13.816 38.36826H180.044m45.73333 0v-19.1c0-1.698-.33334-2.91666-.99734-3.65626-.664-.73707-1.75333-1.10574-3.26666-1.10574-1.14534 0-2.364.19267-3.65467.5796-1.29333.38814-2.41733.87774-3.37733 1.4672v21.8152h-6.532v-19.1c0-1.698-.33334-2.91666-.99734-3.65626-.664-.73707-1.75333-1.10574-3.268-1.10574-1.06933 0-2.22266.1744-3.46.526-1.236.34894-2.428.8584-3.57066 1.5208v21.8152h-6.532v-28.1808h5.424l.60933 2.82294c1.84534-1.2552 3.58934-2.17707 5.232-2.76827 1.64133-.59 3.29467-.88533 4.95733-.88533 3.43067 0 5.79334 1.27186 7.08534 3.81866 3.692-2.5468 7.23466-3.81866 10.63066-3.81866 2.62 0 4.65067.70986 6.08934 2.13013 1.44 1.42187 2.15866 3.48027 2.15866 6.17453v20.7068h-6.53066m22.15067-3.82133c1.044 0 2.14266-.22813 3.29333-.6912 1.14933-.46253 2.26533-1.11613 3.34533-1.96507v-5.3152c-1.90667-.4052-3.59867-.60933-5.07333-.60933-3.74267 0-5.612 1.4948-5.612 4.4844 0 1.29267.35866 2.29787 1.08 3.01667.71866.72186 1.708 1.07973 2.96666 1.07973zm7.46933 3.82133l-.49867-2.712c-1.29333 1.1052-2.72133 1.97494-4.28933 2.6016-1.57067.6276-3.12934.94107-4.68.94107-2.584 0-4.67867-.7744-6.284-2.32547-1.60534-1.55213-2.40667-3.562-2.40667-6.03493 0-2.73067.98533-4.90787 2.96-6.53387 1.976-1.624 4.62267-2.4364 7.94533-2.4364 1.956 0 4.09734.2776 6.42267.83067v-3.26507c0-1.8844-.40533-3.19173-1.21867-3.93133-.81066-.73853-2.23333-1.10773-4.26266-1.10773-2.88 0-6.18267.6088-9.90934 1.82653V78.1684c1.38934-.70147 3.08934-1.2552 5.1-1.65987 2.01067-.40467 4.02934-.60933 6.05867-.60933 3.68267 0 6.396.7396 8.144 2.21453 1.74667 1.47653 2.62133 3.7844 2.62133 6.9208v19.87613h-5.70266m9.908.00001v-4.81773l15.72533-18.38133h-15.16933v-4.98174h22.2v4.81614l-15.72267 18.38186h15.89067v4.9828h-22.924m39.31067-4.3188c4.65066 0 6.976-3.2672 6.976-9.80106 0-6.4948-2.32534-9.74214-6.976-9.74214-4.65067 0-6.976 3.24734-6.976 9.74214 0 6.53386 2.32533 9.80106 6.976 9.80106zm0 5.14947c-4.28267 0-7.62267-1.31867-10.02134-3.95933-2.40133-2.63907-3.59867-6.30054-3.59867-10.9912 0-4.6848 1.19734-8.34107 3.59867-10.96094 2.39867-2.6208 5.73867-3.93066 10.02133-3.93066 4.28267 0 7.62134 1.30986 10.02134 3.93066 2.39866 2.61987 3.59866 6.27614 3.59866 10.96094 0 4.69066-1.2 8.35213-3.59866 10.9912-2.4 2.64066-5.73867 3.95933-10.02134 3.95933m37.70267-.83067V86.25174c0-1.80827-.36667-3.1276-1.10667-3.95827-.73867-.8308-1.91867-1.2448-3.54267-1.2448-2.436 0-4.928.8104-7.47466 2.43494v21.42706h-6.53333v-28.1808h5.42533l.664 3.1c3.47067-2.6208 7.088-3.93066 10.852-3.93066 2.69466 0 4.744.70986 6.14533 2.13013 1.40267 1.42187 2.104 3.48027 2.104 6.17453v20.7068h-6.53333m19.656 0V66.54241h22.64533v2.93386h-19.37867v14.11827h16.60934v2.9348h-16.60934v15.44693H384.62v2.9344h-22.64533m29.17599 0V66.54241h3.268v17.7724l17.60666-17.7724h4.20934l-18.60534 18.712 20.15467 19.65626h-4.48667l-18.87866-18.38133v18.38133h-3.268M428.35732 85.532c-2.84133-1.10573-4.928-2.426-6.256-3.95733-1.32933-1.53226-1.99333-3.4244-1.99333-5.67546 0-3.06414 1.09733-5.54534 3.29333-7.44694 2.19734-1.90106 5.084-2.8516 8.66534-2.8516 1.62266 0 3.33066.1928 5.12133.58134 1.78933.3864 3.47867.93333 5.06667 1.63386v2.82294c-3.76534-1.32814-7.10667-1.99387-10.02134-1.99387-2.84266 0-5.02.6204-6.53466 1.8568-1.51467 1.236-2.26934 2.99893-2.26934 5.28547 0 1.29266.232 2.33586.69334 3.12866.46.79574 1.21866 1.51454 2.26933 2.1588 1.052.64747 2.55467 1.34014 4.512 2.07707l5.924 2.27093c2.65867 1.03227 4.596 2.2952 5.81333 3.7916 1.21867 1.4948 1.82667 3.36827 1.82667 5.61974 0 3.28493-1.20933 5.94386-3.62533 7.9724-2.41734 2.03026-5.60267 3.04426-9.55067 3.04426-4.09733 0-7.752-.7744-10.96133-2.32386v-2.82454c3.87466 1.40374 7.436 2.10414 10.684 2.10414 3.06266 0 5.508-.71974 7.336-2.15827 1.828-1.44067 2.74133-3.3964 2.74133-5.87027 0-1.51146-.49867-2.8048-1.496-3.87506-.996-1.07027-2.60133-2.02867-4.81733-2.88014l-6.42134-2.49066"/><g clip-path="url(#a)" transform="matrix(.13333 0 0 -.13333 0 173.987)"><path fill="url(#b)" d="M525.438 782.113h33.964V681.938l97.801 100.175h44.836L594.727 671.742l114.097-127.355h-43.465L559.402 663.246V544.387h-33.964v237.726"/></g><g clip-path="url(#c)" transform="matrix(.13333 0 0 -.13333 0 173.987)"><path fill="url(#d)" d="M631.824 876.457l167.266-96.57c2.851-1.653 4.609-4.699 4.609-7.989V578.754c0-3.293 1.77-6.34 4.621-7.988l149.266-86.184c6.152-3.555 13.84.891 13.84 7.988v376.172c0 3.293-1.758 6.336-4.61 7.988l-325.761 188.08c-6.153 3.55-13.852-.89-13.852-7.99V884.445c0-3.289 1.762-6.336 4.621-7.988"/></g><g clip-path="url(#e)" transform="matrix(.13333 0 0 -.13333 0 173.987)"><path fill="url(#f)" d="M775.75 530.344l-167.266-96.571c-2.851-1.652-6.375-1.652-9.226 0L408.652 543.82c-2.851 1.653-4.621 4.7-4.621 7.989v220.097c0 3.293 1.77 6.336 4.621 7.989l167.266 96.574c2.859 1.648 4.617 4.695 4.617 7.984v172.367c0 7.1-7.695 11.54-13.847 7.99L240.926 876.73c-2.852-1.652-4.61-4.695-4.61-7.988V454.973c0-3.289 1.758-6.336 4.61-7.989l358.332-206.882c2.851-1.653 6.375-1.653 9.226 0l325.762 188.074c6.152 3.554 6.152 12.433 0 15.984L784.98 530.344c-2.863 1.652-6.378 1.652-9.23 0"/></g></svg>