<svg xmlns="http://www.w3.org/2000/svg" role="img" viewBox="101.19 -1.56 232.12 263.12"><title>amazon-ecs.input.svg logo</title><defs><style>.cls-1{fill:#f58534}.cls-2{fill:#9d5125}.cls-3{fill:#6b3b19}</style></defs><path d="M115.51939 229.89551h6.12939l9.17188 25.9248h-5.874l-1.71094-5.3291h-9.5469l-1.75732 5.3291h-5.6665zm-.35693 16.12793h6.63916l-3.2749-10.20117zm42.47119-9.30371a5.57542 5.57542 0 012.23389 1.72363 5.50849 5.50849 0 011.09033 2.46191 17.04432 17.04432 0 01.17578 2.832l-.03516 12.083h-5.13574v-12.206a4.00846 4.00846 0 00-.35156-1.79395 2.5008 2.5008 0 00-2.4624-1.33691 2.88138 2.88138 0 00-2.8667 1.72363 5.40943 5.40943 0 00-.40479 2.19824v11.415h-5.04736v-11.415a6.41105 6.41105 0 00-.35205-2.47949 2.456 2.456 0 00-2.48-1.38965 2.9601 2.9601 0 00-2.88428 1.38965 5.34741 5.34741 0 00-.40479 2.35645v11.53809h-5.0825v-19.13576h4.87158v2.79688a8.07708 8.07708 0 011.75879-2.12891 6.96288 6.96288 0 017.33447-.1582 5.6368 5.6368 0 011.65332 2.30469 6.36818 6.36818 0 012.44434-2.48047 7.464 7.464 0 013.44727-.791 6.67676 6.67676 0 012.49756.49217zm15.70117 7.43945a7.93043 7.93043 0 002.002-.43945 1.50777 1.50777 0 001.081-1.4248 1.6846 1.6846 0 00-.8291-1.627 5.24226 5.24226 0 00-2.43359-.44824 3.19276 3.19276 0 00-2.54932.87988 3.6243 3.6243 0 00-.71338 1.75879H165.056a7.33615 7.33615 0 011.41309-4.13379q1.99585-2.53271 6.854-2.53223a12.22836 12.22836 0 015.61719 1.248q2.45508 1.24953 2.45508 4.71387v8.79395q0 .91555.03516 2.21582a2.78637 2.78637 0 00.29883 1.33691 1.78826 1.78826 0 00.73877.58105v.73828H177.016a5.53885 5.53885 0 01-.31689-1.09082q-.08788-.50974-.14062-1.16016a10.35837 10.35837 0 01-2.40576 1.917 7.27417 7.27417 0 01-3.67969.93163 6.34812 6.34812 0 01-4.32568-1.48633 5.28358 5.28358 0 01-1.707-4.21191 5.45942 5.45942 0 012.74609-5.11816 12.28971 12.28971 0 014.42969-1.23145zm3.06494 2.33984a5.5391 5.5391 0 01-.97168.4834 8.21369 8.21369 0 01-1.3457.34277l-1.14111.21094a7.49836 7.49836 0 00-2.3042.68652 2.288 2.288 0 00-1.18408 2.12793 2.22458 2.22458 0 00.72314 1.85547 2.75055 2.75055 0 001.75928.57129 5.24063 5.24063 0 003.02686-.94922 4.023 4.023 0 001.4375-3.46484zm8.28418-5.76953v-4.08008h15.16113v4.168l-9.40674 10.8877h9.74072v4.11523H184.016V251.916l9.50293-11.18652zm35.08838 12.74512q-2.42725 2.99707-7.36914 2.99609-4.94312 0-7.36963-2.99609a11.893 11.893 0 010-14.40039q2.42725-3.041 7.36963-3.04 4.94165 0 7.36914 3.04a11.89293 11.89293 0 010 14.40039zm-4.00977-2.76953a8.951 8.951 0 000-8.87793 4.45445 4.45445 0 00-6.7627 0 8.89029 8.89029 0 000 8.87793 4.44 4.44 0 006.7627 0zM241.246 237.749q1.88232 1.55564 1.88379 5.16211v12.90918H237.993v-11.6611a5.35666 5.35666 0 00-.40137-2.32129 2.82031 2.82031 0 00-2.79395-1.47754 3.46091 3.46091 0 00-3.47363 2.16309 7.47667 7.47667 0 00-.48926 2.91992v10.377h-5.01221v-19.1358h4.854v2.79688a8.49526 8.49526 0 011.82129-2.12891 6.3126 6.3126 0 013.90527-1.16016 7.3456 7.3456 0 014.84286 1.55662zm36.12789-3.26267h-13.71875v5.50488h12.59277v4.502h-12.59277v6.666h14.35156v4.66113h-19.64551v-25.9248h19.0127zm7.32911-1.88184a10.67136 10.67136 0 017.96973-3.20117q6.47314 0 9.46582 4.291a9.35514 9.35514 0 011.77441 4.83691h-5.417a7.38308 7.38308 0 00-1.32715-2.81445 5.34079 5.34079 0 00-4.29-1.68848 5.28756 5.28756 0 00-4.56641 2.38379 11.64561 11.64561 0 00-1.6709 6.74512q0 4.3623 1.76367 6.5332a5.52737 5.52737 0 004.48145 2.17285 5.08036 5.08036 0 004.25-1.86426 8.18424 8.18424 0 001.3418-3.00781h5.38184a11.67566 11.67566 0 01-3.55859 6.89453 10.35571 10.35571 0 01-7.334 2.65526 11.00034 11.00034 0 01-8.69922-3.58789q-3.167-3.605-3.167-9.88379-.00002-6.7895 3.60155-10.46481zm27.44139 15.21289a5.25766 5.25766 0 00.9873 2.65625q1.34766 1.60107 4.61523 1.60059a9.93936 9.93936 0 003.17871-.42187 3.01848 3.01848 0 002.31641-3.00781 2.21508 2.21508 0 00-1.13477-1.9873 12.27843 12.27843 0 00-3.59961-1.21387l-2.80664-.61523a17.5057 17.5057 0 01-5.68457-1.9873 6.32064 6.32064 0 01-2.62109-5.61133 7.45168 7.45168 0 012.56348-5.78613q2.56494-2.3042 7.53223-2.30371a11.549 11.549 0 017.07715 2.17188 7.72592 7.72592 0 013.07129 6.30566h-5.20605a3.71236 3.71236 0 00-2.0918-3.32422 7.1665 7.1665 0 00-3.22754-.65137 6.13694 6.13694 0 00-3.42578.84473 2.671 2.671 0 00-1.28027 2.35645 2.223 2.223 0 001.26172 2.0752 15.63949 15.63949 0 003.44434 1.07324l4.5498 1.07227a11.58282 11.58282 0 014.48438 1.88281 6.3417 6.3417 0 012.31738 5.29395 7.43817 7.43817 0 01-2.74609 5.90039q-2.74658 2.34814-7.75977 2.34766-5.11963 0-8.05371-2.3125a7.65375 7.65375 0 01-2.93262-6.3584z" class="cls-1"/><path d="M121.549 17.052l-11.489 5.689v162.185l11.489 5.689 45.287-83.435-45.287-90.128zm34.913 29.225l16.955-23.871 75.85 33.686-17.736 2.789-75.069-12.604zm-13.05 116.786l18.627 25.655 87.228-37.701-16.843-2.566-89.012 14.612z" class="cls-2"/><path d="M148.319 184.368l-26.77 6.247V17.052l26.77 6.135v161.181z" class="cls-1"/><path d="M134.265 10.694l14.054-7.027 26.436 111.432L148.319 204l-14.054-7.027V10.694zm97.155 137.534l17.847 2.789 16.285-45.399-16.285-49.526-17.847 2.789v89.347z" class="cls-2"/><path d="M175.648 196.303L148.319 204V3.667l27.329 7.808v184.828z" class="cls-1"/><path d="M267.895 147.559l-119.576 22.197V204l119.576-33.798v-22.643zm.223-87.897L148.319 36.907V3.667l119.799 34.021v21.974z" class="cls-1"/><path d="M249.267 32.334l19.186 5.242v132.626l-19.186 5.243V32.334z" class="cls-1"/><path d="M324.671 86.321l-51.422 2.454-18.182-1.227 51.98-41.941 17.624 40.714z" class="cls-3"/><path d="M255.067 87.548l51.98-3.012V45.607l-51.98 8.478v33.463z" class="cls-2"/><path d="M206.099 84.202l52.761-53.095 26.77 51.31-54.656 3.458-24.875-1.673z" class="cls-3"/><path d="M206.099 84.202l52.761-4.462V31.107l-52.761 12.269v40.826zm48.968 36.698l69.604 1.115-17.624 40.714-51.98-8.366V120.9z" class="cls-2"/><path d="M206.099 124.134l79.531 1.785-26.77 51.31-52.761-12.269v-40.826z" class="cls-2"/><path fill="#fcbf92" d="M206.099 124.134l52.761 4.462 26.77-2.677-54.656-3.458-24.875 1.673zm118.572-2.119l-51.422-2.342-18.182 1.227 51.98 2.9 17.624-1.785z"/><path d="M307.047 84.536l17.624 1.785V50.85l-17.624-5.243v38.929zm-21.417-2.119l-26.77-2.677V31.107l26.77 8.031v43.279zm21.417 41.383l17.624-1.785v35.471l-17.624 5.243V123.8zm-21.417 2.119l-26.77 2.677v48.633l26.77-8.031v-43.279z" class="cls-1"/></svg>