<svg xmlns="http://www.w3.org/2000/svg" role="img" viewBox="23.24 23.49 429.26 126.76"><title>amazon-eks.input.svg logo</title><defs><linearGradient id="b" x1="0" x2="1" y1="0" y2="0" gradientTransform="scale(-281.224 281.224) rotate(58.747 -2.952 -1.176)" gradientUnits="userSpaceOnUse" spreadMethod="pad"><stop offset="0" stop-color="#4f66b9" stop-opacity="1"/><stop offset="1" stop-color="#484fab" stop-opacity="1"/></linearGradient><linearGradient id="d" x1="0" x2="1" y1="0" y2="0" gradientTransform="scale(-658.545 658.545) rotate(59.853 -1.447 -.937)" gradientUnits="userSpaceOnUse" spreadMethod="pad"><stop offset="0" stop-color="#4f66b9" stop-opacity="1"/><stop offset="1" stop-color="#484fab" stop-opacity="1"/></linearGradient><linearGradient id="f" x1="0" x2="1" y1="0" y2="0" gradientTransform="scale(-731.715 731.715) rotate(60.473 -.797 -.602)" gradientUnits="userSpaceOnUse" spreadMethod="pad"><stop offset="0" stop-color="#4c68bb" stop-opacity="1"/><stop offset="1" stop-color="#5180c9" stop-opacity="1"/></linearGradient><clipPath id="a" clipPathUnits="userSpaceOnUse"><path d="M525.438 782.113h33.964V681.938l97.801 100.175h44.836L594.727 671.742l114.097-127.355h-43.465L559.402 663.246V544.387h-33.964z"/></clipPath><clipPath id="c" clipPathUnits="userSpaceOnUse"><path d="M631.824 876.457l167.266-96.57c2.851-1.653 4.609-4.699 4.609-7.989V578.754c0-3.293 1.77-6.34 4.621-7.988l149.266-86.184c6.152-3.555 13.84.891 13.84 7.988v376.172c0 3.293-1.758 6.336-4.61 7.988l-325.761 188.08c-6.153 3.55-13.852-.89-13.852-7.99V884.445c0-3.289 1.762-6.336 4.621-7.988z"/></clipPath><clipPath id="e" clipPathUnits="userSpaceOnUse"><path d="M775.75 530.344l-167.266-96.571c-2.851-1.652-6.375-1.652-9.226 0L408.652 543.82c-2.851 1.653-4.621 4.7-4.621 7.989v220.097c0 3.293 1.77 6.336 4.621 7.989l167.266 96.574c2.859 1.648 4.617 4.695 4.617 7.984v172.367c0 7.1-7.695 11.54-13.847 7.99L240.926 876.73c-2.852-1.652-4.61-4.695-4.61-7.988V454.973c0-3.289 1.758-6.336 4.61-7.989l358.332-206.882c2.851-1.653 6.375-1.653 9.226 0l325.762 188.074c6.152 3.554 6.152 12.433 0 15.984L784.98 530.344c-2.863 1.652-6.378 1.652-9.23 0z"/></clipPath></defs><g transform="matrix(1.33333 0 0 -1.33333 0 173.987) scale(.1)"><path fill="#232a3a" fill-opacity="1" fill-rule="nonzero" stroke="none" d="M1223.27 627.277h91.35l-45.89 132.883zm127.06-109.207l-24.08 72.254h-115.02l-23.25-72.254h-50.67l105.25 287.762h54.81l103.62-287.762h-50.66"/><path fill="#232a3a" fill-opacity="1" fill-rule="nonzero" stroke="none" d="M1693.33 518.07v143.25c0 12.735-2.5 21.875-7.48 27.422-4.98 5.528-13.15 8.293-24.5 8.293-8.59 0-17.73-1.445-27.41-4.347-9.7-2.911-18.13-6.583-25.33-11.004V518.07h-48.99v143.25c0 12.735-2.5 21.875-7.48 27.422-4.98 5.528-13.15 8.293-24.51 8.293-8.02 0-16.67-1.308-25.95-3.945-9.27-2.617-18.21-6.438-26.78-11.406V518.07h-48.99v211.356h40.68l4.57-21.172c13.84 9.414 26.92 16.328 39.24 20.762 12.31 4.425 24.71 6.64 37.18 6.64 25.73 0 43.45-9.539 53.14-28.64 27.69 19.101 54.26 28.64 79.73 28.64 19.65 0 34.88-5.324 45.67-15.976 10.8-10.664 16.19-26.102 16.19-46.309V518.07h-48.98"/><path fill="#232a3a" fill-opacity="1" fill-rule="nonzero" stroke="none" d="M1859.46 546.73c7.83 0 16.07 1.711 24.7 5.184 8.62 3.469 16.99 8.371 25.09 14.738v39.864c-14.3 3.039-26.99 4.57-38.05 4.57-28.07 0-42.09-11.211-42.09-33.633 0-9.695 2.69-17.234 8.1-22.625 5.39-5.414 12.81-8.098 22.25-8.098zm56.02-28.66l-3.74 20.34c-9.7-8.289-20.41-14.812-32.17-19.512-11.78-4.707-23.47-7.058-35.1-7.058-19.38 0-35.09 5.808-47.13 17.441-12.04 11.641-18.05 26.715-18.05 45.262 0 20.48 7.39 36.809 22.2 49.004 14.82 12.18 34.67 18.273 59.59 18.273 14.67 0 30.73-2.082 48.17-6.23v24.488c0 14.133-3.04 23.938-9.14 29.485-6.08 5.539-16.75 8.308-31.97 8.308-21.6 0-46.37-4.566-74.32-13.699v34.465c10.42 5.261 23.17 9.414 38.25 12.449 15.08 3.035 30.22 4.57 45.44 4.57 27.62 0 47.97-5.547 61.08-16.609 13.1-11.074 19.66-28.383 19.66-51.906V518.07h-42.77"/><path fill="#232a3a" fill-opacity="1" fill-rule="nonzero" stroke="none" d="M1989.79 518.07v36.133l117.94 137.86h-113.77v37.363h166.5v-36.121l-117.92-137.864h119.18V518.07h-171.93"/><path fill="#232a3a" fill-opacity="1" fill-rule="nonzero" stroke="none" d="M2284.62 550.461c34.88 0 52.32 24.504 52.32 73.508 0 48.711-17.44 73.066-52.32 73.066-34.88 0-52.32-24.355-52.32-73.066 0-49.004 17.44-73.508 52.32-73.508zm0-38.621c-32.12 0-57.17 9.89-75.16 29.695-18.01 19.793-26.99 47.254-26.99 82.434 0 35.136 8.98 62.558 26.99 82.207 17.99 19.656 43.04 29.48 75.16 29.48s57.16-9.824 75.16-29.48c17.99-19.649 26.99-47.071 26.99-82.207 0-35.18-9-62.641-26.99-82.434-18-19.805-43.04-29.695-75.16-29.695"/><path fill="#232a3a" fill-opacity="1" fill-rule="nonzero" stroke="none" d="M2567.39 518.07v139.942c0 13.562-2.75 23.457-8.3 29.687-5.54 6.231-14.39 9.336-26.57 9.336-18.27 0-36.96-6.078-56.06-18.262V518.07h-49v211.356h40.69l4.98-23.25c26.03 19.656 53.16 29.48 81.39 29.48 20.21 0 35.58-5.324 46.09-15.976 10.52-10.664 15.78-26.102 15.78-46.309V518.07h-49"/><path fill="#232a3a" fill-opacity="1" fill-rule="nonzero" stroke="none" d="M2714.81 518.07v287.762h169.84v-22.004h-145.34V677.941h124.57V655.93h-124.57V540.078h145.34V518.07h-169.84"/><path fill="#232a3a" fill-opacity="1" fill-rule="nonzero" stroke="none" d="M2933.63 518.07v287.762h24.51V672.539l132.05 133.293h31.57l-139.54-140.34 151.16-147.422h-33.65l-141.59 137.86V518.07h-24.51"/><path fill="#232a3a" fill-opacity="1" fill-rule="nonzero" stroke="none" d="M3212.68 663.41c-21.31 8.293-36.96 18.195-46.92 29.68-9.97 11.492-14.95 25.683-14.95 42.566 0 22.981 8.23 41.59 24.7 55.852 16.48 14.258 38.13 21.387 64.99 21.387 12.17 0 24.98-1.446 38.41-4.36 13.42-2.898 26.09-7 38-12.254v-21.172c-28.24 9.961-53.3 14.954-75.16 14.954-21.32 0-37.65-4.653-49.01-13.926-11.36-9.27-17.02-22.492-17.02-39.641 0-9.695 1.74-17.519 5.2-23.465 3.45-5.968 9.14-11.359 17.02-16.191 7.89-4.856 19.16-10.051 33.84-15.578l44.43-17.032c19.94-7.742 34.47-17.214 43.6-28.437 9.14-11.211 13.7-25.262 13.7-42.148 0-24.637-9.07-44.579-27.19-59.793-18.13-15.227-42.02-22.832-71.63-22.832-30.73 0-58.14 5.808-82.21 17.429v21.184c29.06-10.528 55.77-15.781 80.13-15.781 22.97 0 41.31 5.398 55.02 16.187 13.71 10.805 20.56 25.473 20.56 44.027 0 11.336-3.74 21.036-11.22 29.063-7.47 8.027-19.51 15.215-36.13 21.601l-48.16 18.68"/><g clip-path="url(#a)"><path fill="url(#b)" fill-opacity="1" fill-rule="nonzero" stroke="none" d="M525.438 782.113h33.964V681.938l97.801 100.175h44.836L594.727 671.742l114.097-127.355h-43.465L559.402 663.246V544.387h-33.964v237.726"/></g><g clip-path="url(#c)"><path fill="url(#d)" fill-opacity="1" fill-rule="nonzero" stroke="none" d="M631.824 876.457l167.266-96.57c2.851-1.653 4.609-4.699 4.609-7.989V578.754c0-3.293 1.77-6.34 4.621-7.988l149.266-86.184c6.152-3.555 13.84.891 13.84 7.988v376.172c0 3.293-1.758 6.336-4.61 7.988l-325.761 188.08c-6.153 3.55-13.852-.89-13.852-7.99V884.445c0-3.289 1.762-6.336 4.621-7.988"/></g><g clip-path="url(#e)"><path fill="url(#f)" fill-opacity="1" fill-rule="nonzero" stroke="none" d="M775.75 530.344l-167.266-96.571c-2.851-1.652-6.375-1.652-9.226 0L408.652 543.82c-2.851 1.653-4.621 4.7-4.621 7.989v220.097c0 3.293 1.77 6.336 4.621 7.989l167.266 96.574c2.859 1.648 4.617 4.695 4.617 7.984v172.367c0 7.1-7.695 11.54-13.847 7.99L240.926 876.73c-2.852-1.652-4.61-4.695-4.61-7.988V454.973c0-3.289 1.758-6.336 4.61-7.989l358.332-206.882c2.851-1.653 6.375-1.653 9.226 0l325.762 188.074c6.152 3.554 6.152 12.433 0 15.984L784.98 530.344c-2.863 1.652-6.378 1.652-9.23 0"/></g></g></svg>