<svg viewBox="32.88 -5.20 370.24 270.40" xmlns="http://www.w3.org/2000/svg"><defs><style>.cls-1{fill:#b7ca9d}.cls-2{fill:#4c622c}.cls-3{fill:#759c3f}</style></defs><path d="M305.536 141.015l-88.41-12.915-88.504 13.01 88.409 62.39 88.505-62.485z" class="cls-1"/><path d="M146.285 139.591l15.004 4.463 35.136-53.844-35.136-53.938-15.004 5.793v97.526z" class="cls-2"/><path d="M214.183 134.937l-52.894 9.307V36.272l52.894 11.965v86.7z" class="cls-3"/><path d="M190.632 153.075l-20.702-6.267V13.671L190.632 3.32l61.061 78.819-61.061 70.936z" class="cls-2"/><path d="M261.284 136.647l-70.652 16.523V3.32l70.652 27.539v105.788z" class="cls-3"/><path d="M217.031 172.447l-88.409-31.337v18.138l88.409 44.252v-31.053z" class="cls-2"/><path d="M305.536 159.248L217.031 203.5v-31.053l88.505-31.432v18.233z" class="cls-3"/><path d="M280.656 110.912h-21.461l-61.061 4.178 18.897 45.867 63.625-50.045z" class="cls-1"/><path d="M198.134 155.259l18.897 5.698v-43.872l-18.897-1.995v40.169z" class="cls-2"/><path d="M280.656 110.912l-63.625 6.173v43.872l63.625-19.087v-30.958z" class="cls-3"/><path fill="#779d3f" d="M50.87 229.896h6.129l9.171 25.924h-5.873l-1.711-5.329h-9.547l-1.758 5.33h-5.666zm-.358 16.127h6.64l-3.275-10.2zm42.471-9.303a5.575 5.575 0 0 1 2.234 1.723 5.508 5.508 0 0 1 1.09 2.462 17.044 17.044 0 0 1 .176 2.832l-.035 12.083h-5.135v-12.206a4.009 4.009 0 0 0-.352-1.794 2.5 2.5 0 0 0-2.462-1.337 2.881 2.881 0 0 0-2.867 1.724 5.41 5.41 0 0 0-.405 2.198v11.415H80.18v-11.415a6.411 6.411 0 0 0-.352-2.48 2.456 2.456 0 0 0-2.48-1.389 2.96 2.96 0 0 0-2.885 1.39 5.347 5.347 0 0 0-.404 2.356v11.538h-5.083v-19.135h4.872v2.796a8.077 8.077 0 0 1 1.759-2.128 6.963 6.963 0 0 1 7.334-.159 5.637 5.637 0 0 1 1.653 2.305 6.368 6.368 0 0 1 2.445-2.48 7.464 7.464 0 0 1 3.447-.791 6.677 6.677 0 0 1 2.497.492zm15.702 7.44a7.93 7.93 0 0 0 2.002-.44 1.508 1.508 0 0 0 1.08-1.425 1.685 1.685 0 0 0-.828-1.627 5.242 5.242 0 0 0-2.434-.448 3.193 3.193 0 0 0-2.55.88 3.624 3.624 0 0 0-.713 1.758h-4.836a7.336 7.336 0 0 1 1.413-4.133q1.996-2.533 6.854-2.533a12.228 12.228 0 0 1 5.617 1.248q2.455 1.25 2.455 4.714v8.794q0 .916.035 2.216a2.786 2.786 0 0 0 .3 1.337 1.788 1.788 0 0 0 .738.58v.74h-5.452a5.539 5.539 0 0 1-.317-1.092q-.088-.51-.14-1.16a10.358 10.358 0 0 1-2.407 1.917 7.274 7.274 0 0 1-3.68.932 6.348 6.348 0 0 1-4.325-1.486 5.284 5.284 0 0 1-1.707-4.212 5.46 5.46 0 0 1 2.746-5.119 12.29 12.29 0 0 1 4.43-1.231zm3.065 2.339a5.54 5.54 0 0 1-.972.483 8.214 8.214 0 0 1-1.346.343l-1.14.211a7.498 7.498 0 0 0-2.305.687 2.288 2.288 0 0 0-1.184 2.128 2.225 2.225 0 0 0 .723 1.855 2.75 2.75 0 0 0 1.76.571 5.24 5.24 0 0 0 3.026-.949 4.023 4.023 0 0 0 1.438-3.465zm8.284-5.769v-4.08h15.16v4.167l-9.406 10.888h9.74v4.115h-16.162v-3.904l9.503-11.187zm35.088 12.745q-2.427 2.997-7.369 2.996-4.943 0-7.37-2.996a11.893 11.893 0 0 1 0-14.4q2.428-3.042 7.37-3.04 4.942 0 7.37 3.04a11.893 11.893 0 0 1 0 14.4zm-4.01-2.77a8.951 8.951 0 0 0 0-8.878 4.454 4.454 0 0 0-6.762 0 8.89 8.89 0 0 0 0 8.878 4.44 4.44 0 0 0 6.762 0zm25.484-12.956q1.883 1.556 1.884 5.162v12.91h-5.137v-11.662a5.357 5.357 0 0 0-.401-2.321 2.82 2.82 0 0 0-2.794-1.478 3.462 3.462 0 0 0-3.474 2.163 7.477 7.477 0 0 0-.489 2.92v10.377h-5.013v-19.135h4.854v2.796a8.506 8.506 0 0 1 1.822-2.128 6.312 6.312 0 0 1 3.905-1.16 7.348 7.348 0 0 1 4.843 1.556zm19.432-5.145a10.671 10.671 0 0 1 7.97-3.2q6.473 0 9.466 4.29a9.355 9.355 0 0 1 1.774 4.837h-5.417a7.383 7.383 0 0 0-1.327-2.814 5.34 5.34 0 0 0-4.29-1.689 5.288 5.288 0 0 0-4.566 2.384 11.646 11.646 0 0 0-1.671 6.745q0 4.363 1.764 6.533a5.527 5.527 0 0 0 4.481 2.173 5.08 5.08 0 0 0 4.25-1.864 8.184 8.184 0 0 0 1.342-3.008h5.382a11.676 11.676 0 0 1-3.559 6.895 10.356 10.356 0 0 1-7.334 2.655 11 11 0 0 1-8.7-3.588q-3.166-3.605-3.166-9.884 0-6.79 3.601-10.465zm28.25 23.216h-5.012v-25.924h5.012zm20.877-2.345q-2.427 2.997-7.37 2.996-4.942 0-7.369-2.996a11.895 11.895 0 0 1 0-14.4q2.427-3.042 7.37-3.04 4.942 0 7.37 3.04a11.895 11.895 0 0 1 0 14.4zm-4.01-2.77a8.948 8.948 0 0 0 0-8.878 4.454 4.454 0 0 0-6.763 0 8.897 8.897 0 0 0 0 8.878 4.44 4.44 0 0 0 6.763 0zm15.02-14.055v11.555a6.09 6.09 0 0 0 .385 2.462 2.662 2.662 0 0 0 2.678 1.46 3.5 3.5 0 0 0 3.5-2.075 7.56 7.56 0 0 0 .49-2.973v-10.43h5.083v19.171h-4.872v-2.709q-.07.09-.35.529a3.52 3.52 0 0 1-.667.773 6.948 6.948 0 0 1-2.271 1.442 7.721 7.721 0 0 1-2.57.387q-4.243 0-5.717-3.06a11.73 11.73 0 0 1-.825-4.977V236.65zm27.174.307a6.083 6.083 0 0 1 2.198 2.12v-9.146h5.083v25.89h-4.87v-2.657a7.07 7.07 0 0 1-2.446 2.48 6.865 6.865 0 0 1-3.412.774 7.124 7.124 0 0 1-5.655-2.717 10.433 10.433 0 0 1-2.294-6.974 12.005 12.005 0 0 1 2.26-7.721 7.352 7.352 0 0 1 6.04-2.814 6.185 6.185 0 0 1 3.096.765zm1.231 13.657a6.996 6.996 0 0 0 1.109-4.097q0-3.519-1.777-5.03a3.829 3.829 0 0 0-2.533-.916 3.523 3.523 0 0 0-3.227 1.662 8.966 8.966 0 0 0 .017 8.372 3.54 3.54 0 0 0 3.175 1.592 3.7 3.7 0 0 0 3.236-1.583zm19.646-13.964h5.082l2.92 13.806 2.99-13.807h5.224l-5.558 19.171h-5.153l-3.008-13.965-3.043 13.965h-5.206l-5.382-19.17h5.382l2.99 13.753zm26.571 7.51a7.947 7.947 0 0 0 2.002-.44 1.508 1.508 0 0 0 1.081-1.425 1.685 1.685 0 0 0-.83-1.627 5.236 5.236 0 0 0-2.432-.448 3.193 3.193 0 0 0-2.55.88 3.62 3.62 0 0 0-.713 1.758h-4.837a7.336 7.336 0 0 1 1.413-4.133q1.997-2.533 6.853-2.533a12.224 12.224 0 0 1 5.618 1.248q2.455 1.25 2.455 4.714v8.794q0 .916.035 2.216a2.773 2.773 0 0 0 .3 1.337 1.79 1.79 0 0 0 .738.58v.74h-5.452a5.57 5.57 0 0 1-.317-1.092c-.06-.34-.105-.726-.14-1.16a10.361 10.361 0 0 1-2.406 1.917 7.273 7.273 0 0 1-3.68.932 6.345 6.345 0 0 1-4.325-1.486 5.282 5.282 0 0 1-1.707-4.212 5.459 5.459 0 0 1 2.746-5.119 12.284 12.284 0 0 1 4.43-1.231zm3.065 2.339a5.521 5.521 0 0 1-.972.483 8.227 8.227 0 0 1-1.346.343l-1.141.211a7.503 7.503 0 0 0-2.304.687 2.29 2.29 0 0 0-1.185 2.128 2.223 2.223 0 0 0 .724 1.855 2.75 2.75 0 0 0 1.759.571 5.241 5.241 0 0 0 3.027-.949 4.022 4.022 0 0 0 1.438-3.465zm7.404-6.103v-3.57h2.674v-5.347h4.96v5.346h3.112v3.57h-3.112v10.131a2.277 2.277 0 0 0 .299 1.47 3.292 3.292 0 0 0 1.829.29q.228 0 .483-.01t.501-.026v3.746l-2.374.088q-3.552.123-4.854-1.232a3.665 3.665 0 0 1-.844-2.655v-11.802zm25.433 3.13a4.44 4.44 0 0 0-.723-1.934 3.034 3.034 0 0 0-2.627-1.161 3.459 3.459 0 0 0-3.474 2.515 10.437 10.437 0 0 0-.493 3.543 9.603 9.603 0 0 0 .493 3.387 3.352 3.352 0 0 0 3.386 2.392 2.985 2.985 0 0 0 2.503-.95 4.71 4.71 0 0 0 .9-2.462h5.118a8.38 8.38 0 0 1-1.656 4.326 8.046 8.046 0 0 1-6.989 3.289q-4.63 0-6.813-2.743a11.084 11.084 0 0 1-2.183-7.116q0-4.932 2.411-7.676a8.4 8.4 0 0 1 6.655-2.744 10.028 10.028 0 0 1 5.908 1.619q2.296 1.617 2.72 5.715zm22.343-6.77a5.624 5.624 0 0 1 2.373 1.883 5.03 5.03 0 0 1 .963 2.21 27.444 27.444 0 0 1 .175 3.705v11.266h-5.118v-11.674a5.173 5.173 0 0 0-.524-2.5 2.625 2.625 0 0 0-2.584-1.338 3.543 3.543 0 0 0-2.994 1.33 6.12 6.12 0 0 0-1.021 3.794v10.388h-5.013v-25.837h5.013v9.146a6.131 6.131 0 0 1 2.512-2.33 7.084 7.084 0 0 1 3.004-.66 8.111 8.111 0 0 1 3.214.617z"/></svg>