<svg xmlns="http://www.w3.org/2000/svg" role="img" viewBox="101.19 -1.56 232.12 263.12"><title>amazon-ecs.input.svg logo</title><defs><style>.cls-1{fill:#f58534}.cls-2{fill:#9d5125}.cls-3{fill:#6b3b19}</style></defs><path d="M115.51939 229.89551h6.12939l9.17188 25.9248h-5.874l-1.71094-5.3291h-9.5469l-1.75732 5.3291H106.265zm-.35693 16.12793h6.63916l-3.2749-10.20117zM157.63365 236.71973a5.57542 5.57542 0 0 1 2.23389 1.72363 5.50849 5.50849 0 0 1 1.09033 2.46191 17.04432 17.04432 0 0 1 .17578 2.832l-.03516 12.083h-5.13574v-12.206a4.00846 4.00846 0 0 0-.35156-1.79395 2.5008 2.5008 0 0 0-2.4624-1.33691 2.88138 2.88138 0 0 0-2.8667 1.72363 5.40943 5.40943 0 0 0-.40479 2.19824v11.415h-5.04736v-11.415a6.41105 6.41105 0 0 0-.35205-2.47949 2.456 2.456 0 0 0-2.48-1.38965 2.9601 2.9601 0 0 0-2.88428 1.38965 5.34741 5.34741 0 0 0-.40479 2.35645v11.53809h-5.0825V236.68457h4.87158v2.79688a8.07708 8.07708 0 0 1 1.75879-2.12891 6.96288 6.96288 0 0 1 7.33447-.1582 5.6368 5.6368 0 0 1 1.65332 2.30469 6.36818 6.36818 0 0 1 2.44434-2.48047 7.464 7.464 0 0 1 3.44727-.791A6.67676 6.67676 0 0 1 157.63365 236.71973zM173.33482 244.15918a7.93043 7.93043 0 0 0 2.002-.43945 1.50777 1.50777 0 0 0 1.081-1.4248 1.6846 1.6846 0 0 0-.8291-1.627 5.24226 5.24226 0 0 0-2.43359-.44824 3.19276 3.19276 0 0 0-2.54932.87988 3.6243 3.6243 0 0 0-.71338 1.75879H165.056a7.33615 7.33615 0 0 1 1.41309-4.13379q1.99585-2.53271 6.854-2.53223a12.22836 12.22836 0 0 1 5.61719 1.248q2.45508 1.24953 2.45508 4.71387v8.79395q0 .91555.03516 2.21582a2.78637 2.78637 0 0 0 .29883 1.33691 1.78826 1.78826 0 0 0 .73877.58105v.73828H177.016a5.53885 5.53885 0 0 1-.31689-1.09082q-.08788-.50974-.14062-1.16016a10.35837 10.35837 0 0 1-2.40576 1.917 7.27417 7.27417 0 0 1-3.67969.93163 6.34812 6.34812 0 0 1-4.32568-1.48633 5.28358 5.28358 0 0 1-1.707-4.21191 5.45942 5.45942 0 0 1 2.74609-5.11816 12.28971 12.28971 0 0 1 4.42969-1.23145zm3.06494 2.33984a5.5391 5.5391 0 0 1-.97168.4834 8.21369 8.21369 0 0 1-1.3457.34277l-1.14111.21094a7.49836 7.49836 0 0 0-2.3042.68652 2.288 2.288 0 0 0-1.18408 2.12793 2.22458 2.22458 0 0 0 .72314 1.85547 2.75055 2.75055 0 0 0 1.75928.57129 5.24063 5.24063 0 0 0 3.02686-.94922 4.023 4.023 0 0 0 1.4375-3.46484zM184.68394 240.72949v-4.08008h15.16113v4.168l-9.40674 10.8877h9.74072v4.11523H184.016V251.916l9.50293-11.18652zM219.77232 253.47461q-2.42725 2.99707-7.36914 2.99609-4.94312 0-7.36963-2.99609a11.893 11.893 0 0 1 0-14.40039q2.42725-3.041 7.36963-3.04 4.94165 0 7.36914 3.04A11.89293 11.89293 0 0 1 219.77232 253.47461zm-4.00977-2.76953a8.951 8.951 0 0 0 0-8.87793 4.45445 4.45445 0 0 0-6.7627 0 8.89029 8.89029 0 0 0 0 8.87793 4.44 4.44 0 0 0 6.7627 0zM241.246 237.749q1.88232 1.55564 1.88379 5.16211v12.90918H237.993v-11.6611a5.35666 5.35666 0 0 0-.40137-2.32129 2.82031 2.82031 0 0 0-2.79395-1.47754 3.46091 3.46091 0 0 0-3.47363 2.16309 7.47667 7.47667 0 0 0-.48926 2.91992v10.377h-5.01221V236.68457h4.854v2.79688a8.49526 8.49526 0 0 1 1.82129-2.12891 6.3126 6.3126 0 0 1 3.90527-1.16016A7.3456 7.3456 0 0 1 241.246 237.749zM277.37389 234.48633H263.65514v5.50488h12.59277v4.502H263.65514v6.666H278.0067v4.66113H258.36119v-25.9248h19.0127zM284.703 232.60449a10.67136 10.67136 0 0 1 7.96973-3.20117q6.47314 0 9.46582 4.291a9.35514 9.35514 0 0 1 1.77441 4.83691h-5.417a7.38308 7.38308 0 0 0-1.32715-2.81445 5.34079 5.34079 0 0 0-4.29-1.68848 5.28756 5.28756 0 0 0-4.56641 2.38379 11.64561 11.64561 0 0 0-1.6709 6.74512q0 4.3623 1.76367 6.5332a5.52737 5.52737 0 0 0 4.48145 2.17285 5.08036 5.08036 0 0 0 4.25-1.86426 8.18424 8.18424 0 0 0 1.3418-3.00781h5.38184a11.67566 11.67566 0 0 1-3.55859 6.89453 10.35571 10.35571 0 0 1-7.334 2.65526 11.00034 11.00034 0 0 1-8.69922-3.58789q-3.167-3.605-3.167-9.88379Q281.10143 236.2798 284.703 232.60449zM312.14439 247.81738a5.25766 5.25766 0 0 0 .9873 2.65625q1.34766 1.60107 4.61523 1.60059a9.93936 9.93936 0 0 0 3.17871-.42187 3.01848 3.01848 0 0 0 2.31641-3.00781 2.21508 2.21508 0 0 0-1.13477-1.9873 12.27843 12.27843 0 0 0-3.59961-1.21387l-2.80664-.61523a17.5057 17.5057 0 0 1-5.68457-1.9873 6.32064 6.32064 0 0 1-2.62109-5.61133 7.45168 7.45168 0 0 1 2.56348-5.78613q2.56494-2.3042 7.53223-2.30371a11.549 11.549 0 0 1 7.07715 2.17188 7.72592 7.72592 0 0 1 3.07129 6.30566h-5.20605a3.71236 3.71236 0 0 0-2.0918-3.32422 7.1665 7.1665 0 0 0-3.22754-.65137 6.13694 6.13694 0 0 0-3.42578.84473 2.671 2.671 0 0 0-1.28027 2.35645 2.223 2.223 0 0 0 1.26172 2.0752 15.63949 15.63949 0 0 0 3.44434 1.07324l4.5498 1.07227a11.58282 11.58282 0 0 1 4.48438 1.88281 6.3417 6.3417 0 0 1 2.31738 5.29395 7.43817 7.43817 0 0 1-2.74609 5.90039q-2.74658 2.34814-7.75977 2.34766-5.11963 0-8.05371-2.3125a7.65375 7.65375 0 0 1-2.93262-6.3584z" class="cls-1"/><path d="M121.549 17.052L110.06 22.741 110.06 184.926 121.549 190.615 166.836 107.18 121.549 17.052zM156.462 46.277L173.417 22.406 249.267 56.092 231.531 58.881 156.462 46.277zM143.412 163.063L162.039 188.718 249.267 151.017 232.424 148.451 143.412 163.063z" class="cls-2"/><path d="M148.319 184.368L121.549 190.615 121.549 17.052 148.319 23.187 148.319 184.368z" class="cls-1"/><path d="M134.265 10.694L148.319 3.667 174.755 115.099 148.319 204 134.265 196.973 134.265 10.694zM231.42 148.228L249.267 151.017 265.552 105.618 249.267 56.092 231.42 58.881 231.42 148.228z" class="cls-2"/><path d="M175.648 196.303L148.319 204 148.319 3.667 175.648 11.475 175.648 196.303z" class="cls-1"/><path d="M267.895 147.559L148.319 169.756 148.319 204 267.895 170.202 267.895 147.559zM268.118 59.662L148.319 36.907 148.319 3.667 268.118 37.688 268.118 59.662z" class="cls-1"/><path d="M249.267 32.334L268.453 37.576 268.453 170.202 249.267 175.445 249.267 32.334z" class="cls-1"/><path d="M324.671 86.321L273.249 88.775 255.067 87.548 307.047 45.607 324.671 86.321z" class="cls-3"/><path d="M255.067 87.548L307.047 84.536 307.047 45.607 255.067 54.085 255.067 87.548z" class="cls-2"/><path d="M206.099 84.202L258.86 31.107 285.63 82.417 230.974 85.875 206.099 84.202z" class="cls-3"/><path d="M206.099 84.202L258.86 79.74 258.86 31.107 206.099 43.376 206.099 84.202zM255.067 120.9L324.671 122.015 307.047 162.729 255.067 154.363 255.067 120.9z" class="cls-2"/><path d="M206.099 124.134L285.63 125.919 258.86 177.229 206.099 164.96 206.099 124.134z" class="cls-2"/><path fill="#fcbf92" d="M206.099 124.134L258.86 128.596 285.63 125.919 230.974 122.461 206.099 124.134zM324.671 122.015L273.249 119.673 255.067 120.9 307.047 123.8 324.671 122.015z"/><path d="M307.047 84.536L324.671 86.321 324.671 50.85 307.047 45.607 307.047 84.536zM285.63 82.417L258.86 79.74 258.86 31.107 285.63 39.138 285.63 82.417zM307.047 123.8L324.671 122.015 324.671 157.486 307.047 162.729 307.047 123.8zM285.63 125.919L258.86 128.596 258.86 177.229 285.63 169.198 285.63 125.919z" class="cls-1"/></svg>