<svg xmlns="http://www.w3.org/2000/svg" role="img" viewBox="75.56 -1.69 282.88 263.38"><title>amazon-kinesis.input.svg logo</title><defs><style>.cls-1{fill:#fcbf91}.cls-2{fill:#9d5125}</style></defs><path d="M295.86 114.04l-81.9-3.4-81.9 3.4 81.9 37.7 81.9-37.7z" class="cls-1"/><path d="M132.06 102.44h98.5v-90.5l-16.3-8.2-82.2 40.9v57.8z" class="cls-2"/><path d="M296.16 143.24l-82.1-12-82 12 82.2 58.1 81.9-58.1z" class="cls-1"/><path d="M214.26 102.44h43.3v-61.6l-12.7-5.1-30.6 9v57.7z" class="cls-2"/><path d="M244.86 102.44h33.5v-40l-9.6-2.8-23.9 4v38.8z" class="cls-2"/><path d="M268.76 102.44h27.1l.3-46.2-8.2-3.3-19.2 3.5v46z" class="cls-2"/><path fill="#f58532" d="M230.56 11.94l-16.3-8.2v98.7h16.3v-90.5zm27 28.9l-12.7-5.1v66.7h12.7v-61.6zm20.8 21.6l-9.6-2.8v42.8h9.6v-40zm9.6-9.5l8.2 3.3v46.2h-8.2v-49.5zm7.9 78.4l-81.9 20.4v-29.5l81.9-8.2v17.3zm.3 11.9l-82.2 29v29.1l82.2-41.1v-17z"/><path d="M132.06 143.24l81.9 28.8v29.3l-81.9-40.9v-17.2zm0-29.2l81.9 8.2v29.5l-81.9-20.4v-17.3z" class="cls-2"/><path fill="#f58534" d="M96.56 230.14l9.5 25.5h-5.8l-1.9-5.7h-9.5l-2 5.7h-5.7l9.6-25.5zm.4 15.6l-3.2-9.4h-.1l-3.3 9.4zm15.8-8.6v2.5h.1a7.09562 7.09562 0 012.4-2.2 6.59651 6.59651 0 013.2-.8 6.83016 6.83016 0 013.2.7 4.3497 4.3497 0 012.2 2.4 7.39515 7.39515 0 012.2-2.1 6.04752 6.04752 0 013.3-.9 7.66411 7.66411 0 012.7.4 5.29126 5.29126 0 012.1 1.1 4.58123 4.58123 0 011.4 2.1 9.1386 9.1386 0 01.5 3.1v12.4h-5.1v-10.5a10.86868 10.86868 0 00-.1-1.8 3.25515 3.25515 0 00-.4-1.4 2.83652 2.83652 0 00-.9-1 3.86731 3.86731 0 00-1.7-.4 2.86129 2.86129 0 00-1.7.4 2.66036 2.66036 0 00-1 1.1 6.60577 6.60577 0 00-.5 1.5 9.70208 9.70208 0 00-.1 1.7v10.3h-5.1v-12a4.01252 4.01252 0 00-.3-1.5 2.44479 2.44479 0 00-.9-1.1 3.00679 3.00679 0 00-1.8-.4 3.7121 3.7121 0 00-.9.2 2.38378 2.38378 0 00-1.1.6 2.53953 2.53953 0 00-.9 1.3 4.81282 4.81282 0 00-.4 2.2v10.7h-5.1v-18.5h4.7zm28.1 2.7a6.06034 6.06034 0 012-1.9 7.9397 7.9397 0 012.7-1 15.527 15.527 0 013.1-.3 26.35361 26.35361 0 012.8.2 7.19719 7.19719 0 012.6.8 4.94409 4.94409 0 011.9 1.6 4.551 4.551 0 01.8 2.7v9.6a19.26932 19.26932 0 00.1 2.4 4.94064 4.94064 0 00.5 1.7h-5.1a2.9198 2.9198 0 01-.2-.9 2.76842 2.76842 0 01-.1-.9 7.88974 7.88974 0 01-2.9 1.8 12.70132 12.70132 0 01-3.4.5 10.07476 10.07476 0 01-2.5-.3 4.72479 4.72479 0 01-2-1 4.31024 4.31024 0 01-1.3-1.7 6.17513 6.17513 0 01-.5-2.5 5.26039 5.26039 0 01.6-2.6 4.3894 4.3894 0 011.4-1.6 6.10549 6.10549 0 012-.9 18.91591 18.91591 0 012.3-.5c.8-.1 1.5-.2 2.3-.3.7-.1 1.4-.2 2-.3a4.53986 4.53986 0 001.4-.6 1.656 1.656 0 00.5-1.2 2.5018 2.5018 0 00-.3-1.3 2.69565 2.69565 0 00-.7-.8 2.99441 2.99441 0 00-1-.4 5.28283 5.28283 0 00-1.3-.1 4.26521 4.26521 0 00-2.4.6 2.64971 2.64971 0 00-1 2.1h-5.1a5.46738 5.46738 0 01.8-2.9zm10 7.2c-.3.1-.7.2-1 .3-.4.1-.8.1-1.2.2a5.02018 5.02018 0 00-1.2.2c-.4.1-.8.2-1.1.3a3.1285 3.1285 0 00-1 .5 2.69565 2.69565 0 00-.7.8 2.13258 2.13258 0 00-.3 1.2 1.79631 1.79631 0 00.3 1.1 1.57556 1.57556 0 00.7.7 10.37177 10.37177 0 001 .4 4.8683 4.8683 0 001.2.1 4.61707 4.61707 0 002.3-.5 2.779 2.779 0 001.2-1.2 3.94192 3.94192 0 00.5-1.4 5.38441 5.38441 0 00.1-1.1v-1.9a4.11322 4.11322 0 00-.8.3zm18.3-6.1h-8.9v-3.8h15.6v3.8l-9.6 10.8h10.2v3.8h-17v-3.8zm10.2 1.5a10.75467 10.75467 0 011.9-3.1 9.26819 9.26819 0 013-2 10.0166 10.0166 0 013.9-.7 9.37387 9.37387 0 013.9.7 7.9121 7.9121 0 013 2 8.10862 8.10862 0 011.9 3.1 11.77865 11.77865 0 010 8 10.7545 10.7545 0 01-1.9 3.1 7.71408 7.71408 0 01-3 1.9 10.01633 10.01633 0 01-3.9.7 9.37412 9.37412 0 01-3.9-.7 9.06728 9.06728 0 01-3-1.9 8.10821 8.10821 0 01-1.9-3.1 11.77865 11.77865 0 010-8zm4.6 6.1a6.19064 6.19064 0 00.7 1.9 2.94906 2.94906 0 001.4 1.3 4.64828 4.64828 0 002.1.5 4.76722 4.76722 0 002.2-.5 4.35753 4.35753 0 001.4-1.3 6.19064 6.19064 0 00.7-1.9 14.97986 14.97986 0 00.2-2.2 16.35206 16.35206 0 00-.2-2.2 6.19064 6.19064 0 00-.7-1.9 3.53159 3.53159 0 00-1.4-1.3 4.767 4.767 0 00-2.2-.5 4.06391 4.06391 0 00-2.1.5 4.35753 4.35753 0 00-1.4 1.3 5.35964 5.35964 0 00-.7 1.9 14.97986 14.97986 0 00-.2 2.2 5.339 5.339 0 00.2 2.2zm21.9-11.4v2.6h.1a5.03432 5.03432 0 012.5-2.3 6.9898 6.9898 0 013.1-.7 7.48257 7.48257 0 013.3.6 5.06955 5.06955 0 013.2 3.9 14.82236 14.82236 0 01.3 3.1v11.4h-5.1v-10.4a6.16259 6.16259 0 00-.7-3.4 2.626 2.626 0 00-2.5-1.1 3.50965 3.50965 0 00-3 1.2 7.10491 7.10491 0 00-.9 4.1v9.7h-5.1v-18.5h4.8zm32.4-7v10.6l10-10.6h7l-10 10.1 10.9 15.4h-7l-7.7-11.5-3.2 3.2v8.2h-5.6v-25.5h5.6zm19.8 4.2v-4.2h5.1v4.2zm5.1 2.8v18.5h-5.1v-18.5zm8.8 0v2.6h.1a5.03432 5.03432 0 012.5-2.3 6.9898 6.9898 0 013.1-.7 7.48257 7.48257 0 013.3.6 5.06955 5.06955 0 013.2 3.9 14.82236 14.82236 0 01.3 3.1v11.4h-5.1v-10.4a6.16259 6.16259 0 00-.7-3.4 2.84522 2.84522 0 00-2.5-1.1 3.50965 3.50965 0 00-3 1.2 7.10491 7.10491 0 00-.9 4.1v9.7h-5.1v-18.5h4.8zm21.8 14.1a4.85913 4.85913 0 003.3 1.1 4.45726 4.45726 0 002.6-.8 4.02249 4.02249 0 001.4-1.6h4.5a8.65946 8.65946 0 01-3.3 4.8 11.15507 11.15507 0 01-9.3.7 7.91209 7.91209 0 01-3-2 10.75431 10.75431 0 01-1.9-3.1 12.27133 12.27133 0 01-.7-3.9 10.01658 10.01658 0 01.7-3.9 10.755 10.755 0 011.9-3.1 8.12541 8.12541 0 013-2.1 9.57206 9.57206 0 013.8-.8 8.85011 8.85011 0 014.1.9 8.49149 8.49149 0 012.9 2.4 8.62661 8.62661 0 011.6 3.5 13.94521 13.94521 0 01.4 4.1h-13.3a5.546 5.546 0 001.3 3.8zm5.7-9.8a3.42745 3.42745 0 00-2.8-1 3.966 3.966 0 00-2 .4 4.48572 4.48572 0 00-1.3 1 5.38731 5.38731 0 00-.7 1.3 7.38283 7.38283 0 00-.2 1.2h8.2a5.92923 5.92923 0 00-1.2-2.9zm13.6 9.6a2.83654 2.83654 0 00.9 1l1.2.6a6.75127 6.75127 0 001.4.2 4.10146 4.10146 0 001.1-.1 3.58313 3.58313 0 001.1-.4 2.69565 2.69565 0 00.8-.7 2.016 2.016 0 00.3-1.1c0-.8-.5-1.3-1.5-1.7a20.69187 20.69187 0 00-4.2-1.1c-.7-.2-1.5-.4-2.2-.6a6.63214 6.63214 0 01-1.9-.9 3.998 3.998 0 01-1.8-3.5 4.98964 4.98964 0 01.7-2.9 5.16229 5.16229 0 011.8-1.8 6.66665 6.66665 0 012.6-.9 28.50823 28.50823 0 012.9-.3 13.57532 13.57532 0 012.9.3 6.91279 6.91279 0 012.5 1 6.17314 6.17314 0 011.8 1.8 7.10553 7.10553 0 01.9 2.8h-4.8a2.27282 2.27282 0 00-1.1-2 6.0421 6.0421 0 00-2.4-.5 2.76864 2.76864 0 00-.9.1c-.3.1-.6.1-.9.2a1.79372 1.79372 0 00-.7.5 1.22235 1.22235 0 00-.3.9 1.43267 1.43267 0 00.5 1.1 3.99128 3.99128 0 001.3.7c.5.2 1.1.3 1.8.5a15.9863 15.9863 0 012.1.5c.7.2 1.5.4 2.2.6a11.08487 11.08487 0 011.9.9 4.70778 4.70778 0 011.3 1.5 4.76705 4.76705 0 01.5 2.2 6.17219 6.17219 0 01-.7 3.1 5.23538 5.23538 0 01-1.9 2 8.08356 8.08356 0 01-2.7 1.1 16.16689 16.16689 0 01-6.2 0 8.08356 8.08356 0 01-2.7-1.1 6.36488 6.36488 0 01-2-2 5.93774 5.93774 0 01-.8-3.1h4.8c.1.2.2.7.4 1.1zm15.1-16.7v-4.2h5.1v4.2zm5.1 2.8v18.5h-5.1v-18.5zm8.2 13.9a2.83639 2.83639 0 00.9 1l1.2.6a6.75127 6.75127 0 001.4.2 4.1014 4.1014 0 001.1-.1 3.58338 3.58338 0 001.1-.4 2.69478 2.69478 0 00.8-.7 2.01568 2.01568 0 00.3-1.1c0-.8-.5-1.3-1.5-1.7a20.69174 20.69174 0 00-4.2-1.1c-.7-.2-1.5-.4-2.2-.6a6.63214 6.63214 0 01-1.9-.9 3.998 3.998 0 01-1.8-3.5 4.98962 4.98962 0 01.7-2.9 5.16224 5.16224 0 011.8-1.8 6.66648 6.66648 0 012.6-.9 28.50779 28.50779 0 012.9-.3 13.57522 13.57522 0 012.9.3 6.9129 6.9129 0 012.5 1 6.1729 6.1729 0 011.8 1.8 7.10578 7.10578 0 01.9 2.8h-4.8a2.27279 2.27279 0 00-1.1-2 6.0421 6.0421 0 00-2.4-.5 2.76859 2.76859 0 00-.9.1c-.3.1-.6.1-.9.2a1.79377 1.79377 0 00-.7.5 1.2224 1.2224 0 00-.3.9 1.43269 1.43269 0 00.5 1.1 3.99121 3.99121 0 001.3.7c.5.2 1.1.3 1.8.5a15.98514 15.98514 0 012.1.5c.7.2 1.5.4 2.2.6a11.08541 11.08541 0 011.9.9 4.70738 4.70738 0 011.3 1.5 4.76724 4.76724 0 01.5 2.2 6.172 6.172 0 01-.7 3.1 5.23526 5.23526 0 01-1.9 2 8.08364 8.08364 0 01-2.7 1.1 16.167 16.167 0 01-6.2 0 8.084 8.084 0 01-2.7-1.1 6.3652 6.3652 0 01-2-2 5.93758 5.93758 0 01-.8-3.1h4.8c.1.2.2.7.4 1.1z"/></svg>