<svg xmlns="http://www.w3.org/2000/svg" role="img" viewBox="-0.17 -1.92 290.84 294.84"><title>ambassador.input.svg logo</title><style>svg {enable-background:new 0 0 290 294}</style><style>.st1{fill:#fff}.st2{fill:#333}</style><filter id="filter-1" width="130%" height="366.7%" x="-15%" y="-133.3%" filterUnits="objectBoundingBox"><feGaussianBlur in="SourceGraphic" stdDeviation="4"/></filter><g id="Page-1"><g id="Ambassador" transform="translate(-25 -10)"><g id="Group-4" transform="translate(0 4)"><g id="Group-2" transform="translate(12)"><g id="Group-17-Copy-2" transform="translate(0 54)"><g id="Group-16"><g id="Oval-8-Copy-10" filter="url(#filter-1)" opacity=".204"><ellipse cx="153.4" cy="187.5" rx="40" ry="4.5"/></g><g id="Group-12-Copy-8" transform="translate(52 164)"><path id="Line-Copy-18" d="M83.5,4.2c-0.7,0-1.2,0.6-1.2,1.2l0.5,14c0,0.7,0.6,1.2,1.2,1.2l5.6-0.2c0.7,0,1.2-0.6,1.2-1.2 l-0.5-14c0-0.7-0.6-1.2-1.2-1.2L83.5,4.2z"/><path id="Rectangle-7-Copy-15" d="M70.4,17.4c0-1.3,1.1-2.4,2.4-2.4H83c1.3,0,2.4,1.1,2.4,2.4l0,1.1c0,0.6-0.4,1-1,1 l-11.6,0.3C71.5,19.9,70.4,18.8,70.4,17.4L70.4,17.4z"/></g><g id="Group-12-Copy-10" transform="matrix(-1 0 0 1 117 164)"><path id="Line-Copy-18_1_" d="M-57.4,4.2c-0.7,0-1.2,0.6-1.2,1.2l0.5,14c0,0.7,0.6,1.2,1.2,1.2l5.6-0.2 c0.7,0,1.2-0.6,1.2-1.2l-0.5-14c0-0.7-0.6-1.2-1.2-1.2L-57.4,4.2z"/><path id="Rectangle-7-Copy-15_1_" d="M-70.4,17.4c0-1.3,1.1-2.4,2.4-2.4h10.2c1.3,0,2.4,1.1,2.4,2.4l0,1.1c0,0.6-0.4,1-1,1 L-68,19.8C-69.4,19.9-70.4,18.8-70.4,17.4L-70.4,17.4z"/></g><path id="Combined-Shape" d="M145.8,3c3.4,4.2,12.7,9.7,24.3,13.9c12,4.4,23,6.1,28.1,4.9c7,9.4,10.4,21.6,8.9,35l-11,92.4 c-1.4,12.1-12.5,21.9-24.6,21.9h-36c-12.1,0-23.2-9.8-24.6-21.9l-11-92.4C96.4,27.7,116.8,4,145.8,3z M156.6,3h2.7 c12.3,0,23.1,4.1,31.4,10.9c-1,2.5-9.4,1.7-18.8-1.8C164.2,9.3,158.1,5.6,156.6,3z"/><g id="Group" transform="translate(42 27)"><g id="Group-3" transform="translate(43)"><path id="Oval-3-Copy-4" d="M95.2,29.6c7.8-4.5,10.5-14.5,6-22.3c-4.5-7.8-28.3,16.4-28.3,16.4 S87.4,34.1,95.2,29.6z" class="st1"/><ellipse id="Oval-3-Copy-5" cx="82.2" cy="19.3" rx="5.3" ry="5.2"/></g><g id="Group-3-Copy" transform="matrix(-1 0 0 1 39 0)"><path id="Oval-3-Copy-4_1_" d="M-45.7,29.6c7.8-4.5,10.5-14.5,6-22.3s-28.3,16.4-28.3,16.4 S-53.5,34.1-45.7,29.6z" class="st1"/><ellipse id="Oval-3-Copy-5_1_" cx="-58.7" cy="19.3" rx="5.3" ry="-5.2"/></g></g><path id="Combined-Shape-Copy-13" d="M106.9,122.5l-5.7-10.7l1.8-0.9l5,9.5l1-2.1l-4.8-9.1l1.8-0.9l4.1,7.8l1-2.1l-3.9-7.4 l1.8-0.9l3.3,6.1l4.4-8.8c0,0-7.1-17.9-8.4-22.2C106,73.5,85,76,83.6,88.2c-1.4,12.3,18.7,43.4,18.7,43.4L106.9,122.5z"/><path id="Combined-Shape-Copy-4" d="M232.9,65.2L222.8,72l1.1,1.7l8.9-6l-0.1,2.3l-8.5,5.7l1.1,1.7l7.3-4.9l-0.1,2.3l-6.9,4.7 l1.1,1.7l5.7-3.9l-0.3,9.8c0,0-14.6,12.4-17.8,15.6c-5.4,5.4-22.7-6.7-18.2-18.2C200.8,73,233.2,55,233.2,55L232.9,65.2z"/><path id="Rectangle-2-Copy-18" d="M102.4 69L154 114.7 204.9 66.3 194.3 156.7 114.8 157.6z" class="st1"/><g id="Rectangle-2-Copy-17"><g><path id="path-2" d="M108 126.6L102.6 72.2 155.3 150.8 204.2 74.5 199.7 120 195.6 164.1 179.8 179.4 164.7 178.4 154.6 172.6 145.8 177.4 131.8 179.4 112.8 165z" class="st2"/></g><path fill="none" stroke="#000" d="M108.5,126.5l4.8,38.2l18.6,14.1l13.7-2l8.9-4.8l10.3,5.8l14.8,1l15.5-14.9l4.1-43.9l4.3-43.5 l-48.2,75.2l-52-77.6L108.5,126.5z"/></g><path id="Rectangle-4-Copy-7" fill="#f5a623" d="M152.2,59.4c0.8-0.8,2-0.8,2.8,0l9.9,9.9c0.8,0.8,0.6,1.8-0.4,2.3l-8.6,4.3 c-1,0.5-2.6,0.5-3.6,0.1l-9.6-4.4c-1-0.5-1.2-1.5-0.4-2.2L152.2,59.4z"/></g></g><g id="Group_1_" transform="rotate(20 46.248 262.283)"><path id="Shape" d="M115.2,21.5c0.1,1.4,0.2,2.9,0.4,4.3c0,2.6-8.2,4.8-18.3,4.8c-10.1,0-18.3-2.1-18.3-4.8h0 c0.2-1.4,0.3-2.8,0.4-4.3c-7.4,1.4-12.2,3.7-12.2,6.3c0,4.3,13.5,7.9,30.1,7.9c16.6,0,30.1-3.5,30.1-7.9 C127.3,25.2,122.6,22.9,115.2,21.5z"/><path id="Shape_1_" fill="#e54733" d="M116.5-7.5c-0.6,2.8-7.9,5-19.2,5c-11.4,0-18.7-2.2-19.2-5c0,0,2.2,17.3,1.4,34 c0.8,2.4,8.5,4.2,17.8,4.2c9.3,0,17-1.9,17.8-4.2C114.3,9.7,116.5-7.5,116.5-7.5z"/><path id="Shape-Copy" d="M118.5-14.2c-0.6,2.8-9.9,5-21.2,5c-11.4,0-20.7-2.2-21.2-5c0,0,4.2,17.3,3.4,34 c0.8,2.4,8.5,4.2,17.8,4.2c9.3,0,17-1.9,17.8-4.2C114.3,3.1,118.5-14.2,118.5-14.2z"/><path id="Shape_2_" d="M118.6-15.5c0,0.1,0,0.2,0,0.3c-0.6,2.8-9.9,5-21.2,5c-11.4,0-20.7-2.2-21.2-5c0-0.1,0-0.2,0-0.3 c0-2.9,9.5-5.3,21.3-5.3C109-20.8,118.6-18.4,118.6-15.5z"/></g><path id="Path-8-Copy" fill="#e64934" stroke="#000" d="M132.6,139.7c-0.9-0.6-1.6-0.2-1.5,0.9l2.1,26c0.1,1.1,0.9,1.5,1.8,0.9l39.7-27.5 c0.9-0.6,1.6-0.2,1.6,0.9v25.3c0,1.1-0.8,1.5-1.7,0.9L132.6,139.7z"/><g id="Group-2-Copy" transform="translate(81 174)"><circle id="Oval-10-Copy" cx="72.4" cy="5" r="2"/><circle id="Oval-10-Copy-2" cx="72.4" cy="13" r="2"/></g><g id="SR-71-Copy-4"><g transform="rotate(-56 108.896 180.164)"><path id="path-3" d="M133.7,239.1v-0.6c0-0.6,0.2-1.1,0.5-1.4c0.4-0.3,0.8-0.5,1.4-0.5c0.3,0,0.5,0,0.8,0 c0.9,0,1.7,0.1,2.3,0.4v1.5c-0.6-0.1-1.4-0.1-2.4-0.1c-0.3,0-0.5,0-0.6,0.1c-0.1,0-0.2,0.2-0.2,0.4v0.1c0,0.2,0,0.3,0.1,0.4 s0.2,0.1,0.5,0.1h0.9c0.8,0,1.3,0.3,1.7,1c0.1,0.3,0.2,0.7,0.2,1.1v0.3c0,1.5-0.7,2.2-2,2.2c-1,0-1.6,0-1.9,0 c-0.3,0-0.7-0.1-1.2-0.3v-1.5c0.7,0.1,1.6,0.1,2.6,0.1c0.2,0,0.4,0,0.5-0.1c0.1-0.1,0.1-0.2,0.1-0.3v-0.2c0-0.2,0-0.3-0.1-0.3 c-0.1-0.1-0.2-0.1-0.4-0.1h-0.9c-0.4,0-0.7-0.1-0.9-0.2c-0.3-0.1-0.5-0.3-0.6-0.4c-0.1-0.2-0.2-0.3-0.3-0.6 C133.7,239.8,133.7,239.4,133.7,239.1z M139.7,243.9v-7.3h3.3c0.7,0,1.3,0.2,1.7,0.5c0.4,0.4,0.6,1,0.6,1.8 c0,0.8-0.1,1.4-0.4,1.7c-0.1,0.1-0.2,0.3-0.3,0.3s-0.2,0.1-0.4,0.2l1.3,2.8h-2.2l-0.9-2.6l-0.6-0.1v2.7H139.7z M141.6,239.7 h1.1c0.2,0,0.4-0.1,0.4-0.2c0.1-0.1,0.1-0.3,0.1-0.6c0-0.3,0-0.5-0.1-0.6c-0.1-0.1-0.2-0.2-0.4-0.2l-1.1,0V239.7z M145.6,241.8v-1.5l3.1,0v1.5H145.6z M149.2,238.3v-1.7h4.8l0.5,0.8l-2.3,6.5h-2.1l2-5.6H149.2z M158,236.6v7.3l-1.9,0v-5.5 l-1.2,0.2v-1.2l1.2-0.8H158z" class="st2"/></g><g transform="rotate(-56 108.896 180.164)"><path id="path-3_1_" d="M133.7,239.1v-0.6c0-0.6,0.2-1.1,0.5-1.4c0.4-0.3,0.8-0.5,1.4-0.5c0.3,0,0.5,0,0.8,0 c0.9,0,1.7,0.1,2.3,0.4v1.5c-0.6-0.1-1.4-0.1-2.4-0.1c-0.3,0-0.5,0-0.6,0.1c-0.1,0-0.2,0.2-0.2,0.4v0.1c0,0.2,0,0.3,0.1,0.4 s0.2,0.1,0.5,0.1h0.9c0.8,0,1.3,0.3,1.7,1c0.1,0.3,0.2,0.7,0.2,1.1v0.3c0,1.5-0.7,2.2-2,2.2c-1,0-1.6,0-1.9,0 c-0.3,0-0.7-0.1-1.2-0.3v-1.5c0.7,0.1,1.6,0.1,2.6,0.1c0.2,0,0.4,0,0.5-0.1c0.1-0.1,0.1-0.2,0.1-0.3v-0.2c0-0.2,0-0.3-0.1-0.3 c-0.1-0.1-0.2-0.1-0.4-0.1h-0.9c-0.4,0-0.7-0.1-0.9-0.2c-0.3-0.1-0.5-0.3-0.6-0.4c-0.1-0.2-0.2-0.3-0.3-0.6 C133.7,239.8,133.7,239.4,133.7,239.1z M139.7,243.9v-7.3h3.3c0.7,0,1.3,0.2,1.7,0.5c0.4,0.4,0.6,1,0.6,1.8 c0,0.8-0.1,1.4-0.4,1.7c-0.1,0.1-0.2,0.3-0.3,0.3s-0.2,0.1-0.4,0.2l1.3,2.8h-2.2l-0.9-2.6l-0.6-0.1v2.7H139.7z M141.6,239.7 h1.1c0.2,0,0.4-0.1,0.4-0.2c0.1-0.1,0.1-0.3,0.1-0.6c0-0.3,0-0.5-0.1-0.6c-0.1-0.1-0.2-0.2-0.4-0.2l-1.1,0V239.7z M145.6,241.8v-1.5l3.1,0v1.5H145.6z M149.2,238.3v-1.7h4.8l0.5,0.8l-2.3,6.5h-2.1l2-5.6H149.2z M158,236.6v7.3l-1.9,0v-5.5 l-1.2,0.2v-1.2l1.2-0.8H158z"/></g></g><circle id="Oval-10" cx="135.4" cy="97" r="19" fill="#fff" fill-opacity=".2" stroke="#fff" stroke-width="2"/><path id="Path-9" fill="none" stroke="#fff" stroke-width="2" d="M116.9,93c0,0-4.9,11.4,3.6,32.9s6.6,31.3,6.6,31.3"/></g></g></g></g><g><path d="M25.5 253.5l12.4 33.1h-7.5l-2.5-7.4H15.5l-2.6 7.4H5.6l12.5-33.1H25.5zM25.9 273.8l-4.2-12.1h-.1l-4.3 12.1H25.9zM46.4 262.7v3.2h.1c.9-1.2 1.9-2.2 3.1-2.9 1.2-.7 2.6-1 4.2-1 1.5 0 2.9.3 4.1.9 1.3.6 2.2 1.6 2.8 3.1.7-1 1.7-2 2.9-2.8 1.2-.8 2.7-1.2 4.3-1.2 1.3 0 2.4.2 3.5.5 1.1.3 2 .8 2.8 1.5.8.7 1.4 1.6 1.8 2.7.4 1.1.6 2.4.6 4v16h-6.6V273c0-.8 0-1.6-.1-2.3-.1-.7-.2-1.3-.5-1.9-.3-.5-.7-.9-1.2-1.2-.5-.3-1.3-.5-2.2-.5-.9 0-1.7.2-2.2.5-.6.4-1 .8-1.3 1.4-.3.6-.5 1.2-.6 1.9-.1.7-.2 1.5-.2 2.2v13.3h-6.6v-13.4c0-.7 0-1.4 0-2.1 0-.7-.2-1.3-.4-1.9-.2-.6-.6-1.1-1.2-1.4-.5-.4-1.3-.5-2.4-.5-.3 0-.7.1-1.2.2-.5.1-1 .4-1.5.8-.5.4-.9.9-1.2 1.7-.3.7-.5 1.7-.5 2.8v13.9h-6.6v-23.9H46.4zM88.6 253.5v12h.1c.8-1.2 1.9-2.1 3.3-2.7 1.4-.6 2.8-.9 4.3-.9 1.2 0 2.4.2 3.6.7 1.2.5 2.2 1.2 3.2 2.3.9 1 1.7 2.3 2.3 3.9.6 1.6.9 3.5.9 5.7 0 2.2-.3 4.1-.9 5.7-.6 1.6-1.4 2.9-2.3 3.9-.9 1-2 1.8-3.2 2.3-1.2.5-2.4.7-3.6.7-1.8 0-3.3-.3-4.7-.8-1.4-.6-2.4-1.5-3.1-2.8h-.1v3.1H82v-33.1H88.6zM99.2 271.7c-.2-.9-.6-1.7-1-2.5-.5-.7-1-1.3-1.7-1.7-.7-.4-1.5-.6-2.5-.6-1 0-1.8.2-2.5.6-.7.4-1.3 1-1.8 1.7-.5.7-.8 1.5-1 2.5-.2.9-.3 1.9-.3 2.9 0 1 .1 1.9.3 2.9.2.9.6 1.7 1 2.5.5.7 1 1.3 1.8 1.7.7.4 1.5.6 2.5.6 1 0 1.8-.2 2.5-.6.7-.4 1.3-1 1.7-1.7.5-.7.8-1.5 1-2.5.2-.9.3-1.9.3-2.9C99.5 273.6 99.4 272.7 99.2 271.7zM111.2 266.2c.7-1 1.5-1.8 2.6-2.5 1-.6 2.2-1.1 3.5-1.3 1.3-.3 2.6-.4 4-.4 1.2 0 2.4.1 3.7.3 1.2.2 2.4.5 3.4 1 1 .5 1.9 1.2 2.5 2.1.6.9 1 2 1 3.5v12.5c0 1.1.1 2.1.2 3.1.1 1 .3 1.7.6 2.2h-6.7c-.1-.4-.2-.7-.3-1.1-.1-.4-.1-.8-.2-1.2-1 1.1-2.3 1.8-3.7 2.3-1.4.4-2.9.6-4.4.6-1.1 0-2.2-.1-3.2-.4-1-.3-1.9-.7-2.6-1.3-.7-.6-1.3-1.3-1.7-2.2s-.6-2-.6-3.2c0-1.4.2-2.5.7-3.4.5-.9 1.1-1.6 1.9-2.1.8-.5 1.6-.9 2.6-1.2 1-.3 2-.5 2.9-.6 1-.2 2-.3 2.9-.4 1-.1 1.8-.2 2.5-.4.7-.2 1.3-.5 1.8-.8.4-.4.6-.9.6-1.6 0-.7-.1-1.3-.3-1.7-.2-.4-.5-.7-.9-1-.4-.2-.8-.4-1.3-.5-.5-.1-1.1-.1-1.6-.1-1.3 0-2.3.3-3.1.8-.7.6-1.2 1.5-1.3 2.8H110C110.1 268.5 110.5 267.2 111.2 266.2zM124.1 275.5c-.4.1-.9.3-1.3.3-.5.1-1 .2-1.5.2-.5.1-1 .1-1.6.2-.5.1-1 .2-1.5.4-.5.2-.9.4-1.2.6-.4.3-.6.6-.9 1-.2.4-.3.9-.3 1.5 0 .6.1 1.1.3 1.5.2.4.5.7.9.9.4.2.8.4 1.3.5.5.1 1 .1 1.5.1 1.3 0 2.3-.2 3-.6.7-.4 1.2-.9 1.6-1.6.3-.6.5-1.2.6-1.8.1-.6.1-1.1.1-1.5v-2.5C124.9 275.1 124.6 275.3 124.1 275.5zM142.4 280.6c.3.5.7.9 1.1 1.2.5.3 1 .6 1.6.7.6.2 1.2.2 1.9.2.5 0 .9-.1 1.5-.2.5-.1 1-.3 1.4-.5.4-.2.8-.5 1-.9.3-.4.4-.9.4-1.5 0-1-.7-1.7-2-2.2-1.3-.5-3.1-1-5.5-1.5-1-.2-1.9-.5-2.8-.8-.9-.3-1.7-.7-2.4-1.2-.7-.5-1.3-1.1-1.7-1.8-.4-.7-.6-1.6-.6-2.7 0-1.5.3-2.8.9-3.8.6-1 1.4-1.8 2.4-2.3 1-.6 2.1-1 3.3-1.2 1.2-.2 2.5-.3 3.8-.3 1.3 0 2.6.1 3.8.4 1.2.2 2.3.7 3.3 1.2 1 .6 1.8 1.4 2.4 2.3.6 1 1 2.2 1.1 3.7H151c-.1-1.3-.6-2.1-1.4-2.6-.9-.4-1.9-.7-3.1-.7-.4 0-.8 0-1.2.1-.4 0-.8.1-1.2.3s-.7.4-.9.7c-.2.3-.4.7-.4 1.2 0 .6.2 1.1.6 1.4.4.4 1 .7 1.7.9.7.2 1.5.4 2.4.6.9.2 1.8.4 2.7.6 1 .2 1.9.5 2.8.8.9.3 1.7.7 2.4 1.2.7.5 1.3 1.1 1.7 1.9.4.8.6 1.7.6 2.8 0 1.6-.3 2.9-.9 4-.6 1.1-1.5 1.9-2.5 2.6-1 .6-2.2 1.1-3.5 1.4-1.3.3-2.6.4-4 .4-1.4 0-2.7-.1-4.1-.4-1.3-.3-2.5-.7-3.5-1.4s-1.9-1.5-2.5-2.6c-.7-1.1-1-2.4-1.1-4h6.3C141.9 279.5 142.1 280.1 142.4 280.6zM167.3 280.6c.3.5.7.9 1.1 1.2.5.3 1 .6 1.6.7.6.2 1.2.2 1.9.2.5 0 .9-.1 1.5-.2.5-.1 1-.3 1.4-.5.4-.2.8-.5 1-.9.3-.4.4-.9.4-1.5 0-1-.7-1.7-2-2.2-1.3-.5-3.1-1-5.5-1.5-1-.2-1.9-.5-2.8-.8-.9-.3-1.7-.7-2.4-1.2-.7-.5-1.3-1.1-1.7-1.8-.4-.7-.6-1.6-.6-2.7 0-1.5.3-2.8.9-3.8.6-1 1.4-1.8 2.4-2.3 1-.6 2.1-1 3.3-1.2 1.2-.2 2.5-.3 3.8-.3 1.3 0 2.6.1 3.8.4 1.2.2 2.3.7 3.3 1.2 1 .6 1.8 1.4 2.4 2.3.6 1 1 2.2 1.1 3.7h-6.3c-.1-1.3-.6-2.1-1.4-2.6-.9-.4-1.9-.7-3.1-.7-.4 0-.8 0-1.2.1-.4 0-.8.1-1.2.3-.4.2-.7.4-.9.7-.2.3-.4.7-.4 1.2 0 .6.2 1.1.6 1.4.4.4 1 .7 1.7.9.7.2 1.5.4 2.4.6.9.2 1.8.4 2.7.6 1 .2 1.9.5 2.8.8.9.3 1.7.7 2.4 1.2.7.5 1.3 1.1 1.7 1.9.4.8.6 1.7.6 2.8 0 1.6-.3 2.9-.9 4-.6 1.1-1.5 1.9-2.5 2.6-1 .6-2.2 1.1-3.5 1.4-1.3.3-2.6.4-4 .4-1.4 0-2.7-.1-4.1-.4-1.3-.3-2.5-.7-3.5-1.4s-1.9-1.5-2.5-2.6c-.7-1.1-1-2.4-1.1-4h6.3C166.8 279.5 167 280.1 167.3 280.6zM187.5 266.2c.7-1 1.5-1.8 2.6-2.5 1-.6 2.2-1.1 3.5-1.3 1.3-.3 2.6-.4 4-.4 1.2 0 2.4.1 3.7.3 1.2.2 2.4.5 3.4 1 1 .5 1.9 1.2 2.5 2.1.6.9 1 2 1 3.5v12.5c0 1.1.1 2.1.2 3.1.1 1 .3 1.7.6 2.2h-6.7c-.1-.4-.2-.7-.3-1.1-.1-.4-.1-.8-.2-1.2-1.1 1.1-2.3 1.8-3.7 2.3-1.4.4-2.9.6-4.4.6-1.1 0-2.2-.1-3.2-.4-1-.3-1.9-.7-2.6-1.3-.7-.6-1.3-1.3-1.7-2.2-.4-.9-.6-2-.6-3.2 0-1.4.2-2.5.7-3.4.5-.9 1.1-1.6 1.9-2.1.8-.5 1.6-.9 2.6-1.2 1-.3 2-.5 2.9-.6 1-.2 2-.3 2.9-.4 1-.1 1.8-.2 2.5-.4.7-.2 1.3-.5 1.8-.8.4-.4.6-.9.6-1.6 0-.7-.1-1.3-.3-1.7-.2-.4-.5-.7-.9-1-.4-.2-.8-.4-1.3-.5-.5-.1-1.1-.1-1.6-.1-1.3 0-2.3.3-3.1.8-.7.6-1.2 1.5-1.3 2.8h-6.6C186.4 268.5 186.8 267.2 187.5 266.2zM200.4 275.5c-.4.1-.9.3-1.3.3-.5.1-1 .2-1.5.2-.5.1-1.1.1-1.6.2-.5.1-1 .2-1.5.4-.5.2-.9.4-1.3.6-.4.3-.6.6-.9 1s-.3.9-.3 1.5c0 .6.1 1.1.3 1.5.2.4.5.7.9.9.4.2.8.4 1.3.5.5.1 1 .1 1.5.1 1.3 0 2.3-.2 3-.6.7-.4 1.2-.9 1.6-1.6.3-.6.5-1.2.6-1.8.1-.6.1-1.1.1-1.5v-2.5C201.2 275.1 200.9 275.3 200.4 275.5zM230.1 283.5c-.8 1.3-1.8 2.2-3 2.8-1.3.6-2.7.9-4.2.9-1.8 0-3.4-.3-4.7-1-1.4-.7-2.5-1.6-3.4-2.8-.9-1.2-1.5-2.6-2-4.1-.4-1.5-.7-3.1-.7-4.8 0-1.6.2-3.2.7-4.7.4-1.5 1.1-2.8 2-4 .9-1.1 2-2.1 3.3-2.8 1.3-.7 2.9-1 4.6-1 1.4 0 2.8.3 4.1.9 1.3.6 2.3 1.5 3 2.7h.1v-12h6.6v33.1h-6.2L230.1 283.5 230.1 283.5zM229.9 271.7c-.2-.9-.5-1.7-.9-2.4-.4-.7-1-1.3-1.7-1.7-.7-.4-1.6-.6-2.7-.6-1.1 0-2 .2-2.7.6-.7.4-1.3 1-1.8 1.7-.4.7-.8 1.5-1 2.4s-.3 1.9-.3 2.8c0 .9.1 1.9.3 2.8.2.9.6 1.8 1 2.5.5.7 1.1 1.3 1.8 1.8.7.4 1.6.7 2.6.7 1.1 0 2-.2 2.7-.6.7-.4 1.3-1 1.7-1.7.4-.7.7-1.6.9-2.5.2-.9.3-1.9.3-2.9C230.1 273.6 230.1 272.6 229.9 271.7zM241.6 269.4c.6-1.6 1.4-2.9 2.5-4 1.1-1.1 2.4-1.9 3.9-2.5 1.5-.6 3.2-.9 5.1-.9 1.9 0 3.6.3 5.1.9s2.8 1.5 3.9 2.5c1.1 1.1 1.9 2.4 2.5 4 .6 1.6.9 3.3.9 5.2 0 1.9-.3 3.6-.9 5.2-.6 1.5-1.4 2.9-2.5 4-1.1 1.1-2.4 1.9-3.9 2.5-1.5.6-3.2.9-5.1.9-1.9 0-3.6-.3-5.1-.9-1.5-.6-2.8-1.4-3.9-2.5-1.1-1.1-1.9-2.4-2.5-4-.6-1.5-.9-3.3-.9-5.2C240.7 272.7 241 271 241.6 269.4zM247.6 277.4c.2.9.5 1.7.9 2.5.4.7 1 1.3 1.8 1.7.7.4 1.7.6 2.8.6 1.1 0 2-.2 2.8-.6.8-.4 1.4-1 1.8-1.7.4-.7.8-1.5.9-2.5.2-.9.3-1.8.3-2.8 0-1-.1-1.9-.3-2.8-.2-.9-.5-1.7-.9-2.5-.4-.7-1.1-1.3-1.8-1.7-.8-.4-1.7-.7-2.8-.7-1.1 0-2 .2-2.8.7-.7.4-1.3 1-1.8 1.7-.4.7-.8 1.5-.9 2.5-.2.9-.3 1.9-.3 2.8C247.3 275.6 247.4 276.5 247.6 277.4zM276 262.7v4.4h.1c.3-.7.7-1.4 1.3-2.1.5-.6 1.1-1.2 1.8-1.6.7-.4 1.4-.8 2.2-1 .8-.2 1.6-.4 2.4-.4.4 0 .9.1 1.4.2v6.1c-.3-.1-.7-.1-1.1-.2-.4 0-.8-.1-1.2-.1-1.2 0-2.2.2-3.1.6-.8.4-1.5.9-2 1.6s-.9 1.5-1.1 2.4c-.2.9-.3 1.9-.3 3v10.8h-6.6v-23.9H276z"/></g></svg>