<svg xmlns="http://www.w3.org/2000/svg" role="img" viewBox="-3.93 0.07 295.36 85.86"><title>anchore.input.svg logo</title><style>.st0{fill:#FEFEFE;}</style><style>.st0{fill:#fefefe}</style><style>.st0{fill:#fefefe}</style><style>.st0{fill:#fefefe}</style><style>.st0{fill:#fefefe}</style><style>.st0{fill:#fefefe}</style><g id="KkbdBC.tif"><g><path d="M144,80.2c-46.7,0-93.4,0-140.1,0c-1.6,0-1.9-0.3-1.9-1.9C2.1,54.7,2.1,31.1,2,7.5c0-1.4,0.3-1.7,1.7-1.7 c93.5,0,187.1,0,280.6,0c1.4,0,1.7,0.3,1.7,1.7c-0.1,23.6-0.1,47.2,0,70.9c0,1.6-0.3,1.9-1.9,1.9C237.4,80.2,190.7,80.2,144,80.2z" class="st0"/><path d="M38.1 53.5c0 3.4.2 6.9 0 10.3-.5 8.8-5.2 14.2-14 15.6-7.3 1.1-14-.3-18.7-6.5-5.5-7.1-2.8-16.6 5.6-19.5 5.5-1.9 11.3-3.2 17-4.7 2.4-.6 3.6-1.6 3.4-4.3-.3-5.3-3.1-9-8.4-10.2-5-1.1-10 1.2-12.2 5.8-1.3 2.6-2.7 3.3-5.2 2.2C3.5 41.5 3 40.2 3.8 38c2.5-6.4 9.9-10.9 17.2-10.4 5.9.4 11 2.2 14.6 7.2 1.9 2.6 2.8 5.6 2.8 8.8 0 3.3 0 6.6 0 9.9C38.3 53.5 38.2 53.5 38.1 53.5zM249.5 54.8c.5-5.2-.1-9.3.5-13.4 1.1-7.1 5.3-11.5 12.2-13.2 5.5-1.3 10.9-.8 15.9 2.1 5.6 3.2 8.2 9.2 6.8 15.4-.9 4.2-3.7 6.6-7.5 8-4.9 1.9-10.1 2.7-15.1 4.2-.3.1-.6.1-.9.2-4.9 1.3-5.7 2.8-4.4 7.7 1.2 4.2 4.6 6.9 9.6 7.3 4.5.4 8.5-1.9 10.5-6 1.3-2.8 3.1-3.4 5.6-2 1.6.8 2.2 2 1.5 3.9-2.6 6.8-9.9 11-18.5 10.5-7.8-.4-14.2-5.4-15.8-12.4-.5-2-.4-4-.4-6.1C249.5 58.7 249.5 56.2 249.5 54.8zM128.6 68.6c0-4.9 0-9.3 0-13.8 0-14.9 0-29.8 0-44.7 0-2.9 1.1-4 4-3.8 2.3.1 3.2 1.1 3.2 3.4 0 6.1 0 12.2 0 18.3 0 .8 0 1.5 0 2.5 3-1.5 5.8-2.5 8.9-2.9 11.6-1.3 20.2 6.4 20.2 18.1 0 8.8 0 17.6 0 26.3 0 .7.3 1.6-.5 1.9-.6.3-1.1-.4-1.6-.8-3.2-2.5-5.3-5.5-5.2-9.9.2-6.3.2-12.6-.1-18.8-.4-6.7-4.9-10.7-11.1-10.5-6.1.2-10.3 4.7-10.5 11.3-.1 3.9-.3 7.9 0 11.8C136.3 62.7 133.2 65.8 128.6 68.6zM207.2 52.6c0 3.8.6 7.6-.1 11.3-2 9.5-11.3 15.3-21.3 13.4-9.2-1.8-14.7-8.2-14.6-17.6 0-5.7-.4-11.4.3-17.1 1-9 8.5-15.1 18.4-14.8 9.5.3 16.1 5.8 17.3 14.1C207.7 45.3 207.2 49 207.2 52.6zM86.6 52c.1-3.3-.4-7.3.4-11.1 1.8-8.2 9.7-13.9 18.3-13.3 8.6.6 15 5.3 17 12.4.6 2.3 0 3.5-2.1 4.2-2.4.8-4.4.1-4.9-2.1-1.4-5.6-7-8.7-12.2-8C97.5 35 94 39 93.9 45.1c-.1 5.2-.2 10.3 0 15.5.2 5.8 4 9.9 9.4 10.5 5.4.6 10.2-2.5 11.9-7.8.7-2.3 2.5-3.1 5-2.3 2 .7 2.7 1.9 2 4.2-2.1 7.9-10.3 13.1-19.3 12.3-10.1-.9-16.4-7.8-16.4-17.9C86.6 57.3 86.6 55 86.6 52zM80.6 68.3c-4.5-1.7-7.4-5.7-7.4-10.2 0-4.5.1-8.9-.1-13.4-.3-7.6-6.5-12-13.8-10.2-4.8 1.2-7.8 5.3-7.8 10.9-.1 6-.2 11.9 0 17.9.2 5.3-2.8 8.3-6.7 11-.7-.5-.6-1.2-.6-1.8 0-9.6-.1-19.3.2-28.9C44.6 34 52.8 27 63.3 27.7c11.2.7 17.3 7.5 17.3 18.7C80.6 53.7 80.6 61 80.6 68.3zM213.8 57.9c0-4.3-.1-8.6 0-12.9.2-7.3 3.3-12.8 10.1-15.8 6.6-2.9 15.6-1.4 20.5 3.2 2.2 2.1 2.7 3.9 1.4 5.5-1.7 2.1-3.9 2.1-5.8.1-3.6-3.8-7.9-4.8-12.3-3.1-4.1 1.6-6.5 5.5-6.6 10.7 0 6.4 0 12.7 0 19.1 0 4.3-2.8 7-6.1 9.2-1.4.9-1.1-.5-1.1-1.1C213.8 67.8 213.8 62.9 213.8 57.9z"/><path d="M31.2 54.3c-.2 3.8-.1 7.5-.6 11.1-.9 6.7-8.7 10-15.5 6.9-1.2-.6-2.3-1.2-3.3-2.2-3.6-4-2.3-9.5 2.7-11.3.6-.2 1.2-.4 1.8-.6C21.2 56.9 26.1 55.6 31.2 54.3zM257 53.1c0-3.4-.2-6.7 0-9.9.3-4.6 2.8-7.6 7-8.7 5.1-1.3 10.3.3 12.7 3.8 2.8 4.1 1.3 8.8-3.5 10.3C267.9 50.3 262.4 51.6 257 53.1zM178.6 52.2c0-2.6-.1-5.2 0-7.8.3-5.8 4.2-9.9 9.9-10.3 5.7-.5 10.5 2.9 11.3 8.6 1 6.5.9 13.2 0 19.7-.8 5.6-5.5 9-11.1 8.6-5.7-.4-9.7-4.2-10.1-9.9C178.4 58.2 178.6 55.2 178.6 52.2 178.6 52.2 178.6 52.2 178.6 52.2z" class="st0"/></g></g></svg>