<svg xmlns="http://www.w3.org/2000/svg" role="img" viewBox="-2.33 -2.33 121.29 25.41"><title>apache-openwhisk.input.svg logo</title><defs><style>.cls-3{fill:#325c80}.cls-5{isolation:isolate}.cls-6{fill:#29558f}</style></defs><g id="Symbols"><g id="Menu"><g id="apache-openwhisk"><g id="Group-23"><path fill="#008571" d="M25.276 0l-9.739.003 9.733 17.223 4.873-8.614L25.276 0z" id="Fill-1"/><path fill="#6eedd8" d="M15.538.003l-4.78 8.61 9.648-.004L15.538.003z" id="Fill-2"/><path d="M0 11.076l4.82 8.612 9.646-.004-9.64-17.223L0 11.076z" class="cls-3" id="Fill-3"/><path fill="#5aaafa" d="M9.646 11.077l4.82 8.608 4.825-8.611-9.645.003z" id="Fill-4"/></g><g id="TM" class="cls-5"><g class="cls-5"><path d="M113.313 8.484h-.913V11h-.423V8.484h-.916v-.356h2.252zm3.433-.356V11h-.372V8.956l.003-.098c.002-.035.004-.07.008-.106l-.957 1.754a.162.162 0 01-.155.098h-.06a.157.157 0 01-.15-.098l-.975-1.76a2.015 2.015 0 01.012.21V11h-.373V8.128h.315a.282.282 0 01.087.01.12.12 0 01.059.062l.96 1.72a1.947 1.947 0 01.098.226 1.827 1.827 0 01.098-.228l.942-1.718a.115.115 0 01.058-.061.275.275 0 01.086-.011z" class="cls-6"/></g></g><path d="M48.349 13.473a5.79 5.79 0 01-.357 2.068 4.737 4.737 0 01-1.008 1.62 4.505 4.505 0 01-1.565 1.054 5.623 5.623 0 01-4.035 0 4.513 4.513 0 01-1.561-1.053 4.737 4.737 0 01-1.008-1.62 6.171 6.171 0 010-4.138 4.775 4.775 0 011.008-1.624 4.53 4.53 0 011.561-1.06 5.574 5.574 0 014.035 0 4.522 4.522 0 011.565 1.06 4.775 4.775 0 011.008 1.624 5.79 5.79 0 01.357 2.069zm-1.393 0a5.098 5.098 0 00-.252-1.66 3.509 3.509 0 00-.714-1.242 3.098 3.098 0 00-1.12-.78 4.075 4.075 0 00-2.933 0 3.132 3.132 0 00-1.123.78 3.48 3.48 0 00-.718 1.243 5.098 5.098 0 00-.252 1.659 5.066 5.066 0 00.252 1.655 3.485 3.485 0 00.718 1.24 3.095 3.095 0 001.123.776 4.125 4.125 0 002.933 0 3.062 3.062 0 001.12-.777 3.514 3.514 0 00.714-1.239 5.066 5.066 0 00.252-1.655zm4.151 3.304a2.013 2.013 0 00.749.65 2.13 2.13 0 00.91.19 1.795 1.795 0 001.526-.707 3.302 3.302 0 00.532-2.016 5.03 5.03 0 00-.122-1.19 2.327 2.327 0 00-.354-.816 1.375 1.375 0 00-.567-.465 1.886 1.886 0 00-.763-.147 2.007 2.007 0 00-1.067.28 3.077 3.077 0 00-.844.79zm-.063-4.284a3.673 3.673 0 011.036-.89 2.66 2.66 0 011.344-.335 2.576 2.576 0 011.113.234 2.28 2.28 0 01.847.693 3.323 3.323 0 01.539 1.138 5.838 5.838 0 01.189 1.56 4.893 4.893 0 01-.21 1.46 3.517 3.517 0 01-.606 1.17 2.801 2.801 0 01-2.25 1.06 2.59 2.59 0 01-1.117-.22 2.624 2.624 0 01-.822-.613v3.136h-1.253v-9.492h.749a.308.308 0 01.329.259zm11.403 1.673a2.457 2.457 0 00-.123-.795 1.784 1.784 0 00-.357-.623 1.593 1.593 0 00-.57-.406 2.158 2.158 0 00-2.18.378 2.443 2.443 0 00-.648 1.446zm1.008 3.325a2.367 2.367 0 01-.553.486 3.443 3.443 0 01-.69.34 4.38 4.38 0 01-.759.2 4.639 4.639 0 01-.777.066 3.606 3.606 0 01-1.355-.249 2.973 2.973 0 01-1.07-.728 3.34 3.34 0 01-.704-1.186 4.825 4.825 0 01-.252-1.624 4.132 4.132 0 01.227-1.386 3.267 3.267 0 01.655-1.117 3.013 3.013 0 011.043-.742 3.424 3.424 0 011.386-.27 3.193 3.193 0 011.18.214 2.668 2.668 0 01.937.616 2.822 2.822 0 01.62.994 3.786 3.786 0 01.224 1.348.813.813 0 01-.063.392.262.262 0 01-.238.098h-4.739a4.146 4.146 0 00.185 1.169 2.348 2.348 0 00.459.83 1.851 1.851 0 00.7.496 2.404 2.404 0 00.91.165 2.67 2.67 0 00.808-.109 3.847 3.847 0 00.585-.234 4.459 4.459 0 00.41-.235.543.543 0 01.283-.108.274.274 0 01.238.119zm2.814-5.068a4.208 4.208 0 01.49-.47 3.23 3.23 0 01.55-.36 2.79 2.79 0 01.615-.23 2.925 2.925 0 01.704-.081 2.56 2.56 0 011.026.192 1.984 1.984 0 01.742.546 2.411 2.411 0 01.451.85 3.701 3.701 0 01.154 1.1v4.515h-1.253V13.97a1.909 1.909 0 00-.367-1.25 1.365 1.365 0 00-1.117-.444 2.094 2.094 0 00-1.032.266 3.4 3.4 0 00-.886.72v5.223h-1.253v-7.091h.749a.308.308 0 01.329.259zm19.285-3.97l-3.129 10.032h-1.218l-2.541-7.651q-.035-.112-.067-.238l-.066-.266q-.035.14-.07.266t-.07.238l-2.555 7.65H74.62l-3.129-10.03h1.127a.496.496 0 01.304.09.404.404 0 01.158.232l2.072 6.972q.049.189.095.406t.087.462q.049-.245.102-.466t.115-.402l2.359-6.972a.512.512 0 01.165-.22.451.451 0 01.297-.102h.392a.452.452 0 01.294.09.56.56 0 01.168.232l2.352 6.972q.063.182.115.392t.102.44q.035-.23.077-.44t.091-.392l2.079-6.972a.438.438 0 01.157-.224.461.461 0 01.298-.098zm2.387 3.886a3.763 3.763 0 011.008-.77 2.727 2.727 0 011.274-.287 2.56 2.56 0 011.026.192 1.984 1.984 0 01.741.546 2.411 2.411 0 01.452.85 3.701 3.701 0 01.154 1.1v4.515h-1.253V13.97a1.909 1.909 0 00-.367-1.25 1.365 1.365 0 00-1.117-.444 2.094 2.094 0 00-1.032.266 3.4 3.4 0 00-.886.72v5.223h-1.253V8.174h1.253zm7.875-.945v7.09H94.57v-7.09zm.266-2.226a.793.793 0 01-.073.34.977.977 0 01-.196.28.9.9 0 01-.287.192.876.876 0 01-.347.07.826.826 0 01-.34-.07.88.88 0 01-.276-.193.955.955 0 01-.189-.28.826.826 0 01-.07-.34.876.876 0 01.07-.346.93.93 0 01.189-.287.88.88 0 01.277-.192.826.826 0 01.339-.07.876.876 0 01.346.07.9.9 0 01.288.192.95.95 0 01.196.287.84.84 0 01.073.347zm5.908 3.395a.276.276 0 01-.259.154.487.487 0 01-.238-.077q-.133-.077-.325-.172a3.057 3.057 0 00-.459-.175 2.187 2.187 0 00-.63-.08 1.86 1.86 0 00-.567.08 1.362 1.362 0 00-.43.22.975.975 0 00-.273.326.874.874 0 00-.095.403.67.67 0 00.158.455 1.369 1.369 0 00.416.315 3.63 3.63 0 00.588.234q.329.102.676.217t.675.256a2.451 2.451 0 01.588.35 1.6 1.6 0 01.417.514 1.575 1.575 0 01.157.732 2.316 2.316 0 01-.175.906 1.978 1.978 0 01-.518.721 2.498 2.498 0 01-.84.48 3.451 3.451 0 01-1.148.175 3.58 3.58 0 01-1.344-.242 3.405 3.405 0 01-1.022-.62l.294-.475a.427.427 0 01.133-.14.359.359 0 01.196-.05.47.47 0 01.266.099q.14.098.34.217a2.583 2.583 0 00.486.217 2.234 2.234 0 00.714.098 1.948 1.948 0 00.637-.095 1.338 1.338 0 00.455-.255 1.012 1.012 0 00.27-.371 1.153 1.153 0 00.087-.448.743.743 0 00-.157-.487 1.33 1.33 0 00-.417-.329 3.394 3.394 0 00-.592-.238q-.332-.101-.679-.213t-.679-.256a2.387 2.387 0 01-.591-.36 1.633 1.633 0 01-.417-.536 1.732 1.732 0 01-.157-.773 1.887 1.887 0 01.168-.78 1.914 1.914 0 01.49-.659 2.413 2.413 0 01.791-.451 3.165 3.165 0 011.071-.168 3.387 3.387 0 011.256.22 2.974 2.974 0 01.963.606zm3.185-4.39v6.07h.322a.624.624 0 00.235-.039.57.57 0 00.199-.157l2.24-2.401a.84.84 0 01.206-.186.552.552 0 01.291-.066h1.127l-2.611 2.779a1.578 1.578 0 01-.406.37 1.29 1.29 0 01.227.193 1.792 1.792 0 01.193.249l2.772 3.5h-1.113a.664.664 0 01-.277-.053.462.462 0 01-.199-.192l-2.331-2.905a.555.555 0 00-.206-.193.803.803 0 00-.312-.045h-.357v3.388h-1.253V8.174z" class="cls-6" id="OpenWhisk"/><path d="M42.29 4.128l-.745-1.95a4.346 4.346 0 01-.162-.504q-.038.15-.078.28t-.079.231l-.742 1.942zM43.764 6h-.575a.255.255 0 01-.16-.049.275.275 0 01-.092-.126l-.444-1.165h-2.215l-.445 1.165a.284.284 0 01-.091.12.247.247 0 01-.161.055h-.574L41.009.974h.752zm3.023-2.44a1.543 1.543 0 00.5-.073.994.994 0 00.36-.208.864.864 0 00.219-.322 1.126 1.126 0 00.073-.415.931.931 0 00-.285-.721 1.243 1.243 0 00-.867-.263h-.776V3.56zm0-2.586a2.817 2.817 0 01.84.112 1.626 1.626 0 01.592.317 1.256 1.256 0 01.348.495 1.752 1.752 0 01.114.644 1.68 1.68 0 01-.122.65 1.39 1.39 0 01-.361.508 1.65 1.65 0 01-.593.331 2.606 2.606 0 01-.817.118h-.777V6h-.746V.974zm5.909 3.154l-.746-1.95a4.345 4.345 0 01-.161-.504q-.038.15-.079.28t-.078.231l-.742 1.942zM54.169 6h-.574a.255.255 0 01-.161-.049.275.275 0 01-.091-.126l-.445-1.166h-2.215l-.444 1.166a.284.284 0 01-.091.12.247.247 0 01-.162.055h-.573L51.415.974h.752zm4.875-1.078a.143.143 0 01.109.049l.294.322a2.1 2.1 0 01-.75.564 2.582 2.582 0 01-1.067.199 2.494 2.494 0 01-.988-.189 2.178 2.178 0 01-.756-.528 2.377 2.377 0 01-.485-.812 3.027 3.027 0 01-.172-1.04 2.894 2.894 0 01.18-1.04 2.387 2.387 0 01.506-.812 2.28 2.28 0 01.78-.528 2.58 2.58 0 011.002-.189 2.439 2.439 0 01.952.175 2.398 2.398 0 01.725.466l-.246.346a.21.21 0 01-.06.063.17.17 0 01-.097.025.276.276 0 01-.156-.067 2.288 2.288 0 00-.234-.149 1.848 1.848 0 00-.359-.148 1.815 1.815 0 00-.532-.067 1.75 1.75 0 00-.686.131 1.518 1.518 0 00-.537.378 1.715 1.715 0 00-.35.606 2.467 2.467 0 00-.125.81 2.383 2.383 0 00.13.816 1.786 1.786 0 00.357.605 1.513 1.513 0 00.535.378 1.698 1.698 0 00.665.13 2.622 2.622 0 00.39-.027 1.674 1.674 0 00.32-.078 1.396 1.396 0 00.274-.135 1.838 1.838 0 00.255-.198.281.281 0 01.06-.04.147.147 0 01.066-.016zM65.192.974V6h-.746V3.736h-2.621V6h-.75V.974h.75v2.219h2.621V.974zm5.235 4.42L70.424 6h-3.115V.974h3.115v.606h-2.366v1.592h1.904v.585h-1.904v1.637z" class="cls-3" id="APACHE"/></g></g></g></svg>