<svg xmlns="http://www.w3.org/2000/svg" role="img" viewBox="-10.99 -7.99 727.48 270.98"><title>apache-heron.input.svg logo</title><style>svg {enable-background:new 0 0 706 255}</style><style>.st0{fill:#808285}</style><path d="M151.7,101.4V36.1c-50.6-15-103.8,13.9-118.8,64.5c-9.7,32.6-1.3,67.8,21.9,92.5v34.1	C-0.1,188.7-13.5,112.9,25,57.9C60.4,7.4,128-8.6,182.3,20.7v80.6L151.7,101.4z" class="st0"/><path fill="#00878f" d="M219.9,127.6c0-24.3-9.3-47.8-26-65.5V28.1c55,38.5,68.3,114.3,29.8,169.2c-35.4,50.5-103.1,66.5-157.3,37.2	V69.9c8.7-8.5,19.1-14.8,30.6-18.6V113h85.2v72.4c-8.7,8.5-19.1,14.8-30.6,18.6v-61.8H97.1v77c50.6,15,103.8-13.8,118.9-64.4	C218.6,146,219.9,136.9,219.9,127.6z"/><path d="M290.7 107.4h14.2v33.7h39v-33.7H358v81.2h-14.1v-34.2h-39v34.2h-14.2V107.4zM377.2 107.4h60.1v12.9h-46v20.8h40.7V154h-40.7v21.7h46.5v12.9h-60.7L377.2 107.4 377.2 107.4zM488.3 147.7c4.4.2 8.7-1.1 12.2-3.7 3-2.4 4.7-6.1 4.5-10v-.2c.3-3.9-1.4-7.6-4.4-10.1-3.6-2.5-8-3.7-12.4-3.4h-20.9v27.4H488.3zM453.2 107.4h36.1c4.6-.1 9.2.6 13.6 2.1 3.7 1.3 7 3.3 9.9 6 2.2 2.2 3.8 4.9 5 7.8 1.2 3.1 1.8 6.4 1.7 9.7v.2c0 3.1-.4 6.1-1.4 9-.9 2.6-2.2 5-3.9 7.1-1.7 2.1-3.8 3.8-6.1 5.2-2.4 1.5-5.1 2.6-7.8 3.3l21.9 30.7h-16.8l-20.1-28.3h-17.9v28.3h-14.2L453.2 107.4 453.2 107.4zM574.4 176.9c3.8 0 7.6-.7 11-2.3 3.3-1.5 6.2-3.6 8.6-6.2 2.4-2.6 4.3-5.7 5.6-9.1 1.4-3.5 2.1-7.3 2.1-11.1V148c0-3.8-.7-7.6-2.1-11.2-2.5-6.9-7.7-12.4-14.4-15.4-10.5-4.8-22.9-2.3-30.8 6.2-2.4 2.7-4.3 5.8-5.6 9.1-1.4 3.6-2.1 7.3-2.1 11.1v.2c0 3.8.7 7.6 2.1 11.2 1.3 3.4 3.2 6.5 5.7 9.2 2.5 2.6 5.4 4.7 8.7 6.2C566.7 176.2 570.5 177 574.4 176.9L574.4 176.9zM574.1 190c-5.9.1-11.7-1-17.2-3.3-10.1-4.2-18-12.2-22-22.3-2.1-5.1-3.2-10.6-3.1-16.2V148c0-5.6 1-11.1 3.1-16.2 2-5 5-9.5 8.8-13.3 8.1-8.1 19.2-12.6 30.6-12.4 5.9-.1 11.7 1 17.2 3.3 10 4.2 18 12.2 22 22.3 2.1 5.1 3.2 10.6 3.1 16.2v.2c0 5.5-1 11-3.1 16.2-2 5-5 9.5-8.8 13.3-3.8 3.9-8.4 7-13.4 9.1C585.9 189 580 190.2 574.1 190L574.1 190zM632.3 107.4h13.2l43.4 56.1v-56.1H703v81.2h-11.9l-44.7-57.8v57.8h-14.1L632.3 107.4zM309.6 85.9l-4.8-11-4.7 10.9L309.6 85.9zM302.8 69.4h4.4l12 27.4h-5.1l-2.8-6.6h-12.9l-2.8 6.6h-4.9L302.8 69.4zM333.9 93.1c.8 0 1.6-.2 2.3-.5.7-.3 1.3-.7 1.9-1.3.6-.6 1-1.3 1.3-2.1.3-.9.5-1.8.5-2.7l0 0c0-.9-.1-1.8-.5-2.7-.3-.8-.7-1.5-1.3-2.1-.5-.6-1.1-1-1.9-1.3-.7-.3-1.5-.5-2.3-.5-.8 0-1.6.2-2.3.5-.7.3-1.4.8-1.9 1.3-.6.6-1 1.3-1.3 2.1-.3.9-.5 1.8-.5 2.7l0 0c0 .9.1 1.8.5 2.7.3.8.7 1.5 1.3 2.1.5.6 1.2 1 1.9 1.3C332.3 92.9 333.1 93.1 333.9 93.1L333.9 93.1zM323.3 76.2h4.8v3.4c.8-1.1 1.7-2 2.8-2.7 1.2-.8 2.7-1.2 4.1-1.1 1.2 0 2.4.2 3.5.7 1.1.5 2.2 1.2 3 2.1.9 1 1.7 2.1 2.2 3.3.6 1.5.8 3 .8 4.6l0 0c0 1.6-.2 3.1-.8 4.6-.4 1.2-1.2 2.4-2.1 3.3-.9.9-1.9 1.6-3.1 2.1-1.1.5-2.3.7-3.6.7-1.5 0-2.9-.3-4.1-1.1-1.1-.6-2.1-1.5-2.9-2.5v9.4h-4.8V76.2zM362 88.2c-.7-.3-1.4-.5-2.1-.6-.9-.2-1.7-.2-2.6-.2-1.2-.1-2.4.2-3.5.8-.8.5-1.3 1.4-1.2 2.3l0 0c0 .9.4 1.8 1.2 2.3.8.6 1.8.8 2.8.8.7 0 1.4-.1 2.1-.3.6-.2 1.2-.5 1.7-.9.5-.4.9-.8 1.1-1.4.3-.6.4-1.2.4-1.8L362 88.2 362 88.2zM361.9 96.8v-2.5c-1.6 2-4.1 3-6.7 3-1 0-1.9-.1-2.8-.4-.8-.3-1.6-.7-2.3-1.2-.7-.6-1.2-1.3-1.6-2.1-.4-.9-.6-1.8-.6-2.7l0 0c0-1 .2-2 .6-3 .4-.8 1-1.5 1.7-2.1.8-.6 1.7-1 2.6-1.2 1.1-.3 2.2-.4 3.3-.4 1.1 0 2.1.1 3.2.2.8.2 1.7.4 2.5.6v-.4c.1-1.2-.4-2.4-1.3-3.3-1.1-.8-2.4-1.2-3.8-1.1-1 0-2.1.1-3.1.4-.9.3-1.9.6-2.8 1l-1.3-3.8c1.1-.5 2.3-.9 3.5-1.2 1.4-.3 2.9-.5 4.3-.5 2.5-.2 4.9.6 6.8 2.3 1.6 1.8 2.4 4.1 2.2 6.4v12.2L361.9 96.8zM381.7 97.2c-1.4 0-2.8-.3-4.1-.8-1.3-.5-2.4-1.3-3.4-2.3-1-1-1.7-2.1-2.2-3.4-.5-1.3-.8-2.7-.8-4.1l0 0c0-1.4.3-2.8.8-4.1.5-1.3 1.3-2.4 2.2-3.4 1-1 2.1-1.8 3.4-2.3 1.3-.6 2.8-.9 4.3-.9 1.7-.1 3.3.3 4.9 1 1.3.6 2.4 1.5 3.4 2.6l-2.9 3.1c-.7-.7-1.5-1.3-2.3-1.8-.9-.5-2-.8-3-.7-.8 0-1.6.2-2.4.5-.7.3-1.3.8-1.9 1.4-.5.6-.9 1.3-1.2 2.1-.3.8-.5 1.7-.5 2.5l0 0c0 .9.1 1.8.5 2.6.3.8.7 1.5 1.3 2.1.5.6 1.2 1.1 1.9 1.4 1.7.8 3.7.7 5.4-.2.9-.5 1.7-1.1 2.4-1.9l2.8 2.8c-1 1.1-2.2 2.1-3.4 2.8C385.2 96.9 383.5 97.3 381.7 97.2zM394.4 68.3h4.7v11.1c.3-.5.7-.9 1.1-1.4.4-.4.9-.8 1.4-1.2.5-.4 1.1-.6 1.7-.8.7-.2 1.4-.3 2.1-.3 2-.1 4 .6 5.4 2.1 1.3 1.6 2 3.7 1.9 5.8v13.1H408V85c.1-1.3-.3-2.6-1.1-3.7-.8-.9-2-1.4-3.2-1.3-1.2 0-2.5.4-3.3 1.3-.9 1-1.4 2.4-1.3 3.8v11.6h-4.7L394.4 68.3zM432.6 85.1c-.1-.7-.3-1.4-.5-2.1-.2-.6-.6-1.2-1.1-1.7-.4-.5-1-.9-1.6-1.1-1.9-.8-4.2-.4-5.7 1.1-1 1.1-1.6 2.5-1.7 3.9L432.6 85.1zM428 97.2c-1.4 0-2.8-.3-4.1-.8-1.3-.5-2.4-1.2-3.3-2.2-1-1-1.7-2.1-2.2-3.4-.6-1.4-.8-2.9-.8-4.3l0 0c0-1.4.2-2.8.7-4.1.5-1.3 1.2-2.4 2.1-3.4 3-3.1 7.6-4 11.5-2.2 1.2.6 2.2 1.4 3.1 2.4.8 1 1.5 2.2 1.9 3.5.4 1.3.6 2.7.6 4.1 0 .2 0 .4 0 .7 0 .2 0 .4 0 .7h-15.1c.2 1.5.9 2.9 2.1 3.9 1.1.9 2.5 1.4 3.9 1.3 1 0 2.1-.2 3-.6.9-.5 1.8-1.1 2.5-1.8l2.8 2.5c-1 1.2-2.2 2.1-3.5 2.8C431.4 97 429.7 97.3 428 97.2L428 97.2z" class="st0"/></svg>