<svg xmlns="http://www.w3.org/2000/svg" role="img" viewBox="-1.64 -1.64 293.28 293.03"><title>apache-apex.input.svg logo</title><style>svg {enable-background:new 0 0 288 288}</style><style>.st0{fill:#04a8da}.st1{fill:#fefefe}</style><path d="M145.3 4c77.9 0 140.8 63.2 140.8 141.4 0 77.8-63.3 140.6-141.6 140.6C66.8 286 4 222.6 4.1 144.2 4.2 66.9 67.6 4 145.3 4z" class="st0"/><path d="M186.7 117.8c1.8 5.9 3.6 11.7 5.5 17.6.4 1.2.6 2.2-1.2 2.2-16.3-.4-32.7-.7-47.9-8-2.2-1-4.2-2.4-6.3-3.5-1.4-.7-1.5-1.5-.9-2.8 2-4.5 3.8-9.1 5.7-13.7.1-.5 0-.9.3-1.4-.3.2-.5.6-.9.7-3.2 5.3-6.6 10.4-9.6 15.8-2.8 5-6.2 9.4-10.2 13.4-2.6 2.6-5.1 5.3-7.2 8.4-1.8 2.6-3.1 5.5-3.7 8.7-.1.6-.3 1.4.6 1.8.8.3 1.1.1 1.6-.6 1.5-2.1 4.1-1.7 4.9.7 1.7 5.3 2.5 6.9-4.4 7-7 .1-14.1.4-21.1-.5-1-.1-2-.4-3-.6-1.9-.4-2.8-1.4-2.8-3.6-.3-11.1 2.1-21.5 7.6-31.3 11.5-20.7 24.3-40.6 38.4-59.6.7-.9 1.5-1.6 2.5-2.2 2.9-1.7 5.8-3.4 8.7-5 3-1.7 3-1.7 3.1 1.6.2 3 .4 6 .6 9.5 2.2-2.5 4.2-4.7 6.2-6.8 1.5-1.5 2.6-4.3 4.4-4.3 1.8 0 2.9 2.9 4.3 4.4 1.7 1.8 3.2 3.7 5.1 6 .4-2.4.7-4.3 1-6.2.3-1.9.7-3.9 1.1-6.1 4.8 2.2 9.6 3.6 13.3 7.9 7.5 8.9 15.2 17.8 23.6 25.8 8.5 8.1 12.6 17.9 15.1 28.8 1.7 7.8 4.3 15.3 5.7 23.2.6 3.3.7 6.5-1.5 9.6-1.3 1.8-1.9 4.2-2.8 6.3-.9 2.1-2.4 3.2-4.8 3.3-6.6.2-13.2.1-19.8-.2-2.2-.1-2.8-1.3-1.9-3.3.9-2 2.5-3.2 4.5-3.4 2.4-.2 2.5-1.6 2.2-3.4-.8-4.1-2.3-8.1-3.9-11.9-3.4-8.5-7.4-16.8-11.5-24.9-.3-.1-.3-.5-.6-.5 0 .4-.1.8 0 1.1zM94.3 82.3c-2.2 5.2-7.1 7.5-11.4 10.3-1.7 1.1-3.3.6-4.6-.8-2-2.1-2.6-5.1-1.3-7.3 1.3-2.3 3.3-4.1 5.4-5.8 1-.8 1.5-1.4.5-2.6-.9-1-.5-2.1.6-2.9.7-.5 1.3-1.2 1.9-1.7 3.1-2.2 4.9-4.7 2.9-8.7-.7-1.3-.3-2.7.6-3.9 5.1-7.3 10.4-14.4 16.4-21.1.4-.4.8-.9 1.3-1.3 3.9-3.5 6.8-3.8 10.9-.5 5.8 4.7 11.5 9.5 17.2 14.3 4.3 3.6 4.3 3.6 1 8.1-8.5 11.6-17 23.2-25.2 35-4.6 6.6-11.4 9-19.1 9.2-1.4 0-2.7-.5-3.9-1.2-2-1.1-3.8-2.6-6-3.5-.6-.3-1.2-.7-1-1.6.2-.8.9-.8 1.6-1 5.1-1 8.4-5.1 12.3-8 .8-.6.4-2.1.5-3.2-.1-.4.7-1.4-.6-1.8zM156 209.8v-23.7c0-1.7.5-2.2 2.2-2.2 8.1.1 16.3.1 24.4 0 1.5 0 2.1.3 2.1 2 .1 5.3.1 5.3-5.1 5.3-4.6 0-9.3.1-13.9 0-1.5 0-1.9.4-1.9 1.9.1 3.3.1 6.5 0 9.8-.1 1.7.5 2.2 2.2 2.2 5.2-.1 10.5 0 15.7-.1 1.7 0 2.4.4 2.4 2.2 0 5.1 0 5.1-4.9 5.1h-13.4c-1.4 0-2 .3-1.9 1.8.1 4.1.1 8.2 0 12.3 0 1.5.5 1.9 1.9 1.9 5.6-.1 11.1 0 16.7-.1 1.8 0 2.3.6 2.3 2.3-.1 5 0 5-5 5-6.9 0-13.7-.2-20.6.1-2.7.1-3.2-.8-3.2-3.3.1-7.4 0-14.9 0-22.5zm54.1 6.1c-3.3 5.6-6.7 10.9-9.7 16.3-1.5 2.7-3.2 3.9-6.2 3.4-1.3-.2-2.7 0-4.1 0-.3-1.2.5-1.9 1-2.6 4.3-7.2 8.5-14.5 13-21.6 1.4-2.1 1.2-3.6 0-5.7-4.2-7-8.2-14.2-12.6-21.7h7.9c1.3 0 1.5 1 1.9 1.8 2.9 5.1 5.8 10.3 8.9 15.7 3.1-5.3 6.2-10.3 9.1-15.4.9-1.5 1.8-2.3 3.6-2.1 2 .2 4.1 0 6.2 0-.3 1.5-1.2 2.5-1.8 3.6-3.8 6.4-7.7 12.8-11.6 19.1-.9 1.4-1 2.4-.1 3.9 4.4 7.4 8.6 14.8 12.9 22.2.5.8.9 1.6 1.6 2.8h-7.7c-1.2 0-1.5-1-2-1.7-3.3-5.9-6.7-11.8-10.3-18zM67.2 235.7c8.1-17.4 16-34.5 24-51.5 1.1.2 1.1 1.1 1.3 1.8 7.1 15.8 14.2 31.7 21.4 47.5 1 2.1.4 2.3-1.6 2.3h-6s-1.3-2.9-2.4-5.6c-1-2-3.1-5.9-3.1-5.9s-2.7-.1-6.2-.1c-3.5.1-7.7.2-11.6 0-.9 0-2.4-.1-2.4-.1s-.5 1.4-.8 2.2c-1.1 2.7-2 5.4-3.2 8.1-.5 1.1-1.5 1.4-2.7 1.3-2.1-.1-4.2 0-6.7 0zm52.6-25.9c0-7.8.1-15.6 0-23.4 0-2 .6-2.5 2.4-2.4 4.7.2 9.4-.2 14.1.5 6.8 1.1 11.7 6.2 12.4 13.1.7 7.3-2.9 13.2-9.4 15.7-2.9 1.1-6 1.5-9.1 1.3-2.2-.2-2.7.7-2.7 2.7.1 5.4 0 10.8.1 16.2 0 1.7-.5 2.2-2.2 2.2-5.6 0-5.6.1-5.6-5.6v-20.3z" class="st1"/><path d="M145.3 165c-4.7-.1-9.4-.3-14.1-1-2.3-.4-3.2-1.4-3.2-3.9-.2-10.6 3.1-20.2 7.4-29.6.6-1.3 1.1-1.4 2.3-.7 5.2 3.1 10.7 5.3 16.6 6.7 1.8.4 1.7 1 1 2.3-3.1 5.4-5.1 11.2-6 17.3-.1.7-.7 1.6.3 2.1 1.1.5 1.1-.5 1.6-1.1 1.1-1.4 3.2-1.2 3.9.5.6 1.4 1 2.9 1.3 4.4.3 1.7-.9 2.2-2.3 2.5-3 .6-5.9.5-8.8.5zm33-1.1c-2.6 0-5.1.1-7.7 0-2.4-.1-3.1-1.5-1.9-3.6.9-1.6 2.3-2.7 4-3 2-.3 2.4-1.5 2.5-3.3.1-4.4-.5-8.7-1.5-13-.4-1.7.1-1.9 1.5-1.8 4.9.6 9.9.6 14.9.5 1.2 0 1.6.5 1.9 1.6.8 3.5 1.3 7.1 1.3 10.7.1 4.1-2.9 7.2-4.3 10.8-.4 1-1.9 1.1-3 1.1-2.6.1-5.2.1-7.7 0 0 .1 0 .1 0 0zm-4.7-104.8c-1.6-.7-3.3-1.3-4.9-2.1-1.2-.6-1.6-.2-1.8 1-.4 2.8-.9 5.5-1.4 8.8-2.3-2.7-4.5-5.1-6.5-7.7-1.3-1.7-2-1.4-3.2 0-2.2 2.6-4.5 5.1-7 7.8-.7-2.7-.6-5-.7-7.4-.2-3.6-.2-3.6-3.2-1.9-2.6 1.5-5.1 3-7.8 4.3 4-5.5 8-11.1 12.9-15.8 2.6-2.5 5.6-2.7 8.8-1.3 2.5 1.2 4.7 2.9 6.6 4.8 2.9 2.9 5.7 5.9 8.6 8.8-.1.3-.2.5-.4.7z" class="st1"/><path fill="#36bae1" d="M141.1 109c.3-.9.8-1.7 1.7-2.3-.1 1.1-.4 2.1-1.1 2.9l-.6-.6z"/><path fill="#37bae2" d="M94.3 82.3c.1-.3.3-.6.4-.9.1.1.4.2.4.4 0 .9.1 1.8-.4 2.6-.2-.7.2-1.5-.4-2.1z"/><path fill="#41bde3" d="M186.7 117.8c-.6-.5-.6-1.2-.6-2 1 .1.9.9 1.1 1.4-.2.3-.3.4-.5.6z"/><path fill="#05a9da" d="M91.4 200.9c2.4 5.5 4.6 10.6 6.9 16H85.6c-1.4 0-1.4-.5-.9-1.6 2.3-4.6 4.4-9.2 6.7-14.4z"/><path d="M127.6 199.3c0-2 .1-3.9 0-5.9-.2-1.9.6-2.4 2.3-2.2 1.6.2 3.2 0 4.8.4 4.7 1.2 6.7 3.7 6.4 8.4-.2 4-2.8 6.6-7.3 7.2-6.3.8-6.3.8-6.3-5.4.1-.8.1-1.7.1-2.5z" class="st0"/></svg>