<svg xmlns="http://www.w3.org/2000/svg" role="img" viewBox="-3.53 -1.28 365.56 123.81"><title>apex.input.svg logo</title><style>svg {enable-background:new 0 0 360 122}</style><g><g><path d="M87.8 14.2c-7 15.8-14 31.5-21 47.1-.5 1-.9 2.2-1.4 3.2-.5 1-1.6 1.2-2.5.9-1.3-.5-.4-1.4-.1-2.2 8.3-18.7 16.6-37.4 25-56.2 1.3.4 1.3 1.6 1.7 2.3 7.9 17.6 15.7 35.3 23.6 52.8 1 2.3 1.2 3.4-1.9 3.2-12.1-.1-24.1 0-36.3 0-.5 0-1 0-1.6 0-.6 0-1.2-.3-1.3-1.2 0-.8.5-1.2 1.2-1.2.9 0 1.7 0 2.6 0 10.5 0 20.9 0 31.4 0 1.8 0 3-.1 1.9-2.5-6.9-15.2-13.6-30.5-20.5-45.8C88.6 14.8 88.3 14.7 87.8 14.2zM133.2 35.7c0-8.7 0-17.5 0-26.2 0-2.2.4-3.2 3-3.2 7.4.3 14.9-.3 22.3 1.3 3.4.8 6.6 1.8 9.5 3.9 7.4 5.3 7.4 16-.1 21.2-2.3 1.6-4.9 2.6-7.4 3.9-.9.5-1.7.4-2.2-.6-.8-1.3.5-1.4 1.2-1.7 1.8-.9 3.8-1.7 5.4-2.7 7.7-4.4 7.7-14.7 0-19.1-4.5-2.6-9.6-3.2-14.7-3.5-3.6-.3-7.4 0-11-.1-2.3-.1-2.9.8-2.9 3 .1 16.6 0 33.2 0 50 0 .9 0 1.7 0 2.6 0 1-.5 1.3-1.4 1.3s-1.4-.4-1.4-1.3c0-.8 0-1.6 0-2.2C133.2 53.2 133.2 44.5 133.2 35.7zM194.4 35.7c0-8.8 0-17.8 0-26.6 0-2.1.4-2.9 2.7-2.9 12.2 0 24.4-.1 36.6-.3 1.2 0 2.6-.4 2.5 1.6 0 1.9-1.6 1.4-2.6 1.4-10.9.1-21.8.4-32.7.3-3 0-3.5.9-3.5 3.6.1 15.4.1 30.9 0 46.3 0 2.9.6 3.9 3.8 3.9 11-.3 22.1-.1 33.1-.1.9 0 1.7 0 2.6.1.6 0 .9.4 1 1 0 .6-.3 1-.9 1.2-.8.1-1.6.1-2.2.1-12.2 0-24.4-.1-36.6.1-3 0-3.5-1-3.5-3.8C194.5 53.2 194.4 44.5 194.4 35.7zM256 6.7c1.9-.8 3.1.1 4.2 1.8 4.4 7 9.1 13.9 13.5 20.9 1.4 2.3 2.1 1.9 3.4-.1 4.4-6.9 9-13.8 13.4-20.6.5-.6.9-1.6 1.6-1.9.6-.5 1.8-.5 2.5 0 .8.6-.1 1.3-.5 1.8C281.8 27 269.7 45.6 257.7 64c-.3.4-.4.8-.8 1-.8.6-1.9.8-2.7.1s.1-1.4.5-1.9c3.5-5.3 6.9-10.6 10.4-16 2.2-3.4 4.3-7 6.7-10.3 1.6-2.1 1.2-3.4-.1-5.3-4.9-7.3-9.6-14.5-14.4-21.9C257 8.7 256.1 8 256 6.7zM279.4 37.8c5.6 8.7 11.3 17.3 16.9 26 .3.4.8 1 .4 1.4-.4.4-1.2.4-1.8.4-1.3-.1-1.7-1.3-2.2-2.2-4.7-7-9.2-14.1-13.8-21.2C277.7 40.7 277.1 39.2 279.4 37.8z"/><path d="M217.8,37.4c-4.7,0-9.3,0-13.9,0c-0.9,0-2.3,0.4-2.2-1.4c0.1-1.6,1.4-1,2.2-1c9.3,0,18.6,0,27.9,0c0.9,0,2.3-0.4,2.2,1.4 c-0.1,1.6-1.4,1-2.2,1C227.1,37.4,222.5,37.4,217.8,37.4z"/></g></g><g><path fill="#999" d="M5.4 111.2c.3 1 .6 1.8 1.2 2.3.6.4 1.4.6 2.6.6.5 0 1 0 1.4-.1.4-.1.6-.3.9-.5.3-.3.4-.5.5-.8.1-.3.1-.5.1-.9 0-.6-.3-1-.6-1.4-.4-.3-.9-.5-1.4-.6-.5-.1-1.3-.3-1.9-.4-.6-.1-1.3-.3-1.9-.5-.6-.3-1-.6-1.4-1-.4-.4-.6-1-.6-1.9 0-1 .4-1.9 1.2-2.6.8-.6 1.8-1 3.2-1 1.3 0 2.5.3 3.4.9.9.6 1.3 1.6 1.6 3H12c-.1-.9-.5-1.7-1.2-2.1-.6-.4-1.4-.6-2.3-.6s-1.7.3-2.1.6c-.5.4-.8.9-.8 1.6 0 .5.3 1 .6 1.3s.9.5 1.4.8c.6.1 1.3.4 1.9.5.6.1 1.3.4 1.9.6.6.3 1 .6 1.4 1s.6 1 .6 1.9c0 .6-.1 1.2-.4 1.6-.3.5-.6.9-1 1.2-.4.3-1 .5-1.6.6-.6.1-1.3.3-2.1.3s-1.4-.1-1.9-.4c-.5-.3-1-.5-1.4-.9s-.8-.8-.9-1.3c-.3-.5-.4-1-.4-1.7L5.4 111.2 5.4 111.2zM22.4 109.2c0 .6.1 1.3.3 1.9.1.6.4 1.2.8 1.6s.8.8 1.3 1c.5.3 1.2.4 1.8.4.9 0 1.8-.3 2.5-.8.6-.5 1.2-1.2 1.3-2.1H32c-.1.6-.4 1.2-.6 1.7-.3.5-.6.9-1 1.3s-.9.6-1.6.9c-.6.3-1.3.3-2.1.3-1 0-1.8-.1-2.6-.5s-1.3-.8-1.8-1.4c-.5-.6-.8-1.3-1-2.1-.3-.8-.4-1.7-.4-2.6 0-.9.1-1.8.4-2.6.3-.8.6-1.6 1.2-2.1.5-.6 1-1 1.8-1.4.6-.4 1.6-.5 2.5-.5 1.7 0 3.1.6 4 1.8 1 1.2 1.4 2.9 1.4 5.2L22.4 109.2 22.4 109.2zM30.6 108c0-.6-.1-1.2-.3-1.7-.1-.5-.4-1-.8-1.4-.4-.4-.8-.6-1.3-.9-.5-.3-1-.4-1.7-.4-.6 0-1.2.1-1.7.4-.5.3-.9.5-1.3.9-.4.4-.6.9-.8 1.4-.3.5-.4 1-.4 1.7H30.6zM41.4 115.1h-1.4v-12.6h1.4v2.3l0 0c.4-1 .9-1.7 1.6-2.1.6-.4 1.4-.6 2.6-.6v1.6c-.8 0-1.6.1-2.1.4-.5.3-.9.6-1.3 1.2-.3.5-.5 1-.6 1.7-.1.6-.1 1.3-.1 1.9C41.4 108.9 41.4 115.1 41.4 115.1zM51.5 102.5H53l4 10.8 4-10.8h1.7l-4.9 12.6h-1.6L51.5 102.5zM70.7 109.2c0 .6.1 1.3.3 1.9.1.6.4 1.2.8 1.6.4.4.8.8 1.3 1 .5.3 1.2.4 1.8.4.9 0 1.8-.3 2.5-.8.6-.5 1.2-1.2 1.3-2.1h1.7c-.1.6-.4 1.2-.6 1.7-.3.5-.6.9-1 1.3s-.9.6-1.6.9c-.6.3-1.3.3-2.1.3-1 0-1.8-.1-2.6-.5-.8-.4-1.3-.8-1.8-1.4-.5-.6-.8-1.3-1-2.1s-.4-1.7-.4-2.6c0-.9.1-1.8.4-2.6s.6-1.6 1.2-2.1c.5-.6 1-1 1.8-1.4.6-.4 1.6-.5 2.5-.5 1.7 0 3.1.6 4 1.8 1 1.2 1.4 2.9 1.4 5.2L70.7 109.2 70.7 109.2zM78.9 108c0-.6-.1-1.2-.3-1.7-.1-.5-.4-1-.8-1.4-.4-.4-.8-.6-1.3-.9s-1-.4-1.7-.4c-.6 0-1.2.1-1.7.4-.5.3-.9.5-1.3.9-.4.4-.6.9-.8 1.4-.3.5-.4 1-.4 1.7H78.9zM89.6 115.1h-1.4v-12.6h1.4v2.3l0 0c.4-1 .9-1.7 1.6-2.1.6-.4 1.4-.6 2.6-.6v1.6c-.8 0-1.6.1-2.1.4-.5.3-.9.6-1.3 1.2-.3.5-.5 1-.6 1.7-.1.6-.1 1.3-.1 1.9V115.1zM101.2 115.1V97.6h1.4v17.5H101.2zM112.1 109.2c0 .6.1 1.3.3 1.9.1.6.4 1.2.8 1.6.4.4.8.8 1.3 1 .5.3 1.2.4 1.8.4.9 0 1.8-.3 2.5-.8s1.2-1.2 1.3-2.1h1.7c-.1.6-.4 1.2-.6 1.7s-.6.9-1 1.3-.9.6-1.6.9-1.3.3-2.1.3c-1 0-1.8-.1-2.6-.5s-1.3-.8-1.8-1.4c-.5-.6-.8-1.3-1-2.1-.3-.8-.4-1.7-.4-2.6 0-.9.1-1.8.4-2.6.3-.8.6-1.6 1.2-2.1.5-.6 1-1 1.8-1.4.6-.4 1.6-.5 2.5-.5 1.7 0 3.1.6 4 1.8 1 1.2 1.4 2.9 1.4 5.2L112.1 109.2 112.1 109.2zM120.4 108c0-.6-.1-1.2-.3-1.7-.1-.5-.4-1-.8-1.4-.4-.4-.8-.6-1.3-.9s-1-.4-1.7-.4c-.6 0-1.2.1-1.7.4-.5.3-.9.5-1.3.9-.4.4-.6.9-.8 1.4-.3.5-.4 1-.4 1.7H120.4zM130.4 111.2c.3 1 .6 1.8 1.2 2.3.6.4 1.4.6 2.6.6.5 0 1 0 1.4-.1.4-.1.6-.3.9-.5.3-.3.4-.5.5-.8s.1-.5.1-.9c0-.6-.3-1-.6-1.4-.4-.3-.9-.5-1.4-.6s-1.3-.3-1.9-.4c-.6-.1-1.3-.3-1.9-.5-.6-.3-1-.6-1.4-1-.4-.4-.6-1-.6-1.9 0-1 .4-1.9 1.2-2.6.8-.6 1.8-1 3.2-1 1.3 0 2.5.3 3.4.9.9.6 1.3 1.6 1.6 3H137c-.1-.9-.5-1.7-1.2-2.1-.6-.4-1.4-.6-2.3-.6-.9 0-1.7.3-2.1.6-.5.4-.8.9-.8 1.6 0 .5.3 1 .6 1.3s.9.5 1.4.8c.6.1 1.3.4 1.9.5.6.1 1.3.4 1.9.6.6.3 1 .6 1.4 1 .4.4.6 1 .6 1.9 0 .6-.1 1.2-.4 1.6-.3.5-.6.9-1 1.2-.4.3-1 .5-1.6.6-.6.1-1.3.3-2.1.3s-1.4-.1-1.9-.4c-.5-.3-1-.5-1.4-.9s-.8-.8-.9-1.3c-.3-.5-.4-1-.4-1.7L130.4 111.2 130.4 111.2zM147.4 111.2c.3 1 .6 1.8 1.2 2.3.6.4 1.4.6 2.6.6.5 0 1 0 1.4-.1.4-.1.6-.3.9-.5.3-.3.4-.5.5-.8.1-.3.1-.5.1-.9 0-.6-.3-1-.6-1.4-.4-.3-.9-.5-1.4-.6s-1.3-.3-1.9-.4c-.6-.1-1.3-.3-1.9-.5-.6-.3-1-.6-1.4-1-.4-.4-.6-1-.6-1.9 0-1 .4-1.9 1.2-2.6.8-.6 1.8-1 3.2-1 1.3 0 2.5.3 3.4.9.9.6 1.3 1.6 1.6 3H154c-.1-.9-.5-1.7-1.2-2.1-.6-.4-1.4-.6-2.3-.6-.9 0-1.7.3-2.1.6-.5.4-.8.9-.8 1.6 0 .5.3 1 .6 1.3.4.3.9.5 1.4.8.6.1 1.3.4 1.9.5.6.1 1.3.4 1.9.6.6.3 1 .6 1.4 1 .4.4.6 1 .6 1.9 0 .6-.1 1.2-.4 1.6-.3.5-.6.9-1 1.2-.4.3-1 .5-1.6.6-.6.1-1.3.3-2.1.3-.8 0-1.4-.1-1.9-.4-.5-.3-1-.5-1.4-.9-.4-.4-.8-.8-.9-1.3-.3-.5-.4-1-.4-1.7L147.4 111.2 147.4 111.2zM180.9 107.9c.3 0 .6-.1 1-.1s.6-.1.9-.3c.3-.1.4-.3.4-.5 0-.3.1-.5.1-.8 0-.8-.3-1.3-.8-1.8-.5-.5-1.3-.8-2.5-.8-.5 0-.9 0-1.4.1-.4.1-.8.3-1 .5-.3.3-.5.5-.8.9-.3.4-.4.8-.4 1.4H175c0-.8.3-1.4.5-1.9.3-.5.6-.9 1.2-1.3.5-.4 1-.5 1.6-.8.5-.3 1.3-.3 1.9-.3.6 0 1.2.1 1.8.3.6.1 1 .4 1.4.6s.8.6.9 1.2c.3.5.4 1.2.4 1.8v6.9c0 .5.1.9.3 1 .3.1.6.1 1.2-.1v1.2c-.1 0-.3.1-.5.1-.3 0-.4.1-.6.1-.3 0-.4 0-.6-.1-.3 0-.4-.1-.5-.3-.1-.1-.3-.3-.4-.4-.1-.1-.1-.4-.1-.5 0-.3 0-.4 0-.6-.6.6-1.3 1.2-2.1 1.6-.8.4-1.7.5-2.6.5-.5 0-1-.1-1.6-.3-.5-.1-.9-.4-1.3-.6s-.6-.6-.9-1.2c-.3-.5-.4-1-.4-1.6 0-2.1 1.4-3.4 4.4-3.8L180.9 107.9zM183.3 108.5c-.6.3-1.3.4-1.8.5-.6.1-1.3.1-1.9.1-1.2.1-1.9.4-2.6.8-.6.4-.9 1-.9 1.9 0 .4.1.8.3 1 .1.3.4.5.6.6s.5.3.9.4.6.1 1 .1c.5 0 1.2-.1 1.7-.3.5-.1 1-.4 1.4-.6s.8-.6 1-1.2c.3-.5.4-1 .4-1.7v-1.8H183.3zM195 115.1h-1.4v-12.6h1.4v2.3l0 0c.4-1 .9-1.7 1.6-2.1.6-.4 1.4-.6 2.6-.6v1.6c-.8 0-1.6.1-2.1.4-.5.3-.9.6-1.3 1.2-.3.5-.5 1-.6 1.7-.1.6-.1 1.3-.1 1.9L195 115.1 195 115.1zM215.2 106.6c-.3-.9-.6-1.7-1.3-2.2-.6-.5-1.4-.8-2.3-.8-.8 0-1.4.1-1.9.5-.5.4-.9.8-1.3 1.2-.4.5-.6 1-.8 1.7-.1.6-.3 1.3-.3 1.9 0 .6.1 1.3.3 1.9.1.6.4 1.2.8 1.7s.8.9 1.3 1.2c.5.3 1.2.4 1.9.4 1 0 1.9-.3 2.6-.9.6-.6 1-1.4 1.3-2.5h1.6c-.1.6-.4 1.3-.6 1.9-.3.5-.6 1-1 1.4s-1 .8-1.6.9c-.5.1-1.3.4-2.1.4-1 0-1.8-.1-2.6-.5s-1.3-.8-1.8-1.4c-.5-.6-.8-1.3-1-2.1-.3-.8-.4-1.7-.4-2.6 0-.9.1-1.7.4-2.5.3-.8.6-1.6 1.2-2.1.5-.6 1-1 1.8-1.4s1.6-.5 2.5-.5c1.4 0 2.6.4 3.5 1 .9.6 1.4 1.8 1.7 3.2L215.2 106.6 215.2 106.6zM224.7 115.1V97.6h1.4v6.6c.5-.6 1.2-1.2 1.8-1.6.6-.4 1.4-.5 2.2-.5.8 0 1.6.1 2.2.4.6.3 1.2.8 1.7 1.4.3.4.5.9.5 1.4s.1 1 .1 1.4v8.2h-1.4v-8.2c0-1.2-.3-1.9-.8-2.6-.5-.5-1.3-.9-2.5-.9-.4 0-.9.1-1.3.3-.4.1-.6.3-1 .5-.3.3-.5.5-.8.8-.3.3-.4.6-.5.9-.1.4-.3.8-.3 1.2s0 .8 0 1.2v6.7h-1.4L224.7 115.1 224.7 115.1zM243.1 99.8v-2.2h1.6v2.2H243.1zM243.3 115.1v-12.6h1.4v12.6H243.3zM257.7 115.3c-.1 0-.4.1-.6.1-.3.1-.6.1-.9.1-.8 0-1.3-.1-1.7-.5s-.5-1-.5-1.9v-9.2h-1.8v-1.2h1.8v-3.5h1.4v3.5h2.3v1.2h-2.3v8.6c0 .3 0 .5 0 .8s0 .4.1.5c.1.1.3.3.4.3.1 0 .4.1.8.1.1 0 .4 0 .6 0s.4-.1.6-.1v1.3H257.7zM265.7 109.2c0 .6.1 1.3.3 1.9.1.6.4 1.2.8 1.6s.8.8 1.3 1c.5.3 1.2.4 1.8.4.9 0 1.8-.3 2.5-.8.6-.5 1.2-1.2 1.3-2.1h1.7c-.1.6-.4 1.2-.6 1.7s-.6.9-1 1.3-.9.6-1.6.9-1.3.3-2.1.3c-1 0-1.8-.1-2.6-.5s-1.3-.8-1.8-1.4c-.5-.6-.8-1.3-1-2.1-.3-.8-.4-1.7-.4-2.6 0-.9.1-1.8.4-2.6.3-.8.6-1.6 1.2-2.1.5-.6 1-1 1.8-1.4.6-.4 1.6-.5 2.5-.5 1.7 0 3.1.6 4 1.8 1 1.2 1.4 2.9 1.4 5.2L265.7 109.2 265.7 109.2zM273.9 108c0-.6-.1-1.2-.3-1.7-.1-.5-.4-1-.8-1.4-.4-.4-.8-.6-1.3-.9-.5-.3-1-.4-1.7-.4-.6 0-1.2.1-1.7.4-.5.3-.9.5-1.3.9-.4.4-.6.9-.8 1.4-.1.5-.4 1-.4 1.7H273.9zM292.1 106.6c-.3-.9-.6-1.7-1.3-2.2s-1.4-.8-2.3-.8c-.8 0-1.4.1-1.9.5-.5.4-.9.8-1.3 1.2-.4.5-.6 1-.8 1.7-.1.6-.3 1.3-.3 1.9 0 .6.1 1.3.3 1.9.1.6.4 1.2.8 1.7s.8.9 1.3 1.2c.5.3 1.2.4 1.9.4 1 0 1.9-.3 2.6-.9.6-.6 1-1.4 1.3-2.5h1.6c-.1.6-.4 1.3-.6 1.9-.3.5-.6 1-1 1.4s-1 .8-1.6.9c-.5.1-1.3.4-2.1.4-1 0-1.8-.1-2.6-.5s-1.3-.8-1.8-1.4c-.5-.6-.8-1.3-1-2.1-.3-.8-.4-1.7-.4-2.6 0-.9.1-1.7.4-2.5.3-.8.6-1.6 1.2-2.1.5-.6 1-1 1.8-1.4.8-.4 1.6-.5 2.5-.5 1.4 0 2.6.4 3.5 1 .9.6 1.4 1.8 1.7 3.2L292.1 106.6 292.1 106.6zM306 115.3c-.1 0-.4.1-.6.1-.3.1-.6.1-.9.1-.8 0-1.3-.1-1.7-.5s-.5-1-.5-1.9v-9.2h-1.9v-1.2h1.8v-3.5h1.4v3.5h2.3v1.2h-2.3v8.6c0 .3 0 .5 0 .8s0 .4.1.5c.1.1.3.3.4.3.1 0 .4.1.8.1.1 0 .4 0 .6 0s.4-.1.6-.1v1.3H306zM321.7 102.5h1.4v12.6h-1.4v-1.7c-.1.3-.4.5-.6.6-.3.3-.5.5-.8.6-.3.3-.6.4-1 .5-.4.1-.9.3-1.4.3-.8 0-1.6-.1-2.1-.4s-1-.5-1.4-1c-.4-.4-.6-.9-.8-1.4s-.3-1.2-.3-1.8v-8.3h1.4v8.3c0 1 .3 1.9.8 2.5s1.3.9 2.5.9c.6 0 1.2-.1 1.6-.4.4-.3.9-.5 1.2-1 .3-.4.5-.9.8-1.6.1-.5.3-1.2.3-1.9L321.7 102.5 321.7 102.5zM332.9 115.1h-1.4v-12.6h1.4v2.3l0 0c.4-1 .9-1.7 1.6-2.1s1.4-.6 2.6-.6v1.6c-.8 0-1.6.1-2.1.4-.5.3-.9.6-1.3 1.2-.3.5-.5 1-.6 1.7-.1.6-.1 1.3-.1 1.9V115.1zM345.3 109.2c0 .6.1 1.3.3 1.9.1.6.4 1.2.8 1.6s.8.8 1.3 1c.5.3 1.2.4 1.8.4.9 0 1.8-.3 2.5-.8s1.2-1.2 1.3-2.1h1.7c-.1.6-.4 1.2-.6 1.7-.3.5-.6.9-1 1.3-.4.4-.9.6-1.6.9-.6.3-1.3.3-2.1.3-1 0-1.8-.1-2.6-.5s-1.3-.8-1.8-1.4c-.5-.6-.8-1.3-1-2.1-.3-.8-.4-1.7-.4-2.6 0-.9.1-1.8.4-2.6.3-.8.6-1.6 1.2-2.1.5-.6 1-1 1.8-1.4.6-.4 1.6-.5 2.5-.5 1.7 0 3.1.6 4 1.8 1 1.2 1.4 2.9 1.4 5.2L345.3 109.2 345.3 109.2zM353.4 108c0-.6-.1-1.2-.3-1.7-.1-.5-.4-1-.8-1.4-.4-.4-.8-.6-1.3-.9-.5-.3-1-.4-1.7-.4s-1.2.1-1.7.4c-.5.3-.9.5-1.3.9-.4.4-.6.9-.8 1.4-.1.5-.4 1-.4 1.7H353.4z"/></g></svg>