<svg xmlns="http://www.w3.org/2000/svg" role="img" viewBox="9.75 -5.25 1990.50 2613.00"><title>appneta.input.svg logo</title><style>svg {enable-background:new 0 0 2000 2624}</style><style>.st17{fill:#bbc656}</style><g><path fill="#333" d="M291.4 2319.3l-21.4-70c-5.8-19.4-11.7-44.7-17.5-64.2h-1.9c-5.8 19.4-9.7 44.7-15.6 64.2l-19.4 70H291.4zM207.8 2375.7l-23.3 83.6h-77.8l101.1-328.6H305l103.1 328.6h-79.7l-25.3-83.6H207.8zM515 2358.2c0 5.8 0 11.7 1.9 15.6 5.8 19.4 21.4 35 42.8 35 33.1 0 50.6-27.2 50.6-68.1 0-38.9-17.5-66.1-50.6-66.1-21.4 0-38.9 15.6-44.7 36.9-1.9 3.9-1.9 9.7-1.9 13.6v33.1H515zM441.1 2301.8c0-31.1-1.9-58.3-1.9-79.7h64.2l3.9 33.1h1.9c17.5-25.3 44.7-38.9 79.7-38.9 52.5 0 99.2 44.7 99.2 122.5 0 87.5-54.5 128.3-108.9 128.3-29.2 0-50.6-11.7-62.2-27.2H515v118.6h-73.9V2301.8zM802.8 2358.2c0 5.8 0 11.7 1.9 15.6 5.8 19.4 21.4 35 42.8 35 33.1 0 50.6-27.2 50.6-68.1 0-38.9-17.5-66.1-50.6-66.1-21.4 0-38.9 15.6-44.7 36.9-1.9 3.9-1.9 9.7-1.9 13.6v33.1H802.8zM728.9 2301.8c0-31.1-1.9-58.3-1.9-79.7h64.2l3.9 33.1h1.9c17.5-25.3 44.7-38.9 79.7-38.9 52.5 0 99.2 44.7 99.2 122.5 0 87.5-54.5 128.3-108.9 128.3-29.2 0-50.6-11.7-62.2-27.2h-1.9v118.6h-73.9V2301.8zM1022.6 2459.3v-328.6h46.7l105 167.2c25.3 38.9 42.8 73.9 58.3 107h1.9c-3.9-44.7-5.8-83.6-5.8-136.1v-138.1h40.8v328.6h-42.8L1123.7 2292c-23.3-36.9-44.7-73.9-62.2-110.8h-1.9c1.9 40.8 3.9 81.7 3.9 136.1v140h-40.8V2459.3zM1489.3 2319.3c0-27.2-11.7-70-60.3-70-42.8 0-62.2 40.8-66.1 70H1489.3zM1362.9 2350.4c1.9 58.3 38.9 81.7 81.7 81.7 31.1 0 48.6-5.8 66.1-11.7l7.8 31.1c-15.6 7.8-40.8 15.6-77.8 15.6-72 0-116.7-48.6-116.7-118.6 0-72 42.8-128.3 110.8-128.3 77.8 0 97.2 68.1 97.2 110.8 0 9.7-1.9 15.6-1.9 19.4C1530.1 2350.4 1362.9 2350.4 1362.9 2350.4zM1629.3 2155.9v68.1h62.2v33.1h-62.2v128.3c0 29.2 7.8 46.7 33.1 46.7 11.7 0 19.4-1.9 25.3-3.9l1.9 33.1c-7.8 3.9-21.4 5.8-38.9 5.8-19.4 0-36.9-5.8-46.7-17.5-11.7-13.6-17.5-33.1-17.5-62.2V2259h-36.9v-35h36.9v-56.4L1629.3 2155.9zM1860.7 2338.7c-46.7-1.9-101.1 7.8-101.1 52.5 0 27.2 19.4 40.8 40.8 40.8 31.1 0 50.6-19.4 56.4-38.9 1.9-3.9 1.9-9.7 1.9-13.6v-40.8H1860.7zM1866.6 2459.3l-3.9-29.2h-1.9c-13.6 19.4-38.9 35-72 35-48.6 0-72-33.1-72-68.1 0-56.4 50.6-87.5 142-87.5v-5.8c0-19.4-5.8-54.5-54.5-54.5-21.4 0-44.7 7.8-62.2 17.5l-9.7-29.2c19.4-13.6 48.6-21.4 77.8-21.4 72 0 89.5 48.6 89.5 97.2v87.5c0 21.4 1.9 40.8 3.9 56.4h-36.9V2459.3z"/></g><g><path fill="#cd3832" d="M1005.1 726.8L1357.5 935 1357.5 935 1709.9 726.8 1533.7 630.7 1357.5 526.6 1357.5 526.6 1181.3 630.7z"/><path fill="#bb443d" d="M1357.5 935L1357.5 1343.5 1533.7 1239.4 1709.9 1135.3 1709.9 1135.3 1709.9 935 1709.9 726.8z"/><path d="M300.2 734.8L652.7 935 652.7 935 1005.1 734.8 828.9 630.7 652.7 526.6 652.7 526.6 476.5 630.7z" class="st17"/><path fill="#f9e04b" d="M652.7 935L1005.1 1135.3 1005.1 1135.3 1357.5 935 1181.3 830.9 1005.1 726.8 1005.1 726.8 828.9 830.9z"/><path fill="#f6d047" d="M1005.1 1135.3L652.7 935 652.7 1135.3 652.7 1343.5 652.7 1343.5 828.9 1439.6 1005.1 1543.8 1005.1 1543.8z"/><path d="M292.2 726.8L652.7 935 652.7 935 1005.1 726.8 828.9 630.7 652.7 526.6 652.7 526.6 476.5 630.7z" class="st17"/><path fill="#aab85d" d="M652.7 935L292.2 726.8 292.2 935 292.2 1135.3 292.2 1135.3 476.5 1239.4 652.7 1343.5 652.7 1343.5z"/><path fill="#debf5b" d="M1005.1 1135.3L1005.1 1543.8 1181.3 1439.6 1357.5 1343.5 1357.5 1343.5 1357.5 1135.3 1357.5 935z"/><path fill="#6fbfcc" d="M1005.1 1543.8L652.7 1343.5 652.7 1543.8 652.7 1752 652.7 1752 828.9 1848.1 1005.1 1952.2 1005.1 1952.2z"/><path fill="#79c1c0" d="M1005.1 1543.8L1005.1 1952.2 1181.3 1848.1 1357.5 1752 1357.5 1752 1357.5 1543.8 1357.5 1343.5z"/><path fill="#77c4d3" d="M788.8 166.1L1005.1 294.3 1005.1 294.3 1221.3 166.1 1109.2 102.1 1005.1 46 1005.1 46 892.9 102.1z"/><path fill="#5cb9bc" d="M1005.1 294.3L788.8 166.1 788.8 294.3 788.8 414.4 788.8 414.4 892.9 478.5 1005.1 542.6 1005.1 542.6z"/><path fill="#52a0b6" d="M1005.1 294.3L1005.1 542.6 1109.2 478.5 1221.3 414.4 1221.3 414.4 1221.3 294.3 1221.3 166.1z"/><path fill="#bb3d36" d="M276.2 1808.1L276.2 1551.8 276.2 1551.8 60 1431.6 60 1551.8 60 1679.9 60 1679.9 164.1 1744z"/><path fill="#9e3634" d="M276.2 1551.8L276.2 1808.1 380.3 1744 492.5 1679.9 492.5 1679.9 492.5 1551.8 492.5 1431.6 492.5 1431.6z"/><path fill="#d43e35" d="M276.2 1551.8L492.5 1431.6 380.3 1367.6 276.2 1303.5 276.2 1303.5 164.1 1367.6 60 1431.6z"/><path fill="#879c63" d="M1950.2 1431.6L1733.9 1551.8 1733.9 1551.8 1733.9 1808.1 1838.1 1744 1950.2 1679.9 1950.2 1679.9 1950.2 1551.8z"/><path fill="#bfc64f" d="M1733.9 1551.8L1950.2 1431.6 1838.1 1367.6 1733.9 1303.5 1733.9 1303.5 1621.8 1367.6 1517.7 1431.6 1517.7 1431.6z"/><path fill="#9fae59" d="M1733.9 1551.8L1517.7 1431.6 1517.7 1551.8 1517.7 1679.9 1517.7 1679.9 1621.8 1744 1733.9 1808.1z"/></g></svg>