<svg xmlns="http://www.w3.org/2000/svg" role="img" viewBox="-1.38 1.62 721.76 406.76"><title>appveyor.input.svg logo</title><style>svg {enable-background:new 0 0 720 404.2}</style><style>.st1{fill:#1cb3de}</style><g><path fill="none" d="M257.7 300.2c-16.3.2-29.3 13.4-29 29.5.3 18 12.6 30.5 29.9 30.4 16.2-.1 29.3-13.6 29.2-30.1C287.7 313.1 274.5 300 257.7 300.2zM359.1 165.2c-15.3.1-27.7-9.4-31.9-23l-8.8 22.1c1.7 2.1 3.6 4.2 5.8 6.1 12.2 11.1 26.9 14.3 42.1 12.2-11.7 12.7-23.6 25.6-35.5 38.4 6.5 2.5 13.7 3.8 21.1 4.4 3.2.3 5.1-.8 6.9-3.4 10.5-15.3 21.2-30.4 31.7-45.7L372.6 162C368.4 164 363.8 165.1 359.1 165.2zM43.9 324c11.8 0 22.7 0 34.3 0C72.5 311.9 67 300.3 61 287.5 55 300.4 49.5 312.1 43.9 324zM317.4 99.5c-12.1 9.4-24.2 18.8-36.3 28.2-17.9 13.9-17.9 13.9-10.3 35.8.1.4.6.6 1.6 1.4 10.5-11.5 21.1-23 32.8-35.7L317.4 99.5zM448.7 299.9c-11.6 0-22.4 7.7-26.3 18.5-1.3 3.7 0 4.3 3.3 4.2 7.9-.2 15.7-.1 23.6-.1s15.7-.2 23.6.1c4.3.1 4.5-1.4 3.1-4.9C471.7 306.9 461.2 299.9 448.7 299.9zM360.1 98c18.3-.1 33.3 15 33.1 33.3-.1 5.1-1.4 10-3.7 14.4l14 11c1.9-3.1 3.5-6.4 4.7-9.6l-25.3-62.5c-9.6-4.5-20.5-5.9-31.2-3.9l-8.9 22.3C348 99.8 353.9 98 360.1 98zM162.7 300.2c-16.1-.4-29.7 12.6-30.1 28.6-.4 17.7 11.9 30.9 29 31.3 16.3.4 29.7-12.6 30.1-29.2C192.2 314 179.5 300.6 162.7 300.2zM616.4 300.4c-15.7 0-29 13.2-29.1 28.9-.1 17.9 12.2 30.8 29.4 30.7 16.8-.1 29.2-12.9 29.1-30.4C645.8 313.7 632.3 300.4 616.4 300.4z"/><path d="M229.3 304.9c0-3.1-.2-5.8.1-8.5.4-3.9-1.8-4-4.7-3.9-2.5.1-5-.7-5 3.6.1 31.7.1 63.4 0 95.2 0 2.6.8 3.2 3.3 3.4 4.7.4 6.6-.7 6.4-5.9-.4-10.9-.1-21.8-.1-33.4 21.2 21 44.6 14.7 56.2 3.2 16.2-16.1 16.3-39.8.7-56.2C271 286.5 249.5 287.3 229.3 304.9zM258.6 360.1c-17.3.1-29.6-12.4-29.9-30.4-.2-16.1 12.8-29.3 29-29.5 16.8-.2 30 12.9 30.1 29.8C287.8 346.5 274.8 360 258.6 360.1zM133.4 304.9c0-3.2-.2-5.9.1-8.5.4-3.9-1.8-4.1-4.6-3.9-2.5.1-5-.7-5 3.6.1 31.7.1 63.4 0 95.1 0 2.5.7 3.3 3.3 3.5 4.5.3 6.7-.5 6.4-5.9-.5-10.9-.1-21.8-.1-33.3 19.9 17.1 42.2 17.9 56.6 2.7 15.8-16.7 15.7-40-.1-56.2C174.8 286.4 153 287.4 133.4 304.9zM191.7 331c-.4 16.6-13.8 29.6-30.1 29.2-17.2-.4-29.4-13.6-29-31.3.4-16 14-29 30.1-28.6C179.5 300.6 192.2 314 191.7 331zM63.9 269.6c-.6-1.3-.8-3.3-2.9-3.2-1.7.1-1.9 1.8-2.4 3-4.5 9.4-8.9 18.8-13.4 28.2-10.8 22.9-21.6 45.8-32.6 69.2 10.8.9 10.8.9 14.9-7.8 3.2-6.8 6.5-13.4 9.4-20.3 1.5-3.5 3.3-5 7.4-4.9 11 .4 22.1.3 33.1 0 4.2-.1 6.2 1.3 7.9 5.1 3.7 8.7 8 17.1 12.1 25.6 1.1 2.2 8.3 3.9 10.4 2.5 2.2-1.4.2-2.8-.3-4C92.9 331.9 78.4 300.7 63.9 269.6zM43.9 324c5.6-11.9 11.1-23.6 17.2-36.5 6 12.8 11.5 24.4 17.2 36.5C66.6 324 55.7 324 43.9 324zM457.3 291.3c-18.7-3.4-34.7 4.8-42.9 21.8-8.9 18.4-1.7 41.9 15.9 51.3 15.1 8 40.6 6.9 52.6-13.2 1-1.7 4-3.8.1-5.6-2.7-1.3-5.5-4.6-8.1.5-1.2 2.4-3.3 4.5-5.3 6.3-8.9 7.7-19.3 9.8-30.4 6.1-10.7-3.5-16.1-11.9-18.5-22.7-1-4.3.5-5.5 4.7-5.3 9.7.3 19.3.1 29 .1s19.3-.2 29 .1c4.2.1 4.9-1.4 4.4-5.2C485.8 308.4 473.2 294.2 457.3 291.3zM472.9 322.6c-7.9-.2-15.7-.1-23.6-.1s-15.7-.1-23.6.1c-3.4.1-4.7-.6-3.3-4.2 4-10.8 14.7-18.5 26.3-18.5 12.5 0 23 7 27.3 17.9C477.3 321.2 477.1 322.7 472.9 322.6zM617 290.9c-22.7.2-39.8 17.3-39.6 39.6.1 21.4 17.8 38.9 39.3 38.7 22.1-.1 39.1-17.7 38.9-40.3C655.3 307.9 637.9 290.7 617 290.9zM616.7 360c-17.1.1-29.5-12.9-29.4-30.7.1-15.6 13.4-28.8 29.1-28.9 15.9 0 29.4 13.3 29.4 29.2C645.8 347.1 633.5 360 616.7 360zM384.4 274.7c-8.5 19.4-16.9 38.9-25.4 58.3-1.5 3.4-3.1 6.8-5 11-1.2-2.5-2-4-2.7-5.6-9.1-21.1-18.1-42.2-27.2-63.3-4-9.2-3.9-9.2-14.6-8.5 13.9 32.4 27.5 64.1 41.2 95.8.7 1.7.7 4.4 3.1 4.5 2.5.1 2.5-2.7 3.2-4.4 13.4-30.6 26.8-61.2 40-91.8.6-1.3 2-2.5 1-4.3C388.2 266 388.2 266 384.4 274.7zM566.7 292.8c-3.5-.6-7.9-2.1-10.1 3.8-4.1 10.8-9.1 21.3-13.8 31.9-3 6.7-6 13.5-9.4 21.2-7.8-17.2-15.3-33.2-22.1-49.4-2.6-6.1-5.4-9.9-13.2-7.2.9 2.1 1.7 4.3 2.6 6.4 8.6 19.2 17.2 38.4 25.9 57.5 1.3 2.9 1.4 5.3 0 8.2-4.3 9.4-8.3 19-12.5 28.5 6.6 1.9 10.8.8 13.1-6.1 2.4-7.4 6.1-14.5 9.3-21.7 10-22.9 20-45.7 29.9-68.6C567.1 296.1 569.8 293.4 566.7 292.8zM701.7 291.3c-5.3-.9-10.2.4-14.4 3.8-2.5 2.1-4.8 4.4-8 7.3 0-2.3-.1-3.5 0-4.6.6-3.9-.7-5.4-5-5.5-4.7-.1-4.9 2-4.8 5.6.1 21.5.2 43 0 64.5 0 3.8 1 4.9 4.9 5 4.3.1 5.1-1.4 5.1-5.4 0-15.1-1.2-30.4 1.8-45.4 2.1-10.8 8.6-16.2 19.1-15.9 4.6.2 5.3-3.9 6.1-6.6C707.2 291.8 703.6 291.6 701.7 291.3zM291.1 202.7c17.9 14.8 41.1 23.9 67.1 24.4 28 .6 53.8-9.9 73.1-27.7 7.6-7 14.2-15.2 19.5-24.3 8.7-14.9 13.9-32.4 14.5-51.3C467 74.4 433.2 31.4 386 19.2c-8.1-2.1-16.6-3.3-25.3-3.5-4.3-.1-8.6.1-12.8.5-51.1 5.1-91.6 46.5-94.1 99.7-1.3 27.5 7.3 52.6 22.7 71.9C280.9 193.3 285.8 198.2 291.1 202.7zM272.3 154.9c-.9-.8-1.4-1-1.6-1.4-7.5-21.8-7.5-21.9 10.3-35.8 12.1-9.4 24.2-18.8 36.3-28.2 3.7-2.8 7.3-5.7 11-8.5 7.1-5.4 15.1-8.9 23.4-10.4 10.7-1.9 21.6-.6 31.2 3.9 4 1.9 7.8 4.4 11.2 7.5 16 14.4 21.3 35.6 14.1 55.1-1.2 3.3-2.8 6.5-4.7 9.6-.3.5-.6 1-1 1.5-4 6.1-8.1 12.2-12.2 18.2-10.5 15.3-21.2 30.4-31.7 45.7-1.8 2.6-3.7 3.7-6.9 3.4-7.4-.6-14.6-1.9-21.1-4.4 11.9-12.9 23.7-25.7 35.5-38.4-15.2 2.1-29.9-1.1-42.1-12.2-2.1-1.9-4.1-4-5.8-6.1-8.2-10.2-11.5-22.6-10.7-37.9-.9 1-1.7 1.9-2.6 2.8C293.4 131.9 282.8 143.4 272.3 154.9z" class="st1"/><path d="M359.1,155.2c4.7,0,9.3-1.2,13.6-3.2c7.2-3.4,13.3-9.3,17-16.4c2.3-4.4,3.6-9.3,3.7-14.4 c0.2-18.3-14.9-33.4-33.1-33.3c-6.2,0-12.1,1.8-17.2,4.9c-10.2,6.1-17.2,17.2-17.2,29.5c0,3.5,0.5,6.8,1.5,9.9 C331.3,145.8,343.8,155.3,359.1,155.2z" class="st1"/></g></svg>