<svg xmlns="http://www.w3.org/2000/svg" role="img" viewBox="75.10 104.35 332.80 263.80"><title>arangodb.input.svg logo</title><g><path fill="#577138" d="M393.46 322.476c.368-.263.632-.42.895-.579 7.367-3.735 6.63-14.628 1.264-18.573-3.842-2.842-8.209-3.684-12.84-3.737-6.841-.052-13.681.054-20.469-.052-1.526 0-2 .368-1.947 1.947.105 3.894.053 3.894 3.788 4.63.896.157 1.422.422 1.422 1.526-.053 10.576-.053 21.206 0 31.782 0 .947-.316 1.367-1.264 1.525-1.314.263-3.104-.158-3.735.999-.579 1.053-.158 2.632-.211 4 0 .053 0 .105 0 .158-.21 1.104.369 1.367 1.422 1.367 7.787-.053 15.522.053 23.31-.053 4.209-.053 8.419-.736 11.787-3.472C404.405 337.945 402.668 326.422 393.46 322.476zM376.201 307.059c3.052.158 6.104-.316 9.155.421 3 .685 4.684 2.683 4.736 5.736.053 3.104-1.578 5.366-4.578 5.997-3.157.686-6.314.211-9.524.316-.789 0-.736-.579-.736-1.105 0-1.684 0-3.42 0-5.103 0-1.685 0-3.421 0-5.105C375.201 307.479 375.358 307.059 376.201 307.059zM386.725 339.682c-3.525.632-7.155.159-10.734.265-.789 0-.736-.58-.736-1.105 0-1.895 0-3.736 0-5.631 0-1.947.052-3.894 0-5.841 0-.842.263-1.157 1.104-1.157 3.264.104 6.578-.211 9.841.158 3.577.421 5.472 2.684 5.63 6.472C391.934 336.841 390.355 339.051 386.725 339.682zM337.999 299.586c-6.577 0-13.207.054-19.784-.052-1.631 0-2.263.315-2.157 2.104.157 3.736.053 3.789 3.788 4.473.947.157 1.369.474 1.369 1.579-.053 10.576-.053 21.205 0 31.781 0 .947-.316 1.315-1.264 1.526-3.894.736-3.841.789-3.894 4.735 0 1.316.263 1.842 1.736 1.789 3.63-.105 7.313-.053 10.944-.053 3.157 0 6.367.053 9.524 0 9.63-.157 16.943-5.893 19.101-15.206 1-4.315.526-8.683.474-13.051C357.784 307.848 349.418 299.64 337.999 299.586zM347.945 330.158c-.579 5.42-4.421 10.104-10.841 9.84-1.525-.052-3.052-.105-4.578 0-1.21.053-1.631-.263-1.578-1.526.053-4.998.053-9.998.053-14.996 0-4.946.053-9.893-.053-14.839 0-1.263.368-1.631 1.578-1.525 1.526.105 3.053 0 4.578 0 5.946.053 10.366 3.894 10.893 9.839C348.365 321.318 348.365 325.791 347.945 330.158z"/><path fill="#A2B24F" d="M275.909 312.268c.105-.895-.315-1.209-1.211-1.209-3.63.052-7.314.052-10.944 0-1.053 0-1.474.42-1.578 1.42-.105 1.104-.316 2.157-.475 3.209-.474.053-.631-.209-.789-.42-4.841-6.472-15.944-4.895-19.627 2.683-3.473 7.104-3.735 14.365-1.157 21.731 1.526 4.315 4.63 7.42 9.313 8.262 4.262.789 8.209.158 11.524-3.631 0 1.421.053 2.368 0 3.315-.421 4.684-2.946 6.894-7.682 6.841-1.422 0-2.79-.422-4.157-.631-1.579-.265-3.368-2.001-4.578-.843-1.053 1-1 3.157-1.474 4.788-.316 1.053.053 1.579 1.053 2 4.578 1.842 9.261 2.474 14.154 1.736 6.104-.895 10.945-5.419 11.997-11.471.737-4.104.264-8.21.315-12.313.053-6.051 0-12.103 0-18.153 0-.842-.104-1.579 1.105-1.789 4.157-.789 4.157-.843 4.052-5.104C275.909 312.479 275.909 312.373 275.909 312.268zM259.07 339.524c-4.209 2.579-8.998.895-10.155-3.842-1.158-4.682-1.158-9.471 1.052-13.943 1.053-2.157 2.947-2.999 5.209-2.946 2.421.053 4.473.946 5.735 3.157.211.367.158.895.211 1.368 0 2.157 0 4.367 0 6.524 0 2.052-.105 4.104.052 6.156C261.28 337.735 260.387 338.735 259.07 339.524zM125.734 341.366c-1.263.053-1.79-.526-2.21-1.736-4.473-12.944-8.998-25.836-13.471-38.78-.316-.947-.737-1.315-1.737-1.264-2.42.054-4.841.054-7.261 0-1 0-1.421.316-1.789 1.264-2.052 5.998-4.209 11.945-6.314 17.943-2.473 7.051-4.946 14.102-7.367 21.1-.21.685-.421 1.264-1.315 1.421-2.631.421-2.579.474-2.579 3.053 0 .473.053.946 0 1.42-.158 1.315.316 1.736 1.631 1.684 3.578-.105 7.156-.053 10.787-.053 3.946 0 3.894 0 3.999-3.998.053-1.475-.315-2.263-1.894-2.158-1 .053-1.421-.315-1.053-1.368.842-2.474 1.684-4.998 2.474-7.524.21-.736.631-1 1.42-1 3.683.053 7.419.053 11.103 0 .895 0 1.21.316 1.473 1.105.79 2.526 1.631 5.051 2.473 7.524.211.632.263 1.263-.631 1.21-2.315-.157-2.579 1.157-2.421 2.947.053.632.053 1.315 0 1.947-.105.999.368 1.314 1.368 1.314 2.315-.053 4.578 0 6.893 0 1.421 0 2.841 0 4.21 0 4.051 0 3.999 0 4.051-4.051C127.628 341.944 127.154 341.261 125.734 341.366zM107.896 324.318c-2.158 0-4.315 0-6.525 0-.842 0-1.158-.265-.895-1.158 1.316-3.999 2.579-7.998 3.894-11.997.158 0 .263 0 .421-.053 1.263 4.052 2.579 8.103 3.894 12.155C109.001 324.107 108.685 324.37 107.896 324.318zM233.287 341.208c-2.525-.315-2.473-.421-2.525-3.052-.105-5.683.421-11.418-.369-17.101-1.105-8.209-8.84-12.208-16.312-8.683-1.894.895-3.21 2.474-4.736 3.841-.578-.841-.473-1.735-.473-2.525.052-1.473-.526-1.895-2-1.842-3.525.105-7.05.105-10.576 0-1.474-.053-1.894.369-1.894 1.842.053 3.842 0 3.894 3.683 4.631 1.105.21 1.578.579 1.578 1.841-.052 6.367-.052 12.734 0 19.049 0 1.053-.262 1.578-1.42 1.789-3.21.631-3.21.685-3.21 4.052 0 .315.053.579 0 .895-.157 1.157.316 1.525 1.474 1.473 4.368-.053 8.682 0 13.049 0 3.578 0 3.473 0 3.631-3.63.052-1.737-.421-2.684-2.211-2.736-1.42 0-1.684-.737-1.684-2.053.053-5.367 0-10.681.053-16.049 0-.526-.053-1.053.21-1.525 1-1.79 4.525-3.104 7.104-2.578 2.631.526 3.999 1.999 4.262 4.683.526 5.315.105 10.682.263 16.049.052 1.053-.526 1.263-1.369 1.421-2.894.685-2.894.685-2.894 3.735 0 .421.053.843 0 1.211-.158 1.157.368 1.525 1.473 1.525 4.367-.053 8.683 0 13.049 0 3.894 0 3.788 0 3.947-3.841C235.392 341.944 234.866 341.366 233.287 341.208zM191.192 341.419c-1.736.158-1.842-.895-1.842-2.21.053-5.367.053-10.735 0-16.049-.053-3.894-1.631-6.998-4.893-9.261-4.157-2.841-8.841-3.105-13.576-2.421-3.525.474-6.788 1.789-9.787 3.789-1 .684-1.158 1.315-.368 2.263 1.052 1.263 2.052 2.578 2.999 3.894.579.789.895.737 1.631.157 1.789-1.368 3.789-2.368 5.946-2.999 5.052-1.473 8.208.895 8.314 5.998.053 1.579-.369 2.001-1.947 1.947-4.894-.211-9.629.315-13.997 2.789-6.261 3.473-5.578 11.787-2.263 15.312 4.209 4.474 12.313 4.789 17.207.632.42-.368.736-.947 1.473-1.053.158.475.421.947.474 1.474.21 1.474.947 1.947 2.42 1.789 1.684-.157 3.42-.053 5.104-.053 4.63 0 4.63 0 4.42-4.63C192.455 341.839 192.086 341.366 191.192 341.419zM178.037 339.366c-2.158 1.315-4.368 2.105-6.841 1.368-1.631-.473-2.473-1.684-2.578-3.42-.105-2.053 1.053-3.999 2.789-4.736.474-.21 1-.314 1.526-.473 1.158-.264 2.315-.316 3.262-.264 3.42 0 3.368 0 3.42 3.158C179.563 336.631 179.826 338.314 178.037 339.366zM294.325 311.215c-7.419 0-13.26 3.842-15.47 10.314-1.578 4.525-1.789 9.207-.684 13.892.789 3.525 2.42 6.577 5.209 8.997 3.789 3.315 8.262 3.947 13.049 3.631 6.104-.421 10.472-3.525 13.051-9.051 1.841-3.946 1.999-8.156 1.578-12.417C310.164 317.161 303.744 311.215 294.325 311.215zM299.377 338.367c-2.578 3.525-8.524 3.104-10.523-.789-1.316-2.474-1.736-5.104-1.578-7.63-.053-2.736.21-5.21 1.367-7.578 2.157-4.42 8.156-4.999 10.997-1C302.376 325.265 302.271 334.474 299.377 338.367zM155.516 311.373c-3.21-.789-6.578.526-8.577 3.263-.368.526-.526 1.21-1.263 1.526-.316-.843-.421-1.736-.369-2.579.105-1.315-.473-1.684-1.736-1.684-3.42.105-6.84.105-10.208 0-1.684-.053-2.368.264-2.263 2.157.158 3.579.053 3.631 3.578 4.315 1 .21 1.526.526 1.473 1.684-.053 6.42-.053 12.839 0 19.206 0 1.104-.315 1.525-1.42 1.736-3.209.579-3.157.631-3.157 3.894 0 2.473 0 2.525 2.42 2.525 4.052 0 8.104 0 12.155 0 4.473 0 4.473 0 4.368-4.42 0-1.104-.316-1.684-1.474-1.684-.526 0-1.052-.263-1.579-.263-1.263-.053-1.631-.632-1.631-1.895.053-4.631 0-9.313.053-13.944 0-2.736 1.368-4.367 4.104-4.683 1.369-.158 2.842-.053 4.209-.053.632 0 1.158.053 1.263-.843.21-2.419.474-4.787.79-7.155C156.41 311.794 156.2 311.531 155.516 311.373z"/></g><g><path fill="#577138" d="M358.957,188.607c-4.676-15.588-15.121-27.591-24.473-40.373c-17.771-24.005-40.842-37.254-62.041-37.411 c-40.685-0.78-69.366,17.77-81.681,46.919c-1.558,3.741-3.585,5.301-7.327,6.081c-13.562,3.117-27.122,6.235-39.75,12.626 c-8.573,4.365-17.302,8.417-22.758,16.835c-6.859,10.6-6.079,21.823-3.43,33.516c6.859,28.992,24.474,46.92,53.623,53.465 c17.927,3.898,35.384,3.431,51.753-5.923c10.289-5.768,18.549-14.027,26.656-22.448c2.026-2.181,3.585-2.648,6.235-1.401 c4.987,2.496,9.977,4.832,14.964,7.327c15.9,7.95,32.112,14.495,50.35,13.405c28.994-1.715,46.297-21.2,44.427-49.571 C364.881,210.432,362.231,199.52,358.957,188.607z M251.556,228.045c-17.459,11.69-35.541,21.824-56.429,26.031 c-6.703,1.404-13.406,1.872-17.927,1.56c-16.835,0-31.019-1.712-43.491-10.287c-14.652-10.29-20.887-32.736-12.47-48.479 c2.65-5.145,7.171-8.886,12.159-11.848c17.303-10.756,36.632-15.744,56.274-19.796c20.419-4.365,41.151-9.041,62.508-8.885 c10.288,0,19.484,4.053,26.031,12.314c5.768,7.482,4.054,15.899,1.248,23.85C274.002,207.47,264.649,219.315,251.556,228.045z M357.71,240.83c-6.547,16.366-20.421,21.822-36.164,24.158c-16.835,2.495-30.708-5.455-45.049-12.158 c-4.677-2.181-9.198-4.987-14.029-6.856c-4.209-1.56-4.833-3.119-1.403-6.079c5.301-6.703,10.6-13.406,14.809-20.891l0,0l0,0 c5.145-11.066,8.262-22.757,8.262-35.071c0-19.018-10.133-27.435-29.306-29.618c-3.741-0.467-7.639-0.156-11.536-0.156 c-12.938,0.936-25.876,2.963-38.658,5.301l0,0l0,0c-2.65-0.156-5.923,2.962-7.639,0.156c-1.246-2.026,1.871-4.521,3.273-6.703 c9.354-16.211,23.382-26.188,40.997-31.8c15.432-4.832,30.709-5.923,46.607-1.714c13.095,3.429,22.447,11.379,31.021,20.888 c10.6,11.69,20.264,23.85,28.058,37.412c7.639,13.25,11.536,27.434,12.628,42.554C359.893,227.265,360.516,234.126,357.71,240.83z"/><path fill="#DCDF72" d="M299.412,256.728c11.533,4.987,23.069,4.052,34.448-0.155c13.874-5.145,20.421-15.743,21.356-29.931 c1.247-19.952-4.989-37.722-16.367-53.778c-7.172-10.132-14.498-20.42-22.915-29.617c-11.536-12.47-25.253-20.265-42.712-20.732 c-18.082-0.468-34.917,3.742-50.037,13.562c-8.418,5.455-15.433,12.938-18.55,23.07l0,0c12.782-2.338,25.72-4.365,38.658-5.3 c0.78-0.312,1.56-0.936,2.339-0.78c6.704,0.468,12.938-0.936,19.329-3.117c7.482-2.65,14.498,0.312,20.421,4.675 c12.782,9.51,21.667,21.512,21.667,38.191c0,12.002-10.444,25.875-25.252,24.939c-2.026-0.153-4.209-0.309-6.08,1.094l0,0 c-4.053,7.639-9.508,14.183-14.809,20.886c4.988,5.144,12.004,5.926,18.082,8.73C285.538,251.894,292.709,253.924,299.412,256.728z"/><path fill="#A2B24F" d="M346.954,177.697c-7.949-13.562-17.614-25.877-28.058-37.412c-8.574-9.509-17.927-17.459-31.021-20.888 c-15.898-4.209-31.176-3.118-46.607,1.714c-17.615,5.457-31.643,15.589-40.997,31.8c-1.246,2.182-4.52,4.677-3.273,6.703 c1.715,2.649,4.989-0.312,7.639-0.156l0,0c3.117-10.132,9.976-17.615,18.549-23.07c15.121-9.82,31.956-13.874,50.038-13.562 c17.459,0.468,31.176,8.106,42.712,20.732c8.417,9.197,15.743,19.485,22.915,29.617c11.378,16.056,17.614,33.826,16.367,53.778 c-0.936,14.185-7.482,24.787-21.356,29.93c-11.379,4.208-22.915,5.144-34.448,0.156c-6.703-2.808-13.719-4.835-20.266-8.107 c-6.078-2.96-13.094-3.742-18.082-8.728c-3.586,2.96-2.806,4.52,1.403,6.079c4.831,1.869,9.353,4.676,14.029,6.856 c14.341,6.703,28.37,14.654,45.049,12.159c15.743-2.337,29.617-7.948,36.164-24.161c2.649-6.703,2.183-13.562,1.716-20.418 C358.49,205.131,354.593,190.946,346.954,177.697z"/><path fill="#A2B24F" d="M279.303,192.505c2.806-7.951,4.52-16.368-1.248-23.85c-6.547-8.417-15.587-12.314-26.031-12.314 c-21.2-0.156-41.933,4.52-62.664,8.885c-19.641,4.209-38.971,9.041-56.273,19.796c-4.989,3.118-9.51,6.859-12.159,11.848 c-8.261,15.744-2.182,38.19,12.47,48.479c12.471,8.727,26.655,10.287,43.491,10.287c4.521,0.312,11.379-0.312,17.926-1.56 c20.889-4.207,38.97-14.341,56.429-26.031C264.649,219.315,274.002,207.47,279.303,192.505z M243.293,229.137 c-14.808,8.886-29.773,17.46-47.075,20.576c-14.03,2.492-28.371,3.275-42.4-0.312c-16.368-3.898-28.994-18.706-29.617-35.541 c-0.312-9.198,4.209-16.679,11.224-22.604c10.912-9.197,23.85-14.028,37.568-16.991c0.311,0,0.778,0.468,1.246,0.78 c11.536-8.885,24.629-10.6,38.659-9.509c1.246-2.961,4.208-2.026,6.391-2.649c12.002-2.962,24.16-4.209,36.164-1.715 c22.602,4.521,25.408,17.147,18.081,35.542C267.768,211.521,256.389,221.186,243.293,229.137z"/><path fill="#A2B24F" d="M281.797,217.914c14.808,0.936,25.252-12.939,25.252-24.941c0-16.679-8.885-28.682-21.667-38.191 c-6.079-4.364-12.938-7.325-20.421-4.676c-6.391,2.182-12.625,3.585-19.329,3.118c-0.779,0-1.559,0.624-2.339,0.78 c3.897,0,7.638-0.312,11.536,0.154c19.173,2.184,29.306,10.6,29.306,29.619c0,12.314-3.117,24.004-8.262,35.074l0,0 C277.588,217.755,279.615,217.755,281.797,217.914z"/><path fill="#DCDF72" d="M255.453,161.328c-12.004-2.494-24.318-1.09-36.164,1.715c-2.184,0.468-5.145-0.312-6.391,2.65 c13.716,2.649,24.316,10.132,31.487,22.134c5.923,9.822,4.365,19.33-4.675,26.967c-9.51,8.263-20.889,12.159-33.358,13.562 c-16.679,1.871-31.645-3.116-45.674-11.69c-3.897-2.339-4.988-5.457-4.52-9.665c1.558-13.25,8.261-23.538,18.082-31.956l0,0 c-0.468-0.312-0.936-0.78-1.246-0.78c-13.718,2.963-26.656,7.794-37.568,16.991c-7.015,5.924-11.536,13.406-11.224,22.604 c0.624,16.679,13.406,31.488,29.617,35.541c14.186,3.428,28.371,2.804,42.4,0.312c17.146-3.116,32.267-11.69,46.92-20.576 c13.094-7.951,24.473-17.615,30.24-32.111C280.861,178.475,278.055,165.849,255.453,161.328z"/><path fill="#5E3108" d="M156.157,207.002c-0.468,4.053,0.623,7.325,4.52,9.665c14.029,8.574,28.995,13.562,45.674,11.69 c12.314-1.403,23.849-5.299,33.358-13.562c8.885-7.637,10.599-17.146,4.675-26.967c-7.326-12.002-17.771-19.485-31.487-22.134 c-13.874-1.092-27.124,0.624-38.659,9.508l0,0C164.262,183.62,157.56,193.908,156.157,207.002z"/></g></svg>