<svg xmlns="http://www.w3.org/2000/svg" role="img" viewBox="1.80 6.30 426.40 478.40"><title>architect.input.svg logo</title><style>svg {enable-background:new 0 0 432 491.1}</style><style>.st0{fill:#2e2e2e}</style><g><path d="M251,15.7c6.3,0,12.6,0,18.9,0.1c34.9,3.1,64.2,29.8,72.2,66c1.5,6.8,2.3,13.7,3.2,20.5 c1.1,8.5,1.7,9.2,10.5,10.1c17.2,1.9,32.7,7.7,44.5,20.9c17.9,20,23.2,43.2,15.1,68.7c-7.9,24.7-24.8,40.4-50.5,45.7 c-4.8,1-9.8,1.2-14.7,1.2c-15.7,0.1-31.4,0.1-47.1,0c-3,0-5.6,0.6-8.3,2.1c-13.5,7.6-27.1,15.1-40.6,22.6c-1.2,0.7-2.4,1.5-4.2,2.7 c15.2,4.2,29.7,8.3,45,12.5c-32.2,39.3-64,78.1-95.7,116.9c-0.4-0.3-0.8-0.6-1.2-0.9c12.2-28.3,24.3-56.7,36.5-84.9 c1.7-3.8-0.4-4-3-4.8c-25.1-7.2-50.1-14.5-75.1-21.8c-1.4-0.4-2.8-0.9-4.9-1.5c11.7-14.1,23.2-27.9,35.3-42.4 c-2.7-0.1-4.5-0.3-6.4-0.3c-39.8,0-79.6,0.1-119.5,0c-29.1-0.1-50.3-21.6-49.8-50.4c0.5-29.2,26.7-51.2,55.4-46.5 c5.5,0.9,12.5,4.4,16.1,1.3c3.2-2.7,2.3-10.2,3-15.6c2.9-23.3,12.1-42.7,32.9-55.2c16.5-9.9,34.2-10.3,52.4-5.9 c8.1,1.9,8.2,3.6,12.5-6.3c10.9-24.7,28.3-42.7,54.2-51.7C242,17.1,246.4,15.8,251,15.7z" class="st0"/><path fill="#fefefe" d="M183 194.1c-6.3 7.9-14.2 9-22.7 7.9-10.7-1.3-16.8-8.2-17.1-18.6-.3-10 5-16.2 15.6-18.6 6.9-1.5 13.8-.9 20.7-.9 3.4 0 4.1-1 2.9-4.1-1.3-3.5-3.6-5.5-7.1-5.9-4.3-.6-8.8-.5-12.1 2.3-4.3 3.6-6.5 1.6-9.4-1.7-7.1-8-7.1-9.1 2.8-13.7 9.8-4.6 20.2-5 30.4-1.5 10.8 3.8 15.3 12.7 15.7 23.5.4 11.5 0 23 .2 34.5 0 2.9-.8 3.9-3.7 3.7-2.9-.2-5.9-.3-8.8 0C185.5 201.5 181.5 201.2 183 194.1zM304.5 137.3c8.3-.1 16 2.8 22.3 9.4 2.3 2.4 2.2 3.8-.5 5.4-1.4.9-2.6 2-3.8 3.1-3.9 3.7-7.1 6.5-12.8 1.4-4.9-4.4-13.4-2.2-17.3 2.5-4.5 5.4-4.3 16.2.4 21.5 4.2 4.7 12.6 6.3 18 2 4.5-3.6 7.1-2.5 10.1 1 .6.7 1.3 1.3 2 1.9 6.9 6.1 6.9 6.5-.8 11.6-13.9 9.3-35.9 5.9-46.3-7.1-10.4-13-9.1-32.5 2.9-43.9C285 140.2 293.5 137.1 304.5 137.3zM237.1 147.9c5.6-9.6 13.3-11.8 22.6-10.1 3.3.6 5.5 2 3.4 5.9-.5.9-.8 2-1.1 3.1-1.1 3.1-1.6 6.6-3.4 9.2-2.4 3.4-5.8-.3-8.9-.1-7.9.7-12.3 4.6-12.7 13.5-.4 9.1-.3 18.3-.1 27.4.1 3.3-.8 4.6-4.3 4.3-3.8-.3-7.7-.3-11.5 0-3.6.3-4.2-1.2-4.2-4.4.1-18.1.1-36.2 0-54.2 0-3.1.9-4.2 4-3.9 2.2.2 4.4 0 6.6 0C236.2 138.5 236.2 138.5 237.1 147.9z"/><path fill="#fdfdfd" d="M133.8,189.5c-0.1,7-5.5,12.5-12.4,12.5c-6.9,0-12.4-5.6-12.4-12.5c0-7,5.4-12.3,12.5-12.4 C128.5,177,133.9,182.4,133.8,189.5z"/><path fill="#303030" d="M174.9,175.7c0.9,0,1.8-0.1,2.7,0c1.8,0.4,4.5-1.2,5.3,1.1c0.9,2.5-0.2,5-2.2,6.9c-3.4,3.2-11.4,4.2-15.4,1.8 c-1.9-1.1-3-2.7-2.7-4.9c0.3-2.4,1.8-4.1,4.1-4.5c2.7-0.5,5.4-0.4,8.1-0.6C174.9,175.6,174.9,175.6,174.9,175.7z"/></g><g><path d="M79.8 418.8l20.9 55.8H87.9l-4.2-12.4H62.8l-4.4 12.4H46.1l21.1-55.8H79.8zM80.5 453.1l-7-20.5h-.2L66 453.1H80.5zM114.9 434.2v7.5h.2c.5-1.2 1.2-2.4 2.1-3.5.9-1.1 1.9-2 3-2.7 1.1-.8 2.4-1.3 3.7-1.8 1.3-.4 2.7-.6 4.1-.6.7 0 1.5.1 2.4.4v10.3c-.5-.1-1.1-.2-1.9-.3-.7-.1-1.4-.1-2.1-.1-2 0-3.8.3-5.2 1-1.4.7-2.5 1.6-3.4 2.8-.9 1.2-1.5 2.5-1.8 4.1-.4 1.6-.5 3.3-.5 5.1v18.2h-11.1v-40.4H114.9zM152.6 441.5c-1.8 0-3.3.4-4.5 1.2-1.2.8-2.2 1.8-2.9 3.1-.8 1.3-1.3 2.7-1.6 4.2-.3 1.5-.5 3.1-.5 4.6 0 1.5.2 2.9.5 4.5.3 1.5.8 2.9 1.5 4.1.7 1.2 1.7 2.2 2.9 3 1.2.8 2.7 1.2 4.4 1.2 2.7 0 4.7-.7 6.1-2.2 1.4-1.5 2.3-3.5 2.7-6h10.7c-.7 5.4-2.8 9.5-6.3 12.3-3.4 2.8-7.8 4.2-13.2 4.2-3 0-5.8-.5-8.3-1.5-2.5-1-4.7-2.4-6.4-4.3-1.8-1.8-3.2-4-4.1-6.5-1-2.5-1.5-5.3-1.5-8.3 0-3.1.5-6 1.4-8.7.9-2.7 2.3-5 4-7 1.8-2 3.9-3.5 6.5-4.6 2.6-1.1 5.5-1.6 8.8-1.6 2.4 0 4.7.3 6.9.9 2.2.6 4.2 1.6 5.9 2.9 1.7 1.3 3.2 2.9 4.3 4.8 1.1 1.9 1.7 4.2 1.9 6.8h-10.9C160.1 443.8 157.4 441.5 152.6 441.5zM189.3 418.8v21h.2c1.4-2.3 3.2-4.1 5.4-5.1 2.2-1.1 4.3-1.6 6.4-1.6 3 0 5.4.4 7.3 1.2 1.9.8 3.4 1.9 4.5 3.4 1.1 1.4 1.9 3.2 2.3 5.2.4 2.1.7 4.3.7 6.8v24.9H205v-22.8c0-3.3-.5-5.8-1.6-7.5-1-1.6-2.9-2.5-5.5-2.5-3 0-5.2.9-6.6 2.7-1.4 1.8-2 4.8-2 8.9v21.2h-11.1v-55.8H189.3zM224.8 428v-9.1h11.1v9.1H224.8zM235.9 434.2v40.4h-11.1v-40.4H235.9zM266.9 434.2v7.4h-8.1v20c0 1.9.3 3.1.9 3.8s1.9.9 3.8.9c.6 0 1.2 0 1.8-.1.6-.1 1.1-.1 1.6-.2v8.6c-.9.2-2 .3-3.1.3-1.1.1-2.3.1-3.4.1-1.7 0-3.3-.1-4.9-.4-1.5-.2-2.9-.7-4.1-1.4-1.2-.7-2.1-1.6-2.8-2.9-.7-1.3-1-2.9-1-4.9v-23.8h-6.7v-7.4h6.7v-12.1h11.1v12.1H266.9zM284.1 465c1.7 1.6 4.1 2.4 7.2 2.4 2.2 0 4.2-.6 5.8-1.7 1.6-1.1 2.6-2.3 3-3.6h9.8c-1.6 4.8-4 8.3-7.2 10.4s-7.1 3.1-11.7 3.1c-3.2 0-6-.5-8.6-1.5-2.6-1-4.7-2.5-6.5-4.3-1.8-1.9-3.1-4.1-4.1-6.7-1-2.6-1.4-5.5-1.4-8.6 0-3 .5-5.8 1.5-8.4 1-2.6 2.4-4.9 4.2-6.8 1.8-1.9 4-3.4 6.5-4.5 2.5-1.1 5.3-1.6 8.4-1.6 3.4 0 6.4.7 9 2s4.7 3.1 6.3 5.4c1.6 2.2 2.8 4.8 3.6 7.7.7 2.9 1 5.9.8 9h-29.2C281.5 460.7 282.4 463.3 284.1 465zM296.6 443.7c-1.3-1.5-3.3-2.2-6.1-2.2-1.8 0-3.2.3-4.4.9-1.2.6-2.1 1.3-2.8 2.2-.7.9-1.2 1.8-1.5 2.8-.3 1-.5 1.9-.5 2.7h18.1C298.9 447.3 297.9 445.2 296.6 443.7zM336.4 441.5c-1.8 0-3.3.4-4.5 1.2-1.2.8-2.2 1.8-2.9 3.1-.8 1.3-1.3 2.7-1.6 4.2-.3 1.5-.5 3.1-.5 4.6 0 1.5.2 2.9.5 4.5.3 1.5.8 2.9 1.5 4.1.7 1.2 1.7 2.2 2.9 3 1.2.8 2.7 1.2 4.4 1.2 2.7 0 4.7-.7 6.1-2.2 1.4-1.5 2.3-3.5 2.7-6h10.7c-.7 5.4-2.8 9.5-6.3 12.3s-7.8 4.2-13.2 4.2c-3 0-5.8-.5-8.3-1.5-2.5-1-4.7-2.4-6.4-4.3-1.8-1.8-3.2-4-4.1-6.5-1-2.5-1.5-5.3-1.5-8.3 0-3.1.5-6 1.4-8.7.9-2.7 2.3-5 4-7 1.8-2 3.9-3.5 6.5-4.6 2.6-1.1 5.5-1.6 8.8-1.6 2.4 0 4.7.3 6.9.9 2.2.6 4.2 1.6 5.9 2.9 1.7 1.3 3.2 2.9 4.3 4.8 1.1 1.9 1.7 4.2 1.9 6.8h-10.9C343.8 443.8 341.1 441.5 336.4 441.5zM384.1 434.2v7.4H376v20c0 1.9.3 3.1.9 3.8s1.9.9 3.8.9c.6 0 1.2 0 1.8-.1.6-.1 1.1-.1 1.6-.2v8.6c-.9.2-2 .3-3.1.3-1.1.1-2.3.1-3.4.1-1.7 0-3.3-.1-4.9-.4-1.5-.2-2.9-.7-4.1-1.4-1.2-.7-2.1-1.6-2.8-2.9-.7-1.3-1-2.9-1-4.9v-23.8h-6.7v-7.4h6.7v-12.1H376v12.1H384.1z" class="st0"/></g></svg>