<svg xmlns="http://www.w3.org/2000/svg" role="img" viewBox="9.16 9.16 95.94 19.57"><title>arrikto.input.svg logo</title><path d="M17.21244 15.54432l-2.12709 6.93254h4.22554l-2.09845-6.93254zm3.52374 11.1347l-.65037-1.95048h-5.77777l-.65536 1.95049H11l5.30753-15.3094h1.78378l5.30254 15.3094h-2.65767zm34.5798.00012h2.39856V16.48086h-2.39856v10.19828zM56.50495 11c.98326 0 1.78119.78249 1.78119 1.7747 0 .96433-.79793 1.74422-1.78119 1.74422-.96524 0-1.7482-.7799-1.7482-1.74422 0-.99221.78296-1.7747 1.7482-1.7747zM70.67 21.584l4.25 5.095h-2.985l-3.747-4.482v4.482h-2.394V11.37h2.394v9.622l3.747-4.511h2.985zm16.12839 5.09505c-.37086.06205-1.0744.128-1.77077.128-1.1586 0-3.32084-.1546-3.32084-3.58249V18.473H79.9766v-1.99221h1.73018v-3.0733h2.38815v3.0733h2.353v1.99221h-2.353v4.2c0 1.77211.56183 1.99092 1.5019 1.99092.37086 0 .96025-.03286 1.20156-.08843v2.10357zm14.07593-5.0946c0-1.7494-1.18117-3.24432-3.03613-3.24432-1.79117 0-2.97775 1.49492-2.97775 3.24432 0 1.7479 1.18658 3.23395 2.97775 3.23395 1.85496 0 3.03613-1.48605 3.03613-3.23395m-8.40963 0c0-2.88605 2.13404-5.35675 5.3735-5.35675 3.29284 0 5.43209 2.4707 5.43209 5.35675 0 2.88087-2.13925 5.35287-5.4321 5.35287-3.23945 0-5.37349-2.472-5.37349-5.35287M35.955 16.481h-6.494v10.198h2.396v-7.952h4.098zm12.692 0h-6.5v10.198h2.394v-7.952h4.106z"/></svg>