<svg xmlns="http://www.w3.org/2000/svg" role="img" viewBox="0.32 6.32 330.61 412.36"><title>atomist.input.svg logo</title><style>svg {enable-background:new 0 0 331.3 424.1}</style><style>.st369{fill:#c4db71}.st371{fill:#909ca8}.st372{fill:#1b344b}.st373{fill:#1f6b37}.st374{fill:#297d7d}.st375{fill:#041924}.st376{fill:#031510}</style><g><path d="M10.3,326.9c3.2,11.4,14,18.6,25.2,18.2c13.7-0.4,27.5-0.4,41.2,0c10.2,0.3,17.8-3.8,24.1-11.3 c6.6-7.8,13.8-15.1,20.6-22.9c0.9-1.1,1.9-2.5,3.6-2c-0.1-0.3-0.1-0.7-0.2-1c-3.5-13.9-6.9-27.8-10.4-41.7 c-6.3-25.1-12.7-50.2-19.1-75.3c-1.3-5-0.3-9.7,1.3-14.4c9.4-27.6,18.8-55.2,28.3-82.7c0.3-1,0.6-2,0.9-3.1c-4-0.2-8-0.6-12,0.6 c-7,2.2-12.3,6.2-15.4,12.9c-5.1,10.8-9.4,21.9-14.1,32.8c-12.8,30.3-25.5,60.6-38.3,90.9c-11.5,27.4-23,54.8-34.6,82.2 c-0.6,1.5-1.1,3.1-1.5,4.6c-0.2,0.7-0.2,1.7-1.4,1.6c0,2.6,0,5.3,0,7.9C10.1,324.6,10,326,10.3,326.9z" class="st369"/><path d="M9.9 314.9c.4-1.6.9-3.1 1.5-4.6C23 282.9 34.4 255.5 46 228.1c12.8-30.3 25.5-60.6 38.3-90.9 4.6-11 9-22.1 14.1-32.8 3.2-6.7 8.5-10.7 15.4-12.9 4-1.2 8-.9 12-.6 0-.1.1-.3.1-.4 0 0 0 0 0 0-10-2.1-18.2 1-24.9 8.4-3.7 4.2-5.4 9.5-7.5 14.6C75.8 155.2 58.1 197 40.6 238.9c-10.8 25.8-22.4 51.3-32.1 77.6C9.7 316.6 9.7 315.6 9.9 314.9zM35.3 346c14.5-.4 29.1-.1 43.6-.1 7.7 0 14.1-2.7 19.3-8.2 5.5-5.9 10.8-12.1 16.4-18 3.4-3.6 6.2-7.8 10.3-10.7 0 0 0 0 0 0 0 0 0 0 0 0-1.8-.5-2.7 1-3.6 2-6.8 7.7-14 15-20.6 22.9-6.4 7.5-13.9 11.6-24.1 11.3-13.7-.5-27.5-.4-41.2 0-11.2.4-22-6.8-25.2-18.2-.3-1-.2-2.4-1.8-2.5.2.3.5.7.6 1C11.5 337.3 22.3 346.3 35.3 346z" class="st369"/><g><path fill="none" d="M36 399c-1.1-3-2.2-6-3.6-9.8-1.4 3.8-2.5 6.8-3.6 9.7-.2.5-.7 1.5 0 1.6 2.3.2 4.6.1 7 0 .6 0 .5-.8.4-1.2C36 399.2 36 399.1 36 399zM122.5 388.1c-4.8-.1-8.3 3.4-8.4 8.5-.1 5.3 3.2 9 8.1 9.1 4.7 0 8.2-3.6 8.3-8.7C130.6 392 127.2 388.2 122.5 388.1z"/><path fill="#2c7e7e" d="M190 388c0-3.6-1.6-4.9-5.1-4.5-2.5.2-3.7 1.8-4.6 3.9-1.5 3.7-3 7.4-4.7 11.7 0 0-.1 0-.1 0-.1 0-.2 0-.3-.1-1.9-4.6-3.4-8.5-5-12.3-1.2-2.7-3.5-3.8-6.5-3.1-2.8.6-3 2.6-3 4.9 0 5.8.1 11.6 0 17.4 0 2.1.4 4.2 2.4 4.8.2.1.4 0 .6 0 2.4-.4 2.9-2.5 2.9-4.7-.1-4.2 0-8.3.2-12.6 3.1 5.6 4.8 11.8 7.9 17.3.4 0 .8 0 1.2 0 3-4.6 4.3-10 6.6-14.9.5-1 .5-2.1 1.8-3.1 0 4.7.1 9.1 0 13.4-.1 2.2.5 4.1 2.6 4.6.2 0 .4 0 .6 0 2.1-.5 2.6-2.5 2.5-4.7C190 400 190.1 394 190 388zM118.6 383.5c-7.6 1.9-11.8 8.9-10.1 16.6 1.3 5.8 5.1 9.6 10.5 10.6 2 .4 4.1.3 6.1-.1.5-.1.9-.4 1.4-.5 7.4-2.3 11.5-9.6 9.2-17.3C133.7 385.6 126.2 381.6 118.6 383.5zM122.2 405.6c-4.8 0-8.2-3.8-8.1-9.1.1-5.1 3.6-8.6 8.4-8.5 4.7.1 8.1 3.9 8 8.9C130.4 402 126.9 405.7 122.2 405.6zM37.4 387.3c-.9-2.4-2.4-4.1-5.1-4.1-2.7 0-4.2 1.6-5.1 4-2.3 5.9-4.5 11.7-7 17.5-1.1 2.6-1 5.1 1.7 5.9.4.1.8 0 1.2 0 1.2-.4 2-.9 2.1-2 .5-3.3 2.8-2.9 5.2-3 1.2 0 2.4 0 3.6 0 2.4 0 4.7-.3 5.2 3 .1 1.1 1 1.8 2.2 2 .2 0 .4 0 .6 0 3-.6 3.4-3 2.2-5.8C41.9 399.1 39.7 393.2 37.4 387.3zM35.7 400.5c-2.3.1-4.7.2-7 0-.7-.1-.1-1.1 0-1.6 1-3 2.2-5.9 3.6-9.7 1.4 3.8 2.5 6.8 3.6 9.8 0 .1 0 .2.1.3C36.1 399.8 36.3 400.5 35.7 400.5zM261.5 394.8c-2.2-.7-4.5-1.2-6.7-1.9-1.3-.4-2.7-.8-2.6-2.5.2-1.8 1.6-2.2 3.1-2.3 2.3-.3 4.4.5 6.5 1.4 1.7.8 3.3.5 4.1-1.3.8-1.7-.4-2.7-1.8-3.4-4.3-2-8.8-2.6-13.3-.5-3 1.4-4.7 3.8-4.6 7.2.1 3.4 2.1 5.4 5.1 6.5 2.3.8 4.7 1.3 7 2.1 1.5.5 3.5.7 3.2 3-.3 2.2-2.2 2.5-3.9 2.6-2.6.2-5-.7-7.2-2-1.6-.9-3.1-.7-3.9 1-.8 1.5 0 2.7 1.3 3.6 1.7 1.4 3.8 1.8 5.9 2.3 2 .5 4.1.4 6.1 0 .5-.1.9-.4 1.4-.6 4.2-1.3 6.4-3.9 6.5-7.8C267.6 398.7 265.7 396.2 261.5 394.8zM84.3 383.6c-5.8-.1-11.6 0-17.4 0-1.3 0-2.1.8-2.2 2.1-.1 1.5.7 2.4 2 2.6 1.2.2 2.4.3 3.6.2 1.9-.2 2.4.5 2.4 2.4-.1 5 0 10-.1 14.9 0 2.1.6 3.7 2.4 4.8.4 0 .8 0 1.2 0 1.8-1.1 2.4-2.7 2.4-4.8-.1-4 0-7.9 0-11.9 0-5 0-5 4.8-5.4.3 0 .6 0 .9-.1 1.3-.3 2.3-1.1 2.3-2.5C86.6 384.6 85.7 383.6 84.3 383.6zM311.2 385.7c-.1-1.1-.7-2-1.9-2.1-6-.1-12-.1-18 0-1.1 0-1.8.9-1.9 2-.1 1.3.4 2.3 1.6 2.6 1.3.3 2.6.4 3.9.3 2.1-.2 2.6.7 2.5 2.6-.1 5 0 10-.1 14.9-.1 2.2.4 4.2 2.5 4.7.2 0 .4 0 .6 0 2.1-.4 2.7-2.4 2.6-4.6-.1-4.1 0-8.1 0-12.2 0-5 0-5 4.9-5.4.5 0 1-.1 1.5-.3C310.8 387.9 311.4 387 311.2 385.7zM221.5 387.3c0-2-.4-3.9-2.8-4-2.5-.1-3.1 1.8-3.1 4 0 6.2.1 12.4 0 18.6 0 2.1.4 4.2 2.5 4.8.2.1.4 0 .6 0 2.2-.4 2.9-2.3 2.8-4.5C221.5 399.9 221.5 393.6 221.5 387.3z"/></g><path d="M322.7,259.2c0,2.2,0,4.3,0,6.5c0.2,0,0.3,0,0.5,0.1c0-2.2,0-4.5,0-6.7C323,259.2,322.9,259.3,322.7,259.2z" class="st371"/><path d="M322.7 259c0 .1 0 .1 0 .2.2 0 .3 0 .5-.1C323 259 322.9 259 322.7 259zM322.7 265.7c0 .1 0 .1 0 .2l.3 0 .3-.1C323 265.7 322.9 265.7 322.7 265.7z" class="st371"/><path d="M322.6,259.2c-0.1,0-0.1-0.1-0.2-0.1c-2.9-9.7-8.1-18.4-12.6-27.4c-20.2-40.5-40.1-81.1-60.4-121.6 c-5.9-11.8-12-23.6-17.5-35.6c-5.3-11.8-16.6-19-29.8-16.3c-0.3,0-0.6-0.1-0.9-0.1c-0.1,0.1-0.2,0.1-0.3,0.2 c3.2,8.9,6.3,17.8,9.5,26.6c4.5,12.5,9.1,24.9,13.7,37.4c7.5,20.4,14.9,40.8,22.4,61.1c2.3,6.3,2.7,12.6,0.8,19.1 c-4.3,14.5-7.7,29.2-11.5,43.8c-5.1,19.8-10.2,39.6-15.3,59.4c-0.2,0.7-0.4,1.4-1.1,1.7c0.3,0.4,0.6,0.8,0.8,1.2c0.1,0,0.2,0,0.4,0 c3.2,3.6,5,8.1,7.5,12.2c2,3.3,3.9,6.7,5.8,10.1c5.4,9.5,13.2,14.5,24.4,14.3c12.9-0.3,25.9,0,38.8-0.1c11,0,19.9-6.3,23.6-16.6 c0.8-2.2,1.1-4.5,1.1-6.9c0-17,0-34,0-51c0-1.5-0.2-3.1,0.6-4.5c0.1-0.1,0.2-0.2,0.3-0.3C321.2,263.6,321.2,261.4,322.6,259.2z" class="st372"/><path d="M201.2 58c.3.1.6.1.9.1 13.2-2.8 24.5 4.5 29.8 16.3 5.5 12 11.6 23.8 17.5 35.6 20.2 40.5 40.2 81.1 60.4 121.6 4.5 9 9.7 17.7 12.6 27.4.1.1.1.1.2.1 0-.1.1-.1.1-.2-.3-3.6-1.8-6.8-3.4-10-15.6-31.5-31.2-62.9-46.8-94.4-13.6-27.5-27.2-54.9-40.9-82.4-5.9-11.9-16.9-17.4-29.4-14.7 0 0 0 0 0 0C201.8 57.7 201.5 57.8 201.2 58zM322.3 266c-.8 1.4-.6 3-.6 4.5 0 17 0 34 0 51 0 2.4-.3 4.7-1.1 6.9-3.7 10.3-12.6 16.5-23.6 16.6-12.9 0-25.9-.2-38.8.1-11.2.2-19-4.8-24.4-14.3-1.9-3.4-3.7-6.8-5.8-10.1-2.5-4.1-4.3-8.6-7.5-12.2-.1 0-.3 0-.4 0 0 .1.1.1.1.2 0 0 0 0 0 0 4.9 8.6 9.5 17.2 14.7 25.6 4.3 7 10.9 11.2 19.1 11.4 15.1.4 30.3.4 45.5 0 12.6-.3 22.9-11.7 23-24.4 0-18.5.1-37 .1-55.5 0 0 0-.1-.1-.1C322.5 265.8 322.4 265.9 322.3 266z" class="st372"/><path d="M322.6 265.8C322.6 265.8 322.7 265.7 322.6 265.8c.1-2.2.1-4.4.1-6.6 0 0-.1 0-.1 0C321.2 261.4 321.2 263.6 322.6 265.8zM322.7 259.2c0-.1 0-.1 0-.2C322.7 259.1 322.6 259.1 322.7 259.2 322.6 259.2 322.7 259.2 322.7 259.2z" class="st372"/><path d="M322.6,265.8c0,0,0,0.1,0.1,0.1C322.7,265.8,322.7,265.8,322.6,265.8C322.7,265.7,322.6,265.8,322.6,265.8z" class="st372"/><path d="M132 300.7c5.2-5.5 10.2-11.3 15.3-16.9 4-4.4 8.1-8.8 12-13.3 3.5-4.1 4.8-9.2 5.7-14.5 1.7-10.8 3.6-21.7 5.5-32.5.1-.4.3-.7.5-1.1 0 0 0 0 0 0 0 0 0 0 0 0-.3-.6-.7-1.2-1-1.9 0 0 0 0 0 0 0 0 0 0 0 0-12.9-22.6-26-45-38.6-67.7-5.2-9.5-3.8-19.2 3-27.6 5.5-6.8 11.9-13 17.8-19.5 0-.2 0-.4 0-.5-5.2-3.3-10.4-6.6-15.5-9.9-3.1-2-6.4-3.7-10-4.8-.2.2-.4.3-.6.4.6 1.2 0 2.3-.4 3.4-9.5 27.3-18.6 54.7-28.1 82-1.9 5.5-2.6 10.9-1 16.7 8.1 31.2 16 62.5 23.8 93.8 1.7 6.8 3.8 13.5 4.9 20.4 0 .1 0 .3 0 .4C128 305.6 129.8 303 132 300.7zM126.7 90.4c-.1 0-.3-.1-.4-.1 0 0 0 0 0 0-.2 0-.3.1-.4.1.1.1.2.2.2.4C126.3 90.7 126.5 90.6 126.7 90.4z" class="st373"/><path d="M125.4 307.2c-1.1-6.9-3.2-13.6-4.9-20.4-7.8-31.3-15.7-62.6-23.8-93.8-1.5-5.8-.8-11.3 1-16.7 9.4-27.3 18.6-54.7 28.1-82 .4-1.1 1-2.3.4-3.4-.1 0-.1.1-.2.1 0 0-.1 0-.1 0-.3 1-.5 2.1-.9 3.1-9.4 27.6-18.9 55.2-28.3 82.7-1.6 4.6-2.6 9.4-1.3 14.4 6.4 25.1 12.8 50.2 19.1 75.3 3.5 13.9 6.9 27.8 10.4 41.7.2-.1.4-.3.6-.4C125.4 307.4 125.4 307.3 125.4 307.2zM126.1 90.8c-.1-.1-.1-.2-.2-.4 0 0 0 0 0 0 0 .1-.1.3-.1.4 0 0 .1 0 .1 0C126 90.9 126 90.8 126.1 90.8z" class="st373"/><path d="M129.2,90.5c8.3,3.8,15.7,9.1,23.1,14.4c0,0,0,0.1,0,0.1c7.9-8.5,15.7-17.1,23.6-25.6 c5.4-5.8,10.3-12.1,16.3-17.2c2.4-2.1,5.1-3.8,8.4-4c0.1-0.1,0.2-0.2,0.3-0.3c-1.2-0.5-1.7-1.6-2.2-2.9c-2.9-7.6-5.7-15.3-8.4-22.9 c-2.4-6.7-6.1-12.2-12.7-15.3c-11.6-5.4-24.8,0-29.6,12.2c-4.4,11.2-8.1,22.6-11.8,34c-2.7,8.4-5.9,16.7-8.6,25.1 c-0.2,0.6-0.4,1.3-0.8,1.8C127.7,89.9,128.5,90.2,129.2,90.5z" class="st374"/><path d="M127,90.1c0.4-0.6,0.6-1.2,0.8-1.8c2.6-8.4,5.8-16.7,8.6-25.1c3.7-11.4,7.4-22.8,11.8-34 c4.8-12.3,18-17.6,29.6-12.2c6.6,3.1,10.3,8.6,12.7,15.3c2.8,7.7,5.5,15.3,8.4,22.9c0.5,1.2,1,2.4,2.2,2.9c0.4-0.2,0.8-0.2,1.2-0.4 c0,0,0,0,0,0c-1.6,0.3-2-0.9-2.4-2c-3.2-8.9-6.2-17.8-9.8-26.5c-3.7-9-10.5-14.4-20.4-14.9c-9.9-0.5-18.4,5.3-22.2,15 c-2.4,6-4.3,12.2-6.4,18.4c-4.9,14.3-9.7,28.6-14.5,42.9c0,0,0,0,0,0C126.5,90.2,126.7,90.1,127,90.1z" class="st374"/><path d="M200.7,58.2c0.1,0,0.1,0,0.2,0c0,0,0,0,0,0c0.1-0.1,0.2-0.1,0.3-0.2c-0.1,0-0.2-0.1-0.2-0.1 C200.9,58,200.8,58.1,200.7,58.2z" class="st374"/><path d="M201 57.9c.1 0 .2.1.2.1.3-.2.6-.3.9-.5 0 0 0 0 0 0 0 0 0 0 0 0C201.8 57.7 201.3 57.7 201 57.9zM152.2 105.2C152.2 105.2 152.2 105.2 152.2 105.2c0 0 .1-.1.1-.1 0 0 0-.1 0-.1-7.3-5.4-14.7-10.6-23.1-14.4-.7-.3-1.5-.6-2.3-.4-.1.1-.2.3-.3.4 0 0 0 0 0 0 3.6 1.1 6.8 2.8 10 4.8C141.8 98.6 147 101.9 152.2 105.2zM126.7 90.4C126.7 90.4 126.7 90.4 126.7 90.4c.1-.1.2-.3.3-.4-.2.1-.4.1-.7.3 0 0 0 0 0 0 0 0 0 0 0 0C126.4 90.4 126.6 90.4 126.7 90.4zM219.2 307c0 0 0-.1 0-.1-16-27.9-31.9-55.9-47.9-83.8-1.9 11-3.8 22-5.5 33-1.1 6.9-3.6 12.9-8.4 18-7.4 7.8-14.5 16-21.9 23.9-2.7 2.8-5.2 5.8-7.8 8.6-.7.8-1.2 1.9-2.4 1.7-.1.3-.2.6-.3.9.1 0 .3.1.4.1 1.3 1.8 1.7 3.9 2.7 5.8 4.5 8.3 11.3 12.9 20.9 12.9 15.6 0 31.1 0 46.7 0 10.6 0 19-6.2 22.3-16.2.4-1.2.5-2.8 2.1-3.1C219.5 308.2 218.9 307.9 219.2 307z" class="st374"/><path d="M220.1,308.5c-1.6,0.3-1.7,1.9-2.1,3.1c-3.4,10.1-11.7,16.2-22.3,16.2c-15.6,0-31.1,0-46.7,0 c-9.6,0-16.4-4.6-20.9-12.9c-1-1.9-1.4-4-2.7-5.8c-0.1-0.1-0.3-0.1-0.4-0.1c0,0,0,0,0,0c0,0,0,0,0,0c3,12.5,12,19.7,24.7,19.7 c15.5,0,30.9,0,46.4,0c10.9,0,20-7,23-17.5c0.3-0.9-0.1-2.2,1.3-2.5c0,0,0,0,0,0C220.3,308.6,220.2,308.6,220.1,308.5z" class="st374"/><path d="M125.4 308.1c-.2 0-.3-.1-.5-.1.1.3.1.7.2 1 0 0 0 0 0 0C125.2 308.7 125.3 308.4 125.4 308.1zM125 309C125 309 125 309 125 309 125 309 125 309 125 309 125 309 125 309 125 309zM219.2 306.9c0 0 0 .1 0 .1-.2.9.4 1.2 1 1.6 0 0 .1 0 .1 0-.3-.4-.6-.8-.8-1.2C219.4 307.1 219.3 307 219.2 306.9z" class="st374"/><path d="M220.3 308.5c-.1 0-.1 0-.1 0 .1.1.2.1.3.2 0 0 0 0 0 0 0 0 0 0 0 0C220.4 308.6 220.3 308.6 220.3 308.5zM127.8 306.5c2.6-2.8 5.1-5.8 7.8-8.6 7.4-7.8 14.4-16 21.9-23.9 4.8-5 7.3-11.1 8.4-18 1.7-11 3.6-22 5.5-33-.1-.2-.2-.4-.3-.6 0 0 0 0 0 0-.2.4-.4.7-.5 1.1-1.9 10.8-3.8 21.6-5.5 32.5-.8 5.3-2.2 10.4-5.7 14.5-3.9 4.6-8 8.9-12 13.3-5.1 5.6-10 11.4-15.3 16.9-2.2 2.3-4.1 4.9-6.6 6.9 0 .2 0 .4-.1.6C126.5 308.3 127.1 307.2 127.8 306.5zM125.4 307.6c-.2.1-.4.3-.6.4.2.1.3.1.5.1C125.4 308 125.4 307.8 125.4 307.6z" class="st374"/><path d="M182.6,73.3c-4.6,5.1-9.3,10.2-13.9,15.3c-4.1,4.5-8.2,8.9-12.3,13.5c-1.1,1.3-2.1,3-4.1,3.1 c0,0.2,0,0.4,0,0.6c2.1,0.6,3.8,2.1,5.6,3.2c5.5,3.4,11.1,6.9,16.2,10.8c7.9,6.2,11,14.6,9.4,24.5c-1.8,11.6-3.8,23.1-5.7,34.7 c-1.9,11.7-3.8,23.3-5.9,34.9c-0.4,2,0.2,4.4-1.4,6.1c0.4,0.8,1,1.6,0.9,2.5c0,0,0,0,0,0c1.6,0.9,2.1,2.6,2.9,4 c14.5,25.5,29.1,50.9,43.7,76.4c0.6,1,1.3,2,1.5,3.1c1.8-5.9,3.2-11.8,4.7-17.8c6.8-26.6,13.8-53.2,20.5-79.8 c0.4-1.7,0.9-3.3,1.5-5c2.4-7,1.9-13.9-0.7-20.9c-8.3-22.3-16.3-44.7-24.5-67.1c-6.5-17.9-13.1-35.7-19.5-53.6 c-0.4-1.1-1.1-2.2-0.7-3.5c0-0.1,0-0.1,0.1-0.2C192.8,61.1,187.9,67.4,182.6,73.3z" class="st375"/><path d="M200.6 58.3c0 .1-.1.1-.1.2-.3 1.3.3 2.4.7 3.5 6.5 17.9 13 35.8 19.5 53.6 8.2 22.4 16.2 44.8 24.5 67.1 2.6 7 3.1 13.8.7 20.9-.6 1.6-1.1 3.3-1.5 5-6.7 26.6-13.7 53.2-20.5 79.8-1.5 5.9-2.9 11.9-4.7 17.8.1.4.1.7 0 1.1.7-.3.9-1 1.1-1.7 5.1-19.8 10.2-39.6 15.3-59.4 3.8-14.6 7.2-29.3 11.5-43.8 1.9-6.4 1.5-12.8-.8-19.1-7.5-20.4-14.9-40.8-22.4-61.1-4.6-12.5-9.2-24.9-13.7-37.4-3.2-8.9-6.4-17.7-9.5-26.6 0 0 0 0 0 0C200.8 58.2 200.7 58.3 200.6 58.3zM171.4 222.6c0-1-.5-1.7-.9-2.5-.1.2-.3.3-.5.5 0 0 0 0 0 0 .3.6.7 1.2 1 1.9 0 0 0 0 0 0C171.1 222.5 171.2 222.6 171.4 222.6 171.4 222.6 171.4 222.6 171.4 222.6zM152.3 105.2c-.1 0-.1 0-.2 0 0 0 0 0 0 0 0 .2 0 .4 0 .5.1 0 .1 0 .2.1C152.4 105.6 152.4 105.4 152.3 105.2zM156.4 102c4-4.5 8.2-9 12.3-13.5 4.7-5.1 9.3-10.2 13.9-15.3 5.3-5.9 10.2-12.2 18-15 0 0 0-.1 0-.1-3.4.2-6 1.9-8.4 4-6 5.2-10.9 11.5-16.3 17.2-7.9 8.5-15.8 17.1-23.6 25.6 0 0 0 .1 0 .1C154.3 105 155.3 103.3 156.4 102z" class="st375"/><path d="M200.7 58.2C200.7 58.2 200.7 58.3 200.7 58.2c0 .1.1 0 .2 0 0 0 0 0 0 0 0 0 0 0 0 0C200.8 58.2 200.8 58.2 200.7 58.2zM152.3 105.2c0 0 0-.1 0-.1 0 0-.1.1-.1.1 0 0 0 0 0 0 0 0 0 0 0 0C152.2 105.2 152.3 105.2 152.3 105.2zM217.9 303.1c-14.6-25.5-29.2-50.9-43.7-76.4-.8-1.4-1.3-3.1-2.9-4 0 .1 0 .3-.1.4 16 27.9 31.9 55.9 47.9 83.8.1-.2.1-.5.2-.7C219.2 305 218.5 304.1 217.9 303.1zM219.4 306.2c-.1.2-.1.5-.2.7.1.1.2.3.2.4C219.5 306.9 219.5 306.5 219.4 306.2z" class="st375"/><path d="M171,222.4c0.1,0.2,0.2,0.4,0.3,0.6c0-0.1,0-0.3,0.1-0.4C171.2,222.6,171.1,222.5,171,222.4z" class="st375"/><path d="M172.7,119.8c-5.2-3.9-10.9-7.1-16.3-10.7c-1.4-1-3.1-1.6-4.1-3.2c-3,4.7-7.4,8.3-10.9,12.5 c-3.6,4.3-8.1,8.1-10.2,13.6c-2.8,7.2-2.6,14.4,1.2,21.2c9.5,17,19.3,33.8,28.9,50.7c3,5.2,6,10.4,8.9,15.7 c4.3-25,8.4-50,12.5-75.1C184.3,134.3,181,126,172.7,119.8z" class="st376"/><path d="M161.2,203.9c-9.6-16.9-19.4-33.7-28.9-50.7c-3.8-6.8-4-14-1.2-21.2c2.1-5.5,6.6-9.2,10.2-13.6 c3.6-4.2,7.9-7.8,10.9-12.5c0-0.1-0.1-0.1-0.1-0.2c-6,6.5-12.3,12.7-17.8,19.5c-6.7,8.4-8.2,18.1-3,27.6 c12.6,22.7,25.7,45.2,38.6,67.7c0,0,0,0,0,0c0.1-0.4,0.1-0.7,0.2-1.1C167.3,214.2,164.2,209.1,161.2,203.9z" class="st376"/><path d="M177.8,179c1.9-11.6,3.9-23.1,5.7-34.7c1.6-10-1.5-18.3-9.4-24.5c-5.1-4-10.7-7.4-16.2-10.8 c-1.8-1.1-3.4-2.6-5.6-3.2c0,0,0,0,0,0c0,0,0,0.1-0.1,0.1c1,1.5,2.7,2.2,4.1,3.2c5.4,3.6,11.1,6.8,16.3,10.7 c8.3,6.2,11.6,14.5,9.9,24.6c-4.1,25-8.2,50.1-12.5,75.1c0.1,0.2,0.2,0.4,0.3,0.5c0,0,0,0,0,0c1.6-1.7,1.1-4.1,1.4-6.1 C173.9,202.3,175.8,190.7,177.8,179z" class="st376"/><path d="M170.4 220.1C170.4 220.1 170.4 220.1 170.4 220.1c-.1-.2-.2-.4-.3-.6-.1.4-.1.7-.2 1.1C170.1 220.4 170.3 220.3 170.4 220.1zM152.3 105.8C152.3 105.8 152.3 105.8 152.3 105.8c-.1-.1-.1-.1-.2-.1C152.2 105.8 152.2 105.8 152.3 105.8 152.3 105.9 152.3 105.8 152.3 105.8z" class="st376"/></g></svg>