<svg viewBox="21.62 -1.06 383.76 263.12" xmlns="http://www.w3.org/2000/svg"><defs><style>.cls-1{fill:#759c3f}.cls-2{fill:#b7ca9d}.cls-3{fill:#4c622c}.cls-4{fill:#3c4929}</style></defs><path d="M165.218 160.387l-27.946-6.888V56.97l27.946-5.412v108.829z" class="cls-1"/><path d="M142.291 142.774l72.52 53.726v-44.575l-49.593-12.398-22.927 3.247z" class="cls-2"/><path d="M263.026 151.925l27.453 1.574.787-91.018-28.24-8.955v98.399z" class="cls-3"/><path d="M214.811 57.462l-49.593 11.611-22.927-3.247 72.52-52.348v43.984z" class="cls-4"/><path d="M285.953 142.774l-72.52 50.478v-41.327l49.593-12.398 22.927 3.247z" class="cls-2"/><path d="M213.433 57.462l49.593 11.611 22.927-3.247-71.831-54.513-.689 46.149z" class="cls-4"/><path d="M189.915 157.042l-47.625-14.268V65.826l47.625-14.268zM214.023 3.933l-82.36 41.525v117.684l82.36 41.525 20.959-98.99z" class="cls-3"/><path d="M238.327 51.558l47.625 14.268v76.948l-47.625 14.268V51.558zm-24.304 153.109l82.556-41.525V45.458L214.024 3.933zM38.522 229.722h6.148l9.2 26.005h-5.892l-1.716-5.346h-9.576l-1.763 5.346h-5.684zm-.358 16.177h6.66l-3.285-10.232zm20.576-16.177l3.433 14.891.748 4.145.75-4.06 2.937-14.976h5.734l3.09 14.89.792 4.146.802-3.986 3.467-15.05h5.532l-7.315 26.005h-5.203l-3.14-15.208-.918-5.028-.917 5.028-3.14 15.208h-5.047l-7.374-26.005zM93.222 247.7a5.268 5.268 0 0 0 .99 2.663q1.351 1.606 4.63 1.606a9.96 9.96 0 0 0 3.188-.424 3.025 3.025 0 0 0 2.324-3.017 2.222 2.222 0 0 0-1.139-1.993 12.355 12.355 0 0 0-3.61-1.218l-2.815-.617a17.545 17.545 0 0 1-5.703-1.993 6.341 6.341 0 0 1-2.629-5.628 7.474 7.474 0 0 1 2.572-5.805q2.571-2.311 7.554-2.311a11.581 11.581 0 0 1 7.1 2.18 7.745 7.745 0 0 1 3.08 6.324h-5.222a3.72 3.72 0 0 0-2.098-3.334 7.182 7.182 0 0 0-3.237-.654 6.164 6.164 0 0 0-3.437.847 2.68 2.68 0 0 0-1.284 2.364 2.23 2.23 0 0 0 1.266 2.082 15.768 15.768 0 0 0 3.455 1.077l4.564 1.076a11.607 11.607 0 0 1 4.497 1.887 6.362 6.362 0 0 1 2.325 5.311 7.462 7.462 0 0 1-2.755 5.919q-2.755 2.355-7.783 2.354-5.136 0-8.078-2.319a7.677 7.677 0 0 1-2.942-6.378zm32.705-15.262a10.705 10.705 0 0 1 7.993-3.21q6.493 0 9.496 4.304a9.388 9.388 0 0 1 1.78 4.852h-5.434a7.402 7.402 0 0 0-1.331-2.822 5.9 5.9 0 0 0-8.884.697 11.677 11.677 0 0 0-1.676 6.765q0 4.376 1.769 6.554a5.542 5.542 0 0 0 4.495 2.179 5.092 5.092 0 0 0 4.263-1.87 8.209 8.209 0 0 0 1.346-3.017h5.399a11.716 11.716 0 0 1-3.57 6.916 10.39 10.39 0 0 1-7.356 2.664 11.04 11.04 0 0 1-8.727-3.6q-3.176-3.615-3.177-9.914 0-6.809 3.614-10.498zm28.337 23.289h-5.028v-26.005h5.028zm20.941-2.353q-2.434 3.006-7.392 3.005-4.958 0-7.392-3.005a11.931 11.931 0 0 1 0-14.445q2.434-3.05 7.392-3.05 4.957 0 7.392 3.05a11.931 11.931 0 0 1 0 14.445zm-4.022-2.78a8.975 8.975 0 0 0 0-8.904 4.468 4.468 0 0 0-6.784 0 8.92 8.92 0 0 0 0 8.905 4.452 4.452 0 0 0 6.784 0zm15.067-14.098v11.592a6.087 6.087 0 0 0 .386 2.47 2.67 2.67 0 0 0 2.685 1.463 3.507 3.507 0 0 0 3.511-2.082 7.556 7.556 0 0 0 .492-2.981v-10.462h5.099v19.23h-4.888v-2.716a9.824 9.824 0 0 0-.351.53 3.545 3.545 0 0 1-.668.775 6.998 6.998 0 0 1-2.279 1.447 7.748 7.748 0 0 1-2.577.388q-4.258 0-5.735-3.07a11.764 11.764 0 0 1-.827-4.992v-11.592zm27.257.31a6.102 6.102 0 0 1 2.205 2.125v-9.174h5.099v25.97h-4.887v-2.665a7.091 7.091 0 0 1-2.452 2.488 6.887 6.887 0 0 1-3.423.776 7.143 7.143 0 0 1-5.672-2.725 10.465 10.465 0 0 1-2.303-6.996q0-4.921 2.268-7.745a7.374 7.374 0 0 1 6.06-2.822 6.206 6.206 0 0 1 3.105.768zm1.234 13.699a7.014 7.014 0 0 0 1.112-4.111q0-3.528-1.782-5.046a3.837 3.837 0 0 0-2.54-.917 3.533 3.533 0 0 0-3.238 1.667 8.99 8.99 0 0 0 .018 8.398 3.552 3.552 0 0 0 3.184 1.596 3.71 3.71 0 0 0 3.246-1.587zm11.044-20.748h18.542v4.57h-13.143v5.98h11.52v4.516h-11.52v10.904h-5.399zm37.701 23.617q-2.434 3.006-7.391 3.005-4.959 0-7.393-3.005a11.931 11.931 0 0 1 0-14.445q2.435-3.05 7.393-3.05 4.957 0 7.391 3.05a11.931 11.931 0 0 1 0 14.445zm-4.022-2.78a8.972 8.972 0 0 0 0-8.904 4.468 4.468 0 0 0-6.783 0 8.92 8.92 0 0 0 0 8.905 4.451 4.451 0 0 0 6.783 0zm20.738-14.547c.066.006.21.015.433.026v5.152q-.476-.053-.847-.07t-.6-.018q-3.035 0-4.075 1.975a7.678 7.678 0 0 0-.583 3.423v9.192h-5.062v-19.23h4.798v3.352a10.638 10.638 0 0 1 2.029-2.63 5.522 5.522 0 0 1 3.67-1.18q.14 0 .237.008zm27.373.52a5.583 5.583 0 0 1 2.24 1.729 5.522 5.522 0 0 1 1.094 2.47 17.012 17.012 0 0 1 .177 2.84l-.035 12.12h-5.152v-12.244a4.016 4.016 0 0 0-.353-1.798 2.506 2.506 0 0 0-2.47-1.341 2.89 2.89 0 0 0-2.875 1.728 5.415 5.415 0 0 0-.406 2.205v11.45h-5.064v-11.45a6.429 6.429 0 0 0-.352-2.487 2.464 2.464 0 0 0-2.487-1.393 2.97 2.97 0 0 0-2.894 1.393 5.37 5.37 0 0 0-.406 2.364v11.574h-5.099v-19.195h4.888v2.805a8.09 8.09 0 0 1 1.764-2.135 6.984 6.984 0 0 1 7.357-.159 5.665 5.665 0 0 1 1.658 2.311 6.389 6.389 0 0 1 2.452-2.487 7.48 7.48 0 0 1 3.458-.794 6.697 6.697 0 0 1 2.505.494zm15.749 7.463a7.965 7.965 0 0 0 2.008-.441 1.512 1.512 0 0 0 1.085-1.429 1.691 1.691 0 0 0-.832-1.633 5.26 5.26 0 0 0-2.441-.449 3.203 3.203 0 0 0-2.557.882 3.634 3.634 0 0 0-.716 1.765h-4.851a7.358 7.358 0 0 1 1.418-4.147q2-2.54 6.875-2.54a12.256 12.256 0 0 1 5.633 1.252q2.464 1.254 2.463 4.729v8.821q0 .917.035 2.223a2.8 2.8 0 0 0 .3 1.34 1.802 1.802 0 0 0 .741.582v.742h-5.468a5.552 5.552 0 0 1-.318-1.094q-.09-.511-.141-1.164a10.421 10.421 0 0 1-2.413 1.923 7.299 7.299 0 0 1-3.692.934 6.372 6.372 0 0 1-4.339-1.49 5.302 5.302 0 0 1-1.712-4.226 5.474 5.474 0 0 1 2.755-5.133 12.302 12.302 0 0 1 4.444-1.236zm3.074 2.346a5.491 5.491 0 0 1-.974.485 8.249 8.249 0 0 1-1.35.344l-1.144.212a7.53 7.53 0 0 0-2.312.688 2.295 2.295 0 0 0-1.187 2.135 2.23 2.23 0 0 0 .725 1.862 2.758 2.758 0 0 0 1.764.573 5.259 5.259 0 0 0 3.037-.953q1.389-.952 1.441-3.476zm7.428-6.122v-3.581h2.682v-5.363h4.975v5.363h3.122v3.58h-3.122v10.163a2.29 2.29 0 0 0 .3 1.474 3.31 3.31 0 0 0 1.835.29 14.211 14.211 0 0 0 .988-.035v3.758l-2.381.088q-3.564.123-4.87-1.235a3.672 3.672 0 0 1-.847-2.664v-11.838zm19.178-6.051h-5.099v-4.64h5.099zm-5.099 2.293h5.099v19.23h-5.099zm26.005 16.878q-2.435 3.006-7.392 3.005-4.959 0-7.393-3.005a11.931 11.931 0 0 1 0-14.445q2.435-3.05 7.393-3.05 4.957 0 7.391 3.05a11.931 11.931 0 0 1 0 14.445zm-4.023-2.78a8.972 8.972 0 0 0 0-8.904 4.468 4.468 0 0 0-6.783 0 8.92 8.92 0 0 0 0 8.905 4.451 4.451 0 0 0 6.783 0zM395.45 237.6q1.888 1.56 1.888 5.177v12.95h-5.151v-11.698a5.371 5.371 0 0 0-.403-2.328 2.83 2.83 0 0 0-2.802-1.482 3.473 3.473 0 0 0-3.485 2.17 7.5 7.5 0 0 0-.49 2.928v10.41h-5.028v-19.195h4.869v2.805a8.507 8.507 0 0 1 1.827-2.135 6.328 6.328 0 0 1 3.918-1.164 7.373 7.373 0 0 1 4.857 1.562z" class="cls-1"/></svg>