<svg xmlns="http://www.w3.org/2000/svg" role="img" viewBox="95.20 -1.55 236.85 262.60"><title>aws-lambda.input.svg logo</title><defs><style>.cls-1{fill:#9d5125}.cls-2{fill:#f58534}</style></defs><path d="M130.557 163l10.6 5.2 18.7-64-18.7-64.3-10.6 5.3V163z" class="cls-1"/><path d="M161.657 44.8l-20.5-4.8v128.2l20.5-4.8V44.8z" class="cls-2"/><path d="M153.857 33.6l15.599-7.8 19.401 78.4-19.401 78.2-15.599-7.8v-141z" class="cls-1"/><path d="M201.257 172l-31.801 10.1V25.8L201.257 36v136z" class="cls-2"/><path d="M273.557 53.3h12.8v97.5l-12.8-.7V53.3z" class="cls-1"/><path fill="#6b3b19" d="M224.156 54.7l14.3-7.4 46.901 6 1.4 12.5-12.9 1.8-49.701-12.9z"/><path fill="#fcbf92" d="M224.557 153.5l14.3 7.4 48.299-18.5-12.899-1.8-49.7 12.9z"/><path d="M228.156 132.8l25.601 3.4V72l-25.601 3.4v57.4z" class="cls-1"/><path d="M188.857 192.1l24.9 12.4 21.3-100.5-21.3-100.3-24.9 12.4v176z" class="cls-1"/><path d="M286.35683 142.60039l-47.7 14.3v-105.6l47.7 14.3v77zm-72.6-138.9v200.9l83.2-41.6v-117.7z" class="cls-2"/><path d="M253.757 72v64.4l26.5-32.2-26.5-32.2zM109.52515 229.63379h6.08985l9.11426 25.76074h-5.83691l-1.7002-5.29492h-9.48633l-1.74609 5.29492h-5.63086zm-.35547 16.02637h6.59766l-3.25391-10.13672zm20.38379-16.02637l3.40039 14.752.74121 4.10547.74316-4.02148 2.90918-14.83594h5.67969l3.06152 14.75.78418 4.10742.79492-3.94727 3.43359-14.91016h5.48047l-7.24707 25.76074h-5.15331l-3.11133-15.06445-.9082-4.98145-.90918 4.98145-3.11133 15.06445h-4.999l-7.30371-25.76074zm34.15723 17.80859a5.21575 5.21575 0 0 0 .98145 2.63965q1.3374 1.58936 4.58594 1.58984a9.87459 9.87459 0 0 0 3.1582-.41895 2.99812 2.99812 0 0 0 2.30176-2.98926 2.204 2.204 0 0 0-1.127-1.97461 12.24467 12.24467 0 0 0-3.57715-1.20605l-2.78906-.61133a17.35332 17.35332 0 0 1-5.64844-1.97461 6.2813 6.2813 0 0 1-2.60449-5.5752 7.4025 7.4025 0 0 1 2.54785-5.75q2.54736-2.28955 7.4834-2.28906a11.47694 11.47694 0 0 1 7.03223 2.1582 7.67194 7.67194 0 0 1 3.05176 6.26563h-5.17285a3.6892 3.6892 0 0 0-2.07812-3.30371 7.12449 7.12449 0 0 0-3.207-.64648 6.10807 6.10807 0 0 0-3.4043.83887 2.6538 2.6538 0 0 0-1.27246 2.3418 2.20823 2.20823 0 0 0 1.25488 2.0625 15.60761 15.60761 0 0 0 3.42188 1.06641l4.52051 1.06543a11.52139 11.52139 0 0 1 4.45605 1.87012 6.30456 6.30456 0 0 1 2.30273 5.26074 7.39149 7.39149 0 0 1-2.72847 5.86328q-2.73047 2.3335-7.71094 2.333-5.0874 0-8.002-2.29785a7.6033 7.6033 0 0 1-2.91406-6.31836zm29.9375-17.80859h5.3828v21.12988h12.8623v4.63086h-18.2451zm29.00586 14.17383a7.86563 7.86563 0 0 0 1.98926-.43652 1.50048 1.50048 0 0 0 1.07422-1.416 1.67234 1.67234 0 0 0-.82422-1.61621 5.19261 5.19261 0 0 0-2.418-.44629 3.17715 3.17715 0 0 0-2.5332.874 3.59679 3.59679 0 0 0-.708 1.748h-4.80662a7.2914 7.2914 0 0 1 1.4043-4.10742q1.9834-2.5166 6.81055-2.5166a12.13964 12.13964 0 0 1 5.58105 1.24121q2.44043 1.24072 2.44043 4.68359v8.73828q0 .9082.03418 2.20215a2.75939 2.75939 0 0 0 .29785 1.32813 1.77894 1.77894 0 0 0 .7334.57617v.73438h-5.418a5.56676 5.56676 0 0 1-.31445-1.084q-.08643-.50537-.13965-1.15332a10.27586 10.27586 0 0 1-2.39062 1.90527 7.22657 7.22657 0 0 1-3.65625.92578 6.30942 6.30942 0 0 1-4.29785-1.47656 5.2507 5.2507 0 0 1-1.69629-4.18555 5.4239 5.4239 0 0 1 2.72852-5.08594 12.18945 12.18945 0 0 1 4.40137-1.22266zm3.0459 2.32422a5.489 5.489 0 0 1-.96582.48047 8.05755 8.05755 0 0 1-1.33789.34082l-1.13379.21a7.4716 7.4716 0 0 0-2.28906.68164 2.27475 2.27475 0 0 0-1.17676 2.11426 2.20749 2.20749 0 0 0 .71875 1.84375 2.73092 2.73092 0 0 0 1.748.56836 5.20594 5.20594 0 0 0 3.00781-.94336 4.00078 4.00078 0 0 0 1.4288-3.4434zM258.783 236.415a5.53651 5.53651 0 0 1 2.21875 1.71289 5.47122 5.47122 0 0 1 1.084 2.44629 16.95156 16.95156 0 0 1 .1748 2.81348l-.03516 12.00684h-5.10254v-12.12887a3.98867 3.98867 0 0 0-.34961-1.78223 2.48437 2.48437 0 0 0-2.44727-1.32812 2.86181 2.86181 0 0 0-2.84863 1.71289 5.384 5.384 0 0 0-.40137 2.18457v11.3418h-5.0166v-11.3418a6.36405 6.36405 0 0 0-.34961-2.46484 2.43964 2.43964 0 0 0-2.46387-1.38086 2.94159 2.94159 0 0 0-2.86621 1.38086 5.32913 5.32913 0 0 0-.40137 2.3418v11.46484h-5.05081v-19.01466h4.84082v2.7793a8.03742 8.03742 0 0 1 1.74707-2.11523 6.91733 6.91733 0 0 1 7.28809-.15723 5.59207 5.59207 0 0 1 1.64258 2.29 6.32709 6.32709 0 0 1 2.42969-2.46484 7.41059 7.41059 0 0 1 3.4248-.78613 6.63878 6.63878 0 0 1 2.48245.48925zm24.32223 2.21977a10.94674 10.94674 0 0 1 2.1377 6.99023 12.24379 12.24379 0 0 1-2.1084 7.35742 7.65228 7.65228 0 0 1-9.69629 1.97559 7.576 7.576 0 0 1-1.8623-1.958v2.39453h-4.91114v-25.72559h4.98145v9.1582a7.2746 7.2746 0 0 1 2.09277-2.02734 6.242 6.242 0 0 1 3.44727-.874 7.12 7.12 0 0 1 5.91894 2.70896zm-4.16309 11.60449a7.05774 7.05774 0 0 0 1.0752-4.08984 9.14747 9.14747 0 0 0-.5293-3.35547 3.68 3.68 0 0 0-3.7002-2.5166 3.73614 3.73614 0 0 0-3.75293 2.46387 9.17665 9.17665 0 0 0-.5293 3.39063 7.0567 7.0567 0 0 0 1.09277 4.05469 3.75062 3.75062 0 0 0 3.33008 1.60742 3.45453 3.45453 0 0 0 3.01369-1.5547zm19.86231-13.58789a6.04605 6.04605 0 0 1 2.18457 2.10547v-9.08789h5.05078v25.72559h-4.8408v-2.63867a7.02655 7.02655 0 0 1-2.42969 2.46387 6.81849 6.81849 0 0 1-3.39062.76855 7.07766 7.07766 0 0 1-5.61816-2.69922 10.37108 10.37108 0 0 1-2.28125-6.92969 11.928 11.928 0 0 1 2.24609-7.67285 7.30792 7.30792 0 0 1 6.00293-2.7959 6.1465 6.1465 0 0 1 3.07615.76074zm1.22363 13.57031a6.95483 6.95483 0 0 0 1.10059-4.07227q0-3.49512-1.76465-4.998a3.80223 3.80223 0 0 0-2.5166-.90918 3.4986 3.4986 0 0 0-3.207 1.65137 8.90421 8.90421 0 0 0 .01758 8.31934 3.51516 3.51516 0 0 0 3.1543 1.58105 3.67773 3.67773 0 0 0 3.21578-1.57231zm18.08204-6.41406a7.86563 7.86563 0 0 0 1.98926-.43652 1.50048 1.50048 0 0 0 1.07422-1.416 1.67234 1.67234 0 0 0-.82422-1.61621 5.19261 5.19261 0 0 0-2.418-.44629 3.17715 3.17715 0 0 0-2.5332.874 3.59679 3.59679 0 0 0-.708 1.748h-4.80664a7.2914 7.2914 0 0 1 1.4043-4.10742q1.9834-2.5166 6.81055-2.5166a12.13964 12.13964 0 0 1 5.58105 1.24121q2.44043 1.24072 2.44043 4.68359v8.73828q0 .9082.03418 2.20215a2.75939 2.75939 0 0 0 .29785 1.32813 1.77894 1.77894 0 0 0 .7334.57617v.73438h-5.418a5.56675 5.56675 0 0 1-.31445-1.084q-.08643-.50537-.13965-1.15332a10.27586 10.27586 0 0 1-2.39062 1.90527 7.22657 7.22657 0 0 1-3.65625.92578 6.30942 6.30942 0 0 1-4.29785-1.47656 5.2507 5.2507 0 0 1-1.69629-4.18555 5.4239 5.4239 0 0 1 2.72852-5.08594 12.18945 12.18945 0 0 1 4.40137-1.22266zm3.0459 2.32422a5.489 5.489 0 0 1-.96582.48047 8.05755 8.05755 0 0 1-1.33789.34082l-1.13379.21a7.4716 7.4716 0 0 0-2.28906.68164 2.27475 2.27475 0 0 0-1.17676 2.11426 2.20749 2.20749 0 0 0 .71875 1.84375 2.73092 2.73092 0 0 0 1.748.56836 5.20594 5.20594 0 0 0 3.00781-.94336 4.00078 4.00078 0 0 0 1.42871-3.44336z" class="cls-2"/></svg>