<svg xmlns="http://www.w3.org/2000/svg" role="img" viewBox="3.01 -4.24 350.48 292.98"><title>aws-chalice.input.svg logo</title><style>svg {enable-background:new 0 0 360 288}</style><style>.st0{fill:#252f3e}.st1{fill:#f90}</style><g><path d="M104.8,75.8c0,4.1,0.4,7.5,1.2,10c0.9,2.5,2,5.2,3.6,8.1c0.6,0.9,0.8,1.8,0.8,2.6c0,1.1-0.7,2.2-2.1,3.4 l-7.1,4.7c-1,0.7-2,1-2.9,1c-1.1,0-2.2-0.6-3.4-1.6c-1.6-1.7-2.9-3.5-4-5.3c-1.1-1.9-2.2-4-3.5-6.6c-8.7,10.3-19.7,15.5-33,15.5 c-9.4,0-16.9-2.7-22.4-8.1c-5.5-5.4-8.3-12.6-8.3-21.5c0-9.5,3.4-17.3,10.2-23.1S49.9,46,61.4,46c3.8,0,7.7,0.3,11.9,0.9 c4.1,0.6,8.4,1.5,12.9,2.5v-8.2c0-8.5-1.8-14.5-5.3-17.9c-3.6-3.5-9.6-5.2-18.3-5.2c-3.9,0-8,0.4-12.1,1.5s-8.2,2.2-12.1,3.8 c-1.8,0.8-3.1,1.2-3.9,1.5c-0.8,0.2-1.3,0.3-1.8,0.3c-1.6,0-2.4-1.1-2.4-3.5v-5.5c0-1.8,0.2-3.1,0.8-3.9s1.6-1.6,3.1-2.4 c3.9-2,8.6-3.7,14.1-5c5.5-1.5,11.3-2.1,17.5-2.1c13.3,0,23.1,3,29.4,9.1c6.2,6.1,9.3,15.3,9.3,27.6v36.3H104.8z M59.3,92.8 c3.7,0,7.5-0.7,11.6-2s7.6-3.8,10.7-7.2c1.8-2.1,3.1-4.5,3.8-7.2c0.7-2.7,1.1-5.9,1.1-9.8V62c-3.3-0.8-6.7-1.5-10.3-1.9 c-3.6-0.4-7.1-0.7-10.5-0.7c-7.5,0-13,1.5-16.7,4.5c-3.7,3-5.5,7.3-5.5,12.9c0,5.3,1.3,9.2,4.1,11.9C50.2,91.5,54.2,92.8,59.3,92.8 z M149.4,104.9c-2,0-3.4-0.3-4.3-1.1c-0.9-0.7-1.7-2.2-2.4-4.4l-26.4-86.7c-0.7-2.2-1-3.7-1-4.5c0-1.8,0.9-2.8,2.7-2.8h11 c2.1,0,3.6,0.3,4.4,1.1c0.9,0.7,1.6,2.2,2.2,4.4l18.8,74.2L172,10.9c0.6-2.2,1.2-3.7,2.1-4.4c0.9-0.7,2.5-1.1,4.5-1.1h9 c2.1,0,3.6,0.3,4.5,1.1c0.9,0.7,1.7,2.2,2.1,4.4l17.7,75.1l19.4-75.1c0.7-2.2,1.5-3.7,2.2-4.4c0.9-0.7,2.4-1.1,4.4-1.1h10.4 c1.8,0,2.8,0.9,2.8,2.8c0,0.6-0.1,1.1-0.2,1.8c-0.1,0.7-0.3,1.6-0.8,2.8l-27,86.7c-0.7,2.2-1.5,3.7-2.4,4.4 c-0.9,0.7-2.4,1.1-4.3,1.1h-9.6c-2.1,0-3.6-0.3-4.5-1.1s-1.7-2.2-2.1-4.5l-17.4-72.3l-17.3,72.2c-0.6,2.2-1.2,3.7-2.1,4.5 c-0.9,0.8-2.5,1.1-4.5,1.1H149.4z M293.5,107.9c-5.8,0-11.7-0.7-17.3-2c-5.6-1.3-10-2.8-12.9-4.5c-1.8-1-3-2.1-3.5-3.1 c-0.4-1-0.7-2.1-0.7-3.1v-5.7c0-2.4,0.9-3.5,2.6-3.5c0.7,0,1.3,0.1,2,0.3c0.7,0.2,1.7,0.7,2.8,1.1c3.8,1.7,8,3,12.3,3.9 c4.5,0.9,8.9,1.3,13.3,1.3c7.1,0,12.6-1.2,16.4-3.7s5.8-6.1,5.8-10.7c0-3.1-1-5.7-3-7.8c-2-2.1-5.8-4-11.3-5.8l-16.3-5 c-8.2-2.6-14.2-6.4-17.9-11.4c-3.7-4.9-5.6-10.4-5.6-16.3c0-4.7,1-8.9,3-12.4c2-3.6,4.7-6.7,8.1-9.2c3.4-2.6,7.2-4.5,11.7-5.8 c4.5-1.3,9.2-1.9,14.1-1.9c2.5,0,5,0.1,7.5,0.4c2.6,0.3,4.9,0.8,7.3,1.2c2.2,0.6,4.4,1.1,6.4,1.8c2,0.7,3.6,1.3,4.7,2 c1.6,0.9,2.7,1.8,3.4,2.8c0.7,0.9,1,2.1,1,3.7v5.3c0,2.4-0.9,3.6-2.6,3.6c-0.9,0-2.4-0.4-4.3-1.3c-6.4-2.9-13.6-4.4-21.5-4.4 c-6.4,0-11.4,1-14.9,3.1c-3.5,2.1-5.3,5.4-5.3,10c0,3.1,1.1,5.8,3.4,8c2.2,2.1,6.4,4.3,12.3,6.2l15.9,5c8.1,2.6,13.9,6.2,17.4,10.8 c3.5,4.6,5.2,9.9,5.2,15.7c0,4.8-1,9.2-2.9,13c-2,3.8-4.7,7.2-8.2,9.9c-3.5,2.8-7.6,4.8-12.4,6.3 C304.5,107.2,299.2,107.9,293.5,107.9z" class="st0"/><g><path d="M314.7,162.4c-36.9,27.3-90.5,41.7-136.6,41.7c-64.6,0-122.8-23.9-166.8-63.6c-3.5-3.1-0.3-7.4,3.8-4.9 c47.5,27.6,106.2,44.3,166.9,44.3c40.9,0,85.9-8.5,127.3-26C315.4,151.1,320.7,158,314.7,162.4z" class="st1"/><path d="M330,144.9c-4.7-6.1-31.2-2.9-43.2-1.5c-3.6,0.4-4.1-2.7-0.9-5c21.1-14.8,55.7-10.5,59.8-5.6 c4,5-1.1,39.7-20.9,56.3c-3,2.6-5.9,1.2-4.6-2.1C324.8,175.9,334.7,150.9,330,144.9z" class="st1"/></g></g><g><path d="M104.7 241.5c-2.3-1.6-5.1-2.5-8.4-2.5-2.8 0-5.1.5-7.1 1.6-2 1-3.6 2.4-4.8 4.2-1.3 1.7-2.2 3.7-2.8 6-.6 2.2-.9 4.6-.9 7 0 2.6.3 5.1.9 7.5.6 2.3 1.5 4.4 2.8 6.1 1.3 1.7 2.9 3.1 4.9 4.2 2 1 4.3 1.5 7.1 1.5 2 0 3.8-.3 5.4-1 1.6-.7 2.9-1.6 4.1-2.8 1.1-1.2 2-2.6 2.7-4.2.6-1.6 1-3.4 1.2-5.3h6.1c-.6 5.8-2.6 10.3-6 13.6-3.4 3.2-8.1 4.8-14 4.8-3.6 0-6.7-.6-9.4-1.8-2.7-1.2-4.9-2.9-6.7-5.1-1.8-2.2-3.1-4.7-4-7.6-.9-2.9-1.3-6.1-1.3-9.4 0-3.4.5-6.5 1.4-9.5.9-2.9 2.3-5.5 4.2-7.7 1.8-2.2 4.1-3.9 6.8-5.2 2.7-1.3 5.9-1.9 9.4-1.9 2.4 0 4.7.3 6.8 1 2.2.6 4.1 1.6 5.7 2.8 1.7 1.2 3.1 2.8 4.2 4.7 1.1 1.9 1.9 4 2.2 6.5h-6.1C108.5 245.6 107 243.1 104.7 241.5zM128 234.9v17.6h.1c.4-1 1-1.9 1.8-2.6.8-.7 1.6-1.3 2.6-1.7s2-.8 3-1c1.1-.2 2.1-.3 3.1-.3 2.2 0 4 .3 5.5.9 1.5.6 2.6 1.4 3.6 2.5.9 1.1 1.5 2.4 1.9 3.8.4 1.5.5 3.1.5 4.9v22h-5.5v-22.6c0-2.1-.6-3.7-1.8-4.9-1.2-1.2-2.9-1.8-5-1.8-1.7 0-3.1.3-4.4.8-1.2.5-2.3 1.2-3.1 2.2-.8.9-1.4 2.1-1.8 3.3-.4 1.3-.6 2.7-.6 4.2v18.9h-5.5v-46.1H128zM184.1 281.8c-1.4 0-2.6-.4-3.4-1.2-.8-.8-1.3-2.1-1.3-3.9-1.5 1.8-3.3 3.1-5.3 3.9-2 .8-4.2 1.2-6.5 1.2-1.5 0-2.9-.2-4.3-.5-1.3-.3-2.5-.9-3.5-1.6-1-.8-1.8-1.7-2.4-2.9-.6-1.2-.9-2.6-.9-4.3 0-1.9.3-3.4 1-4.7.6-1.2 1.5-2.2 2.6-2.9 1.1-.8 2.3-1.3 3.6-1.7 1.4-.4 2.7-.7 4.2-1 1.5-.3 2.9-.5 4.3-.7 1.4-.2 2.6-.4 3.6-.6 1-.3 1.8-.7 2.5-1.2.6-.5.9-1.3.9-2.4 0-1.2-.2-2.2-.7-2.9-.5-.7-1-1.3-1.7-1.7s-1.5-.6-2.4-.8c-.9-.1-1.8-.2-2.6-.2-2.3 0-4.3.4-5.8 1.3-1.6.9-2.4 2.6-2.5 5h-5.5c.1-2.1.5-3.8 1.3-5.2.8-1.4 1.8-2.6 3.1-3.5 1.3-.9 2.8-1.5 4.5-1.9 1.7-.4 3.4-.6 5.3-.6 1.5 0 3 .1 4.5.3 1.5.2 2.8.7 4 1.3 1.2.7 2.2 1.6 2.9 2.8.7 1.2 1.1 2.8 1.1 4.7v17.2c0 1.3.1 2.2.2 2.8.2.6.7.9 1.5.9.5 0 1-.1 1.7-.3v4.3C187.1 281.5 185.8 281.8 184.1 281.8zM176.4 265c-1.1.2-2.3.4-3.5.6-1.2.2-2.5.3-3.7.5-1.2.2-2.4.5-3.4.9-1 .4-1.8 1-2.4 1.8-.6.8-.9 1.9-.9 3.3 0 .9.2 1.7.5 2.3.4.6.8 1.1 1.4 1.5.6.4 1.3.7 2.1.8.8.2 1.6.3 2.4.3 1.8 0 3.4-.2 4.7-.7 1.3-.5 2.3-1.1 3.2-1.9.8-.8 1.4-1.6 1.8-2.5.4-.9.6-1.7.6-2.5v-5.6C178.4 264.3 177.5 264.7 176.4 265zM199 234.9v46.1h-5.5v-46.1H199zM207.8 241.7v-6.7h5.5v6.7H207.8zM213.3 247.7v33.4h-5.5v-33.4H213.3zM241.8 253.5c-1.4-1.2-3.2-1.7-5.6-1.7-2 0-3.6.4-5 1.1-1.3.7-2.4 1.7-3.2 2.9-.8 1.2-1.4 2.6-1.7 4.2-.3 1.6-.5 3.2-.5 4.9 0 1.6.2 3.1.5 4.5.4 1.5.9 2.8 1.7 3.9.8 1.1 1.8 2.1 3 2.7 1.2.7 2.7 1 4.5 1 2.7 0 4.8-.7 6.4-2.1 1.5-1.4 2.5-3.4 2.8-6h5.6c-.6 4.1-2.1 7.3-4.6 9.6s-5.8 3.4-10.1 3.4c-2.5 0-4.8-.4-6.8-1.2-2-.8-3.6-2-4.9-3.5-1.3-1.5-2.3-3.3-3-5.4-.7-2.1-1-4.4-1-6.9 0-2.5.3-4.8 1-7 .6-2.2 1.6-4.1 2.9-5.7 1.3-1.6 3-2.9 4.9-3.8 2-.9 4.3-1.4 6.9-1.4 1.9 0 3.7.2 5.3.7 1.7.5 3.1 1.2 4.4 2.1 1.3.9 2.3 2.1 3.1 3.6.8 1.4 1.3 3.2 1.6 5.1h-5.7C244.1 256.3 243.2 254.7 241.8 253.5zM280.2 278.9c-2.5 1.9-5.6 2.8-9.4 2.8-2.7 0-5-.4-6.9-1.3-2-.9-3.6-2.1-4.9-3.6s-2.3-3.4-3-5.6-1-4.5-1.1-7c0-2.5.4-4.9 1.2-7 .8-2.1 1.9-3.9 3.3-5.5 1.4-1.6 3.1-2.8 5-3.6 1.9-.9 4-1.3 6.3-1.3 3 0 5.4.6 7.4 1.8 2 1.2 3.5 2.8 4.7 4.7 1.2 1.9 2 4 2.5 6.2s.6 4.4.5 6.4h-25c0 1.5.1 2.9.5 4.2.4 1.3 1 2.5 1.9 3.5.9 1 2 1.8 3.3 2.4 1.3.6 2.9.9 4.7.9 2.3 0 4.2-.5 5.7-1.6 1.5-1.1 2.5-2.7 2.9-4.9h5.4C284.3 274.2 282.7 277 280.2 278.9zM278.8 257.5c-.5-1.2-1.2-2.2-2-3s-1.8-1.5-3-2c-1.1-.5-2.4-.7-3.8-.7-1.4 0-2.7.2-3.8.7-1.1.5-2.1 1.2-2.9 2-.8.9-1.5 1.9-1.9 3-.5 1.1-.8 2.4-.8 3.6h19.2C279.6 259.9 279.3 258.7 278.8 257.5z" class="st0"/></g></svg>