<svg xmlns="http://www.w3.org/2000/svg" role="img" viewBox="99.38 -4.12 506.74 526.24"><title>azure-monitor.input.svg logo</title><defs><style>.cls-6{fill:#a0a1a2}</style></defs><path fill="#fff" d="M335.04129 42.36038A172.69462 172.69462 0 10524.854 196.04181l-.00342-.03265c-5.06116-47.87268-29.36792-88.8113-64.29642-117.07209a169.61232 169.61232 0 00-107.01638-37.54233 178.26588 178.26588 0 00-18.49646.96564"/><path d="M281.9826 168.073l-42.02075-34.01285A138.41158 138.41158 0 00215.064 219.2338l53.72464-5.65216a84.86615 84.86615 0 0113.194-45.50864" style="isolation:isolate" fill="#7fba00" opacity=".4"/><path d="M399.51254 141.49373l34.02118-42.02908a138.49825 138.49825 0 00-85.22354-24.82288l5.65216 53.71631a84.96082 84.96082 0 0145.5502 13.13565" style="isolation:isolate" fill="#7fba00" opacity=".8"/><path d="M335.23276 130.48077l-5.66049-53.77458a138.60416 138.60416 0 00-77.815 42.64507l41.98746 33.99619a84.80471 84.80471 0 0141.488-22.86668" style="isolation:isolate" fill="#7fba00" opacity=".6"/><path d="M270.86975 232.31117l-53.77458 5.67712a138.5038 138.5038 0 0042.62843 77.88988l33.98788-41.98746a84.836 84.836 0 01-22.84171-41.57956" style="isolation:isolate" fill="#7fba00" opacity=".25"/><path d="M560.03717 192.30489c-6.06006-57.74524-35.5528-107.24116-77.19067-140.9127a201.79951 201.79951 0 00-25.80511-17.4809l-16.34055 31.44064a164.97744 164.97744 0 0119.8533 13.58516c34.9285 28.26079 59.23529 69.19107 64.28809 117.06377a172.44063 172.44063 0 01-243.09275 175.19192l-16.32385 31.41565c104.06769 48.5227 227.76663 3.4946 276.28934-100.57309a207.90655 207.90655 0 0018.3222-109.73045" class="cls-6"/><path d="M244.4819 348.31778a172.64267 172.64267 0 01196.219-282.97415l16.34048-31.43232A207.94886 207.94886 0 00191.35661 83.1658l-.05827.07492c-72.33142 88.78133-58.99612 219.389 29.7852 291.72043A207.34849 207.34849 0 00265.434 402.6001l16.32385-31.41565a173.25736 173.25736 0 01-37.27594-22.86667" class="cls-6"/><path d="M244.4819 348.31778a172.64267 172.64267 0 01196.219-282.97415l16.34048-31.43232A207.94886 207.94886 0 00191.35661 83.1658l-.05827.07492c-72.33142 88.78133-58.99612 219.389 29.7852 291.72043A207.34849 207.34849 0 00265.434 402.6001l16.32385-31.41565a173.25736 173.25736 0 01-37.27594-22.86667" style="isolation:isolate" fill="#fff" opacity=".2"/><path fill="#7fba00" d="M448.25095 111.26011l-33.99619 41.9958a84.58168 84.58168 0 0118.84607 28.61041h56.39673a138.37663 138.37663 0 00-41.24661-70.60621z"/><path fill="#dd5900" d="M337.139 231.07919a24.32752 24.32752 0 0117.15626-41.59619 23.95944 23.95944 0 0117.123 6.76759c.05826.05827.08325-.06659.15814 0h118.92006l5.16934-.04161.03333.04161a17.68909 17.68909 0 11.14917 35.37787l-.04926.00014h-125.5712a24.77186 24.77186 0 01-16.00751 6.48457 24.18068 24.18068 0 01-17.08133-7.034"/><path fill="#ff8c00" d="M495.6991 196.40042l-.03333-.04161-5.16934.04161h-118.92c-.07492-.06659-.09988.05827-.15814 0a23.95944 23.95944 0 00-17.123-6.76759 24.32746 24.32746 0 00-24.34842 24.3065v.00859h183.49948a17.72128 17.72128 0 00-17.74725-17.5475z"/><path d="M140.98389 459.92676l19.248 51.47168H148.481l-3.89258-11.46191h-19.248l-4.03711 11.46191h-11.39022l19.46436-51.47168zm.64893 31.5752l-6.48828-18.8877h-.144L128.2959 491.502zm39.07226-9.66016h-17.9502v-7.71387H194.186v7.71387l-19.39209 21.84277h20.76172v7.71387H161.313v-7.71387zm45.56006 29.55664V506.208h-.21631a11.5156 11.5156 0 01-5.0459 4.68555 14.89994 14.89994 0 01-6.34424 1.44238 17.8876 17.8876 0 01-6.74023-1.082 9.7158 9.7158 0 01-4.145-3.06348 11.98376 11.98376 0 01-2.127-4.83008 30.02256 30.02256 0 01-.6123-6.30762V474.128h10.23633v21.05078q0 4.61426 1.44189 6.88379 1.44138 2.272 5.11865 2.27148 4.17991 0 6.05518-2.4873 1.87424-2.4873 1.87451-8.18262v-19.5362h10.23682v37.27051zm27.24951-37.27051v6.9209h.144a12.5649 12.5649 0 011.94629-3.208 12.7758 12.7758 0 012.81151-2.52344 13.78917 13.78917 0 013.38818-1.62207 12.24444 12.24444 0 013.749-.57617 7.99357 7.99357 0 012.23486.36035v9.51563q-.72217-.14355-1.73047-.252a18.2521 18.2521 0 00-1.94629-.1084 10.9147 10.9147 0 00-4.75781.9375 8.24315 8.24315 0 00-3.13623 2.55859 10.241 10.241 0 00-1.69385 3.78516 20.57 20.57 0 00-.50488 4.68555v16.79688h-10.23625v-37.27048zm27.9707 28.33107q2.3064 2.23535 6.63232 2.23535a9.12915 9.12915 0 005.33447-1.5498 6.43519 6.43519 0 002.73926-3.28027h9.01123q-2.16284 6.70459-6.63232 9.58789a19.52236 19.52236 0 01-10.81348 2.88382 21.276 21.276 0 01-7.92969-1.40625 16.46519 16.46519 0 01-5.9834-4.001 17.99529 17.99529 0 01-3.78467-6.19922 22.67472 22.67472 0 01-1.3335-7.93066 21.73155 21.73155 0 011.36963-7.78516 18.01927 18.01927 0 019.91211-10.38086 19.29074 19.29074 0 017.74951-1.51367 17.72278 17.72278 0 018.29053 1.83789 16.55931 16.55931 0 015.80322 4.93848 20.31712 20.31712 0 013.28027 7.06445 26.35156 26.35156 0 01.7207 8.29h-26.88963q.2168 4.97462 2.52344 7.20901zm11.57031-19.6084q-1.83838-2.01709-5.58691-2.01855a8.918 8.918 0 00-4.07324.8291 7.77872 7.77872 0 00-2.59521 2.05469 7.52687 7.52687 0 00-1.36963 2.5957 11.67594 11.67594 0 00-.46875 2.45117h16.65283a11.83906 11.83906 0 00-2.55908-5.91214zm55.90479-22.92384L361 495.32227h.14453l11.38965-35.39551h15.93164v51.47168h-10.59668V474.9209h-.14453l-12.61523 36.47754h-8.72363L343.77 475.28125h-.144v36.11719h-10.59719v-51.47168zm48.58838 24.76269a17.04151 17.04151 0 019.94824-10.165 21.29762 21.29762 0 017.92969-1.40527 21.58167 21.58167 0 017.96582 1.40527 16.9712 16.9712 0 019.98438 10.165 22.87949 22.87949 0 011.37012 8.10938 22.58041 22.58041 0 01-1.37008 8.07417 17.50081 17.50081 0 01-3.89258 6.16406 16.959 16.959 0 01-6.0918 3.92871 22.09779 22.09779 0 01-7.96582 1.37012 21.80413 21.80413 0 01-7.92969-1.37012 17.00758 17.00758 0 01-6.05566-3.92871 17.47353 17.47353 0 01-3.89258-6.16406 22.58012 22.58012 0 01-1.37012-8.07422 22.8799 22.8799 0 011.37008-8.10933zm9.2998 12.47168a11.59494 11.59494 0 001.47754 3.82031 7.85427 7.85427 0 002.77539 2.70313 8.4626 8.4626 0 004.3252 1.00977 8.66379 8.66379 0 004.36133-1.00977 7.76973 7.76973 0 002.81152-2.70312 11.63982 11.63982 0 001.47852-3.82031 21.84685 21.84685 0 00.43262-4.3623 22.405 22.405 0 00-.43262-4.39746 11.256 11.256 0 00-1.47852-3.82031 8.20894 8.20894 0 00-2.81152-2.70312 8.43859 8.43859 0 00-4.36133-1.0459 7.87528 7.87528 0 00-7.10059 3.749 11.21487 11.21487 0 00-1.47754 3.82031 22.32988 22.32988 0 00-.43262 4.39746 21.7771 21.7771 0 00.43262 4.36231zm44.2627-23.0332v5.19043h.21582a11.74742 11.74742 0 015.04688-4.72168 14.59872 14.59872 0 016.34375-1.47754 17.38414 17.38414 0 016.74023 1.11719 9.9942 9.9942 0 014.14453 3.09961 12.00869 12.00869 0 012.127 4.83008 30.06306 30.06306 0 01.61328 6.30762v22.9248h-10.2373v-21.0498q0-4.61279-1.44141-6.88477-1.44283-2.27051-5.11816-2.27051-4.18208 0-6.05566 2.48633-1.87642 2.4873-1.875 8.18262v19.53613h-10.23638v-37.27051zm33.30367-5.7666v-8.43457h10.2373v8.43457zm10.2373 5.7666v37.27051H484.415v-37.27051zm28.54692 0v6.84863h-7.49707v18.45508q0 2.5957.86523 3.46.86426.86572 3.46.86523c.57715 0 1.12891-.02344 1.6582-.07227a13.90923 13.90923 0 001.51367-.21582v7.92969a24.271 24.271 0 01-2.88281.28809q-1.58789.07178-3.10059.07227a29.92571 29.92571 0 01-4.50488-.32422 10.62342 10.62342 0 01-3.749-1.26172 6.6714 6.6714 0 01-2.55957-2.667 9.52329 9.52329 0 01-.93652-4.542v-21.9873h-6.2002V474.128h6.2002v-11.1739h10.23636v11.17383zm5.11719 10.56152a17.04647 17.04647 0 019.94922-10.165 21.29383 21.29383 0 017.92969-1.40527 21.58419 21.58419 0 017.96484 1.40527 16.97112 16.97112 0 019.98438 10.165 22.90177 22.90177 0 011.37109 8.10938 22.60257 22.60257 0 01-1.37109 8.07422 17.48638 17.48638 0 01-3.89258 6.16406 16.95033 16.95033 0 01-6.0918 3.92871 22.0998 22.0998 0 01-7.96484 1.37012 21.80166 21.80166 0 01-7.92969-1.37012 17.007 17.007 0 01-6.05566-3.92871 17.4889 17.4889 0 01-3.89355-6.16406 22.581 22.581 0 01-1.36914-8.07422 22.87974 22.87974 0 011.36913-8.10938zm9.29883 12.47168a11.61881 11.61881 0 001.47852 3.82031 7.87 7.87 0 002.77539 2.70313 8.46661 8.46661 0 004.32617 1.00977 8.66372 8.66372 0 004.36133-1.00977 7.78269 7.78269 0 002.81055-2.70312 11.61881 11.61881 0 001.47852-3.82031 21.77651 21.77651 0 00.43164-4.3623 22.3296 22.3296 0 00-.43164-4.39746 11.236 11.236 0 00-1.47852-3.82031 8.22311 8.22311 0 00-2.81055-2.70312 8.43866 8.43866 0 00-4.36133-1.0459 7.87535 7.87535 0 00-7.10156 3.749 11.236 11.236 0 00-1.47852 3.82031 22.47511 22.47511 0 00-.43164 4.39746 21.91737 21.91737 0 00.43163 4.36231zm44.26367-23.0332v6.9209h.14453a12.52564 12.52564 0 011.94629-3.208 12.76452 12.76452 0 012.81152-2.52344 13.77675 13.77675 0 013.3877-1.62207 12.24449 12.24449 0 013.749-.57617 7.99018 7.99018 0 012.23438.36035v9.51563q-.7207-.14355-1.72949-.252a18.27791 18.27791 0 00-1.94727-.1084 10.91742 10.91742 0 00-4.75781.9375 8.24865 8.24865 0 00-3.13574 2.55859 10.25006 10.25006 0 00-1.69434 3.78516 20.62534 20.62534 0 00-.50391 4.68555v16.79688h-10.2373v-37.27048z"/></svg>