<svg xmlns="http://www.w3.org/2000/svg" role="img" viewBox="97.66 -7.34 525.18 537.68"><title>azure-registry.input.svg logo</title><defs><style>.cls-2{fill:#959595}.cls-3{fill:#b3b4b5}</style></defs><path d="M139.495 454.59961l19.248 51.47168h-11.751l-3.89258-11.46191h-19.248l-4.03711 11.46191h-11.39009l19.46436-51.47168zm.64893 31.5752l-6.48828-18.8877h-.144L126.807 486.1748zm39.07228-9.66016H161.266v-7.71387h31.43115v7.71387l-19.39209 21.84277h20.76172v7.71387h-34.24266v-7.71387zm45.56006 29.55664v-5.19043H224.56a11.51565 11.51565 0 01-5.0459 4.68555 14.90013 14.90013 0 01-6.34424 1.44238 17.88764 17.88764 0 01-6.74023-1.082 9.71575 9.71575 0 01-4.145-3.06348 11.98386 11.98386 0 01-2.127-4.83008 30.0217 30.0217 0 01-.6123-6.30762v-22.9248h10.23633v21.05078q0 4.61426 1.44189 6.88379 1.44141 2.272 5.11865 2.27148 4.17993 0 6.05518-2.4873 1.87427-2.4873 1.87451-8.18262v-19.53616h10.23682v37.27051zm27.24951-37.27051v6.9209h.144a12.56527 12.56527 0 011.94629-3.208 12.775 12.775 0 012.81152-2.52344 13.78854 13.78854 0 013.38818-1.62207 12.24444 12.24444 0 013.749-.57617 7.99315 7.99315 0 012.23486.36035v9.51565q-.72217-.14355-1.73047-.252a18.25306 18.25306 0 00-1.94629-.1084 10.91486 10.91486 0 00-4.75781.9375 8.243 8.243 0 00-3.13623 2.55859 10.24116 10.24116 0 00-1.69385 3.78516 20.56993 20.56993 0 00-.50488 4.68555v16.79688h-10.23626v-37.2705zm27.9707 28.33106q2.3064 2.23535 6.63232 2.23535a9.12922 9.12922 0 005.33447-1.5498 6.4351 6.4351 0 002.73926-3.28027h9.01123q-2.16284 6.70459-6.63232 9.58789a19.52233 19.52233 0 01-10.81348 2.88379 21.27575 21.27575 0 01-7.92969-1.40625 16.46509 16.46509 0 01-5.9834-4.001 17.99513 17.99513 0 01-3.78467-6.19922 22.67416 22.67416 0 01-1.3335-7.93066 21.73137 21.73137 0 011.36963-7.78516 18.01924 18.01924 0 019.91211-10.38086 19.29113 19.29113 0 017.74956-1.51365 17.72247 17.72247 0 018.29053 1.83789 16.55941 16.55941 0 015.80322 4.93848 20.317 20.317 0 013.28027 7.06445 26.35139 26.35139 0 01.7207 8.29H277.473q.21684 4.97464 2.52348 7.20902zm11.57031-19.6084q-1.83838-2.01709-5.58691-2.01855a8.91824 8.91824 0 00-4.07324.8291 7.77907 7.77907 0 00-2.59521 2.05469 7.52663 7.52663 0 00-1.36963 2.5957 11.67626 11.67626 0 00-.46875 2.45117h16.65283a11.839 11.839 0 00-2.55909-5.91211zm67.72803-22.92383a16.56478 16.56478 0 016.23535 1.11719 14.36329 14.36329 0 014.75781 3.06348 13.3256 13.3256 0 013.02832 4.50586 14.45544 14.45544 0 011.04492 5.51465 15.48778 15.48778 0 01-1.91016 7.8584 12.00152 12.00152 0 01-6.23535 5.0459v.14453a8.73935 8.73935 0 013.46 1.76563 9.80389 9.80389 0 012.23438 2.81152 13.0784 13.0784 0 011.26172 3.56836 31.18151 31.18151 0 01.541 3.89258q.07031 1.22754.14453 2.88379.07031 1.65967.252 3.38867a22.553 22.553 0 00.57617 3.28027 7.54864 7.54864 0 001.18945 2.63086h-11.31744a19.91721 19.91721 0 01-1.15332-5.83887q-.2168-3.38818-.64941-6.48828a10.22234 10.22234 0 00-2.45117-5.91113q-1.875-1.875-6.127-1.875H342.8583v20.11328h-11.31836v-51.47169zm-4.03711 23.28418q3.89355 0 5.83887-1.72949 1.94678-1.73 1.94727-5.623 0-3.74707-1.94727-5.44336-1.94531-1.69189-5.83887-1.69336H342.8583v14.48926zm38.20606 19.24805q2.30713 2.23535 6.63281 2.23535a9.12767 9.12767 0 005.334-1.5498 6.4351 6.4351 0 002.73926-3.28027h9.01172q-2.16357 6.70459-6.63281 9.58789a19.52233 19.52233 0 01-10.81348 2.88379 21.27756 21.27756 0 01-7.92969-1.40625 16.46922 16.46922 0 01-5.9834-4.001 18.0015 18.0015 0 01-3.78418-6.19922 22.663 22.663 0 01-1.334-7.93066 21.72092 21.72092 0 011.37012-7.78516 18.01924 18.01924 0 019.91211-10.38086 19.28708 19.28708 0 017.749-1.51367 17.72313 17.72313 0 018.291 1.83789 16.55776 16.55776 0 015.80273 4.93848 20.317 20.317 0 013.28027 7.06445 26.337 26.337 0 01.7207 8.29h-26.8896q.2168 4.97466 2.52344 7.20904zm11.57031-19.6084q-1.83838-2.01709-5.58691-2.01855a8.92107 8.92107 0 00-4.07324.8291 7.77214 7.77214 0 00-2.59473 2.05469 7.51976 7.51976 0 00-1.37012 2.5957 11.70776 11.70776 0 00-.46875 2.45117h16.65332a11.84343 11.84343 0 00-2.55957-5.91211zm54.0664 31.28711a12.63225 12.63225 0 01-2.63086 5.37109 15.675 15.675 0 01-5.83887 4.2168 25.18031 25.18031 0 01-10.2373 1.73047 23.8621 23.8621 0 01-5.58691-.68457 17.78956 17.78956 0 01-5.19043-2.127 12.75926 12.75926 0 01-3.89258-3.71289 10.75706 10.75706 0 01-1.7666-5.44238h10.165a5.83919 5.83919 0 002.81152 4.001 10.098 10.098 0 004.83008 1.11719q4.32568 0 6.30762-2.5957a10.1781 10.1781 0 001.91016-6.55957v-4.90234h-.14355a10.1301 10.1301 0 01-4.72266 4.36133 15.29 15.29 0 01-6.45117 1.40625 16.26568 16.26568 0 01-7.209-1.47852 13.66425 13.66425 0 01-4.97461-4.03711 16.824 16.824 0 01-2.84766-5.9834 28.30867 28.30867 0 01-.90137-7.24414 23.219 23.219 0 011.0459-6.957 18.17306 18.17306 0 013.06348-5.91113 14.78866 14.78866 0 015.01074-4.07324 15.03276 15.03276 0 016.88379-1.51367 14.42265 14.42265 0 016.45215 1.36914 11.15185 11.15185 0 014.65039 4.61426h.14355v-4.97461h9.73242v34.8916a24.978 24.978 0 01-.61323 5.11814zM445.08 496.41113a7.993 7.993 0 002.73926-2.30664 10.21749 10.21749 0 001.62207-3.28027 13.59975 13.59975 0 00.54-3.85645 21.08425 21.08425 0 00-.43262-4.36133 10.88958 10.88958 0 00-1.44141-3.64062 7.48636 7.48636 0 00-2.667-2.52344 8.425 8.425 0 00-4.18164-.9375 7.51317 7.51317 0 00-3.71289.86523 7.81369 7.81369 0 00-2.59473 2.34277 9.87559 9.87559 0 00-1.51367 3.38867 16.68411 16.68411 0 00-.46875 4.001 20.32456 20.32456 0 00.39648 4.001 10.79641 10.79641 0 001.36914 3.56836 8.00376 8.00376 0 002.55957 2.5957 7.24823 7.24823 0 003.96484 1.00879 8.14261 8.14261 0 003.82135-.86527zm23.13963-33.37695v-8.43457H478.456v8.43457zm10.23633 5.7666v37.27051h-10.23633v-37.27051zm16.68847 28.00684a5.98477 5.98477 0 001.7666 1.94629 7.54189 7.54189 0 002.4873 1.11719 11.66812 11.66812 0 002.91992.36133 10.90011 10.90011 0 002.27051-.25293 7.71274 7.71274 0 002.16211-.793 4.90051 4.90051 0 001.62207-1.44141 3.78753 3.78753 0 00.64941-2.27148q0-2.30566-3.06445-3.46a61.51318 61.51318 0 00-8.542-2.30664q-2.23535-.50391-4.36133-1.18945a14.84982 14.84982 0 01-3.78516-1.80273 8.72827 8.72827 0 01-2.667-2.81152 7.95191 7.95191 0 01-1.00977-4.14453 11.21151 11.21151 0 011.40625-5.91113 10.35971 10.35971 0 013.71289-3.64062 16.27484 16.27484 0 015.19043-1.875 32.00332 32.00332 0 015.91113-.54 29.58364 29.58364 0 015.875.57617 15.59271 15.59271 0 015.082 1.94629 11.68724 11.68724 0 013.71289 3.64063 12.256 12.256 0 011.7666 5.73145h-9.73242q-.2168-2.95459-2.23437-4.001a10.22835 10.22835 0 00-4.75781-1.04492 17.61865 17.61865 0 00-1.875.10742 6.24629 6.24629 0 00-1.83789.46875 3.78791 3.78791 0 00-1.40625 1.0459 2.76 2.76 0 00-.57617 1.83789 2.80225 2.80225 0 001.00879 2.23438 7.76826 7.76826 0 002.63184 1.40625 32.78618 32.78618 0 003.71191.97266q2.09033.43359 4.25391.9375a43.728 43.728 0 014.36133 1.22559 14.38272 14.38272 0 013.78418 1.91016 9.24919 9.24919 0 012.668 2.95605 8.68416 8.68416 0 011.00879 4.36133 11.32022 11.32022 0 01-5.334 10.165 15.8071 15.8071 0 01-5.44336 2.126 31.7435 31.7435 0 01-6.23535.61328 30.8662 30.8662 0 01-6.34375-.64941 16.75578 16.75578 0 01-5.51562-2.16211 12.36883 12.36883 0 01-3.96484-4.001 12.51872 12.51872 0 01-1.69336-6.23633h9.73145a5.607 5.607 0 00.68459 2.8477zm50.57031-28.00684v6.84863h-7.49707v18.45508q0 2.5957.86523 3.46.86426.86572 3.46.86523c.57715 0 1.12891-.02344 1.6582-.07227a13.90546 13.90546 0 001.51367-.21582v7.92969a24.26607 24.26607 0 01-2.88379.28809q-1.58643.07178-3.09961.07227a29.93966 29.93966 0 01-4.50586-.32422 10.63681 10.63681 0 01-3.749-1.26172 6.66906 6.66906 0 01-2.55859-2.667 9.52265 9.52265 0 01-.9375-4.542v-21.9873h-6.19922v-6.84863h6.19922V457.627h10.2373v11.17383zm14.63379 0v6.9209h.14453a12.524 12.524 0 011.94629-3.208 12.764 12.764 0 012.81152-2.52344 13.77694 13.77694 0 013.3877-1.62207 12.24444 12.24444 0 013.749-.57617 7.99 7.99 0 012.23438.36035v9.51565q-.7207-.14355-1.72949-.252a18.27792 18.27792 0 00-1.94727-.1084 10.91785 10.91785 0 00-4.75781.9375 8.24874 8.24874 0 00-3.13574 2.55859 10.24977 10.24977 0 00-1.69434 3.78516 20.62652 20.62652 0 00-.50391 4.68555v16.79688h-10.2373v-37.2705z"/><path d="M592.42763 517.17285q-2.95752 1.94678-8.21875 1.94629-1.58643 0-3.13574-.10742-1.55127-.1084-3.13574-.25293v-8.43457q1.44141.14355 2.95605.28906a21.32523 21.32523 0 003.02734.07129 3.97934 3.97934 0 002.99219-1.58594 5.11086 5.11086 0 00.97266-3.02734 6.13978 6.13978 0 00-.43262-2.30664l-13.04785-34.96387h10.88574l8.43457 25.51953h.14355l8.14648-25.51953h10.59669l-15.57129 41.88379a12.60948 12.60948 0 01-4.61328 6.48828z"/><path fill="#59b4d9" d="M268.41112 307.76648h-65.30457c-43.60728-10.84865-77.2168-45.0963-77.2168-90.61806 0-37.65118 24.2499-72.11156 57.22126-85.08738a111.739 111.739 0 01-.63815-11.91223 117.11831 117.11831 0 01208.46407-73.17514 92.92289 92.92289 0 0142.75642-9.99778c51.26516 0 95.51057 45.52175 97.42506 96.14873L356.26384 61.01307l-87.85273 52.54146z"/><path d="M595.14664 356.05356l-241.01 45.9472 1.06359-169.3239L595.14667 277.135zM354.98752 82.92307l240.15912 90.40534v90.40536L355.413 212.68134" class="cls-2"/><path d="M355.413 212.68133l-65.30456 30.41873V122.4887l64.87913-39.56563M584.298 253.31055l-217.8237-49.77611V95.47346L584.298 175.881v77.42953zM464.53752 214.5958l21.69728 5.95612v-70.62254l-21.69728-7.65786zm-21.91-79.13126l-21.69728-7.87054v75.30232l21.69728 6.16884zM508.1448 226.508l21.48458 5.74339.42543-67.219L508.1448 157.8zM377.323 191.83493l21.69728 5.53068v-77.00409L377.323 113.1291zM573.44936 179.71l-21.69728-7.65788v65.73l21.69728 5.95612zM366.4743 250.54523v139.756l217.8237-39.99106v-66.15545zm10.8487 123.3767V266.28639l21.69728 2.76535v101.254zm65.30456-10.84865l-21.69728 4.04164v-95.08514l21.69728 3.19078zm21.91-3.19078v-82.53476l21.69728 2.76535v75.72775zm65.30456-11.48678l-21.69728 3.61621V282.6657l21.69728 3.19078zm44.24544-7.01972l-22.54817 3.82894v-57.00855l21.05911 2.55261z" class="cls-3"/><path d="M312.23112 210.55414l-10.84864 6.38155v-85.72552l10.84864-5.95612zm21.69729-97.63777l-10.84864 7.44515v83.38563l10.84864-5.95612z" class="cls-2"/><path d="M290.10839 363.286l-.42543-99.12681 65.51729-31.695.42543 169.74933" class="cls-3"/><path d="M310.74208 362.86055l-9.99776-5.10523V274.157l9.99776-4.4671zm23.399-103.59388l-10.84864 4.6798-.42544 105.50833 11.27407 5.74339z" class="cls-2"/><path fill="#7a7a7a" d="M573.23666 186.72968l-195.701-65.73.21273-8.50874L573.23666 179.71zm-.63816 104.232l-194.85008-24.4626v8.50874l195.06281 22.9736zm-238.67009-166.984v-10.63586l-31.69505 17.44291-.42543 8.93417zM300.957 280.53851l33.18409-12.12494v-9.1469L300.74435 274.157z"/><path fill="#fff" d="M595.14664 173.75386v182.2997l-239.521 45.9472 181.44889-250.15691z" opacity=".2"/></svg>