<svg xmlns="http://www.w3.org/2000/svg" role="img" viewBox="-4.51 -3.51 442.26 268.26"><title>azure-container-service.input.svg logo</title><defs><style>.cls-1{fill:#814b99}.cls-2{fill:#682a7a}</style></defs><path d="M205.393 55.852L163.465 72.044 163.465 5.128 205.393 19.671 205.393 55.852z" class="cls-1"/><path d="M147.17325,62.34864l-2.74859-.89954V15.37278l2.74859-.54972,2.74859-1.09944,3.29831-1.09944V63.94782l-3.34828-1.14941Zm-9.89492-3.24833-2.049-.54972V18.22132l2.19887-.54972,2.19887-.54972,2.1489-.54972V60.79945l-2.1489-.54972Zm-8.14582-1.999-1.69912-.54972V20.22029l1.64915-.54972,1.64915-.54972,1.69912-.54972V58.05086l-1.44925-.54972Zm-3.24833-40.4792V60.19975l30.98408,11.84391V5.57781Z" class="cls-2"/><path d="M302.943 55.852L261.015 72.044 261.015 5.128 302.943 19.671 302.943 55.852z" class="cls-1"/><path d="M244.67315,62.34864l-2.74859-1.09943V15.37278l2.74859-.54972,2.74859-1.09944,3.14838-1.09944V63.94782l-3.14838-1.14941Zm-9.9449-3.24833-2.19887-.54972V18.22132l2.19887-.54972,2.14889-.54972,2.19887-.54972V60.79945l-2.19887-.54972Zm-8.19579-2.1489-1.64915-.54972V20.22029l1.64915-.54972,1.64915-.54972,1.64915-.54972V58.05086l-1.64915-.54972Zm-3.14838-40.52917v43.7775l31.03406,11.84391V5.57781Z" class="cls-2"/><path d="M205.393 188.684L163.465 204.825 163.465 137.91 205.393 152.502 205.393 188.684z" class="cls-1"/><path d="M147.17325,195.13042l-2.74859-1.09944V148.15456l2.74859-.54972,2.69861-1.1494,3.29831-1.09944v51.42357l-3.29831-1.04946Zm-9.89492-3.24833-2.049-.74961v-40.2793l2.19887-.54972,2.19887-.54972,2.1489-.54972V193.5812l-2.1489-.54972Zm-8.14582-2.1489-1.69912-.49974V153.052l1.64915-.54972,1.64915-.54972,1.69912-.54972v39.37977l-1.44925-.49974Zm-3.24833-40.4792v43.77751l30.98408,11.84392V138.40957Z" class="cls-2"/><path d="M302.943 188.684L261.015 204.825 261.015 137.91 302.943 152.502 302.943 188.684z" class="cls-1"/><path d="M244.67315,195.13042l-2.74859-1.09944V148.15456l2.74859-.54972,2.74859-1.09944L250.72,145.406v51.32362l-3.29831-1.04946Zm-9.9449-3.24833-2.19887-.54972v-40.4792l2.19887-.54972,2.14889-.54972,2.19887-.54972V193.5812l-2.19887-.54972Zm-8.19579-2.1489-1.64915-.54972V153.052l1.64915-.54972,1.64915-.54972,1.64915-.54972v39.37977l-1.64915-.54972Zm-3.14838-40.4792v43.77751l31.03406,11.84392V138.40957Z" class="cls-2"/><path d="M257.167 122.268L215.788 137.91 215.788 71.494 257.167 86.136 257.167 122.268z" class="cls-1"/><path d="M198.84669,128.71454l-2.74859-1.09944V81.73867l2.74859-.54972,2.74859-1.09943,3.29831-1.09943V130.3137l-3.24833-1.09944Zm-9.89491-3.24832-2.19887-.54972V84.48726l2.19887-.54972,2.19887-.54972,2.14889-.54972v44.37721l-2.14889-.54972Zm-8.14582-2.69862-1.69912-.49974V86.08645l1.64915-.54972,1.64915-.54972,1.64915-.54972v39.37977l-1.64915-.54972Zm-3.19835-40.4792V126.0659l31.184,11.89388V71.444Z" class="cls-2"/><path d="M160.217 122.268L118.788 137.91 118.788 71.494 160.217 86.136 160.217 122.268z" class="cls-1"/><path d="M101.89651,128.71454l-2.74859-1.09944V81.73867l2.74859-.54972,2.74859-1.09943,3.29831-1.09943V130.3137l-3.2983-1.09944Zm-9.84494-3.24832-2.19887-.54972V84.48726l2.19887-.54972,2.19887-.54972,2.09892-.29985v44.07734l-2.1489-.54972Zm-8.19579-2.69862-1.64915-.54972V86.08645l1.64915-.54972,1.7491-.59969,1.64915-.54972v39.37977l-1.64915-.44977ZM80.65743,82.2884V126.0659l30.98408,11.89388V71.444Z" class="cls-2"/><path d="M353.017 122.268L311.689 137.91 311.689 71.494 353.017 86.136 353.017 122.268zM163.465 5.128L163.465 72.044 205.393 55.852 205.393 19.671 163.465 5.128zM261.015 5.128L261.015 72.044 302.943 55.852 302.943 19.671 261.015 5.128zM163.465 137.91L163.465 204.825 205.393 188.684 205.393 152.502 163.465 137.91zM261.015 137.91L261.015 204.825 302.943 188.684 302.943 152.502 261.015 137.91zM215.788 71.494L215.788 137.91 257.167 122.268 257.167 86.136 215.788 71.494zM118.788 71.494L118.788 137.91 160.217 122.268 160.217 86.136 118.788 71.494z" class="cls-1"/><path d="M311.689 71.494L311.689 137.91 353.017 122.268 353.017 86.136 311.689 71.494z" class="cls-1"/><path d="M294.84736,128.71454l-2.74859-1.09944V81.73867l2.74859-.54972,2.74859-1.09943,3.29831-1.09943V130.3137l-3.34829-1.09944Zm-9.84495-3.24832-2.19887-.54972V84.48726l2.19887-.54972,2.14889-.54972,2.19887-.54972v44.37721l-2.19887-.54972Zm-8.19579-2.69862-1.64915-.54972V86.08645l1.64915-.54972,1.64915-.54972,1.64915-.54972v39.37977l-1.64915-.54972Zm-3.19835-40.4792V126.0659l31.03406,11.89388V71.444Z" class="cls-2"/><path d="M13.69607 229.21484h6.27637l9.3916 26.5459H23.3489l-1.75146-5.457H11.82156l-1.79932 5.457H4.22zm-.36572 16.51465h6.79883l-3.35352-10.44531zM31.21023 240.30859v-4.17773H46.73416v4.26758l-9.63232 11.14844h9.97461v4.21387H30.52566v-3.998l9.731-11.4541zM55.88308 236.13086v11.832a6.217 6.217 0 00.39453 2.52148 2.72592 2.72592 0 002.7417 1.49414 3.58235 3.58235 0 003.584-2.125 7.72518 7.72518 0 00.50146-3.043V236.13086h5.20508v19.62988H63.32107V252.9873q-.07178.09082-.35889.54a3.61264 3.61264 0 01-.68262.793 7.12983 7.12983 0 01-2.32568 1.47656 7.919 7.919 0 01-2.63086.39648q-4.34619 0-5.85449-3.13379a12.01524 12.01524 0 01-.84424-5.09668v-11.832zM84.20242 235.6709c.06592.00684.21289.01563.44141.02734V240.957c-.32422-.03613-.6123-.05957-.86475-.07227q-.37793-.01758-.6123-.01758-3.09741 0-4.16016 2.0166a7.85146 7.85146 0 00-.59424 3.49414v9.38281H73.24392V236.13086h4.89844v3.42188a10.8592 10.8592 0 012.07129-2.68359 5.63615 5.63615 0 013.74561-1.207Q84.10354 235.66211 84.20242 235.6709zM100.44314 236.52832a7.98136 7.98136 0 013.39209 2.9043 9.63706 9.63706 0 011.564 4.05762 25.14175 25.14175 0 01.16943 3.89648H91.27127a4.70909 4.70909 0 002.05273 4.1416 5.21519 5.21519 0 002.83008.73828 3.98564 3.98564 0 003.90625-2.251h5.24023a6.40758 6.40758 0 01-1.90283 3.54785 9.53845 9.53845 0 01-7.38525 2.86328 10.69982 10.69982 0 01-6.91455-2.415q-2.99561-2.41553-2.99512-7.85937 0-5.10059 2.7041-7.82227a9.46334 9.46334 0 017.01953-2.72168A11.17448 11.17448 0 01100.44314 236.52832zm-7.67871 4.43359a5.33866 5.33866 0 00-1.36719 3.03906H100.24a4.28659 4.28659 0 00-1.36719-3.10254 4.49983 4.49983 0 00-3.04443-1.05762A4.07369 4.07369 0 0092.76443 240.96191zM121.3616 231.98828a10.93036 10.93036 0 018.16016-3.27734q6.62769 0 9.69238 4.39355a9.58239 9.58239 0 011.81738 4.95313h-5.54687a7.56342 7.56342 0 00-1.35889-2.88184 5.46721 5.46721 0 00-4.39258-1.72852 5.41257 5.41257 0 00-4.67578 2.44043 11.91845 11.91845 0 00-1.71143 6.90625q0 4.46631 1.80615 6.69043A5.6571 5.6571 0 00129.741 251.709a5.20052 5.20052 0 004.35156-1.90918 8.38485 8.38485 0 001.374-3.08008h5.51074a11.95675 11.95675 0 01-3.64355 7.05957A10.60267 10.60267 0 01129.824 256.499a11.26829 11.26829 0 01-8.9082-3.67383q-3.24243-3.69141-3.24268-10.12109Q117.67312 235.752 121.3616 231.98828zM161.41775 253.35938q-2.48511 3.06738-7.5459 3.06738-5.061 0-7.5459-3.06738a12.17909 12.17909 0 010-14.74609q2.48511-3.11279 7.5459-3.11328 5.0603 0 7.5459 3.11328a12.17909 12.17909 0 010 14.74609zm-4.106-2.83691a9.16523 9.16523 0 000-9.09082 4.56335 4.56335 0 00-6.9248 0 9.1077 9.1077 0 000 9.09082 4.54524 4.54524 0 006.9248 0zM183.40652 237.25586q1.92773 1.59375 1.92773 5.28613v13.21875h-5.25879V243.82031a5.4803 5.4803 0 00-.41113-2.377 2.88734 2.88734 0 00-2.86035-1.5127 3.54568 3.54568 0 00-3.55762 2.21484 7.66333 7.66333 0 00-.50049 2.98926v10.626h-5.13281V236.167h4.9707v2.86328a8.69472 8.69472 0 011.86523-2.17969 6.46343 6.46343 0 013.999-1.18848A7.52522 7.52522 0 01183.40652 237.25586zM188.08963 239.9668v-3.65625h2.7373v-5.47461h5.07861v5.47461h3.1875v3.65625h-3.1875v10.373a2.33338 2.33338 0 00.30615 1.50391 3.37014 3.37014 0 001.873.29688q.23364 0 .49512-.00879c.17383-.00586.34521-.01465.51318-.02734v3.83594l-2.43115.09082q-3.63794.12451-4.9707-1.26074a3.75574 3.75574 0 01-.86426-2.71973v-12.084zM210.16385 243.82031a8.08829 8.08829 0 002.0498-.4502 1.54348 1.54348 0 001.10742-1.459 1.72314 1.72314 0 00-.84961-1.665 5.35526 5.35526 0 00-2.49121-.46 3.27261 3.27261 0 00-2.61035.90039 3.7101 3.7101 0 00-.73047 1.80176h-4.95264a7.51267 7.51267 0 011.44678-4.23242q2.04419-2.59424 7.01855-2.59375a12.50847 12.50847 0 015.751 1.2793q2.51514 1.27881 2.51465 4.82617v9.00488q0 .936.03613 2.26855a2.858 2.858 0 00.30566 1.36914 1.8277 1.8277 0 00.75684.59375v.75684h-5.583a5.6866 5.6866 0 01-.32422-1.11621q-.09082-.52295-.14453-1.18945a10.6028 10.6028 0 01-2.46289 1.96387 7.45215 7.45215 0 01-3.76855.9541 6.50537 6.50537 0 01-4.42871-1.52148 5.4118 5.4118 0 01-1.748-4.31348 5.59072 5.59072 0 012.812-5.24121 12.57043 12.57043 0 014.53564-1.25977zm3.13867 2.39551a5.687 5.687 0 01-.99512.49512 8.458 8.458 0 01-1.37793.35156l-1.16895.21582a7.70883 7.70883 0 00-2.3584.70215 2.34553 2.34553 0 00-1.21289 2.17969 2.27717 2.27717 0 00.74023 1.89941 2.81544 2.81544 0 001.80176.58594 5.36592 5.36592 0 003.09961-.97266q1.4165-.97266 1.47168-3.54785zM228.17849 233.78906h-5.20508v-4.73633h5.20508zm-5.20508 2.3418h5.20508v19.62988h-5.20508zM248.9783 237.25586q1.92773 1.59375 1.92773 5.28613v13.21875h-5.25879V243.82031a5.4803 5.4803 0 00-.41113-2.377 2.88779 2.88779 0 00-2.86035-1.5127 3.54526 3.54526 0 00-3.55762 2.21484 7.65366 7.65366 0 00-.501 2.98926v10.626h-5.13184V236.167h4.96973v2.86328a8.71475 8.71475 0 011.86523-2.17969 6.4664 6.4664 0 014-1.18848A7.52476 7.52476 0 01248.9783 237.25586zM268.46951 236.52832a7.97406 7.97406 0 013.39258 2.9043 9.657 9.657 0 011.56445 4.05762 25.15392 25.15392 0 01.16895 3.89648H259.29763a4.7097 4.7097 0 002.05371 4.1416 5.21058 5.21058 0 002.8291.73828 3.98741 3.98741 0 003.90723-2.251h5.23926a6.40031 6.40031 0 01-1.90234 3.54785 9.53806 9.53806 0 01-7.38477 2.86328 10.69924 10.69924 0 01-6.915-2.415q-2.99561-2.41553-2.99512-7.85937 0-5.10059 2.7041-7.82227a9.46334 9.46334 0 017.01953-2.72168A11.17378 11.17378 0 01268.46951 236.52832zm-7.67773 4.43359a5.3292 5.3292 0 00-1.36719 3.03906h8.8418a4.281 4.281 0 00-1.36719-3.10254 4.49943 4.49943 0 00-3.04395-1.05762A4.071 4.071 0 00260.79177 240.96191zM287.09549 235.6709c.06641.00684.21289.01563.44141.02734V240.957c-.32422-.03613-.6123-.05957-.86426-.07227-.252-.01172-.457-.01758-.6123-.01758q-3.09814 0-4.16016 2.0166a7.84348 7.84348 0 00-.59473 3.49414v9.38281H276.1365V236.13086h4.89941v3.42188a10.86076 10.86076 0 012.07031-2.68359 5.63751 5.63751 0 013.74609-1.207Q286.99588 235.66211 287.09549 235.6709zM305.20486 247.56641a5.38468 5.38468 0 001.01172 2.71973q1.37842 1.63916 4.72559 1.63867a10.16224 10.16224 0 003.25391-.43262 3.08887 3.08887 0 002.373-3.0791 2.27026 2.27026 0 00-1.16211-2.03516 12.60546 12.60546 0 00-3.68555-1.24316l-2.874-.62988a17.89653 17.89653 0 01-5.82227-2.03516 6.47214 6.47214 0 01-2.68262-5.74512 7.63055 7.63055 0 012.625-5.9248q2.625-2.3584 7.71191-2.35937a11.82213 11.82213 0 017.24707 2.22461 7.90827 7.90827 0 013.14453 6.45605H315.74a3.79947 3.79947 0 00-2.1416-3.40332 7.33369 7.33369 0 00-3.30469-.667 6.29085 6.29085 0 00-3.50781.86426 2.73518 2.73518 0 00-1.31055 2.41406 2.27733 2.27733 0 001.292 2.125 16.14289 16.14289 0 003.52637 1.09863l4.65918 1.09863a11.8339 11.8339 0 014.59082 1.92676 6.49661 6.49661 0 012.374 5.4209 7.61677 7.61677 0 01-2.8125 6.042q-2.8125 2.40381-7.94629 2.4043-5.24121 0-8.24512-2.36816a7.83561 7.83561 0 01-3.00391-6.51074zM338.18435 236.52832a7.97406 7.97406 0 013.39258 2.9043 9.657 9.657 0 011.56445 4.05762 25.15391 25.15391 0 01.16895 3.89648H329.01248a4.7097 4.7097 0 002.05371 4.1416 5.21058 5.21058 0 002.8291.73828 3.98741 3.98741 0 003.90723-2.251h5.23926a6.40031 6.40031 0 01-1.90234 3.54785 9.53806 9.53806 0 01-7.38477 2.86328 10.69924 10.69924 0 01-6.915-2.415q-2.99561-2.41553-2.99512-7.85937 0-5.10059 2.7041-7.82227a9.46334 9.46334 0 017.01953-2.72168A11.17378 11.17378 0 01338.18435 236.52832zm-7.67773 4.43359a5.3292 5.3292 0 00-1.36719 3.03906h8.8418a4.281 4.281 0 00-1.36719-3.10254 4.49943 4.49943 0 00-3.04395-1.05762A4.071 4.071 0 00330.50662 240.96191zM356.81033 235.6709c.06641.00684.21289.01563.44141.02734V240.957c-.32422-.03613-.6123-.05957-.86426-.07227-.252-.01172-.457-.01758-.6123-.01758q-3.09814 0-4.16016 2.0166a7.84349 7.84349 0 00-.59473 3.49414v9.38281h-5.16895V236.13086h4.89941v3.42188a10.86077 10.86077 0 012.07031-2.68359 5.63751 5.63751 0 013.74609-1.207Q356.71072 235.66211 356.81033 235.6709zM372.35232 236.13086h5.51074l-7.08789 19.62988h-5.41211l-7.04-19.62988h5.76367l4.08789 14.47949zM386.04861 233.78906h-5.20508v-4.73633h5.20508zm-5.20508 2.3418h5.20508v19.62988h-5.20508zM402.7615 243.17188a4.5621 4.5621 0 00-.74023-1.98047 3.10612 3.10612 0 00-2.69043-1.18848 3.54134 3.54134 0 00-3.55664 2.5752 10.69062 10.69062 0 00-.50488 3.62793 9.83609 9.83609 0 00.50488 3.46777 3.43351 3.43351 0 003.4668 2.44922 3.06058 3.06058 0 002.56348-.97266 4.83829 4.83829 0 00.9209-2.52148h5.24023a8.57714 8.57714 0 01-1.69434 4.43066 8.23959 8.23959 0 01-7.15625 3.36719q-4.7417 0-6.97754-2.80957a11.34369 11.34369 0 01-2.23535-7.28516q0-5.05078 2.46973-7.86035a8.60073 8.60073 0 016.81445-2.80957 10.26745 10.26745 0 016.04785 1.65723q2.35254 1.65674 2.78613 5.85254zM424.323 236.52832a7.97406 7.97406 0 013.39258 2.9043 9.657 9.657 0 011.56445 4.05762 25.15392 25.15392 0 01.16895 3.89648H415.15115a4.7097 4.7097 0 002.05371 4.1416 5.21058 5.21058 0 002.8291.73828 3.98741 3.98741 0 003.90723-2.251h5.23926a6.40031 6.40031 0 01-1.90234 3.54785 9.53806 9.53806 0 01-7.38477 2.86328 10.69924 10.69924 0 01-6.915-2.415q-2.99561-2.41553-2.99512-7.85937 0-5.10059 2.7041-7.82227a9.46334 9.46334 0 017.01953-2.72168A11.17378 11.17378 0 01424.323 236.52832zm-7.67773 4.43359a5.3292 5.3292 0 00-1.36719 3.03906h8.8418a4.281 4.281 0 00-1.36719-3.10254 4.49943 4.49943 0 00-3.04395-1.05762A4.071 4.071 0 00416.64529 240.96191z"/></svg>