<svg xmlns="http://www.w3.org/2000/svg" role="img" viewBox="-8.65 -7.15 735.80 536.30"><title>azure-service-fabric.input.svg logo</title><defs><style>.cls-2{fill:#fe9545}.cls-3{fill:#fe8b00}.cls-4{fill:#dc5900}.cls-5{fill:#de6d45}</style></defs><path d="M36.55273 462.69824l19.248 51.47168H44.0498L40.15723 502.708h-19.248l-4.03711 11.46191H5.48193l19.46436-51.47168zm.64893 31.5752l-6.48828-18.8877h-.144l-6.70459 18.8877zm39.07227-9.66016h-17.9502v-7.71387h31.43115v7.71387l-19.39209 21.84277h20.76172v7.71387H56.88184v-7.71387zm45.56007 29.55664v-5.19043h-.21631a11.51565 11.51565 0 01-5.0459 4.68555 14.90013 14.90013 0 01-6.34424 1.44238 17.88764 17.88764 0 01-6.74023-1.082 9.71575 9.71575 0 01-4.145-3.06348 11.98387 11.98387 0 01-2.127-4.83008 30.02171 30.02171 0 01-.6123-6.30762v-22.9248h10.23633v21.05076q0 4.61426 1.44189 6.88379 1.44141 2.272 5.11865 2.27148 4.17993 0 6.05518-2.4873 1.87427-2.4873 1.87451-8.18262v-19.53614h10.23682v37.27051zm27.2495-37.27051v6.9209h.144a12.56527 12.56527 0 011.94629-3.208 12.775 12.775 0 012.81152-2.52344 13.78855 13.78855 0 013.38818-1.62207 12.24444 12.24444 0 013.749-.57617 7.99315 7.99315 0 012.23486.36035v9.51563q-.72217-.14355-1.73047-.252a18.25306 18.25306 0 00-1.94629-.1084 10.91486 10.91486 0 00-4.75781.9375 8.243 8.243 0 00-3.13623 2.55859 10.24116 10.24116 0 00-1.69385 3.78516 20.56994 20.56994 0 00-.50488 4.68555v16.79687h-10.23626v-37.27047zm27.9707 28.33106q2.3064 2.23535 6.63232 2.23535a9.12922 9.12922 0 005.33447-1.5498 6.4351 6.4351 0 002.73926-3.28027h9.01123q-2.16284 6.70459-6.63232 9.58789a19.52233 19.52233 0 01-10.81348 2.88379 21.27575 21.27575 0 01-7.92969-1.40625 16.46509 16.46509 0 01-5.9834-4.001 17.99513 17.99513 0 01-3.78467-6.19922 22.67416 22.67416 0 01-1.3335-7.93066 21.73137 21.73137 0 011.36963-7.78516 18.01924 18.01924 0 019.91211-10.38086 19.29113 19.29113 0 017.74951-1.51367 17.72247 17.72247 0 018.29053 1.83789 16.55941 16.55941 0 015.80322 4.93848 20.317 20.317 0 013.28027 7.06445 26.35139 26.35139 0 01.7207 8.29h-26.88963q.2168 4.97466 2.52344 7.20904zm11.57031-19.6084q-1.83838-2.01709-5.58691-2.01855a8.91824 8.91824 0 00-4.07324.8291 7.77907 7.77907 0 00-2.59521 2.05469 7.52663 7.52663 0 00-1.36963 2.5957 11.67626 11.67626 0 00-.46875 2.45117h16.65283a11.839 11.839 0 00-2.55909-5.91211zm48.62403 15.86035a8.17063 8.17063 0 002.48682 2.91895 10.73523 10.73523 0 003.64063 1.6582 17.2091 17.2091 0 004.32568.541 22.43283 22.43283 0 003.24365-.252 11.2513 11.2513 0 003.24414-.97363 7.0666 7.0666 0 002.52344-1.98242 4.976 4.976 0 001.00928-3.208 4.51905 4.51905 0 00-1.334-3.38867 10.58912 10.58912 0 00-3.49609-2.16211 34.86276 34.86276 0 00-4.90234-1.51367q-2.74072-.64893-5.55078-1.44238a48.92366 48.92366 0 01-5.623-1.76562 19.24793 19.24793 0 01-4.90186-2.7041 12.71241 12.71241 0 01-3.49658-4.14453 12.57847 12.57847 0 01-1.3335-6.01953 13.475 13.475 0 011.69385-6.88477 15.339 15.339 0 014.43359-4.86621 19.33834 19.33834 0 016.19971-2.88379 26.405 26.405 0 016.92041-.93652 32.81367 32.81367 0 017.75.90039 19.37139 19.37139 0 016.59619 2.91992 14.79891 14.79891 0 014.57764 5.1543 15.82036 15.82036 0 011.69385 7.60547H255.9917a9.12232 9.12232 0 00-.97314-3.82031 6.369 6.369 0 00-2.19873-2.37891 9.31466 9.31466 0 00-3.13574-1.22559 19.31785 19.31785 0 00-3.85693-.36035 13.30947 13.30947 0 00-2.73926.28809 7.32925 7.32925 0 00-2.4873 1.00977 6.24489 6.24489 0 00-1.83838 1.80176 4.83777 4.83777 0 00-.7207 2.73926 4.61626 4.61626 0 00.57666 2.45117 5.14043 5.14043 0 002.271 1.73047 28.874 28.874 0 004.68555 1.58594q2.99048.79395 7.82178 2.01855 1.44141.28857 4.001 1.04492a19.23257 19.23257 0 015.08252 2.415 15.38362 15.38362 0 014.36133 4.43359 12.61785 12.61785 0 011.83838 7.10059 15.7447 15.7447 0 01-1.36963 6.56055 14.2565 14.2565 0 01-4.07324 5.22656 19.5605 19.5605 0 01-6.70459 3.42383 31.71432 31.71432 0 01-9.26318 1.22559 32.5417 32.5417 0 01-8.25439-1.04492 20.742 20.742 0 01-7.06494-3.28027 16.18679 16.18679 0 01-4.86572-5.69531 16.98664 16.98664 0 01-1.73047-8.21777h10.958a9.43875 9.43875 0 00.93696 4.39751zm48.01074 3.74805q2.3064 2.23535 6.63232 2.23535a9.12922 9.12922 0 005.33447-1.5498 6.4351 6.4351 0 002.73926-3.28027h9.01123q-2.16284 6.70459-6.63232 9.58789a19.52233 19.52233 0 01-10.81348 2.88379 21.27575 21.27575 0 01-7.92969-1.40625 16.46509 16.46509 0 01-5.9834-4.001 17.99513 17.99513 0 01-3.78467-6.19918 22.67416 22.67416 0 01-1.3335-7.93066 21.73137 21.73137 0 011.36963-7.78516 18.01924 18.01924 0 019.91211-10.38086 19.29113 19.29113 0 017.74951-1.51367 17.72247 17.72247 0 018.29053 1.83789 16.55941 16.55941 0 015.80322 4.93848 20.317 20.317 0 013.28027 7.06445 26.35139 26.35139 0 01.7207 8.29h-26.88963q.2168 4.97462 2.52344 7.209zm11.57031-19.6084q-1.83838-2.01709-5.58691-2.01855a8.91824 8.91824 0 00-4.07324.8291 7.77907 7.77907 0 00-2.59521 2.05469 7.52663 7.52663 0 00-1.36963 2.5957 11.67626 11.67626 0 00-.46875 2.45117h16.65283a11.839 11.839 0 00-2.55909-5.91211zm28.58252-8.72266v6.9209h.144a12.56527 12.56527 0 011.94629-3.208 12.775 12.775 0 012.81152-2.52344 13.78855 13.78855 0 013.38818-1.62207 12.24444 12.24444 0 013.749-.57617 7.99315 7.99315 0 012.23486.36035v9.51563q-.72217-.14355-1.73047-.252a18.25306 18.25306 0 00-1.94629-.1084 10.91486 10.91486 0 00-4.75781.9375 8.243 8.243 0 00-3.13623 2.55859 10.24116 10.24116 0 00-1.69385 3.78516 20.56994 20.56994 0 00-.50488 4.68555v16.79687h-10.23625v-37.27047zm27.53809 37.27051l-12.76025-37.27051h10.7417l7.85742 25.44824h.14453l7.85742-25.44824h10.165l-12.61621 37.27051zm28.54687-43.03711v-8.43457h10.23633v8.43457zm10.23633 5.7666v37.27051h-10.23633v-37.27051zm25.87988 6.70411a7.18691 7.18691 0 00-4.10937 1.11816 8.87893 8.87893 0 00-2.70312 2.88281 12.46145 12.46145 0 00-1.47754 3.89355 21.06285 21.06285 0 00-.43262 4.2168 20.198 20.198 0 00.43262 4.10938 12.68748 12.68748 0 001.40527 3.78418 8.06753 8.06753 0 002.63184 2.77539 7.22358 7.22358 0 004.03711 1.082 7.502 7.502 0 005.6582-2.05469 9.72551 9.72551 0 002.4873-5.51465h9.876q-1.01074 7.42529-5.7666 11.31738-4.75781 3.89355-12.18359 3.89355a20.38623 20.38623 0 01-7.67676-1.40625 16.9983 16.9983 0 01-5.94824-3.92871 17.86357 17.86357 0 01-3.82031-6.01953 20.87027 20.87027 0 01-1.37012-7.67773 24.842 24.842 0 011.26172-8.03809 18.07877 18.07877 0 013.71289-6.416 16.97553 16.97553 0 015.9834-4.2168 20.31717 20.31717 0 018.07422-1.51367 23.35638 23.35638 0 016.37988.86523 17.03842 17.03842 0 015.47852 2.63086 13.60562 13.60562 0 015.66016 10.63281h-10.02152q-1.01074-6.4145-7.56934-6.41598zm34.53027 21.62695q2.30566 2.23535 6.63184 2.23535a9.12864 9.12864 0 005.335-1.5498 6.4351 6.4351 0 002.73926-3.28027h9.01172q-2.16357 6.70459-6.63281 9.58789a19.52233 19.52233 0 01-10.81348 2.88379 21.27756 21.27756 0 01-7.92969-1.40625 16.461 16.461 0 01-5.9834-4.001 17.98877 17.98877 0 01-3.78516-6.19922 22.68537 22.68537 0 01-1.333-7.93066 21.74184 21.74184 0 011.36914-7.78516 18.02476 18.02476 0 019.91303-10.38084 19.28708 19.28708 0 017.749-1.51367 17.719 17.719 0 018.29 1.83789 16.55243 16.55243 0 015.80371 4.93848 20.317 20.317 0 013.28027 7.06445 26.36575 26.36575 0 01.7207 8.29h-26.88956q.21679 4.97464 2.52343 7.20902zm11.57031-19.6084q-1.83838-2.01709-5.58691-2.01855a8.91541 8.91541 0 00-4.07324.8291 7.77213 7.77213 0 00-2.59473 2.05469 7.51976 7.51976 0 00-1.37012 2.5957 11.70776 11.70776 0 00-.46875 2.45117h16.65332a11.84343 11.84343 0 00-2.55956-5.91211zm76.16214-22.92383v9.51563h-24.87112v11.89453h21.55469v8.79492h-21.55469v21.2666H503.6875v-51.47168zm6.84763 19.67969a12.26557 12.26557 0 014.03711-3.82031 17.59866 17.59866 0 015.51465-2.05469 31.4447 31.4447 0 016.16406-.6123 41.87545 41.87545 0 015.69434.39648 17.44707 17.44707 0 015.2627 1.5498 10.36658 10.36658 0 013.89258 3.208 8.96065 8.96065 0 011.51465 5.44238v19.39258a38.91648 38.91648 0 00.28809 4.83008 8.71526 8.71526 0 001.00879 3.46h-10.38087a14.46232 14.46232 0 01-.46777-1.7666 15.10543 15.10543 0 01-.25293-1.83789 13.32645 13.32645 0 01-5.7666 3.53223 23.15472 23.15472 0 01-6.77637 1.00977 18.29767 18.29767 0 01-4.97461-.64941 11.36751 11.36751 0 01-4.03711-2.01855 9.377 9.377 0 01-2.70312-3.46 11.69 11.69 0 01-.97363-4.97461 10.86718 10.86718 0 011.11719-5.22656 9.34766 9.34766 0 012.88379-3.2793 12.93309 12.93309 0 014.03711-1.83887 43.58035 43.58035 0 014.57813-.97266q2.30566-.36035 4.541-.57715a27.27689 27.27689 0 003.96484-.64844 6.92585 6.92585 0 002.74023-1.26172 2.77049 2.77049 0 00.93652-2.415 5.43027 5.43027 0 00-.54-2.63086 3.98244 3.98244 0 00-1.44238-1.51465 5.69693 5.69693 0 00-2.09082-.7207 17.24641 17.24641 0 00-2.55859-.17969 7.76811 7.76811 0 00-4.75781 1.29688 5.79213 5.79213 0 00-2.01855 4.32617H544.9209a11.89731 11.89731 0 011.80273-5.98441zm20.2207 14.4541a16.54171 16.54171 0 01-2.08984.541q-1.11914.2168-2.34375.36035-1.22607.145-2.4502.36035a18.556 18.556 0 00-2.27148.57715 6.75307 6.75307 0 00-1.94629.97266 4.63464 4.63464 0 00-1.334 1.5498 4.99853 4.99853 0 00-.50391 2.37891 4.81966 4.81966 0 00.50391 2.30762 3.85955 3.85955 0 001.37012 1.47754 5.78861 5.78861 0 002.01855.75684 12.84629 12.84629 0 002.37891.2168 9.038 9.038 0 004.68555-1.00977 6.74511 6.74511 0 002.45117-2.415 7.73983 7.73983 0 00.97363-2.84766 19.74772 19.74772 0 00.17969-2.30664v-3.82031a4.57491 4.57491 0 01-1.62205.90033zm30.0254-34.13379v18.74316h.14355a10.92978 10.92978 0 015.083-4.21777 17.20893 17.20893 0 016.668-1.333 14.21362 14.21362 0 0110.48926 4.68555 18.09872 18.09872 0 013.56836 6.0918 29.165 29.165 0 010 17.66211 18.08416 18.08416 0 01-3.56836 6.09082 14.20991 14.20991 0 01-10.48926 4.68652 19.664 19.664 0 01-7.35352-1.29785 9.33158 9.33158 0 01-4.90137-4.39746h-.14453v4.75781h-9.73242v-51.47169zm16.58007 28.33106a11.88771 11.88771 0 00-1.58594-3.82129 8.31062 8.31062 0 00-2.70312-2.63086 8.34032 8.34032 0 00-7.82129 0 8.18925 8.18925 0 00-2.74023 2.63086 11.866 11.866 0 00-1.58594 3.82129 19.89518 19.89518 0 00-.50391 4.541 19.56966 19.56966 0 00.50391 4.46973 11.85681 11.85681 0 001.58594 3.82129 8.17983 8.17983 0 002.74023 2.63086 8.34032 8.34032 0 007.82129 0 8.30081 8.30081 0 002.70313-2.63086 11.87854 11.87854 0 001.58593-3.82132 19.6246 19.6246 0 00.50488-4.46973 19.94966 19.94966 0 00-.50488-4.54097zm26.96094-14.12989v6.9209h.14453a12.524 12.524 0 011.94629-3.208 12.764 12.764 0 012.81152-2.52344 13.77694 13.77694 0 013.3877-1.62207 12.24444 12.24444 0 013.749-.57617 7.99 7.99 0 012.23438.36035v9.51563q-.7207-.14355-1.72949-.252a18.27792 18.27792 0 00-1.94727-.1084 10.91785 10.91785 0 00-4.75781.9375 8.24874 8.24874 0 00-3.13574 2.55859 10.24977 10.24977 0 00-1.69434 3.78516 20.62652 20.62652 0 00-.50391 4.68555v16.79687h-10.2373v-37.27047zm18.59961-5.7666v-8.43457h10.23633v8.43457zm10.23633 5.7666v37.27051h-10.23633v-37.27051zm25.87988 6.70411a7.18691 7.18691 0 00-4.10937 1.11816 8.86857 8.86857 0 00-2.70312 2.88281 12.48711 12.48711 0 00-1.47852 3.89355 21.13262 21.13262 0 00-.43164 4.2168 20.265 20.265 0 00.43164 4.10938 12.71544 12.71544 0 001.40625 3.78418 8.0647 8.0647 0 002.63086 2.77539 7.22582 7.22582 0 004.03711 1.082 7.50288 7.50288 0 005.65918-2.05469 9.72551 9.72551 0 002.4873-5.51465h9.876q-1.01074 7.42529-5.7666 11.31738-4.75781 3.89355-12.18359 3.89355a20.39133 20.39133 0 01-7.67773-1.40625 17.00318 17.00318 0 01-5.94727-3.92871 17.86357 17.86357 0 01-3.82031-6.01953 20.85017 20.85017 0 01-1.37012-7.67773 24.81557 24.81557 0 011.26172-8.03809 18.0642 18.0642 0 013.71289-6.416 16.97552 16.97552 0 015.9834-4.2168 20.31382 20.31382 0 018.07422-1.51367 23.36154 23.36154 0 016.37988.86523 17.03843 17.03843 0 015.47852 2.63086 13.60851 13.60851 0 015.65918 10.63281H702.7959q-1.01074-6.4145-7.56934-6.41598z"/><g id="mask"><g id="mask0"><path id="Union" fill="#fff" d="M450.60724 10a15.60051 15.60051 0 0115.6 15.6v15.6h15.6a15.6005 15.6005 0 0115.6 15.6v15.6h15.6a15.60043 15.60043 0 0115.6 15.6v280.79982a15.60043 15.60043 0 01-15.6 15.6H201.00733a15.60034 15.60034 0 01-15.6-15.6V88a15.60034 15.60034 0 0115.6-15.6h15.6V56.8a15.6004 15.6004 0 0115.6-15.6h15.6V25.6a15.60048 15.60048 0 0115.6-15.6z"/></g></g><path d="M159.06959 171.40147c2.30874-2.30874 1.66743-5.51532 2.30874-8.33711 9.61974-41.68554 55.40969-62.20765 92.73429-41.30074 1.4109.76958 2.69353 2.05221 4.61748 1.79569 11.15889 5.9001 17.57205 15.90464 23.3439 26.55049 8.59363 21.03516 7.43927 41.30074-4.36094 60.79676-7.311 12.05673-18.46989 20.00907-30.52664 26.67875-11.28716 3.33485-22.83085 4.74573-34.50279 3.20658-1.02611-.89784-1.79568-2.18047-3.4631-2.56526-28.34616-7.69579-44.76386-25.90916-49.25307-55.02492-.12826-.513-.76958-.89784-1.15437-1.4109.2565-3.59139.2565-7.05449.2565-10.38934z" class="cls-2"/><path d="M493.32345 297.09939c1.53917 3.97617 5.38707 5.90011 7.95233 8.97842 17.059 20.90688 20.39384 44.12253 8.72188 68.10776-10.90237 22.44606-29.6288 35.01584-55.0249 35.52892-27.19181.513-46.55952-12.56978-58.8728-36.555-.76959-1.53917-1.53917-2.95-2.30872-4.48921-5.77184-7.95233-5.64357-17.18726-5.2588-26.294.12827-2.56526.76959-5.00226 1.15436-7.56752 6.54143-26.807 22.83083-43.99428 49.5096-51.30528 7.311-1.92395 14.87854-.89784 22.18952-1.02611 12.05673 2.05225 23.21565 5.64363 31.93753 14.62202zm-28.85922-174.05314c2.437 1.28263 3.97617-.76958 5.64357-1.66743 37.70937-20.65037 85.55152 1.53915 92.47777 43.73776 6.15662 37.70937-17.18726 65.41423-47.97043 72.98175-1.4109.38479-2.82181.76959-4.23267 1.28263-6.15662 3.4631-12.698 1.79568-19.11121 1.4109a48.12547 48.12547 0 01-14.622-3.71962c-32.83538-15.26331-50.15092-50.27917-35.40065-86.70591 5.64359-10.90239 13.08284-20.26561 23.21562-27.32008z" class="cls-3"/><path d="M282.20225 408.5601c-22.83085 4.61748-42.4551-1.92395-57.975-18.8547-23.47217-25.52437-22.83085-60.2837.64132-86.32113 1.4109-1.53915 3.59137-2.56526 3.8479-5.00226 8.7219-9.49147 20.26559-13.33936 32.45059-15.77638 13.85243-1.02611 27.32006.12827 39.63332 7.05448 3.07831 1.79568 6.66968 3.20658 7.82406 7.05448-1.28263 12.31327-4.874 24.24174-7.56752 36.29847-5.13053 22.7026-10.13278 45.40516-15.51985 68.10776-.76956 2.69356-1.02607 5.3871-3.33482 7.43928z" class="cls-2"/><path d="M373.26913 7.35285c37.19633 6.79795 59.12934 42.83991 48.86828 80.421 1.4109 2.95006-.12827 5.38705-1.15436 7.82405-3.8479 8.97842-10.64583 15.90464-17.059 22.95911-14.75027 12.44153-31.93753 16.28942-50.79223 14.622-2.95006-.25652-6.02837-.51305-8.33711-2.69352-1.28263-2.56526-.25652-5.00227.25652-7.43927 7.69579-35.01585 15.90463-69.90344 23.72869-104.791.76957-3.84789.89782-8.08058 4.48921-10.90237z" class="cls-3"/><path d="M373.26913 7.35285c-6.9262 29.88532-13.72416 59.89891-20.65038 89.78423-2.56526 10.90237-5.00226 21.933-7.56752 32.83537-3.59137 1.92395-6.54143-.38479-9.61974-1.53915-5.90011-2.18047-10.51758-6.2849-15.51985-10.00453-7.18275-6.66968-13.59591-13.98069-17.31553-23.21564-1.02611-2.30874-2.30874-4.61747-1.28263-7.311-10.26106-37.32459 11.28716-66.95339 37.58112-77.59923a41.4715 41.4715 0 0113.5959-3.33483h18.34164c.89786.12826 1.66741.25652 2.43699.38478z" class="cls-2"/><path d="M282.20225 408.5601c4.36094-19.62425 8.59363-39.24854 12.95459-58.74453 3.71962-16.93076 7.56752-33.73322 11.54369-50.664a6.473 6.473 0 011.28263-2.18047c9.10669 1.92395 12.82632 9.748 17.31553 16.41769a59.728 59.728 0 018.59363 21.80474c2.30874 9.10669 1.66743 18.08512-.64132 27.06354-.64132 2.56526-1.4109 4.874-3.59137 6.54143-8.59363 19.75252-22.57433 33.4767-43.73774 39.24854a17.34493 17.34493 0 01-3.71964.51306z" class="cls-3"/><path d="M329.65963 368.79851c3.4631-11.28715 5.13053-22.83083 2.56526-34.63106 1.92395-2.05222 4.61748-2.05222 7.18275-2.05222q22.31781-.19241 44.63559 0c2.56526 0 5.13053-.12827 7.18275 2.05222-2.437 11.672-.76959 23.21565 2.56526 34.50279-21.41996.12827-42.71166.12827-64.13161.12827z" class="cls-4"/><path d="M260.52578 284.27307c-11.92848 1.92393-21.80478 8.08059-31.80928 14.23723-5.2588-19.23948-10.51758-38.479-15.90463-57.71844 1.02611-1.28263 2.56526-1.4109 4.10442-1.28263 9.36322.12827 18.59816.38479 27.57659-3.33485.76959-.25652 1.92395.513 2.95006.76959 2.18047 1.02611 2.69353 3.07831 3.33485 5.13053 3.4631 12.05673 6.66968 24.24174 10.26106 36.29849.38477 1.79567 1.02608 3.84788-.51307 5.90008z" class="cls-5"/><path d="M475.87969 235.40481a98.33047 98.33047 0 0034.50279 3.97617c-5.64357 19.23948-11.41542 38.479-17.059 57.84669-10.13278-5.77184-20.00907-11.92848-32.0658-13.08284-1.4109-2.30874-.513-4.61748.12827-6.798 3.33485-12.31327 7.311-24.49828 10.90237-36.81153.64129-2.18043 1.28261-4.23265 3.59137-5.13049zM403.924 117.40267c2.18049-5.77184 7.95233-8.46537 10.7741-13.72416 2.82181-5.13053 6.02839-10.13279 7.43925-15.90464 14.109 11.80021 28.2179 23.47216 42.32685 35.27238-1.4109 5.25879-6.9262 6.54142-9.87628 10.26106-3.97617 5.38705-7.95233 10.90237-11.92846 16.28942-1.66741.89784-2.82181-.25652-3.97617-1.15437-10.90237-8.85016-21.80474-17.82859-32.45057-27.06353-1.02606-1.02611-2.95001-1.79568-2.30872-3.97616z" class="cls-4"/><path d="M301.44173 87.90214c3.8479 11.41543 10.64585 20.9069 19.23948 29.244-2.69353 5.64358-8.33711 8.20885-12.5698 12.185-6.41316 5.9001-13.33936 11.15889-20.00907 16.80248-1.92395 1.66743-3.8479 4.23269-7.05448 3.59137a120.09274 120.09274 0 00-22.18954-26.16569c14.10898-11.92847 28.34621-23.72869 42.58341-35.65716z" class="cls-5"/></svg>