<svg viewBox="-30.68 440.32 2063.36 1130.36" xmlns="http://www.w3.org/2000/svg"><title>deep-framework.input.svg</title><path fill="#FEFEFE" d="M1002 2002c-330.4 0-660.8 0-991.2.2-7.3 0-9-1.6-9-9C2 1332.4 2 671.5 1.8 10.7c0-7.3 1.6-9 9-9 660.7.3 1321.6.3 1982.4.1 7.3 0 9 1.6 9 9-.2 660.8-.2 1321.6 0 1982.4 0 7.3-1.6 9-9 9-330.4-.3-660.8-.2-991.2-.2zm-406.3-964.7c-1.4 25.8 2.1 52.8 8 79.5 13.9 62.3 48.7 107 110.7 127.2 35.1 11.5 71.3 14.7 108.4 12.3 27.9-1.8 55.3-5.8 82.6-11.7 53.1-11.4 102.2-33.7 151.2-56.1 33.9-15.5 69-26.6 107.1-24.6 21.4 1.2 38.3 9.1 47.4 29.7 2 4.6 2.2 7.1-3.8 7.8-7.1.8-14 2.4-21.1 3.4-48 7.2-96 15.2-142.9 27.8-39.6 10.6-68.4 34.8-81.8 73.9-13.9 40.6-16.3 82.7-6.5 124.6 10.2 43.7 36.8 74.6 80.6 87.2 54.8 15.8 110.5 17.3 166.5 5.6 42.6-8.9 80.6-27.3 111.9-57.8 57.7-56.2 82.5-127.1 88.1-205.5 2.9-40.3-1.2-80.4-13.2-119.3-17.4-56.4-53.8-94-110.9-110.3-42.8-12.2-86.4-16.2-130.9-12-30.5 2.9-60.1 8.8-89.4 17.8-41 12.6-77.6 34.9-116.8 51.3-36.2 15.1-72.8 27.1-112.9 23.2-19.9-1.9-34.1-11.3-42.7-29.3-2.4-4.9-1.4-7.7 4.1-7.8 10.7-.2 21.2-2.6 31.8-3.9 42.1-5.1 84.1-11.6 125.2-22 45.6-11.5 76.9-39.6 91.4-84.7 11-34.3 11.9-69.6 7.2-105-6.7-50-33.7-85.1-82-100.4-50.2-15.9-102-16.8-153.8-8.5-82.4 13.2-141.8 58.3-178.6 132.6-23.9 48.3-36.8 99.3-34.9 155zm-54.7 70.6c-4.8 1-8.5 2-12.2 2.6-7.7 1.2-15.3 3.4-23.2 2-6.9-1.2-10.1-4.7-9.2-12.1 2.9-23.6 5.4-47.2 8.1-70.7L533 781.6c9.7-84.6 19.3-169.3 29.1-253.9.8-6.8.1-9.7-8.1-9.7-56 .4-112 .3-167.9.1-6.4 0-8.7 1.4-9.5 8.4-8.1 73.7-16.6 147.3-24.9 221-.6 5.1-1.4 6.5-7 5.2-23.5-5.3-47.3-8.5-71.5-9.2-69.6-2-129.9 19.4-178 71-23.3 24.9-41.7 53.3-55.7 84.3-40.4 89.3-38.1 180.1-5.9 270.7 14.7 41.4 45.4 68.2 87.7 81 34.7 10.5 69.8 10.7 105 2.3 38.8-9.2 70.8-30.4 99.7-56.9 5.6-5.2 8-4.7 11.8 2 15.7 27.6 38.9 46.2 70 53.5 32.8 7.7 66 4.8 99.1 2 9.3-.8 15.5-6.5 17.2-16.1 1.6-8.9 3.3-17.9 4.5-26.9 4.1-33.9 8.1-67.7 12.4-102.5zM1468.4 894c4.7-1.4 8.3-2.7 12.1-3.5 4.1-.8 8.4-1.6 12.5-1.5 13.4.6 17.8 6.1 16.4 19.3-2 18.4-3.8 36.9-5.9 55.3-10.1 88.8-20.2 177.7-30.6 266.5-9.2 78.5-18.7 156.9-28.4 235.3-.9 7.2.4 8.9 7.5 8.8 56.3-.2 112.6-.3 168.9 0 7 0 9.3-1.8 10.2-9 7.6-67.2 15.7-134.3 23.5-201.5.6-5.4 1.9-7.8 8.4-7.2 36.1 3.6 72.2 1.9 107.9-4.8 69-12.9 125.7-45.5 164.1-105.5 60.5-94.4 71.2-195.7 38.2-302-12.8-41.4-39.6-71.8-80.4-87.4-66.4-25.4-151.1-19.3-208.1 41.8-4.9 5.3-7.2 7.1-11.9-.9-21.7-37.3-54.3-55.4-97.8-54.1-25.2.7-49.7 5.9-74.3 10-10.1 1.7-15.6 6.9-16.9 17-2.9 22.6-6.1 45.1-8.9 67.7-2.3 18.3-4.3 36.7-6.5 55.7zm-372.7-334.9c0 6.5-.1 13 0 19.5.1 5.1-1.3 10.9 6.9 11.2 8.3.3 8.5-5.3 8.5-11.1.1-11.4-.2-22.8.2-34.2.4-9.3 6.5-14.9 15.7-15.3 9.8-.4 13.6 2.9 15.9 12.8 3 13.2 1 26.6 1.4 39.8.2 5.2 1.9 8 7.5 7.8 5.2-.2 6.5-3.2 6.5-7.7-.1-9.4.1-18.9-.1-28.3-.1-5 .9-9.7 2.7-14.3 3.2-8.1 11-11.9 20-10 8.2 1.7 10.7 7.5 10.7 15.2 0 10.1.5 20.2-.1 30.3-.7 12.7 4.4 17.4 20.1 15.2 2.8-.4 5.1-1.1 5.2-4.6.1-2.7.2-6-2.8-6.6-7.8-1.6-6.9-7.3-6.9-12.8 0-7.8.1-15.6-.1-23.4-.4-11.1-4-20.5-15.2-25-10.9-4.4-21.4-3.1-29.7 5.2-4.8 4.8-7.4 3.7-11.7-.4-9-8.3-19.6-10-29.5-3.6-7.2 4.7-12.5 6.7-18.5-1.3-2.5-3.3-7.2-2.5-11-1.4-2.6.8-4.3 2.9-4.8 5.7-.5 2.8-.1 5.9 2.8 6.5 7.3 1.5 6.6 6.8 6.6 12.1-.3 6.3-.3 12.5-.3 18.7zm408.1-18.8h2c4.1 13.5 8.1 27 12.2 40.4 1.4 4.5 2.3 9.4 9.2 9.3 6.4-.1 8.2-3.9 9.8-8.8 5.9-18.2 11.9-36.4 18-54.5 1.2-3.7 3.5-8.4-1.6-9.9-4.5-1.4-9.8 0-12.2 5.3-1.1 2.3-1.5 5-2.2 7.4-3.6 12.1-7.3 24.2-10.9 36.4-5.8-13.5-10-26.7-13.4-40.1-1.9-7.6-6.6-8.8-13-8-6.2.8-6 6.3-7.2 10.3-3.6 12.1-6.1 24.6-12.7 38.2-4.7-14.8-8.8-27.4-12.6-40.1-2.3-7.8-7.3-11-15.2-10.3-3.2.3-5.8 1.2-6.4 4.7-.5 3.3-.9 7.5 3 8.3 6.4 1.3 6.7 6.3 8.2 10.7 4.9 14.4 9.5 29 14.4 43.4 1.3 3.8 3.2 7.1 8.2 7 4.5 0 7.4-2.2 9-6.1 1.4-3.6 2.6-7.3 3.7-11 3.2-11 6.5-21.8 9.7-32.6zm441.5-14.8v-36.4c0-3.5-.4-6.6-4.9-6.7-3.9-.1-8.1-.8-9.2 4.7-.4 1.9-1.2 3.8-1.2 5.7-.1 29.9-.1 59.9-.1 89.8 0 4.1 1.3 6.9 5.9 7.3 4.5.4 7.7-1.5 9-5.7.7-2.4.2-5.2.6-7.7.5-3.5-2.1-8.6 3.5-9.8 5.4-1.1 11-1.4 14.3 4.9 2.2 4.3 4.9 8.4 7.7 12.4 4.1 6 10.6 7.2 17.1 7.2 3 0 5.3-2.5 5.9-5.7 1.4-8.1-6.2-6.9-10-9.5-8.5-5.7-8.8-12-.4-18.1 7-5.1 11.1-16.9 8.3-26.4-2.7-9.4-9.6-14.4-19.2-15.7-9.9-1.5-18.4 1.8-27.3 9.7zm-953 22.3c0-7.8.4-15.6-.2-23.4-.5-6.3-3.4-11.1-10.8-6.5-3 1.8-5.3 1.1-8.2.3-28.1-8.3-47.5 3.3-50.4 32.5-2.7 27.4 16.2 47.1 42.8 38.7 7.7-2.4 13.9-8.6 21.5 0 1.3 1.5 5.6.6 8.5.6 3 0 6.2 0 6.4-4.2.1-3.1 1-6.7-3.7-7.7-5.5-1.1-5.7-5.5-5.8-9.8-.2-6.8-.1-13.7-.1-20.5zm306.3 4.6c.2 15 2.8 27.4 15.8 34 15.1 7.7 30.7 6.9 45.9-.2 4.1-1.9 5.1-5.2 3.1-9.7-2.2-4.8-5-3.5-8.7-2-3.5 1.5-7.3 3-11.1 3.3-8.7.8-17.7 2.2-24.5-5.6-1.8-2-3.3-4.2-2.5-7 1-3.4 4.1-2.7 6.6-2.6 8.5.2 16.7-2 24.8-4 10.4-2.6 15.8-9.5 16.4-20.1.5-8.7-5.6-17.4-15-20.5-28.2-9.8-53 9.1-50.8 34.4zm412.4 1c0-23.1-14.4-37.8-37.2-37.8-22.3 0-37.2 14.9-36.9 37.3.4 27 15.7 38 37 38.3 21.5.4 36.9-11.8 37.1-37.8zM684.9 494.3c2.7.4 7 3.4 8.3-3.1 1.1-5.7-1.7-8-6.9-9.6-18.2-5.4-31.4 4.3-31.9 24.1-.2 5.9 1 12.5-8.3 11.9-3.6-.2-5.4 1.4-5.4 5.2.1 3.8 1.5 6.6 5.6 6.4 7.6-.3 8.1 4.4 8.1 10.2-.2 13.7 0 27.3-.1 41 0 4.9.1 9.3 6.8 9.4 6.5.1 7.2-3.9 7.2-9-.1-9.8-.2-19.5 0-29.3.1-6.1-1.7-12.6 1.1-18.3 3.7-7.5 11.1-2.7 16.7-3.8 4-.8 5.4-3 5.4-6.7 0-3.8-2.1-5.1-5.6-5.1-2.6 0-5.2-.2-7.8.1-8.1.9-10.3-3.7-10-10.6.4-9 6.2-13.7 16.8-12.8zm1123.6 65.4c0 7.2.1 14.3 0 21.5-.1 4.7.8 8.4 6.7 8.6 6.4.1 7.3-3.8 7.3-9-.1-11.7-.8-23.4 1.8-34.9 1.7-7.5 4.8-13.7 13.4-14.5 4.8-.4 8.2-1.5 8.3-7.1.1-2.8 2.4-6-1.4-7.7-4.1-1.8-8.8-1.8-12.1 1.1-6.3 5.5-11.7 9.4-18.1.2-1.5-2.2-5.2-2.4-8.2-2.1-3.6.4-6.1 2.4-6.9 5.9-.8 3.5.1 6.6 4.1 7.5 5.3 1.1 5.1 5.1 5.1 9.1v21.4zm-1013.7-.4c0 7.5.1 14.9 0 22.4-.1 5 1.5 8.1 7.1 8.1 5.8 0 6.9-3.5 6.8-8.3-.1-7.5-.3-14.9 0-22.4.7-19.6 2.4-22 19.1-28.2 6.1-2.3 4.5-7.4 4-11.5-.6-5.3-6.3-4.8-8.4-3.3-9.3 6.9-17.9 9.3-27-.1-.7-.7-2.5-.3-3.8-.2-3.7.2-6.1 2.3-7.1 5.7-.8 3-.4 6.5 3 7.3 6.8 1.5 6.3 6.3 6.3 11.2 0 6.4.1 12.8 0 19.3z"/><path fill="#CBCBCB" d="M595.7 1037.3c-1.9-55.7 11-106.8 34.8-154.8 36.8-74.3 96.2-119.4 178.6-132.6 51.8-8.3 103.7-7.3 153.8 8.5 48.2 15.2 75.3 50.4 82 100.4 4.7 35.3 3.8 70.7-7.2 105-14.5 45.2-45.8 73.2-91.4 84.7-41.2 10.4-83.1 16.9-125.2 22-10.6 1.3-21 3.7-31.8 3.9-5.5.1-6.5 2.9-4.1 7.8 8.7 18 22.8 27.4 42.7 29.3 40.1 3.9 76.7-8.1 112.9-23.2 39.3-16.4 75.9-38.7 116.8-51.3 29.2-9 58.8-15 89.4-17.8 44.5-4.2 88.1-.2 130.9 12 57 16.3 93.5 53.9 110.9 110.3 12 38.9 16 79.1 13.2 119.3-5.6 78.4-30.4 149.3-88.1 205.5-31.3 30.5-69.3 48.9-111.9 57.8-55.9 11.7-111.7 10.2-166.5-5.6-43.8-12.6-70.4-43.4-80.6-87.2-9.8-41.9-7.4-84 6.5-124.6 13.4-39.1 42.2-63.4 81.8-73.9 47-12.5 94.9-20.6 142.9-27.8 7-1.1 14-2.6 21.1-3.4 6-.7 5.8-3.3 3.8-7.8-9.1-20.7-26-28.6-47.4-29.7-38.1-2.1-73.2 9-107.1 24.6-49.1 22.4-98.1 44.8-151.2 56.1-27.3 5.8-54.7 9.8-82.6 11.7-37.1 2.4-73.3-.9-108.4-12.3-62-20.2-96.8-65-110.7-127.2-5.9-26.8-9.4-53.8-7.9-79.7zm555.9 363.3c18.1.7 27.7-10.3 35-24 11.6-21.8 19.2-45.3 28.4-68.1 2.3-5.7-.5-5.9-4.7-5.9-19 0-37.4 3.4-54.6 11.5-18.3 8.6-32.3 21.3-36 42.7-3.8 21.4 13.5 47.1 31.9 43.8zM877.1 911.4v-1.6c-.3-15.4-10.6-29.9-24.3-34.1-11.6-3.6-26.3 2.4-35.5 14.6-13.8 18.5-20.3 40.4-28.5 61.5-2.7 6.8-9.8 15.1-6.2 20.5 4.6 6.8 14.4.4 21.8 0 17.4-1 33.7-6.7 48.3-16.2 15.1-9.8 25.3-23.1 24.4-44.7z"/><path fill="#FE4E37" d="M541 1107.9c-4.2 34.8-8.3 68.6-12.5 102.4-1.1 9-2.8 18-4.5 26.9-1.7 9.5-7.9 15.3-17.2 16.1-33.1 2.8-66.3 5.7-99.1-2-31.1-7.3-54.3-25.9-70-53.5-3.8-6.7-6.1-7.2-11.8-2-28.9 26.5-60.9 47.7-99.7 56.9-35.2 8.4-70.3 8.2-105-2.3-42.3-12.8-73-39.6-87.7-81-32.2-90.7-34.4-181.4 6-270.7 14-31 32.5-59.3 55.7-84.3 48.1-51.6 108.4-73 178-71 24.1.7 48 3.9 71.5 9.2 5.5 1.2 6.4-.2 7-5.2 8.2-73.7 16.8-147.3 24.9-221 .8-6.9 3.1-8.4 9.5-8.4 56 .2 112 .3 167.9-.1 8.1-.1 8.9 2.9 8.1 9.7-9.8 84.6-19.4 169.3-29.1 253.9l-28.5 248.1c-2.7 23.6-5.2 47.2-8.1 70.7-.9 7.5 2.3 10.9 9.2 12.1 7.9 1.4 15.5-.8 23.2-2 3.6-.5 7.3-1.5 12.2-2.5zm-349.5-73.6c-.8 13.9 1.7 27.3 5.9 40.4 9 28.3 37 40.7 64 28.3 13.4-6.1 24.2-15.6 32.3-27.6 31.4-46.6 43.2-98.6 37.8-153.9-3.2-32.5-29.1-47.1-60.4-37.1-10.1 3.2-19 8.4-27.1 15.1-13.2 10.9-23.4 24.4-31.1 39.7-15.1 29.8-20.2 62-21.4 95.1zM1468.4 894c2.2-19 4.2-37.4 6.5-55.7 2.8-22.6 6-45.1 8.9-67.7 1.3-10.2 6.8-15.3 16.9-17 24.7-4.1 49.2-9.2 74.3-10 43.4-1.2 76.1 16.9 97.8 54.1 4.6 8 6.9 6.2 11.9.9 57-61.2 141.7-67.2 208.1-41.8 40.9 15.6 67.6 46 80.4 87.4 32.9 106.3 22.3 207.6-38.2 302-38.5 60-95.2 92.6-164.1 105.5-35.7 6.7-71.7 8.4-107.9 4.8-6.5-.6-7.8 1.8-8.4 7.2-7.8 67.2-15.9 134.3-23.5 201.5-.8 7.2-3.2 9.1-10.2 9-56.3-.3-112.6-.3-168.9 0-7.1 0-8.4-1.7-7.5-8.8 9.8-78.4 19.3-156.8 28.4-235.3 10.4-88.8 20.4-177.7 30.6-266.5 2.1-18.4 4-36.9 5.9-55.3 1.4-13.3-3-18.8-16.4-19.3-4.2-.2-8.4.6-12.5 1.5-3.8.7-7.4 2.1-12.1 3.5zm331 79.5c.3-18-1.4-35.8-9.1-52.3-11.5-24.8-34-32.4-58.1-19.7-20.4 10.8-34 27.5-38.3 50.1-9.3 48.1-14.4 96.9-21.5 145.4-.5 3.1-.6 5.7 3.7 6.4 39.1 6.9 79.6 2.2 103.7-43.4 14.1-27.1 19.3-56.3 19.6-86.5z"/><path fill="#CBCBCB" d="M1095.7 559.1v-18.5c0-5.2.7-10.5-6.6-12.1-2.9-.6-3.2-3.8-2.8-6.5.5-2.8 2.2-4.9 4.8-5.7 3.8-1.1 8.5-1.9 11 1.4 6 8 11.3 6 18.5 1.3 9.8-6.4 20.5-4.7 29.5 3.6 4.4 4.1 6.9 5.2 11.7.4 8.4-8.4 18.8-9.7 29.7-5.2 11.2 4.5 14.9 13.9 15.2 25 .2 7.8.1 15.6.1 23.4 0 5.5-.9 11.2 6.9 12.8 3 .6 2.8 3.9 2.8 6.6-.1 3.4-2.4 4.2-5.2 4.6-15.7 2.2-20.8-2.5-20.1-15.2.6-10.1 0-20.2.1-30.3 0-7.6-2.5-13.4-10.7-15.2-9-1.9-16.7 1.9-20 10-1.8 4.5-2.8 9.2-2.7 14.3.2 9.4 0 18.9.1 28.3 0 4.5-1.3 7.5-6.5 7.7-5.5.2-7.3-2.6-7.5-7.8-.5-13.3 1.6-26.6-1.4-39.8-2.2-9.9-6.1-13.3-15.9-12.8-9.2.4-15.3 6-15.7 15.3-.4 11.4-.1 22.8-.2 34.2 0 5.8-.2 11.4-8.5 11.1-8.2-.3-6.9-6.1-6.9-11.2.2-6.7.3-13.2.3-19.7zm408.1-18.8c-3.3 10.8-6.5 21.6-9.8 32.3-1.1 3.7-2.3 7.4-3.7 11-1.6 4-4.5 6.1-9 6.1-4.9 0-6.9-3.2-8.2-7-4.8-14.5-9.5-29-14.4-43.4-1.5-4.4-1.8-9.5-8.2-10.7-3.9-.8-3.5-5-3-8.3.6-3.5 3.2-4.4 6.4-4.7 8-.7 12.9 2.5 15.2 10.3 3.8 12.7 7.9 25.2 12.6 40.1 6.6-13.6 9.1-26.1 12.7-38.2 1.2-4 1-9.5 7.2-10.3 6.5-.8 11.2.3 13 8 3.3 13.4 7.5 26.6 13.4 40.1 3.6-12.1 7.3-24.2 10.9-36.4.7-2.5 1.2-5.1 2.2-7.4 2.4-5.3 7.7-6.7 12.2-5.3 5.1 1.5 2.8 6.2 1.6 9.9-6 18.2-12 36.3-18 54.5-1.6 4.9-3.4 8.7-9.8 8.8-6.9.1-7.8-4.7-9.2-9.3-4.2-13.4-8.2-26.9-12.2-40.4-.6.3-1.2.3-1.9.3zm441.5-14.8c8.9-7.9 17.5-11.2 27.3-9.8 9.5 1.3 16.4 6.3 19.2 15.7 2.7 9.5-1.3 21.3-8.3 26.4-8.3 6-8.1 12.4.4 18.1 3.8 2.6 11.4 1.4 10 9.5-.6 3.2-2.9 5.7-5.9 5.7-6.6 0-13-1.2-17.1-7.2-2.8-4-5.4-8.1-7.7-12.4-3.3-6.4-8.9-6-14.3-4.9-5.6 1.1-3 6.3-3.5 9.8-.4 2.6.1 5.3-.6 7.7-1.3 4.2-4.5 6.1-9 5.7-4.6-.4-5.9-3.2-5.9-7.3 0-29.9 0-59.9.1-89.8 0-1.9.9-3.8 1.2-5.7 1.1-5.5 5.3-4.7 9.2-4.7 4.6.1 5 3.2 4.9 6.7v36.5zm5.2 29.6c6.3-1.4 12.7-2.4 18.8-4.3 6.2-1.9 10-6.5 8.3-13.2-1.7-6.7-6.8-10.3-13.8-9.9-10.1.5-19 11.3-18.5 21.5.2 3.5 1.2 5.6 5.2 5.9zm-958.2-7.3c0 6.8-.1 13.7 0 20.5.1 4.3.3 8.7 5.8 9.8 4.7.9 3.9 4.5 3.7 7.7-.2 4.2-3.4 4.2-6.4 4.2-2.9 0-7.2.9-8.5-.6-7.6-8.6-13.8-2.4-21.5 0-26.5 8.3-45.5-11.4-42.8-38.7 2.9-29.2 22.3-40.8 50.4-32.5 2.9.9 5.2 1.6 8.2-.3 7.4-4.5 10.3.2 10.8 6.5.7 7.8.3 15.6.3 23.4zm-13.9 1.7c0-15.4-5.3-22-17.6-21.9-13 .1-23.3 11.8-23.2 26.3.1 15.6 7.8 24.4 21.5 24.3 13.8-.2 19.3-8.3 19.3-28.7zm320.2 2.9c-2.3-25.3 22.6-44.1 50.8-34.6 9.4 3.2 15.5 11.8 15 20.5-.6 10.7-5.9 17.5-16.4 20.1-8.1 2-16.3 4.2-24.8 4-2.4-.1-5.6-.8-6.6 2.6-.8 2.8.7 5 2.5 7 6.8 7.8 15.8 6.4 24.5 5.6 3.8-.3 7.6-1.8 11.1-3.3 3.6-1.5 6.5-2.8 8.7 2 2 4.5 1 7.8-3.1 9.7-15.2 7.1-30.8 7.9-45.9.2-13-6.4-15.6-18.8-15.8-33.8zm26.2-1.7c7.2.7 12.8-.4 18.3-2.6 4-1.6 6.4-4.6 6.3-8.9-.1-4.4-1.9-7.9-6.4-9.9-8.6-3.8-18.2-1.5-24.2 6.4-2.8 3.7-5.3 8.2-3.9 12.5 1.9 5.3 7.4 1.7 9.9 2.5zm386.2 2.7c-.1 26-15.6 38.2-37.2 37.8-21.3-.3-36.6-11.3-37-38.3-.3-22.4 14.7-37.3 36.9-37.3 22.8 0 37.3 14.7 37.3 37.8zm-15.6-.2c0-16.7-6.9-24.2-22.1-24.1-14.2.1-20.9 7.9-21 24.3 0 15.3 7.9 24.6 21.2 24.7 14 .2 21.9-8.9 21.9-24.9zM684.9 494.3c-10.6-.9-16.4 3.7-16.9 12.6-.3 7 1.9 11.5 10 10.6 2.6-.3 5.2 0 7.8-.1 3.5 0 5.6 1.3 5.6 5.1s-1.4 5.9-5.4 6.7c-5.6 1.1-13-3.6-16.7 3.8-2.8 5.7-.9 12.2-1.1 18.3-.2 9.8-.1 19.5 0 29.3.1 5.1-.6 9.1-7.2 9-6.7-.1-6.8-4.5-6.8-9.4.1-13.7-.1-27.3.1-41 .1-5.8-.5-10.5-8.1-10.2-4.1.1-5.5-2.7-5.6-6.4-.1-3.8 1.8-5.4 5.4-5.2 9.3.6 8.1-6 8.3-11.9.6-19.7 13.7-29.4 31.9-24.1 5.2 1.5 8 3.9 6.9 9.6-1.2 6.7-5.5 3.7-8.2 3.3zm1123.6 65.4v-21.5c0-4 .2-8-5.1-9.1-4.1-.9-4.9-4-4.1-7.5.8-3.5 3.3-5.5 6.9-5.9 3-.4 6.7-.1 8.2 2.1 6.4 9.2 11.8 5.4 18.1-.2 3.3-2.9 8-2.9 12.1-1.1 3.8 1.7 1.5 5 1.4 7.7-.1 5.7-3.5 6.7-8.3 7.1-8.6.8-11.7 7-13.4 14.5-2.6 11.6-1.9 23.3-1.8 34.9 0 5.2-.9 9.1-7.3 9-5.9-.1-6.7-3.8-6.7-8.6.1-7.1 0-14.2 0-21.4zm-1013.7-.4v-19.4c0-4.9.5-9.7-6.3-11.2-3.4-.7-3.8-4.3-3-7.3.9-3.4 3.4-5.4 7.1-5.7 1.3-.1 3.1-.4 3.8.2 9.1 9.4 17.7 6.9 27 .1 2-1.5 7.8-2 8.4 3.3.5 4.1 2.1 9.3-4 11.5-16.7 6.1-18.5 8.6-19.1 28.2-.3 7.4-.1 14.9 0 22.4.1 4.8-1.1 8.3-6.8 8.3-5.6 0-7.2-3.1-7.1-8.1.1-7.4 0-14.8 0-22.3z"/><path fill="#FEFEFE" d="M1151.6 1400.6c-18.4 3.3-35.7-22.4-31.9-43.9 3.7-21.4 17.7-34.1 36-42.7 17.2-8.1 35.6-11.5 54.6-11.5 4.2 0 7 .2 4.7 5.9-9.2 22.8-16.8 46.3-28.4 68.1-7.3 13.8-17 24.8-35 24.1zM877.1 911.4c.9 21.7-9.2 34.9-24.4 44.8-14.6 9.5-30.9 15.2-48.3 16.2-7.4.4-17.2 6.9-21.8 0-3.6-5.4 3.5-13.7 6.2-20.5 8.2-21.1 14.6-43 28.5-61.5 9.1-12.2 23.8-18.2 35.5-14.6 13.7 4.2 24.1 18.7 24.3 34.1v1.5zm-685.6 122.9c1.2-33.1 6.4-65.3 21.4-95.2 7.7-15.3 17.8-28.7 31.1-39.7 8.1-6.7 17-11.9 27.1-15.1 31.3-9.9 57.2 4.6 60.4 37.1 5.4 55.3-6.4 107.3-37.8 153.9-8.1 12-18.9 21.5-32.3 27.6-27 12.4-55.1 0-64-28.3-4.2-13-6.7-26.4-5.9-40.3zm1607.9-60.8c-.3 30.3-5.4 59.5-19.7 86.5-24.1 45.7-64.6 50.3-103.7 43.4-4.2-.7-4.1-3.3-3.7-6.4 7.1-48.5 12.2-97.3 21.5-145.4 4.4-22.6 17.9-39.3 38.3-50.1 24.1-12.7 46.7-5.2 58.1 19.7 7.7 16.5 9.5 34.2 9.2 52.3zm151.1-418.4c-4-.3-5-2.5-5.2-5.9-.6-10.2 8.3-20.9 18.5-21.5 6.9-.4 12.1 3.2 13.8 9.9 1.8 6.7-2 11.3-8.3 13.2-6.2 1.9-12.5 2.9-18.8 4.3zm-972.1-5.6c0 20.5-5.5 28.6-19.3 28.7-13.6.1-21.4-8.6-21.5-24.3-.1-14.6 10.2-26.2 23.2-26.3 12.3-.2 17.6 6.5 17.6 21.9zm346.4 1.2c-2.5-.8-8.1 2.8-9.9-2.5-1.5-4.3 1.1-8.8 3.9-12.5 6-7.8 15.6-10.2 24.2-6.4 4.5 2 6.3 5.5 6.4 9.9.1 4.3-2.3 7.3-6.3 8.9-5.4 2.2-11.1 3.3-18.3 2.6zm370.6 2.5c0 16-8 25-21.9 24.9-13.3-.1-21.2-9.4-21.2-24.7 0-16.4 6.8-24.2 21-24.3 15.2-.1 22.1 7.5 22.1 24.1z"/></svg>