<?xml version="1.0" encoding="UTF-8" standalone="no"?>
<svg
   xmlns:dc="http://purl.org/dc/elements/1.1/"
   xmlns:cc="http://creativecommons.org/ns#"
   xmlns:rdf="http://www.w3.org/1999/02/22-rdf-syntax-ns#"
   xmlns:svg="http://www.w3.org/2000/svg"
   xmlns="http://www.w3.org/2000/svg"
   xmlns:xlink="http://www.w3.org/1999/xlink"
   xmlns:sodipodi="http://sodipodi.sourceforge.net/DTD/sodipodi-0.dtd"
   xmlns:inkscape="http://www.inkscape.org/namespaces/inkscape"
   width="112.42653"
   height="66.946045"
   viewBox="0 0 198.98125 71.865565"
   version="1.1"
   id="svg58"
   sodipodi:docname="timebase-logo-upright.svg"
   inkscape:version="1.0.1 (3bc2e813f5, 2020-09-07)">
  <metadata
     id="metadata62">
    <rdf:RDF>
      <cc:Work
         rdf:about="">
        <dc:format>image/svg+xml</dc:format>
        <dc:type
           rdf:resource="http://purl.org/dc/dcmitype/StillImage" />
        <dc:title></dc:title>
      </cc:Work>
    </rdf:RDF>
  </metadata>
  <sodipodi:namedview
     pagecolor="#ffffff"
     bordercolor="#666666"
     borderopacity="1"
     objecttolerance="10"
     gridtolerance="10"
     guidetolerance="10"
     inkscape:pageopacity="0"
     inkscape:pageshadow="2"
     inkscape:window-width="1920"
     inkscape:window-height="1001"
     id="namedview60"
     showgrid="true"
     inkscape:zoom="2.4695122"
     inkscape:cx="-49.432712"
     inkscape:cy="23.920488"
     inkscape:window-x="-9"
     inkscape:window-y="-9"
     inkscape:window-maximized="1"
     inkscape:current-layer="Слой_1" />
  <defs
     id="defs40">
    <linearGradient
       id="Безымянный_градиент_4"
       x1="544.94"
       y1="-1348.25"
       x2="561.96997"
       y2="-1344.17"
       gradientTransform="rotate(31.52,-2156.571,-1572.208)"
       gradientUnits="userSpaceOnUse">
      <stop
         offset="0"
         stop-color="#00bcef"
         id="stop2" />
      <stop
         offset=".29"
         stop-color="#1997e3"
         id="stop4" />
      <stop
         offset=".57"
         stop-color="#2b7cd9"
         id="stop6" />
      <stop
         offset=".81"
         stop-color="#366cd4"
         id="stop8" />
      <stop
         offset="1"
         stop-color="#3a66d2"
         id="stop10" />
    </linearGradient>
    <linearGradient
       id="Безымянный_градиент_7"
       x1="7.7800002"
       y1="14.87"
       x2="56.889999"
       y2="63.990002"
       gradientUnits="userSpaceOnUse">
      <stop
         offset="0"
         stop-color="#00bcef"
         id="stop13" />
      <stop
         offset=".13"
         stop-color="#0ea7e8"
         id="stop15" />
      <stop
         offset=".35"
         stop-color="#218bde"
         id="stop17" />
      <stop
         offset=".57"
         stop-color="#2f76d8"
         id="stop19" />
      <stop
         offset=".79"
         stop-color="#376ad3"
         id="stop21" />
      <stop
         offset="1"
         stop-color="#3a66d2"
         id="stop23" />
    </linearGradient>
    <linearGradient
       id="Безымянный_градиент_2"
       x1="855.22998"
       y1="-1346.58"
       x2="921.19"
       y2="-1324.33"
       gradientTransform="rotate(161.36,465.02843,-731.00884)"
       gradientUnits="userSpaceOnUse">
      <stop
         offset="0"
         stop-color="#00bcef"
         id="stop26" />
      <stop
         offset=".04"
         stop-color="#03b7ed"
         id="stop28" />
      <stop
         offset=".47"
         stop-color="#218bdf"
         id="stop30" />
      <stop
         offset=".8"
         stop-color="#3370d5"
         id="stop32" />
      <stop
         offset="1"
         stop-color="#3a66d2"
         id="stop34" />
    </linearGradient>
    <linearGradient
       id="Безымянный_градиент_7-2"
       x1="972.65002"
       y1="-482.14999"
       x2="1001.92"
       y2="-452.88"
       gradientTransform="rotate(82,365.734,-666.66484)"
       xlink:href="#%D0%91%D0%B5%D0%B7%D1%8B%D0%BC%D1%8F%D0%BD%D0%BD%D1%8B%D0%B9_%D0%B3%D1%80%D0%B0%D0%B4%D0%B8%D0%B5%D0%BD%D1%82_7" />
    <linearGradient
       id="Безымянный_градиент_7-3"
       x1="349.17999"
       y1="-67.690002"
       x2="361.94"
       y2="-54.93"
       gradientTransform="rotate(-129.8,316.67274,-18.10889)"
       xlink:href="#%D0%91%D0%B5%D0%B7%D1%8B%D0%BC%D1%8F%D0%BD%D0%BD%D1%8B%D0%B9_%D0%B3%D1%80%D0%B0%D0%B4%D0%B8%D0%B5%D0%BD%D1%82_7" />
    <linearGradient
       id="Безымянный_градиент_4-2"
       x1="-196.14"
       y1="-1168.01"
       x2="-156.78999"
       y2="-1156.26"
       gradientTransform="rotate(-116.63,392.98251,-725.42453)"
       xlink:href="#%D0%91%D0%B5%D0%B7%D1%8B%D0%BC%D1%8F%D0%BD%D0%BD%D1%8B%D0%B9_%D0%B3%D1%80%D0%B0%D0%B4%D0%B8%D0%B5%D0%BD%D1%82_4" />
    <linearGradient
       inkscape:collect="always"
       xlink:href="#%D0%91%D0%B5%D0%B7%D1%8B%D0%BC%D1%8F%D0%BD%D0%BD%D1%8B%D0%B9_%D0%B3%D1%80%D0%B0%D0%B4%D0%B8%D0%B5%D0%BD%D1%82_4"
       id="linearGradient887"
       gradientUnits="userSpaceOnUse"
       gradientTransform="rotate(31.52,-1944.4413,-1209.1579)"
       x1="544.94"
       y1="-1348.25"
       x2="561.96997"
       y2="-1344.17" />
    <linearGradient
       inkscape:collect="always"
       xlink:href="#%D0%91%D0%B5%D0%B7%D1%8B%D0%BC%D1%8F%D0%BD%D0%BD%D1%8B%D0%B9_%D0%B3%D1%80%D0%B0%D0%B4%D0%B8%D0%B5%D0%BD%D1%82_7"
       id="linearGradient889"
       gradientUnits="userSpaceOnUse"
       x1="7.7800002"
       y1="14.87"
       x2="56.889999"
       y2="63.990002"
       gradientTransform="translate(221.09929,-57.335308)" />
  </defs>
  <g
     id="Layer_2"
     data-name="Layer 2"
     transform="translate(-158.23121,41.891506)">
    <g
       id="Слой_1"
       data-name="Слой 1">
      <path
         d="m 254.51929,-12.805308 a 8.29,8.29 0 0 1 6.95,-14.93 9,9 0 1 0 -0.76,15.94 8.27,8.27 0 0 1 -6.19,-1.01 z"
         fill="url(#Безымянный_градиент_4)"
         id="path42"
         style="fill:url(#linearGradient887)" />
      <path
         d="m 263.26929,6.8946919 a 32.49,32.49 0 0 1 -32.49,-32.4799999 c 0,-15.4 13.31,-27 27.69,-30.33 -19.27,0.32 -37.37,14.72 -37.37,34.05 a 35.38,35.38 0 0 0 64.93,19.4500001 32.35,32.35 0 0 1 -22.76,9.3099998 z"
         fill="url(#Безымянный_градиент_7)"
         id="path44"
         style="fill:url(#linearGradient889)" />
      <path
         d="m 241.09929,-47.025308 a 32.49,32.49 0 0 1 27.5,58.4 35.37,35.37 0 1 0 -46.07,-42.3 32.35,32.35 0 0 1 18.57,-16.1 z"
         fill="url(#Безымянный_градиент_2)"
         id="path46"
         style="fill:url(#%D0%91%D0%B5%D0%B7%D1%8B%D0%BC%D1%8F%D0%BD%D0%BD%D1%8B%D0%B9_%D0%B3%D1%80%D0%B0%D0%B4%D0%B8%D0%B5%D0%BD%D1%82_2)" />
      <path
         d="m 240.86929,-14.815308 a 19.26,19.26 0 0 1 16.4,-21.75 c 9,-1.27 17.5,5.42 20.65,13.59 -1.82,-11.29 -12.28,-20.56 -23.64,-18.97 a 21,21 0 0 0 -6.07,39.7300001 19.21,19.21 0 0 1 -7.34,-12.6000001 z"
         fill="url(#Безымянный_градиент_7-2)"
         id="path48"
         style="fill:url(#%D0%91%D0%B5%D0%B7%D1%8B%D0%BC%D1%8F%D0%BD%D0%BD%D1%8B%D0%B9_%D0%B3%D1%80%D0%B0%D0%B4%D0%B8%D0%B5%D0%BD%D1%82_7-2)" />
      <path
         d="m 261.46929,-25.955308 a 8.29,8.29 0 0 1 -11.37,11.93 9,9 0 1 0 5.81,-14.86 8.3,8.3 0 0 1 5.56,2.93 z"
         fill="url(#Безымянный_градиент_7-3)"
         id="path50"
         style="fill:url(#%D0%91%D0%B5%D0%B7%D1%8B%D0%BC%D1%8F%D0%BD%D0%BD%D1%8B%D0%B9_%D0%B3%D1%80%D0%B0%D0%B4%D0%B8%D0%B5%D0%BD%D1%82_7-3)" />
      <path
         d="m 270.70929,-32.255308 a 19.27,19.27 0 0 1 -32,21 21,21 0 1 0 21.02,-30.59 19.21,19.21 0 0 1 10.98,9.59 z"
         fill="url(#Безымянный_градиент_4-2)"
         id="path52"
         style="fill:url(#%D0%91%D0%B5%D0%B7%D1%8B%D0%BC%D1%8F%D0%BD%D0%BD%D1%8B%D0%B9_%D0%B3%D1%80%D0%B0%D0%B4%D0%B8%D0%B5%D0%BD%D1%82_4-2)" />
      <path
         fill="#ffffff"
         d="m 167.60001,29.176412 h -9.3688 v -4.4408 h 23.9848 v 4.4408 h -9.3688 v 23.828 h -5.2472 z m 17.9592,0.5712 a 2.5256,2.5256 0 0 1 -0.8288,-1.9432 2.5424,2.5424 0 0 1 0.8288,-1.932 2.8952,2.8952 0 0 1 2.0608,-0.7784 2.968,2.968 0 0 1 2.0608,0.7448 2.38,2.38 0 0 1 0.8288,1.8592 2.7216,2.7216 0 0 1 -0.812,2.0048 2.8,2.8 0 0 1 -2.0776,0.812 2.8952,2.8952 0 0 1 -2.0608,-0.7672 z m -0.2184,3.9592 h 4.5192 v 19.2976 h -4.5192 z m 44.4696,-0.1456 q 2.3856,2.3632 2.3856,7.084 v 12.3592 h -5.04 v -11.7096 c 0,-1.8872 -0.4144,-3.304 -1.2488,-4.2616 a 4.508,4.508 0 0 0 -3.5952,-1.4336 5.264,5.264 0 0 0 -4.0768,1.68 q -1.5344,1.68 -1.5344,4.788 v 10.9368 h -5.04 v -11.7096 c 0,-1.8872 -0.4144,-3.304 -1.2488,-4.2616 a 4.508,4.508 0 0 0 -3.5952,-1.4336 5.2584,5.2584 0 0 0 -4.0992,1.68 q -1.512,1.68 -1.512,4.8048 v 10.92 h -5.04 v -21.5656 h 4.8048 v 2.744 a 7.8736,7.8736 0 0 1 3.0296,-2.24 10.3376,10.3376 0 0 1 4.0376,-0.7672 9.7496,9.7496 0 0 1 4.3008,0.9072 6.9552,6.9552 0 0 1 2.968,2.688 9.0048,9.0048 0 0 1 3.4328,-2.6488 11.1552,11.1552 0 0 1 4.6424,-0.9464 q 4.0488,0.0224 6.4288,2.3856 z m 29.2376,10.276 h -16.9232 a 5.8744,5.8744 0 0 0 2.3128,3.7744 7.6104,7.6104 0 0 0 4.6648,1.3944 7.84,7.84 0 0 0 5.8576,-2.3408 l 2.7048,3.108 a 9.1056,9.1056 0 0 1 -3.6792,2.6264 14.56,14.56 0 0 1 -11.228,-0.5152 10.2144,10.2144 0 0 1 -4.1832,-3.92 11.1552,11.1552 0 0 1 -1.4728,-5.712 11.2896,11.2896 0 0 1 1.4336,-5.6784 10.2144,10.2144 0 0 1 3.976,-3.92 11.6368,11.6368 0 0 1 5.7344,-1.4112 11.2952,11.2952 0 0 1 5.6336,1.3944 9.8336,9.8336 0 0 1 3.8752,3.92 11.8832,11.8832 0 0 1 1.372,5.8072 c 0,0.3304 -0.028,0.8288 -0.0784,1.4728 z m -14.924,-7.168 a 6.0704,6.0704 0 0 0 -2.0384,3.8136 h 12.236 a 5.936,5.936 0 0 0 -1.9768,-3.7912 6.0312,6.0312 0 0 0 -4.1216,-1.456 6.0928,6.0928 0 0 0 -4.0992,1.4336 z m 43.2488,4.1608 a 6.9048,6.9048 0 0 1 1.5176,4.62 6.5016,6.5016 0 0 1 -2.688,5.6 q -2.688,1.9544 -7.9352,1.9544 h -13.0032 v -28.2688 h 12.2136 q 4.7208,0 7.3304,1.8984 a 6.2552,6.2552 0 0 1 2.604,5.3704 6.72,6.72 0 0 1 -1.1536,3.976 6.8712,6.8712 0 0 1 -3.1808,2.464 7.4816,7.4816 0 0 1 4.2952,2.3856 z m -19.1184,-13.6304 v 10.2592 h 9.0048 q 3.4272,0 5.292,-1.316 a 4.3736,4.3736 0 0 0 1.8536,-3.8136 4.3904,4.3904 0 0 0 -1.8536,-3.8192 q -1.8648,-1.3104 -5.292,-1.3104 z m 15.708,22.0472 q 1.9152,-1.2824 1.9152,-4.0376 0,-5.292 -7.672,-5.2864 h -9.9512 v 10.64 h 9.9736 q 3.7968,-0.0224 5.7344,-1.316 z m 24.9536,-15.568 q 2.24,2.0832 2.24,6.16 v 13.1656 h -2.744 v -3.3096 a 6.5688,6.5688 0 0 1 -2.8504,2.5816 9.9232,9.9232 0 0 1 -4.48,0.9296 q -3.5504,0 -5.6504,-1.68 a 5.4768,5.4768 0 0 1 -2.1,-4.48 5.4208,5.4208 0 0 1 1.96,-4.3624 q 1.9544,-1.68 6.2384,-1.68 h 6.72 v -1.288 q 0,-2.7384 -1.5344,-4.1776 -1.5344,-1.4392 -4.48,-1.4336 a 11.4464,11.4464 0 0 0 -3.8808,0.6664 9.7272,9.7272 0 0 0 -3.1864,1.8368 l -1.2936,-2.1392 a 11.5024,11.5024 0 0 1 3.8752,-2.1224 15.0808,15.0808 0 0 1 4.7656,-0.7448 q 4.1776,0 6.4008,2.0776 z m -3.2312,16.156 a 6.636,6.636 0 0 0 2.5928,-3.2144 v -3.472 h -6.664 q -5.4488,0 -5.4488,3.7968 a 3.4776,3.4776 0 0 0 1.4112,2.9288 6.4512,6.4512 0 0 0 3.9816,1.0696 7.5488,7.5488 0 0 0 4.1272,-1.1088 z m 13.9944,2.6096 a 10.5504,10.5504 0 0 1 -3.696,-1.876 l 1.2936,-2.24 a 10.9928,10.9928 0 0 0 3.36,1.7192 13.4008,13.4008 0 0 0 4.2,0.6664 c 1.9376,0 3.36,-0.3024 4.3008,-0.9072 a 2.8952,2.8952 0 0 0 1.3944,-2.5648 2.3016,2.3016 0 0 0 -0.7672,-1.8368 5.04,5.04 0 0 0 -1.9376,-1.0136 27.9384,27.9384 0 0 0 -3.108,-0.6664 35.1624,35.1624 0 0 1 -4.1608,-0.9856 6.1208,6.1208 0 0 1 -2.6824,-1.7192 4.7544,4.7544 0 0 1 -1.12,-3.36 5.2416,5.2416 0 0 1 2.24,-4.3624 q 2.24,-1.68 6.16,-1.68 a 16.0608,16.0608 0 0 1 4.1216,0.56 11.4016,11.4016 0 0 1 3.388,1.4336 l -1.2488,2.3016 a 10.7408,10.7408 0 0 0 -6.2608,-1.8144 q -2.744,0 -4.1384,0.9688 a 2.968,2.968 0 0 0 -1.3944,2.5424 2.5032,2.5032 0 0 0 0.7896,1.9376 4.7152,4.7152 0 0 0 1.96,1.0696 32.0936,32.0936 0 0 0 3.2256,0.7112 36.0696,36.0696 0 0 1 4.0824,0.9688 5.9528,5.9528 0 0 1 2.6208,1.68 4.5584,4.5584 0 0 1 1.092,3.2312 5.1352,5.1352 0 0 1 -2.324,4.424 q -2.3184,1.6408 -6.44,1.6352 a 16.128,16.128 0 0 1 -4.9504,-0.8232 z m 37.492,-9.1728 h -17.7632 a 7.56,7.56 0 0 0 2.5424,5.348 8.4392,8.4392 0 0 0 5.8128,2.044 9.072,9.072 0 0 0 3.6344,-0.7112 7.952,7.952 0 0 0 2.8672,-2.0776 l 1.6128,1.8592 a 9.0888,9.0888 0 0 1 -3.5336,2.5816 11.9392,11.9392 0 0 1 -4.6648,0.8904 11.76,11.76 0 0 1 -5.8016,-1.3944 9.996,9.996 0 0 1 -3.92,-3.8472 10.9872,10.9872 0 0 1 -1.4168,-5.6 11.396,11.396 0 0 1 1.3496,-5.6 9.8,9.8 0 0 1 3.7184,-3.836 10.388,10.388 0 0 1 5.3088,-1.3272 10.2592,10.2592 0 0 1 5.2864,1.372 9.772,9.772 0 0 1 3.6736,3.8192 11.5192,11.5192 0 0 1 1.3328,5.6 z m -15.4056,-7.2464 a 7.6832,7.6832 0 0 0 -2.3576,5.1072 h 15.0584 a 7.6608,7.6608 0 0 0 -2.3632,-5.1072 7.7952,7.7952 0 0 0 -10.3376,0 z"
         id="path54"
         style="fill:#000000;fill-opacity:1;stroke-width:0.56" />
    </g>
  </g>
</svg>

