<svg xmlns="http://www.w3.org/2000/svg" role="img" viewBox="0.34 -3.66 450.32 273.32"><title>google-container-registry.input.svg logo</title><defs><style>.cls-1{fill:#fff}.cls-2{fill:#4285f4}.cls-3{opacity:.07;isolation:isolate}</style></defs><path d="M189.488 152.026l9.348-9.347-13.905-14.021V85.192l13.905-14.021-9.348-9.347-18.578 18.695v52.812l18.578 18.695z" class="cls-1"/><circle cx="203.977" cy="106.925" r="6.66" class="cls-1"/><circle cx="223.723" cy="106.925" r="6.66" class="cls-1"/><circle cx="243.586" cy="106.925" r="6.66" class="cls-1"/><path d="M257.841 61.824l-9.23 9.347 13.903 14.021v43.466l-13.903 14.021 9.23 9.347 18.695-18.695V80.519l-18.695-18.695z" class="cls-1"/><path d="M333.69326 97.12788L287.22552 16.402a20.76033 20.76033 0 00-17.4254-10.4315h-92.817a20.25523 20.25523 0 00-17.42535 10.4315L113.09 96.8908a20.36586 20.36586 0 000 20.15183l46.46775 81.2a20.95478 20.95478 0 0017.4254 10.78716h92.93549a20.73743 20.73743 0 0017.4254-10.66861l46.46774-80.72585a20.45133 20.45133 0 00-.11852-20.50745zm-46.46774 101.11476a20.73745 20.73745 0 01-17.4254 10.66861h-24.30074L194.52711 157.939l11.49839-6.63826-21.45576-21.33724.11854-.11854v-11.73548h6.28263l-5.927-5.927v-.11853a6.61715 6.61715 0 01-1.7781-4.386 6.48346 6.48346 0 015.57138-6.28263l-4.26744-4.26744.11854-.11854V85.3924l24.06366-13.75066-14.22484-14.22481 9.36467-5.45285h.23708l19.2035 11.14278 19.2035-11.14278h.23708l9.36467 5.45285 73.61339 73.61344z" class="cls-2"/><path d="M232.93412 68.67824l29.27942 16.71416v11.854h-10.07592v-6.28261L228.19251 76.976v10.313h-9.60176V76.976l-23.94511 13.98779v6.28263h-9.95738v-.11854l-.11854.11854 4.26744 4.26744c.23708 0 .47416-.11854.71124-.11854a6.28263 6.28263 0 110 12.56526 6.47712 6.47712 0 01-4.50453-1.89664v.11854l5.927 5.927h3.67474v6.28263l23.94512 13.98774v-10.19443h9.60176v10.19445l23.94511-13.98774v-6.28263h10.07591v11.854l-29.27942 16.8327 19.44058 11.26132-9.36467 5.45286h-.237l-19.2035-11.14277-19.2035 11.14277h-.23708l-9.36467-5.45285 50.97226 50.97227h24.30069a20.73743 20.73743 0 0017.4254-10.66861l38.64408-67.21227-73.61343-73.61345zm-9.48321 54.88409a6.28263 6.28263 0 116.28263-6.28263 6.32425 6.32425 0 01-6.28263 6.28263zm0-18.96643a6.28263 6.28263 0 116.28263-6.28263 6.32425 6.32425 0 01-6.28263 6.28264zm33.78395 9.48321a6.28263 6.28263 0 116.28263-6.28263 6.32425 6.32425 0 01-6.28264 6.28264z" class="cls-2"/><g class="cls-3"><path d="M232.93412 68.67824l29.27942 16.71416v11.854h-10.07592v-6.28261L228.19251 76.976v10.313h-9.60176V76.976l-23.94511 13.98779v6.28263h-9.95738v-.11854l-.11854.11854 4.26744 4.26744c.23708 0 .47416-.11854.71124-.11854a6.28263 6.28263 0 110 12.56526 6.47712 6.47712 0 01-4.50453-1.89664v.11854l5.927 5.927h3.67474v6.28263l23.94512 13.98774v-10.19443h9.60176v10.19445l23.94511-13.98774v-6.28263h10.07591v11.854l-29.27942 16.8327 19.44058 11.26132-9.36467 5.45286h-.237l-19.2035-11.14277-19.2035 11.14277h-.23708l-9.36467-5.45285 50.97226 50.97227h24.30069a20.73743 20.73743 0 0017.4254-10.66861l38.64408-67.21227-73.61343-73.61345zm-9.48321 54.88409a6.28263 6.28263 0 116.28263-6.28263 6.32425 6.32425 0 01-6.28263 6.28263zm0-18.96643a6.28263 6.28263 0 116.28263-6.28263 6.32425 6.32425 0 01-6.28263 6.28264zm33.78395 9.48321a6.28263 6.28263 0 116.28263-6.28263 6.32425 6.32425 0 01-6.28264 6.28264z"/></g><path d="M184.688 129.964v-.119l-.118.119 21.456 21.337 7.942-4.505-29.28-16.832z" class="cls-2"/><g class="cls-3"><path d="M184.688 129.964v-.119l-.118.119 21.456 21.337 7.942-4.505-29.28-16.832z"/></g><path d="M194.527 57.417l14.225 14.225 5.097-2.964-19.322-11.261z" class="cls-2"/><path d="M194.527 57.417l14.225 14.225 5.097-2.964-19.322-11.261z" class="cls-3"/><circle cx="257.235" cy="107.796" r="6.283" class="cls-1"/><path d="M189.54841 114.07912a6.28263 6.28263 0 100-12.56526 1.50351 1.50351 0 00-.71124.11854 6.29163 6.29163 0 00-5.57138 6.28263 6.08738 6.08738 0 001.7781 4.386 7.90949 7.90949 0 004.50452 1.77809z" class="cls-1"/><circle cx="223.451" cy="98.313" r="6.283" class="cls-1"/><circle cx="223.451" cy="117.161" r="6.283" class="cls-1"/><path d="M194.646 97.246v-6.401l23.945-13.987v10.313h9.602V76.858l23.945 13.987v6.401h10.076V85.392l-29.28-16.714 19.441-11.261-9.484-5.453h-.237l-19.203 11.143-19.322-11.143h-.237l-9.365 5.453 19.322 11.261-5.097 2.964-24.064 13.75v11.854h9.958zm9.483 66.146l19.322-11.143 19.203 11.143h.237l9.484-5.453-19.441-11.143 29.28-16.832v-11.855h-10.076v6.402l-23.945 13.987v-10.194h-9.602v10.194l-23.945-13.987v-6.402h-9.958v11.855l29.28 16.832-7.942 4.505-11.499 6.638 9.365 5.453h.237z" class="cls-1"/><path d="M333.81179 96.2981L287.344 15.45371a20.504 20.504 0 00-17.4254-10.43153h-92.93544a20.504 20.504 0 00-17.4254 10.43153L112.97147 96.061a20.59042 20.59042 0 000 20.27037l46.46775 81.31855a20.95478 20.95478 0 0017.4254 10.78716h93.054a20.73743 20.73743 0 0017.4254-10.66861l46.46774-80.84439a20.673 20.673 0 00.00003-20.62598z" class="cls-2"/><g class="cls-3"><path d="M279.99456 74.01255l-21.69285-5.33431-3.31913 3.43767 16.71417 16.71416.11855 22.99679-34.37665-34.49518h-28.094l-17.6625-17.66249L173.07134 75.435l-6.40117 64.01169 68.99038 68.99038h34.2581a20.73743 20.73743 0 0017.4254-10.66861l42.43738-73.85046z"/></g><g id="art"><path d="M209.226 93.69l14.225 8.179 14.106-8.179V77.332l-14.106-8.18-14.225 8.18V93.69zM228.667 127l14.224 8.179L256.998 127v-16.359l-14.107-8.06-14.224 8.06V127zm-38.882.474l14.225 8.179 14.107-8.179v-16.358l-14.107-8.18-14.225 8.18v16.358z" class="cls-1"/><path d="M191.564 72.116l-14.107 8.179v52.869l14.107 8.179v12.447l-24.657-14.225V73.894l24.657-14.225v12.447zm63.656 0l14.106 8.179v52.869l-14.106 8.179v12.447l24.775-14.225V73.894L255.22 59.669v12.447z" class="cls-1"/></g><g style="isolation:isolate"><path d="M26.70869 236.93757a4.91069 4.91069 0 00-2.92152-3.53658 8.97952 8.97952 0 00-2.76776-.615 6.04975 6.04975 0 00-4.92045 2.30646c-1.23011 1.53764-1.84517 3.69033-1.84517 6.76562s.76882 5.228 2.1527 6.45809a6.87543 6.87543 0 004.76669 1.84517 6.09164 6.09164 0 006.30433-5.38175h-5.68928v-4.15168h10.3022v13.22373h-3.38281l-.46129-3.07528a9.371 9.371 0 01-2.614 2.46024 10.31816 10.31816 0 01-5.07422 1.23012 10.13516 10.13516 0 01-7.99574-3.38281c-2.1527-2.30646-3.229-5.38175-3.229-9.37963a14.178 14.178 0 013.229-9.68715 11.04951 11.04951 0 018.76456-3.69033 10.861 10.861 0 017.53445 2.46024 8.38706 8.38706 0 013.229 5.99679h-5.38169zm24.9098 14.76137c-1.53764 1.84517-3.8441 2.92151-7.07315 2.92151-3.07528 0-5.53551-.92259-7.07315-2.92151a10.73247 10.73247 0 01-2.30646-6.91939 11.035 11.035 0 012.30646-6.91939c1.53764-1.99894 3.8441-2.92151 7.07315-2.92151 3.07528 0 5.53551.92259 7.07315 2.92151a10.73247 10.73247 0 012.30646 6.91939 10.44311 10.44311 0 01-2.30646 6.91939zm-3.69034-2.614a6.86055 6.86055 0 001.07635-4.3054 7.15644 7.15644 0 00-1.07635-4.3054 4.08714 4.08714 0 00-3.229-1.53764 3.67963 3.67963 0 00-3.229 1.53764 9.149 9.149 0 000 8.6108 3.67963 3.67963 0 003.229 1.53764 4.08721 4.08721 0 003.229-1.53758zm24.75604 2.614c-1.53764 1.84517-3.8441 2.92151-7.07315 2.92151-3.07528 0-5.53551-.92259-7.07315-2.92151a10.73247 10.73247 0 01-2.30646-6.91939 11.035 11.035 0 012.30646-6.91939c1.53764-1.99894 3.8441-2.92151 7.07315-2.92151 3.07528 0 5.53551.92259 7.07315 2.92151a10.73247 10.73247 0 012.30646 6.91939 10.44311 10.44311 0 01-2.30646 6.91939zm-3.8441-2.614a6.86055 6.86055 0 001.07635-4.3054 7.15644 7.15644 0 00-1.07635-4.3054 4.15932 4.15932 0 00-6.45809 0 6.86055 6.86055 0 00-1.07635 4.3054A7.15644 7.15644 0 0062.382 249.085a4.08714 4.08714 0 003.229 1.53764 4.61868 4.61868 0 003.22908-1.53764zm18.60546-13.53124a5.10624 5.10624 0 012.76775 2.614v-2.614h4.61293v17.37536a10.313 10.313 0 01-1.23011 5.38175c-1.38388 1.99894-3.99787 3.07528-7.842 3.07528a10.3884 10.3884 0 01-5.68928-1.38387 5.362 5.362 0 01-2.46022-4.15163h5.38174a2.316 2.316 0 00.61506 1.23012 3.8461 3.8461 0 002.614.615c1.6914 0 2.92152-.615 3.38281-1.69142a10.03984 10.03984 0 00.61506-3.69033v-1.23006a4.16271 4.16271 0 01-1.53764 1.69142 5.55465 5.55465 0 01-3.69034 1.07634 7.2424 7.2424 0 01-5.68928-2.46024 10.19065 10.19065 0 01-2.1527-6.76562 11.17446 11.17446 0 011.99893-6.91939 6.66131 6.66131 0 015.68928-2.76776c1.07637.30753 1.99895.46128 2.61401.61505zm1.6914 13.22371a5.6374 5.6374 0 001.23011-3.99788 6.18545 6.18545 0 00-1.07635-3.99788 3.57116 3.57116 0 00-2.92152-1.38387 3.32914 3.32914 0 00-3.38281 2.30646 8.63847 8.63847 0 00-.46129 3.07528 7.44881 7.44881 0 00.46129 2.76776 3.51915 3.51915 0 003.53658 2.30646 3.08492 3.08492 0 002.61404-1.07633zm15.22266 5.228h-4.76668v-24.756h4.76669zm16.45277-17.99041a9.15471 9.15471 0 013.229 2.76776 7.696 7.696 0 011.38388 3.8441 22.90047 22.90047 0 01.15376 3.69033h-13.37743a4.46017 4.46017 0 001.84517 3.8441 4.71171 4.71171 0 002.614.615 4.39794 4.39794 0 002.614-.76882 3.70056 3.70056 0 00.92258-1.23012h4.92045a5.85945 5.85945 0 01-1.84517 3.22906c-1.6914 1.84517-3.99787 2.614-6.91939 2.614a9.78194 9.78194 0 01-6.45809-2.30646q-2.76775-2.30646-2.76776-7.38069c0-3.22906.76882-5.53552 2.46022-7.22691a8.81387 8.81387 0 016.61187-2.46024 8.32426 8.32426 0 014.61291.76889zm-7.07315 4.15163a5.69573 5.69573 0 00-1.23012 2.76776h8.30327a3.68948 3.68948 0 00-3.99788-3.8441c-1.53763-.00001-2.46021.30752-3.07527 1.07634zm26.60121-8.45703a10.19757 10.19757 0 017.53445-3.07528c4.15163 0 7.07315 1.38387 9.07209 4.15163a8.12779 8.12779 0 011.6914 4.61293h-5.228a5.89623 5.89623 0 00-1.23012-2.614 5.13183 5.13183 0 00-4.15163-1.53764 4.94947 4.94947 0 00-4.3054 2.30646c-1.07634 1.53764-1.53764 3.69033-1.53764 6.45809a10.27719 10.27719 0 001.6914 6.30434 5.24407 5.24407 0 004.3054 1.99894 4.56885 4.56885 0 003.99787-1.84517 7.51843 7.51843 0 001.23012-2.92151h5.07422a10.988 10.988 0 01-3.38281 6.61187 9.928 9.928 0 01-7.07315 2.46024c-3.53658 0-6.30433-1.07634-8.30327-3.38281s-3.07528-5.38175-3.07528-9.37963c.30753-4.45919 1.38391-7.68825 3.69035-10.14846zm37.36469 19.98934c-1.53764 1.84517-3.8441 2.92151-7.07315 2.92151-3.07528 0-5.53551-.92259-7.07315-2.92151a10.73247 10.73247 0 01-2.30646-6.91939 11.035 11.035 0 012.30646-6.91939c1.53764-1.99894 3.8441-2.92151 7.07315-2.92151 3.07528 0 5.53551.92259 7.07315 2.92151a10.73247 10.73247 0 012.30646 6.91939 10.44311 10.44311 0 01-2.30646 6.91939zm-3.8441-2.614a6.86055 6.86055 0 001.07634-4.3054 7.15644 7.15644 0 00-1.07634-4.3054 4.15932 4.15932 0 00-6.45809 0 6.86055 6.86055 0 00-1.07634 4.3054 7.15644 7.15644 0 001.07634 4.3054 4.08713 4.08713 0 003.229 1.53764 4.61867 4.61867 0 003.22906-1.53758zM198.15576 236.63c1.23012.92259 1.84517 2.614 1.84517 4.92045v12.30114h-4.92045v-11.071a7.12794 7.12794 0 00-.30752-2.15269 2.69364 2.69364 0 00-2.614-1.38387 3.40942 3.40942 0 00-3.38281 1.99894 7.44892 7.44892 0 00-.4613 2.76776v9.8409h-4.76669v-18.2979h4.61293v2.614a8.00379 8.00379 0 011.6914-1.99894 5.55465 5.55465 0 013.69034-1.07634 8.681 8.681 0 014.61293 1.53755zm4.3054 2.614v-3.38281h2.614V230.787h4.7667v5.07422h2.92151v3.38278h-2.92151v9.68715a2.21352 2.21352 0 00.30752 1.38387 3.13212 3.13212 0 001.69142.30752h.92259v3.53658l-2.30646.15377c-2.30646.15377-3.8441-.30752-4.61293-1.23012a3.91245 3.91245 0 01-.76882-2.46024v-11.22475h-2.614zm20.60442 3.53662a7.66673 7.66673 0 001.84517-.4613 1.64158 1.64158 0 001.07634-1.38387 1.69669 1.69669 0 00-.76882-1.53764 4.32142 4.32142 0 00-2.30646-.4613 3.61064 3.61064 0 00-2.46024.76882 2.79836 2.79836 0 00-.615 1.69142h-4.61297a8.27286 8.27286 0 011.38387-3.99788c1.23012-1.53764 3.38281-2.46024 6.61187-2.46024a12.06275 12.06275 0 015.38175 1.23012c1.53764.76882 2.30646 2.30646 2.30646 4.45915v10.60972a1.98711 1.98711 0 00.30752 1.23012 3.3538 3.3538 0 00.76882.615v.76882h-5.228a2.8505 2.8505 0 01-.30752-1.07634c0-.30752-.15377-.76882-.15377-1.07634a6.80784 6.80784 0 01-2.30646 1.84517 6.73948 6.73948 0 01-3.53658.92259 6.15421 6.15421 0 01-4.15163-1.38387 5.09713 5.09713 0 01-1.69142-3.99788 5.37867 5.37867 0 012.614-4.92045 11.11594 11.11594 0 014.15163-1.23012zm2.92151 2.30646l-.92259.4613c-.30752.15377-.76882.15377-1.23012.30752l-1.07634.15377a9.53539 9.53539 0 00-2.15269.615 2.08594 2.08594 0 00-1.07634 1.99894 2.45106 2.45106 0 00.615 1.84517 3.22438 3.22438 0 001.69142.615 5.0624 5.0624 0 002.92151-.92259c.92259-.615 1.38387-1.69142 1.38387-3.38281v-1.69139zm13.83878-11.68608h-4.92045v-4.45915h4.92045zm-4.7667 2.30646h4.92045v18.29793h-4.92045zm24.141.92254c1.23012.92259 1.84517 2.614 1.84517 4.92045v12.30114h-4.92045v-11.071a7.12832 7.12832 0 00-.30752-2.15269 2.69363 2.69363 0 00-2.614-1.38387 3.40942 3.40942 0 00-3.38281 1.99894 7.44892 7.44892 0 00-.4613 2.76776v9.8409h-4.7667v-18.2979h4.61293v2.614a8.00329 8.00329 0 011.69142-1.99894 5.55464 5.55464 0 013.69033-1.07634 7.83978 7.83978 0 014.61293 1.53755zm18.14415-.615a9.15485 9.15485 0 013.22906 2.76776 7.69584 7.69584 0 011.38387 3.8441 22.89875 22.89875 0 01.15377 3.69033h-13.37748a4.46017 4.46017 0 001.84517 3.8441 4.71171 4.71171 0 002.614.615 4.39794 4.39794 0 002.614-.76882 3.70075 3.70075 0 00.92259-1.23012h4.92045a5.85953 5.85953 0 01-1.84517 3.22906c-1.69142 1.84517-3.99788 2.614-6.91939 2.614a9.78192 9.78192 0 01-6.45809-2.30646q-2.76775-2.30646-2.76776-7.38069c0-3.22906.76882-5.53552 2.46024-7.22691a8.81389 8.81389 0 016.61187-2.46024 8.32417 8.32417 0 014.61287.76889zm-7.07314 4.15163a5.69584 5.69584 0 00-1.23012 2.76776h8.30326a3.68948 3.68948 0 00-3.99788-3.8441c-1.53761-.00001-2.46021.30752-3.07526 1.07634zm24.4485-4.92045h.4613v4.92045h-1.38387c-1.99894 0-3.22906.615-3.84411 1.84517a8.57984 8.57984 0 00-.615 3.22906v8.76455h-4.7667v-18.29793h4.61293v3.22906a8.99 8.99 0 011.99894-2.46024 5.12678 5.12678 0 013.53653-1.0763c-.15377-.15382-.00002-.15382-.00002-.15382zm29.06145-5.38175a6.42238 6.42238 0 012.30646 1.69142 9.803 9.803 0 011.23012 2.15269 7.18273 7.18273 0 01.4613 2.614 7.5861 7.5861 0 01-.92259 3.53658 5.20988 5.20988 0 01-2.92151 2.46024 4.62242 4.62242 0 012.46024 1.99894 8.01756 8.01756 0 01.76882 3.8441v1.69142a8.85271 8.85271 0 00.15377 2.30646 2.23919 2.23919 0 00.92259 1.38387v.615h-5.68927a5.70585 5.70585 0 01-.30752-1.38387 10.15082 10.15082 0 01-.15377-2.15269v-2.30646a5.49938 5.49938 0 00-.76882-3.22906 4.43966 4.43966 0 00-2.92151-.76882h-5.07422v9.68715H308.251v-24.756h11.83984a8.83837 8.83837 0 013.69029.61503zm-10.76349 3.69033v6.61187h5.53552a4.972 4.972 0 002.46024-.4613 2.88277 2.88277 0 001.53764-2.76776 3.30783 3.30783 0 00-1.38387-3.07528 4.972 4.972 0 00-2.46024-.4613h-5.68929zm31.21411 2.46024a9.15485 9.15485 0 013.22906 2.76776 7.69584 7.69584 0 011.38387 3.8441 22.89875 22.89875 0 01.15377 3.69033H335.621a4.46017 4.46017 0 001.84517 3.8441 4.71171 4.71171 0 002.614.615 4.39794 4.39794 0 002.614-.76882 3.70075 3.70075 0 00.92259-1.23012h4.92045a5.85953 5.85953 0 01-1.84517 3.22906c-1.69142 1.84517-3.99788 2.614-6.91939 2.614a9.78192 9.78192 0 01-6.45809-2.30646q-2.76775-2.30646-2.76776-7.38069c0-3.22906.76882-5.53552 2.46024-7.22691a8.81389 8.81389 0 016.61187-2.46024 8.32417 8.32417 0 014.61284.76889zm-7.07314 4.15163a5.69584 5.69584 0 00-1.23012 2.76776h8.30326a3.68948 3.68948 0 00-3.99788-3.8441c-1.53762-.00001-2.46021.30752-3.07526 1.07634zm23.37215-4.61293a5.10629 5.10629 0 012.76776 2.614v-2.614h4.61293v17.37536a10.313 10.313 0 01-1.23012 5.38175c-1.38387 1.99894-3.99788 3.07528-7.842 3.07528a10.38836 10.38836 0 01-5.68927-1.38387 4.98469 4.98469 0 01-2.46024-4.15163h5.228a2.31617 2.31617 0 00.615 1.23012 3.84609 3.84609 0 002.614.615c1.69142 0 2.92151-.615 3.38281-1.69142a10.04 10.04 0 00.615-3.69033v-1.23006a4.16283 4.16283 0 01-1.53764 1.69142 5.55464 5.55464 0 01-3.69033 1.07634 7.24238 7.24238 0 01-5.68927-2.46024c-1.53764-1.69142-2.15269-3.8441-2.15269-6.76562a11.17435 11.17435 0 011.99894-6.91939 6.6613 6.6613 0 015.68927-2.76776c1.23021.30753 1.99903.46128 2.76785.61505zm1.53764 13.22371a5.6374 5.6374 0 001.23012-3.99788 6.18545 6.18545 0 00-1.07634-3.99788 3.57117 3.57117 0 00-2.92151-1.38387 3.32912 3.32912 0 00-3.38281 2.30646 8.63859 8.63859 0 00-.4613 3.07528 7.44892 7.44892 0 00.4613 2.76776 3.51914 3.51914 0 003.53658 2.30646 3.08491 3.08491 0 002.61396-1.07633zm15.22265-15.37641h-4.92045v-4.45915h4.92045zm-4.76668 2.30646h4.92045v18.29793h-4.92045zm13.22371 12.4549a4.28227 4.28227 0 00.615 1.84517 4.50177 4.50177 0 003.22906.92259 5.1348 5.1348 0 002.30646-.4613 1.26642 1.26642 0 00.76882-1.23012 1.3985 1.3985 0 00-.615-1.23012 23.16015 23.16015 0 00-5.07422-1.38387 10.07173 10.07173 0 01-4.45915-1.99894 3.87467 3.87467 0 01-1.23012-3.22906 5.45038 5.45038 0 011.99894-4.3054 8.0251 8.0251 0 015.53552-1.84517 9.83751 9.83751 0 015.5355 1.38387 5.83245 5.83245 0 012.46024 4.7667h-4.7667a2.91877 2.91877 0 00-.4613-1.38387 3.31633 3.31633 0 00-2.76776-.92259 3.40316 3.40316 0 00-2.15269.4613 1.33235 1.33235 0 00-.615 1.07634 1.36956 1.36956 0 00.76882 1.23012 23.56442 23.56442 0 004.92045 1.38387 9.36655 9.36655 0 014.3054 1.99894 4.521 4.521 0 011.38387 3.38281 5.54012 5.54012 0 01-1.99892 4.45915c-1.38387 1.07634-3.38281 1.69142-6.30434 1.69142s-5.07422-.615-6.30434-1.84517a5.84742 5.84742 0 01-1.99894-4.61293h4.92045zm13.53128-8.91836v-3.38281h2.614V230.787h4.7667v5.07422h2.92151v3.38278h-2.92151v9.68715a2.21331 2.21331 0 00.30755 1.38387 3.13212 3.13212 0 001.69142.30752h.92255v3.53658l-2.30646.15377c-2.30646.15377-3.84411-.30752-4.61293-1.23012a3.9126 3.9126 0 01-.76882-2.46024v-11.22475h-2.614zm23.37213-3.99782h.46127v4.92045h-1.38387c-1.99892 0-3.22906.615-3.8441 1.84517a8.57938 8.57938 0 00-.615 3.22906v8.76455H412.503v-18.29793h4.613v3.22906a8.99046 8.99046 0 011.99892-2.46024 5.12672 5.12672 0 013.53652-1.0763c-.15373-.15382.00005-.15382.00005-.15382zm3.99788 22.14203h1.99892a1.396 1.396 0 001.07637-.4613 1.89692 1.89692 0 00.76882-1.23012c.15377-.61507.30755-.92259.30755-1.07634l-6.76563-19.06675h5.38175l3.99785 13.5313 3.8441-13.53125h5.0742l-6.3043 17.99036c-1.23009 3.53658-2.15269 5.68927-2.92151 6.45809s-2.15269 1.23012-4.30538 1.23012h-2.30646v-3.8441z"/></g></svg>