<svg xmlns="http://www.w3.org/2000/svg" role="img" viewBox="-4.88 -4.63 241.02 59.27"><title>hazelcast-jet.input.svg logo</title><path fill="#0B2A35" d="M161.787 38.153h-2.086l-.934-1.517c-1.616 1.008-3.39 1.517-5.274 1.517-4.097 0-6.175-1.771-6.175-5.265 0-3.555 2.346-5.358 6.975-5.358 1.328 0 2.674.091 4.008.27v-1.218c0-1.716-1.357-2.549-4.149-2.549-1.656 0-3.381.26-5.126.773l-.373.109v-2.961l.21-.062c1.798-.528 3.578-.796 5.29-.796 5.066 0 7.635 1.819 7.635 5.407l-.001 11.65zm-7.494-7.688c-2.347 0-3.489.777-3.489 2.376 0 1.621.855 2.376 2.689 2.376 1.877 0 3.495-.49 4.809-1.455V30.74c-1.332-.183-2.679-.275-4.009-.275z"/><path fill="#0B2A35" d="M73.088 38.153h-3.485V27.474c0-1.806-1.427-3.321-3.179-3.377l-.187-.003c-1.544 0-3.039.646-4.445 1.923v12.136h-3.485v-23.48h1.795c.932 0 1.691.758 1.691 1.691v6.214c1.358-.984 2.983-1.481 4.839-1.481 4.285 0 6.458 2.162 6.458 6.427l-.002 10.629z"/><path fill="#0B2A35" d="M89.932 38.153h-2.086l-.934-1.517c-1.616 1.008-3.389 1.517-5.274 1.517-4.097 0-6.175-1.771-6.175-5.265 0-3.555 2.347-5.358 6.975-5.358 1.327 0 2.674.091 4.008.27v-1.218c0-1.716-1.357-2.549-4.149-2.549-1.658 0-3.382.26-5.127.773l-.373.109v-2.961l.21-.062c1.798-.528 3.578-.796 5.291-.796 5.066 0 7.634 1.819 7.634 5.407v11.65zm-7.493-7.688c-2.348 0-3.489.777-3.489 2.376 0 1.621.855 2.376 2.689 2.376 1.878 0 3.494-.49 4.808-1.455V30.74c-1.332-.183-2.679-.275-4.008-.275z"/><path fill="#0B2A35" d="M105.885 38.153H92.436V35.56l.068-.081 9.564-11.447H92.75v-2.936h13.449v2.749l-.067.081-9.444 11.448h9.196v2.779h.001z"/><path fill="#0B2A35" d="M116.433 38.153c-5.825 0-8.78-2.933-8.78-8.717 0-5.534 2.648-8.34 7.87-8.34 4.858 0 7.321 2.437 7.321 7.242 0 .671-.048 1.396-.144 2.155l-.032.255h-11.523c.109 3.007 1.945 4.47 5.603 4.47 1.836 0 3.487-.207 4.908-.617l.372-.107v2.961l-.211.061c-1.474.422-3.285.637-5.384.637zm-5.267-10.404h8.291c-.146-2.521-1.434-3.748-3.933-3.748-2.666 0-4.093 1.227-4.358 3.748z"/><path fill="#0B2A35" d="M129.217 38.153h-3.486v-23.48h1.795c.932 0 1.691.758 1.691 1.691v21.789z"/><path fill="#0B2A35" d="M140.812 38.153c-6.023 0-9.078-2.975-9.078-8.842 0-5.451 3.054-8.215 9.078-8.215 1.581 0 3.082.16 4.458.478l.227.052v2.953l-.358-.083c-1.332-.307-2.842-.463-4.485-.463-3.657 0-5.435 1.727-5.435 5.279 0 3.974 1.779 5.906 5.435 5.906 1.643 0 3.152-.156 4.485-.463l.358-.083v2.953l-.227.052c-1.377.316-2.877.476-4.458.476z"/><path fill="#0B2A35" d="M171.258 38.153c-1.992 0-3.992-.268-5.945-.795l-.215-.058v-3.134l.381.123c1.899.616 3.842.928 5.779.928 3.646 0 3.646-1.553 3.646-2.063 0-.818-.255-1.905-2.454-1.905h-2.353c-3.733 0-5.626-1.734-5.626-5.155 0-3.317 2.406-4.999 7.148-4.999 1.982 0 3.977.268 5.929.795l.215.058v3.134l-.381-.123c-1.898-.616-3.838-.928-5.763-.928-3.82 0-3.82 1.553-3.82 2.063 0 1.299.73 1.904 2.297 1.904h2.353c3.941 0 5.94 1.734 5.94 5.155.002 3.319-2.398 5-7.131 5z"/><path fill="#0B2A35" d="M188.492 38.153h-3.052c-2.943 0-4.434-1.591-4.434-4.731V18.429h2.343l.627 2.667h4.516v2.936h-4v9.17c0 1.375.541 2.015 1.701 2.015h2.3v2.936h-.001z"/><g fill="#FF5F00"><path d="M202.705 20.997v12.128c0 3.272-2.244 4.909-6.731 4.909v-2.74c2.383 0 3.574-.723 3.574-2.169V20.997h3.157zm14.836 0v2.716h-8.531v4.289h8.125v2.824h-8.161v4.468h8.733v2.74h-11.831V20.997h11.665zm14.155 0v2.74h-4.885v14.297h-3.157V23.738h-4.885v-2.74h12.927z"/></g><g><path fill="#0B2A35" d="M22.724 18.49c.196-.068.395-.127.598-.177-.027-.406-.053-.812-.064-1.221-.079-2.874.229-5.719.891-8.225l.196-.744c-1.32-1.589-2.955-2.848-4.775-3.714-.914.245-1.804.547-2.666.906l.782 1.885 5.038 11.29zm-11.616-7.392l9.255 8.783c.157-.14.32-.273.489-.399-.177-.359-.353-.718-.517-1.085-1.173-2.629-1.977-5.377-2.326-7.947l-.101-.746c-1.823-.961-3.81-1.498-5.817-1.604-.749.575-1.463 1.194-2.13 1.861l1.16 1.16-.013-.023zm-4.28 6.406l11.881 4.573c.093-.193.194-.381.304-.564-.294-.259-.589-.519-.875-.79-2.089-1.982-3.882-4.216-5.188-6.46l-.369-.634c-2.058-.193-4.107.071-6.008.744-.472.812-.894 1.656-1.258 2.531l1.59.659-.077-.059zm-1.497 7.564l12.699-.317c.011-.218.031-.433.061-.645-.365-.125-.731-.25-1.093-.39-2.686-1.034-5.196-2.413-7.261-3.99l-.575-.439c-1.986.609-3.786 1.641-5.291 2.998-.122.922-.191 1.86-.191 2.814h1.77l-.119-.031z"/><path fill="#FF5F00" d="M39.06 11.149l-8.824 9.3c.133.149.259.303.378.463.389-.192.779-.382 1.178-.559 2.624-1.166 5.371-1.963 7.942-2.306l.74-.098c.974-1.834 1.519-3.835 1.625-5.858-.575-.749-1.194-1.463-1.861-2.13l-1.201 1.201.023-.013z"/><path fill="#0B2A35" d="M25.433 18.119c.207.012.411.033.612.063.133-.394.268-.787.417-1.178 1.027-2.683 2.401-5.19 3.972-7.25l.47-.616c-.611-1.976-1.639-3.768-2.99-5.266-.922-.122-1.86-.191-2.814-.191V6.01l.333 12.109z"/><path fill="#FF5F00" d="M28.07 18.809c.183.089.361.185.534.289.28-.32.562-.638.856-.948 1.975-2.083 4.205-3.871 6.448-5.172l.662-.384c.196-2.063-.068-4.117-.743-6.022-.812-.472-1.656-.894-2.53-1.258l-.799 1.93-4.428 11.565z"/><path fill="#0B2A35" d="M43.353 17.566L31.614 22.78c.065.185.122.373.172.565.439-.029.878-.055 1.32-.066 2.928-.072 5.696.238 8.228.912l.704.188c1.607-1.326 2.88-2.973 3.752-4.808-.245-.914-.547-1.805-.906-2.667l-1.628.675.097-.013zm-15.902 14.09c-.189.07-.381.133-.577.187.028.42.055.841.066 1.264.079 2.875-.229 5.719-.891 8.225l-.196.744c1.32 1.589 2.955 2.848 4.775 3.714.914-.245 1.805-.547 2.667-.906L32.515 43l-5.064-11.344zm11.641 7.446l-9.338-8.862c-.145.134-.295.262-.451.384.193.389.383.779.561 1.178 1.173 2.627 1.977 5.375 2.326 7.947l.101.746c1.823.961 3.81 1.498 5.817 1.604.749-.575 1.463-1.194 2.13-1.861l-1.159-1.159.013.023zm4.28-6.407l-12.024-4.628c-.083.177-.173.351-.27.52.332.29.662.583.984.889 2.088 1.981 3.882 4.215 5.188 6.46l.369.634c2.058.193 4.107-.071 6.008-.744.472-.812.894-1.656 1.258-2.531l-1.59-.659.077.059zm1.374-7.595l.12.032-12.866.32c-.01.197-.026.391-.052.583.419.142.838.287 1.254.447 2.686 1.034 5.196 2.413 7.26 3.99l.575.439c1.986-.609 3.786-1.642 5.291-2.998.122-.922.191-1.86.191-2.814h-1.773zm-22.642 6.36c-.194-.089-.383-.186-.567-.292-.261.297-.522.593-.796.881-1.976 2.083-4.206 3.871-6.448 5.172l-.662.384c-.196 2.063.068 4.116.743 6.022.812.472 1.656.894 2.531 1.258l.797-1.923 4.402-11.502zM11.14 39.05l8.738-9.209c-.146-.159-.285-.323-.417-.495-.348.17-.697.341-1.053.5-2.624 1.166-5.371 1.963-7.943 2.306l-.74.098c-.974 1.834-1.518 3.835-1.625 5.858.575.749 1.194 1.463 1.861 2.13l1.201-1.201-.022.013zm-4.293-6.417l11.593-5.15c-.074-.203-.138-.41-.193-.621-.384.024-.767.048-1.153.058-.272.007-.542.01-.811.01-2.624 0-5.119-.31-7.417-.922l-.705-.188c-1.607 1.326-2.879 2.973-3.752 4.807.245.914.547 1.805.906 2.667l1.628-.674-.096.013zm17.92-.544c-.209-.007-.417-.022-.621-.047-.131.385-.262.771-.408 1.153-1.027 2.682-2.4 5.189-3.972 7.25l-.47.616c.61 1.976 1.639 3.767 2.99 5.266.922.122 1.86.191 2.814.191V44.19l-.333-12.101z"/><circle cx="25.015" cy="25.1" r="5.209" fill="#0B2A35"/><g><path fill="#0B2A35" d="M25.1 50.199C11.26 50.199 0 38.94 0 25.1S11.26 0 25.1 0s25.1 11.259 25.1 25.1-11.26 25.099-25.1 25.099zm0-48.568c-12.94 0-23.468 10.528-23.468 23.468S12.159 48.568 25.1 48.568c12.94 0 23.468-10.528 23.468-23.468S38.04 1.631 25.1 1.631z"/></g></g></svg>