<svg xmlns="http://www.w3.org/2000/svg" role="img" viewBox="3.33 3.58 281.85 282.10"><title>icon-white.input.svg logo</title><style>svg {enable-background:new 0 0 288 288}</style><style>.st22{fill:#fff}.st25,.st26{opacity:.8;fill:#fff}.st26{opacity:.6}</style><g><path d="M47.6 48.5L47.6 55.4 47.6 48.5zM108.4 241.8h.2C108.6 241.7 108.5 241.7 108.4 241.8z" class="st22"/><path fill="#fff" d="M99.2,48.3l-51.6,0.2v6.9l0.3,44.3l-0.3,33.9v55.9c6.9-5.7,13.3-12.4,20.2-18.1c10.7-8.9,22.7-13.2,35.9-11.5 l16.3,6.6c4.2-5.9,10.7-8.6,18.3-8.7c6.2-0.1,12.4,0.6,18.6,0.9c0,0,0,0,0,0c0.7-2.1,1.4-4.3,2-6.4l0,0c1.7-10.8,6.1-20.7,9.3-31 c6-19.2,11.2-38.6,18.4-57.4c0.4-3.4,3.7-4.3,5.5-6.5c0.4,0,0.9,0,1.3,0c2.7,0,5.3,0,8,0c0.9,0.9,1.7,1.8,2.6,2.7v0c0,0,0,0,0,0 c3.8,3.1,6.3,6.5,4.3,11.8c-10.9,28.5-21.8,57.1-32.6,85.7c0,0,0,0,0,0h0c0.9,4,4.2,2.5,6.5,2.6c10.5,0.5,12.8,3.1,11.2,13.3 c-0.5,3.5,0.1,7,0.1,10.5c5.5-2.4,11-4.5,16.8-5.9c11.5-2.8,21.4,0.7,30.7,7.7l0.3-29.9v-17.8V99.7V48h-51.6h-56.5L99.2,48.3z" opacity=".2"/><path d="M196.2 72.2c0-.1.1-.1.1-.2 0 0-.1-.1-.1-.2C196.2 72 196.2 72.1 196.2 72.2zM118 210.8C118 210.8 118 210.8 118 210.8 118 210.7 118 210.7 118 210.8 118 210.7 118 210.8 118 210.8z" class="st22"/><path fill="#fff" d="M241.2 241.3L241.2 240.8 241.2 241.3zM189.7 241.5c21.8 0 29.2 16.2 51 16.2 1.1 0-.4-16.8.5-16.9v-50.4l-.3-.3 0-4c-9.3-7-19.2-10.5-30.7-7.7-5.8 1.4-11.4 3.5-16.8 5.9 0 1.9-.3 3.8-1.1 5.7l0 0c0 0 0 0 0 0-3.8 10-10.2 18.5-14.8 28-1.2 2.8-2.5 6.8-6.8 5.5 0 0-.1 0-.1 0 0 0-.1-.1-.1-.1-.3-.1-.7-.2-1-.3-6.5.3-13.1.9-18.5-4.2-1.9-1.8-4.6-.9-6.9-1.2 0 0 0 0 0 0-6.3.6-12.6 1-18.7 2.7-5.1-.4-10.8 3.8-15.8 4.2l0-.1c-3.3 2-11.7 3.7-15.5-.6-.1 0-.1 0-.2 0 0 0 0-.1 0-.1-.1-.1-.2-.2-.3-.3l1.1-2c5.6-14.9 17.1-38.5 23.5-51.7.6-1.1 1.2-2.2 1.9-3.1l-16.3-6.6c-13.2-1.7-25.2 2.6-35.9 11.5-6.9 5.8-13.3 12.4-20.2 18.1v.5 51.7h4.6c.4-.2-6.2 4.9-5.8 4.6 18.5 0 34.3-4.6 52.8-4.6" opacity=".4"/><path d="M172.4 241.6l17.3-.1 51.6-.1v-.6c-.9.1-1.9.1-3 .1M93.8 223.8c.1 0 .1 0 .2 0-.1-.1-.1-.1-.2-.2C93.9 223.7 93.9 223.7 93.8 223.8zM170.6 223.4C170.6 223.4 170.7 223.4 170.6 223.4c0-.1 0-.1-.1-.1C170.5 223.4 170.6 223.4 170.6 223.4z" class="st22"/><path d="M196.2,71.9c0,0.1,0.1,0.1,0.1,0.2c0.8-1.7,1.7-3.5,2.5-5.2c0,0,0,0,0,0c0,0,0,0,0,0c0.8-4.6-2.2-7-5.4-9.3 c-0.4,0-0.9,0-1.3,0c-1.9,2.1-5.1,3.1-5.5,6.5c0.2,0.6,0.6,1.7,0.7,1.7C195.2,63.2,195.9,63.6,196.2,71.9z" class="st25"/><path d="M198.9,66.8C198.9,66.8,198.9,66.8,198.9,66.8c0.4,0.5,0.9,0.9,1.3,1.4c3.6-1.6-0.5-6.8,3.9-8v0 c-0.9-0.9-1.7-1.8-2.6-2.7c-2.7,0-5.3,0-8,0C196.6,59.8,199.7,62.2,198.9,66.8z" class="st25"/><path d="M159.9 151.5c7.7 1.7 8.6-4.4 10.7-9.3 10.1-22.8 19.2-45.9 25.7-70 0 0 0 0 0 0 0-.1 0-.2 0-.3-.3-8.3-1-8.7-8.9-6.3-.1 0-.5-1.1-.7-1.7-7.2 18.8-12.3 38.2-18.4 57.4-3.2 10.3-7.6 20.3-9.3 31C159.3 152.1 159.6 151.4 159.9 151.5zM94.7 221.4l14.2-25.2c4.1-8.5 7.8-17.2 12.3-25.2 2.7-3.8 5.9-7.1 10.7-8 .8-.3 1.5-.5 2.2-.6 7.8-2 15.6 0 23.3.8 8.8.4 17.6.7 26.3 1.3 5.4.4 7.6 4.3 5.7 9.2-.3.8-.7 1.6-1.1 2.4-3.5 7.7-5.3 11.8-11.6 11.6 4.9 1 5.3 4 2.5 10.4-2.8 6.2-5.9 12.4-8.4 18.7-.9 2.1-1.5 4.1-1.4 6.3.3.1.7.2 1 .3 3.7-12.5 10.4-23.1 16.2-36 2.8-4.9 3-6.3 5.7-9.5 0 4 0 8 0 12l0 0c.8-1.9 1.1-3.8 1.1-5.7.1-3.5-.6-7.1-.1-10.5 1.5-10.2-.7-12.8-11.2-13.3-2.3-.1-5.6 1.4-6.5-2.6h0c-1.4 1.4-2.5 4.1-4.9 1.2-4.6 1.2-9.2.3-13.8-.2 0 0 0 0 0 0 0 0 0 0 0 0-6.2-.3-12.4-1-18.6-.9-7.6.1-14.1 2.8-18.3 8.7-.7 1-1.3 2-1.9 3.1C111.8 182.9 100.3 206.5 94.7 221.4z" class="st26"/><path d="M170.7,159c3.5-12,9.1-23.2,13.4-34.9c4.2-11.5,8.9-22.8,12.1-34.7c1.8-7,4.9-13.7,4-21.1h0 c-0.4-0.5-0.9-0.9-1.3-1.4c0,0,0,0,0,0c-0.8,1.7-1.7,3.5-2.5,5.2c0,0.1-0.1,0.1-0.1,0.2c0,0,0,0,0,0c-6.4,24.1-15.6,47.2-25.7,70 c-2.1,4.9-3,11-10.7,9.3c-0.2-0.1-0.6,0.6-0.9,0.9l0,0c-0.7,2.1-1.4,4.3-2,6.4c0,0,0,0,0,0C161.5,159.3,166.1,160.2,170.7,159z" class="st26"/><path d="M118 210.8C118 210.8 118 210.7 118 210.8c-.2-.4-.4-.7-.6-1l-8.6-13.2c.1-.1.1-.2.1-.3l-14.2 25.2-1.1 2c.1.1.2.2.3.3 0 .1.1.1.2.2 3.7 4.3 12.2 2.6 15.5.6l7.5-12.2C117.4 211.7 117.6 211.3 118 210.8zM200.2 68.2L200.2 68.2c.9 7.5-2.1 14.2-4 21.1-3.1 11.9-7.9 23.2-12.1 34.7-4.3 11.7-9.9 22.9-13.4 34.9 2.5 2.9 3.5.2 4.9-1.2 0 0 0 0 0 0 10.9-28.6 21.7-57.2 32.6-85.7 2.1-5.4-.4-8.8-4.3-11.8 0 0 0 0 0 0C199.7 61.4 203.8 66.7 200.2 68.2zM186.7 187.3c-5.8 12.9-12.5 23.5-16.2 36 .1 0 .1 0 .2 0 4.3 1.3 5.6-2.7 6.8-5.5 4.6-9.5 11.1-18 14.8-28 0 0 0 0 0 0 0-4 0-8 0-12C189.7 181 189.5 182.5 186.7 187.3z" class="st25"/><path d="M179.3,198c2.8-6.3,2.4-9.4-2.5-10.4c-1,0-2.1-0.1-3.4-0.4c-10.4-0.5-20.7-1.1-31.1-1.6 c-2.9-0.1-5.9-0.3-7.7,2.6c0,0,0,0,0,0c0,0,0,0,0,0c4.3,9.4,9.2,18.6,9.5,29.3v0c2.3,0.4,5-0.6,6.9,1.2c5.4,5.1,12,4.4,18.5,4.2 c-0.1-2.2,0.6-4.2,1.4-6.3C173.4,210.4,176.5,204.2,179.3,198z" class="st26"/><path d="M126.7,196.7c0,0.2,0,0.4,0,0.6c0.1-0.2,0.2-0.3,0.4-0.5c2.9-3.9,4.5-6,7.5-8.6c0,0,0,0,0,0 c1.9-3,4.8-2.8,7.7-2.6c10.4,0.5,20.7,1.1,31.1,1.6c1.3,0.3,2.4,0.4,3.4,0.4c6.3,0.2,8.1-3.9,11.6-11.6c0.4-0.8,0.8-1.6,1.1-2.4 c1.9-4.9-0.3-8.8-5.7-9.2c-8.8-0.7-17.6-0.9-26.3-1.3c-7.8-0.8-15.5-2.8-23.3-0.8c-0.6,0.1-1.3,0.3-2.2,0.6c-4.9,0.9-8,4.2-10.7,8 C128.3,178.4,132.3,186.6,126.7,196.7z" class="st25"/><path d="M117.4,209.8c0.2,0.4,0.4,0.7,0.6,0.9c0,0,0,0,0,0.1c3.2-4.8,5.4-8.8,8.7-13.4c0-0.2,0-0.4,0-0.6 c5.6-10.2,1.6-18.3-5.5-25.8c-4.6,8.1-8.2,16.7-12.3,25.2c-0.1,0.1-0.1,0.2-0.1,0.3L117.4,209.8z" class="st25"/><path d="M134.6,188.3C134.6,188.3,134.6,188.3,134.6,188.3c-3,2.6-4.6,4.6-7.5,8.6c-0.1,0.2-0.2,0.3-0.4,0.5 c-3.3,4.6-5.5,8.5-8.7,13.4c0,0,0,0,0,0c-0.3,0.5-0.6,0.9-1,1.4l-7.5,12.2l0,0.1c5-0.4,10.7-4.6,15.8-4.2c6.1-1.7,12.5-2,18.7-2.7 c0,0,0,0,0,0v0C143.7,206.9,138.9,197.7,134.6,188.3z" class="st26"/><path d="M99.2 241.8L52.3 241.8 47.6 241.8 47.6 190 8.9 190 8.9 280.4 99.2 280.4zM240.9 190L241.2 240.8 241.2 241.3 241.2 241.3 189.7 241.5 189.7 280.4 280 280.4 280 190 240.9 190zM47.6 55.4L47.6 48.5 47.6 48.5 99.2 48.3 99.2 9.2 8.9 9.2 8.9 99.7 47.9 99.7zM189.7 9.2L189.7 48 241.2 48 241.2 99.7 280 99.7 280 9.2z" class="st22"/><path d="M133.1 48L189.7 48 189.7 9.2 99.2 9.2 99.2 48.3zM240.9 190L280 190 280 99.7 241.2 99.7 241.2 138.3 241.2 156.1M47.6 189.6L47.6 133.6 47.9 99.7 8.9 99.7 8.9 190 47.6 190zM133.1 280.3L189.7 280.4 189.7 241.5 99.2 241.8 99.2 280.4z" class="st25"/></g></svg>