<svg xmlns="http://www.w3.org/2000/svg" role="img" viewBox="-144.32 -224.32 458.64 345.14"><title>kubernetes.input.svg logo</title><path d="M-122.839 83.493c1.215-1.325 2.458-2.706 3.728-4.142 1.325-1.436 2.596-2.844 3.811-4.225 1.215-1.436 2.347-2.789 3.397-4.059 1.105-1.27 2.043-2.375 2.817-3.314h14.663c-2.927 3.369-5.799 6.6-8.616 9.693-2.762 3.038-5.799 6.186-9.113 9.444 1.657 1.491 3.369 3.286 5.136 5.385 1.767 2.044 3.479 4.17 5.136 6.379 1.657 2.209 3.176 4.418 4.556 6.628 1.381 2.209 2.541 4.225 3.479 6.048h-14.166c-.884-1.436-1.905-3.01-3.065-4.722-1.105-1.767-2.292-3.507-3.562-5.219-1.27-1.767-2.623-3.452-4.059-5.053-1.381-1.602-2.762-2.955-4.142-4.059v19.054h-12.344V49.032l12.344-1.988v36.449m71.939 26.345c-2.099.608-4.805 1.16-8.119 1.657-3.314.552-6.793.828-10.438.828-3.7 0-6.793-.497-9.279-1.491-2.43-.994-4.363-2.375-5.799-4.142-1.436-1.823-2.458-3.977-3.065-6.462-.608-2.485-.911-5.219-.911-8.202V67.753h12.344v22.782c0 3.977.525 6.849 1.574 8.616 1.049 1.767 3.01 2.651 5.882 2.651.884 0 1.823-.028 2.817-.083.994-.11 1.878-.221 2.651-.331V67.753h12.344l-.001 42.085m39.587-20.628c0-7.953-2.927-11.93-8.782-11.93-1.27 0-2.541.166-3.811.497-1.215.331-2.209.746-2.982 1.243v22.451c.608.11 1.381.221 2.32.331.939.055 1.961.083 3.065.083 3.369 0 5.91-1.16 7.622-3.479 1.712-2.32 2.568-5.385 2.568-9.196m12.592.331c0 3.48-.525 6.628-1.574 9.444-.994 2.817-2.458 5.219-4.391 7.207-1.933 1.988-4.308 3.535-7.125 4.639-2.817 1.049-6.02 1.574-9.61 1.574-1.491 0-3.065-.083-4.722-.249-1.602-.11-3.203-.276-4.805-.497-1.546-.221-3.038-.469-4.474-.746-1.436-.331-2.706-.663-3.811-.994V49.028l12.344-1.988v21.705c1.381-.607 2.817-1.077 4.308-1.408 1.491-.331 3.093-.497 4.805-.497 3.093 0 5.827.552 8.202 1.657 2.375 1.049 4.363 2.568 5.965 4.556 1.602 1.988 2.817 4.391 3.645 7.207.829 2.764 1.243 5.857 1.243 9.281m7.416.332c0-3.866.58-7.235 1.74-10.107 1.215-2.927 2.789-5.357 4.722-7.29 1.933-1.933 4.142-3.397 6.628-4.391 2.541-.994 5.136-1.491 7.787-1.491 6.186 0 11.074 1.905 14.663 5.716 3.59 3.756 5.385 9.306 5.385 16.652 0 .718-.028 1.519-.083 2.402-.055.828-.111 1.574-.166 2.237H21.37c.276 2.541 1.464 4.556 3.562 6.048 2.099 1.491 4.915 2.237 8.45 2.237 2.264 0 4.474-.193 6.628-.58 2.209-.442 4.004-.966 5.385-1.574l1.657 10.024c-.663.331-1.546.663-2.651.994-1.105.331-2.347.608-3.728.828-1.326.276-2.762.497-4.308.663-1.546.166-3.093.249-4.639.249-3.921 0-7.346-.58-10.273-1.74-2.872-1.16-5.274-2.734-7.207-4.722-1.878-2.043-3.286-4.446-4.225-7.207-.884-2.763-1.326-5.745-1.326-8.948m28.996-4.723c-.055-1.049-.249-2.071-.58-3.065-.276-.994-.746-1.878-1.408-2.651-.608-.773-1.408-1.408-2.403-1.905-.939-.497-2.126-.746-3.562-.746-1.381 0-2.568.249-3.562.746-.994.442-1.823 1.049-2.485 1.823-.663.773-1.187 1.685-1.574 2.734-.331.994-.58 2.016-.746 3.065l16.32-.001m47.717-6.461c-1.105-.276-2.403-.552-3.894-.828-1.491-.331-3.093-.497-4.805-.497-.773 0-1.712.083-2.817.249-1.049.111-1.85.249-2.402.414v33.304H59.146V70.074c2.209-.773 4.805-1.491 7.787-2.154 3.038-.718 6.407-1.077 10.107-1.077.663 0 1.464.055 2.403.166.939.055 1.878.166 2.817.331.939.111 1.878.276 2.817.497.939.166 1.74.387 2.403.663l-2.072 10.189m8.688-9.445c2.099-.607 4.805-1.16 8.119-1.657 3.314-.552 6.793-.828 10.438-.828 3.7 0 6.766.497 9.196 1.491 2.485.939 4.446 2.292 5.882 4.059 1.436 1.767 2.458 3.866 3.065 6.296.607 2.43.911 5.136.911 8.119v24.605h-12.344V88.215c0-3.977-.525-6.793-1.574-8.45-1.049-1.657-3.01-2.485-5.882-2.485-.884 0-1.823.055-2.817.166-.994.055-1.878.138-2.651.249v33.635H94.095V69.244m46.796 20.629c0-3.866.58-7.235 1.74-10.107 1.215-2.927 2.789-5.357 4.722-7.29 1.933-1.933 4.142-3.397 6.628-4.391 2.541-.994 5.136-1.491 7.787-1.491 6.186 0 11.074 1.905 14.663 5.716 3.59 3.756 5.385 9.306 5.385 16.652 0 .718-.028 1.519-.083 2.402-.055.828-.11 1.574-.166 2.237h-28.001c.276 2.541 1.464 4.556 3.562 6.048 2.099 1.491 4.915 2.237 8.45 2.237 2.264 0 4.474-.193 6.628-.58 2.209-.442 4.004-.966 5.385-1.574l1.657 10.024c-.663.331-1.546.663-2.651.994-1.105.331-2.347.608-3.728.828-1.326.276-2.762.497-4.308.663-1.546.166-3.093.249-4.639.249-3.921 0-7.346-.58-10.273-1.74-2.872-1.16-5.274-2.734-7.207-4.722-1.878-2.043-3.286-4.446-4.225-7.207-.885-2.763-1.326-5.745-1.326-8.948m28.995-4.723c-.055-1.049-.249-2.071-.58-3.065-.276-.994-.746-1.878-1.408-2.651-.608-.773-1.408-1.408-2.402-1.905-.939-.497-2.126-.746-3.562-.746-1.381 0-2.568.249-3.562.746-.994.442-1.823 1.049-2.485 1.823-.663.773-1.187 1.685-1.574 2.734-.331.994-.58 2.016-.746 3.065l16.319-.001m21.041-28.25l12.344-1.988v12.841H218.1v10.273h-14.829v15.326c0 2.596.442 4.667 1.325 6.213.939 1.546 2.789 2.32 5.551 2.32 1.326 0 2.679-.11 4.059-.331 1.436-.276 2.734-.635 3.894-1.077l1.74 9.61c-1.491.608-3.148 1.132-4.971 1.574-1.823.442-4.059.663-6.71.663-3.369 0-6.158-.442-8.367-1.326-2.209-.939-3.977-2.209-5.302-3.811-1.326-1.657-2.264-3.645-2.817-5.965-.497-2.32-.746-4.888-.746-7.705V56.9m33.455 32.973c0-3.866.58-7.235 1.74-10.107 1.215-2.927 2.789-5.357 4.722-7.29 1.933-1.933 4.142-3.397 6.628-4.391 2.541-.994 5.136-1.491 7.787-1.491 6.186 0 11.074 1.905 14.663 5.716 3.59 3.756 5.385 9.306 5.385 16.652 0 .718-.028 1.519-.083 2.402-.055.828-.11 1.574-.166 2.237h-28.001c.276 2.541 1.464 4.556 3.562 6.048 2.099 1.491 4.915 2.237 8.45 2.237 2.264 0 4.474-.193 6.628-.58 2.209-.442 4.004-.966 5.385-1.574l1.657 10.024c-.663.331-1.546.663-2.651.994-1.105.331-2.347.608-3.728.828-1.326.276-2.762.497-4.308.663-1.546.166-3.093.249-4.639.249-3.921 0-7.346-.58-10.273-1.74-2.872-1.16-5.274-2.734-7.207-4.722-1.878-2.043-3.286-4.446-4.225-7.207-.884-2.763-1.326-5.745-1.326-8.948m28.996-4.723c-.055-1.049-.249-2.071-.58-3.065-.276-.994-.746-1.878-1.408-2.651-.608-.773-1.408-1.408-2.402-1.905-.939-.497-2.126-.746-3.562-.746-1.381 0-2.568.249-3.562.746-.994.442-1.823 1.049-2.485 1.823-.663.773-1.187 1.685-1.574 2.734-.331.994-.58 2.016-.746 3.065l16.319-.001m33.965 17.315c2.264 0 3.866-.221 4.805-.663.939-.442 1.408-1.298 1.408-2.568 0-.994-.608-1.85-1.823-2.568-1.215-.773-3.065-1.629-5.551-2.568-1.933-.718-3.7-1.464-5.302-2.237-1.546-.773-2.872-1.684-3.977-2.734-1.105-1.105-1.961-2.402-2.568-3.894-.608-1.491-.911-3.286-.911-5.385 0-4.087 1.519-7.318 4.556-9.693 3.038-2.375 7.207-3.562 12.51-3.562 2.651 0 5.192.249 7.622.746 2.43.442 4.363.939 5.799 1.491l-2.154 9.61c-1.436-.497-3.01-.939-4.722-1.326-1.657-.387-3.535-.58-5.633-.58-3.866 0-5.799 1.077-5.799 3.231 0 .497.083.939.249 1.326.166.387.497.773.994 1.16.497.331 1.16.718 1.988 1.16.884.387 1.988.828 3.314 1.326 2.706.994 4.943 1.988 6.71 2.982 1.767.939 3.148 1.988 4.142 3.148 1.049 1.105 1.767 2.347 2.154 3.728.442 1.381.663 2.982.663 4.805 0 4.308-1.629 7.566-4.888 9.776-3.203 2.209-7.76 3.314-13.669 3.314-3.866 0-7.097-.331-9.693-.994-2.541-.663-4.308-1.215-5.302-1.657l2.071-10.024c2.099.828 4.253 1.491 6.462 1.988 2.209.441 4.391.662 6.545.662"/><path fill="#FFF" d="M85.304-204.478l93.973 44.872 23.22 100.85-65.02 80.882-104.298.01-65.037-80.868 23.197-100.853z"/><path fill="none" d="M85.304-204.478l93.973 44.872 23.22 100.85-65.02 80.881-104.298.011-65.037-80.868 23.197-100.853z"/><path fill="#326CE5" d="M84.433-215.362c-2.257.112-4.49.678-6.524 1.651L-11.1-171.182c-4.589 2.191-8.077 6.528-9.21 11.451l-21.958 95.533c-1.012 4.388-.158 9.168 2.31 12.944.301.462.622.911.968 1.343l61.61 76.603c3.175 3.947 8.214 6.354 13.306 6.352l98.801-.023c5.089.004 10.128-2.398 13.307-6.341l61.586-76.613c3.178-3.949 4.424-9.359 3.29-14.287l-21.994-95.532c-1.133-4.925-4.621-9.261-9.208-11.453l-89.021-42.506c-2.557-1.222-5.423-1.795-8.254-1.651z"/><path fill="#FFF" d="M85.142-61.364c.738-.026 1.487.125 2.199.468.932.448 1.652 1.154 2.106 2.003h.101l13.559 24.498c-1.761.589-3.57 1.094-5.42 1.514-10.368 2.355-20.704 1.642-30.064-1.547l13.524-24.454h.023c.811-1.516 2.35-2.422 3.972-2.482zM61.909-72.645c2.116.029 4.016 1.499 4.507 3.653.231 1.009.119 2.009-.261 2.892l.08.102L55.58-40.247c-9.963-6.393-17.898-15.964-22.142-27.707l27.502-4.667.046.057c.309-.058.62-.086.923-.081zm46.593-.114c.365-.02.728.014 1.081.08l.046-.057 27.743 4.689c-4.061 11.407-11.831 21.29-22.211 27.903l-10.768-26.012.034-.046c-.989-2.298 0-4.994 2.277-6.09.583-.282 1.192-.437 1.798-.467zm-27.479-22.79h8.572l5.327 6.66-1.912 8.31-7.697 3.7-7.718-3.71-1.912-8.31 5.34-6.65zm51.238-20.15c3.109 5.039 5.462 10.667 6.864 16.768 1.386 6.028 1.733 12.046 1.162 17.862l-26.956-7.764-.023-.114c-2.414-.66-3.897-3.115-3.335-5.578.229-1.009.765-1.862 1.49-2.494l-.01-.057 20.808-18.623zm-94.041-.01l20.923 18.714-.023.114c1.889 1.642 2.167 4.492.592 6.466-.646.809-1.51 1.351-2.437 1.606l-.023.091-26.819 7.741c-1.365-12.482 1.575-24.617 7.787-34.732zm53.776-25.82c12.122 1.492 23.331 6.98 31.921 15.391l-22.768 16.142-.08-.034c-2.021 1.477-4.868 1.11-6.442-.864-.646-.809-.986-1.761-1.025-2.722l-.023-.01-1.583-27.903zm-13.353 0l-1.583 27.947-.114.057c-.105 2.501-2.163 4.497-4.688 4.497-1.035 0-1.991-.331-2.768-.898l-.044.023-22.916-16.246c7.042-6.926 16.051-12.044 26.431-14.401 1.898-.43 3.793-.75 5.682-.979zm6.67-41.323c-2.942.002-5.327 2.652-5.327 5.92 0 .051.011.099.013.149-.005.443-.027.978-.013 1.366.071 1.885.482 3.328.729 5.066.448 3.717.823 6.8.592 9.664-.226 1.081-1.021 2.069-1.731 2.755l-.127 2.254c-3.196.265-6.415.751-9.63 1.48-13.833 3.141-25.743 10.267-34.811 19.888-.589-.402-1.619-1.14-1.925-1.366-.952.128-1.912.422-3.164-.308-2.383-1.604-4.555-3.82-7.182-6.489-1.204-1.275-2.076-2.492-3.508-3.723-.324-.28-.82-.657-1.183-.945-1.119-.891-2.437-1.355-3.712-1.4-1.636-.057-3.214.584-4.246 1.878-1.834 2.3-1.247 5.817 1.309 7.855.027.021.053.037.08.057.351.285.781.649 1.105.887 1.517 1.121 2.905 1.695 4.416 2.585 3.186 1.968 5.827 3.6 7.922 5.568.818.872.963 2.408 1.071 3.074l1.708 1.524c-9.141 13.757-13.372 30.749-10.872 48.063l-2.23.649c-.589.76-1.42 1.955-2.29 2.31-2.741.863-5.825 1.181-9.55 1.571-1.75.146-3.259.059-5.112.411-.408.076-.977.224-1.423.329-.016.004-.03.009-.046.013-.023.005-.055.016-.078.021-3.141.76-5.159 3.646-4.509 6.489.649 2.846 3.718 4.575 6.877 3.893.023-.005.055-.005.08-.01.036-.009.066-.025.101-.034.441-.098.993-.204 1.379-.308 1.821-.489 3.141-1.206 4.781-1.834 3.524-1.263 6.444-2.32 9.288-2.732 1.188-.092 2.44.734 3.063 1.081l2.321-.398c5.345 16.568 16.544 29.961 30.726 38.363l-.968 2.323c.348.902.733 2.122.473 3.013-1.034 2.681-2.805 5.511-4.822 8.666-.977 1.458-1.976 2.59-2.856 4.258-.212.398-.48 1.012-.683 1.434-1.37 2.931-.367 6.305 2.264 7.57 2.647 1.275 5.932-.07 7.355-3.004.001-.005.009-.007.01-.012.002-.002-.002-.007 0-.011.203-.416.489-.964.66-1.355.756-1.729 1.007-3.211 1.537-4.883 1.411-3.541 2.184-7.257 4.125-9.571.532-.633 1.398-.878 2.296-1.119l1.206-2.186c12.364 4.746 26.202 6.019 40.027 2.881 3.153-.717 6.197-1.644 9.141-2.755.338.601.969 1.757 1.138 2.049.913.297 1.908.45 2.719 1.651 1.453 2.479 2.446 5.415 3.656 8.96.53 1.672.793 3.154 1.547 4.882.173.395.457.95.66 1.366 1.42 2.946 4.716 4.294 7.366 3.017 2.631-1.266 3.636-4.64 2.266-7.57-.204-.421-.484-1.035-.696-1.433-.88-1.668-1.88-2.789-2.856-4.246-2.017-3.156-3.691-5.778-4.724-8.46-.432-1.382.073-2.243.409-3.141-.201-.231-.633-1.537-.887-2.152 14.738-8.702 25.608-22.594 30.713-38.636.69.108 1.889.32 2.277.398.802-.528 1.539-1.219 2.983-1.105 2.844.411 5.765 1.468 9.291 2.732 1.638.628 2.958 1.357 4.781 1.845.384.103.935.199 1.377.295.036.009.067.027.103.034.023.005.057.007.078.012 3.159.679 6.227-1.05 6.877-3.894.649-2.844-1.368-5.731-4.507-6.489-.457-.103-1.105-.281-1.55-.365-1.853-.35-3.362-.263-5.11-.409-3.725-.391-6.811-.708-9.552-1.571-1.117-.434-1.912-1.764-2.3-2.312l-2.15-.626c1.115-8.07.815-16.469-1.117-24.874-1.948-8.481-5.391-16.24-9.982-23.074.551-.502 1.594-1.425 1.889-1.697.087-.955.012-1.958 1.001-3.017 2.096-1.967 4.737-3.598 7.924-5.567 1.512-.889 2.91-1.462 4.427-2.583.343-.255.813-.657 1.172-.946 2.556-2.039 3.145-5.553 1.309-7.855-1.834-2.3-5.39-2.517-7.945-.477-.363.288-.857.663-1.183.944-1.432 1.231-2.315 2.446-3.518 3.723-2.627 2.668-4.799 4.895-7.182 6.499-1.034.602-2.547.393-3.234.352l-2.026 1.446c-11.555-12.116-27.287-19.863-44.226-21.367-.048-.71-.11-1.992-.127-2.378-.692-.663-1.53-1.231-1.741-2.665-.231-2.864.155-5.946.603-9.664.247-1.738.66-3.181.729-5.066.016-.429-.009-1.051-.01-1.515-.002-3.264-2.385-5.916-5.329-5.916z"/><path fill="none" d="M85.142-61.364c.738-.026 1.487.125 2.199.468.932.448 1.652 1.154 2.106 2.003h.101l13.559 24.498c-1.761.589-3.57 1.094-5.42 1.514-10.368 2.355-20.704 1.642-30.064-1.547l13.524-24.454h.023c.811-1.516 2.35-2.422 3.972-2.482zM61.909-72.645c2.116.029 4.016 1.499 4.507 3.653.231 1.009.119 2.009-.261 2.892l.08.102L55.58-40.247c-9.963-6.393-17.898-15.964-22.142-27.707l27.502-4.667.046.057c.309-.058.62-.086.923-.081zm46.593-.114c.365-.02.728.014 1.081.08l.046-.057 27.743 4.689c-4.061 11.407-11.831 21.29-22.211 27.903l-10.768-26.012.034-.046c-.989-2.298 0-4.994 2.277-6.09.583-.282 1.192-.437 1.798-.467zm-27.479-22.79h8.572l5.327 6.66-1.912 8.31-7.697 3.7-7.718-3.71-1.912-8.31 5.34-6.65zm51.238-20.15c3.109 5.039 5.462 10.667 6.864 16.768 1.386 6.028 1.733 12.046 1.162 17.862l-26.956-7.764-.023-.114c-2.414-.66-3.897-3.115-3.335-5.578.229-1.009.765-1.862 1.49-2.494l-.01-.057 20.808-18.623zm-94.041-.01l20.923 18.714-.023.114c1.889 1.642 2.167 4.492.592 6.466-.646.809-1.51 1.351-2.437 1.606l-.023.091-26.819 7.741c-1.365-12.482 1.575-24.617 7.787-34.732zm53.776-25.82c12.122 1.492 23.331 6.98 31.921 15.391l-22.768 16.142-.08-.034c-2.021 1.477-4.868 1.11-6.442-.864-.646-.809-.986-1.761-1.025-2.722l-.023-.01-1.583-27.903zm-13.353 0l-1.583 27.947-.114.057c-.105 2.501-2.163 4.497-4.688 4.497-1.035 0-1.991-.331-2.768-.898l-.044.023-22.916-16.246c7.042-6.926 16.051-12.044 26.431-14.401 1.898-.43 3.793-.75 5.682-.979zm6.67-41.323c-2.942.002-5.327 2.652-5.327 5.92 0 .051.011.099.013.149-.005.443-.027.978-.013 1.366.071 1.885.482 3.328.729 5.066.448 3.717.823 6.8.592 9.664-.226 1.081-1.021 2.069-1.731 2.755l-.127 2.254c-3.196.265-6.415.751-9.63 1.48-13.833 3.141-25.743 10.267-34.811 19.888-.589-.402-1.619-1.14-1.925-1.366-.952.128-1.912.422-3.164-.308-2.383-1.604-4.555-3.82-7.182-6.489-1.204-1.275-2.076-2.492-3.508-3.723-.324-.28-.82-.657-1.183-.945-1.119-.891-2.437-1.355-3.712-1.4-1.636-.057-3.214.584-4.246 1.878-1.834 2.3-1.247 5.817 1.309 7.855.027.021.053.037.08.057.351.285.781.649 1.105.887 1.517 1.121 2.905 1.695 4.416 2.585 3.186 1.968 5.827 3.6 7.922 5.568.818.872.963 2.408 1.071 3.074l1.708 1.524c-9.141 13.757-13.372 30.749-10.872 48.063l-2.23.649c-.589.76-1.42 1.955-2.29 2.31-2.741.863-5.825 1.181-9.55 1.571-1.75.146-3.259.059-5.112.411-.408.076-.977.224-1.423.329-.016.004-.03.009-.046.013-.023.005-.055.016-.078.021-3.141.76-5.159 3.646-4.509 6.489.649 2.846 3.718 4.575 6.877 3.893.023-.005.055-.005.08-.01.036-.009.066-.025.101-.034.441-.098.993-.204 1.379-.308 1.821-.489 3.141-1.206 4.781-1.834 3.524-1.263 6.444-2.32 9.288-2.732 1.188-.092 2.44.734 3.063 1.081l2.321-.398c5.345 16.568 16.544 29.961 30.726 38.363l-.968 2.323c.348.902.733 2.122.473 3.013-1.034 2.681-2.805 5.511-4.822 8.666-.977 1.458-1.976 2.59-2.856 4.258-.212.398-.48 1.012-.683 1.434-1.37 2.931-.367 6.305 2.264 7.57 2.647 1.275 5.932-.07 7.355-3.004.001-.005.009-.007.01-.012.002-.002-.002-.007 0-.011.203-.416.489-.964.66-1.355.756-1.729 1.007-3.211 1.537-4.883 1.411-3.541 2.184-7.257 4.125-9.571.532-.633 1.398-.878 2.296-1.119l1.206-2.186c12.364 4.746 26.202 6.019 40.027 2.881 3.153-.717 6.197-1.644 9.141-2.755.338.601.969 1.757 1.138 2.049.913.297 1.908.45 2.719 1.651 1.453 2.479 2.446 5.415 3.656 8.96.53 1.672.793 3.154 1.547 4.882.173.395.457.95.66 1.366 1.42 2.946 4.716 4.294 7.366 3.017 2.631-1.266 3.636-4.64 2.266-7.57-.204-.421-.484-1.035-.696-1.433-.88-1.668-1.88-2.789-2.856-4.246-2.017-3.156-3.691-5.778-4.724-8.46-.432-1.382.073-2.243.409-3.141-.201-.231-.633-1.537-.887-2.152 14.738-8.702 25.608-22.594 30.713-38.636.69.108 1.889.32 2.277.398.802-.528 1.539-1.219 2.983-1.105 2.844.411 5.765 1.468 9.291 2.732 1.638.628 2.958 1.357 4.781 1.845.384.103.935.199 1.377.295.036.009.067.027.103.034.023.005.057.007.078.012 3.159.679 6.227-1.05 6.877-3.894.649-2.844-1.368-5.731-4.507-6.489-.457-.103-1.105-.281-1.55-.365-1.853-.35-3.362-.263-5.11-.409-3.725-.391-6.811-.708-9.552-1.571-1.117-.434-1.912-1.764-2.3-2.312l-2.15-.626c1.115-8.07.815-16.469-1.117-24.874-1.948-8.481-5.391-16.24-9.982-23.074.551-.502 1.594-1.425 1.889-1.697.087-.955.012-1.958 1.001-3.017 2.096-1.967 4.737-3.598 7.924-5.567 1.512-.889 2.91-1.462 4.427-2.583.343-.255.813-.657 1.172-.946 2.556-2.039 3.145-5.553 1.309-7.855-1.834-2.3-5.39-2.517-7.945-.477-.363.288-.857.663-1.183.944-1.432 1.231-2.315 2.446-3.518 3.723-2.627 2.668-4.799 4.895-7.182 6.499-1.034.602-2.547.393-3.234.352l-2.026 1.446c-11.555-12.116-27.287-19.863-44.226-21.367-.048-.71-.11-1.992-.127-2.378-.692-.663-1.53-1.231-1.741-2.665-.231-2.864.155-5.946.603-9.664.247-1.738.66-3.181.729-5.066.016-.429-.009-1.051-.01-1.515-.002-3.264-2.385-5.916-5.329-5.916z"/></svg>