<svg xmlns="http://www.w3.org/2000/svg" role="img" viewBox="-6.53 -4.78 443.56 113.81"><title>kubevirt.input.svg logo</title><style>svg {enable-background:new 0 0 432 104.6666641}</style><style>.st0{fill:none}.st1{fill:#00aab2}.st2{fill:#fff}.st3{fill:#00797f}.st4{fill:#3accc5}</style><g id="Group-16"><g id="KubeVirt_logo_color" transform="translate(40 30)"><g id="Layer_2_1_"><g id="svg10488"><path id="Shape" d="M127.36151-.35448c-1.623 1.73122-3.40832 3.67883-5.41004 5.84285-2.00171 2.16402-4.11163 4.32803-6.32975 6.60025-2.16402 2.21812-4.32803 4.43624-6.49205 6.60026-2.16403 2.16402-4.21983 4.16573-6.11336 6.05925 2.48863 1.73121 4.81494 3.67883 7.03307 5.73465 2.48861 2.27221 4.92314 4.70673 7.24945 7.24946 2.38042 2.59681 4.59854 5.19364 6.70846 7.89866 1.89351 2.43452 3.67882 4.97724 5.19364 7.68226h-8.81837c-1.62302-2.54272-3.40833-4.97724-5.35594-7.30356-2.00173-2.43452-4.16573-4.81494-6.38385-7.03306-2.21813-2.21811-4.49034-4.32803-6.81666-6.22155-2.10992-1.78531-4.32804-3.40833-6.70846-4.86904v25.42721H87.5977V-.35448h7.51996v23.696c1.78532-1.67712 3.78703-3.62473 5.95105-5.78875 2.16402-2.16402 4.32804-4.27394 6.43795-6.43796 2.10993-2.16401 4.11164-4.21983 6.00515-6.22155 1.89352-2.00171 3.46243-3.73293 4.76084-5.24774h9.08887z"/><path id="Shape_1_" d="M166.42204 52.12295c-1.67712.4328-3.84112.8656-6.54615 1.29841-3.08375.4869-6.27567.7033-9.41349.7033-2.65092.0541-5.30183-.3787-7.79045-1.3525-2.00174-.8115-3.78703-2.10992-5.08546-3.84113-1.35251-1.73122-2.2722-3.73293-2.75911-5.84285-.59511-2.43452-.8656-4.97724-.8656-7.46587V13.06243h7.19534V34.1075c0 4.92314.7574 8.38557 2.32632 10.54959 1.56893 2.10992 4.16575 3.19193 7.79049 3.19193.7574 0 1.56889 0 2.3804-.0541.81152-.0541 1.62301-.10821 2.32632-.2164.70331-.05411 1.4066-.1623 1.94762-.21641.4328-.0541.86561-.1082 1.2984-.2705V13.06243h7.19537v39.06052z"/><path id="Shape_2_" d="M185.51949 14.84774c1.2443-.7574 2.59681-1.3525 4.00344-1.78531 2.00171-.6492 4.05753-.9738 6.16745-.9197 2.65091-.0541 5.30184.4869 7.68225 1.5689 2.21811.97381 4.16573 2.48863 5.68055 4.32804 1.62303 1.94762 2.81321 4.21983 3.51654 6.65435.8115 2.75913 1.2443 5.62645 1.19021 8.49378.05408 2.97552-.43281 5.95104-1.40663 8.76427-.8656 2.48862-2.2722 4.70674-4.05752 6.60025-1.78531 1.83942-3.94934 3.24603-6.32975 4.16574-2.65094 1.0279-5.51825 1.5148-8.33148 1.4607-2.9755.0541-5.95103-.2164-8.92657-.7033-2.59682-.4869-4.70674-.9197-6.32974-1.4066V-5.49403l7.19537-1.24431-.05412 21.58607zm0 32.18977c1.0279.2705 2.0017.4328 3.02963.5951 1.62301.2164 3.24602.2705 4.92314.2705 3.89522 0 6.97896-1.2984 9.30527-3.84112s3.46245-6.16745 3.46245-10.8742c0-1.94761-.21642-3.89523-.59511-5.78874-.37871-1.67711-1.02793-3.24603-2.00174-4.70674-.9197-1.29841-2.164-2.38042-3.57064-3.08372-1.67709-.81151-3.46241-1.19022-5.30183-1.13611-1.83942 0-3.67883.3246-5.41005 1.0279-1.3525.4869-2.6509 1.19021-3.787 2.10992l-.05412 25.4272z"/><path id="Shape_3_" d="M221.22577 33.2419c-.0541-3.19193.43281-6.32975 1.51483-9.30528.9197-2.43452 2.32633-4.70674 4.11162-6.60026 1.67712-1.7312 3.67883-3.08372 5.89696-3.94933 2.16401-.8656 4.49034-1.2984 6.81666-1.2984 5.41005 0 9.57578 1.6771 12.4431 5.08543 2.86731 3.35423 4.32803 8.54788 4.32803 15.41863v2.54272h-27.59121c.32458 4.16574 1.5148 7.35766 3.6247 9.52168 2.10993 2.16402 5.41006 3.24603 9.9004 3.24603 2.164.0541 4.27392-.1623 6.38385-.64921 1.35252-.3246 2.65092-.7574 3.89522-1.29841l1.02792 6.00515c-1.4607.6492-3.02963 1.1361-4.59854 1.46071-2.43453.541-4.97724.8115-7.46587.7574-3.08372.0541-6.16745-.4869-9.08886-1.5689-2.38044-.97381-4.54444-2.43453-6.27565-4.38214-1.67711-1.89352-2.92142-4.16574-3.67882-6.60026-.91973-2.70502-1.29843-5.57234-1.24434-8.38556zm27.59125-3.94934c.05409-3.24602-.75742-5.89695-2.43453-8.00686-1.67712-2.10992-4.00343-3.13783-6.92485-3.13783-1.51483-.0541-3.02963.3246-4.38214.9738-1.2443.59512-2.32632 1.46072-3.19194 2.54273-.8656 1.0279-1.5689 2.27222-2.05582 3.57063-.4869 1.29841-.81149 2.70502-.97378 4.11163l19.96306-.0541z"/><path id="Shape_4_" d="M310.0046-.35448c-1.9476 5.68055-3.84112 10.92829-5.57235 15.74323-1.7853 4.81494-3.5165 9.41348-5.24771 13.74151-1.67712 4.32804-3.40836 8.49377-5.08548 12.4431-1.6771 3.94934-3.40833 7.89867-5.13953 11.7398h-7.03305c-1.73123-3.89523-3.46243-7.79046-5.13955-11.7398-1.6771-3.94933-3.35422-8.11506-5.08542-12.4431-1.73123-4.32803-3.51654-8.92657-5.30185-13.7415-1.78534-4.81495-3.67883-10.0627-5.57236-15.74324h8.27738c2.75912 8.16917 5.51824 16.01373 8.22326 23.5337s5.46414 14.60711 8.27738 21.20736c2.8132-6.54615 5.57232-13.5792 8.27734-21.15327s5.41006-15.41862 8.11508-23.53369l8.00687-.0541z"/><path id="Shape_5_" d="M320.0673 5.75887c-1.24433 0-2.38044-.4328-3.30012-1.29841-.9197-.9197-1.40661-2.16402-1.3525-3.46243-.05411-1.2984.4328-2.54272 1.3525-3.46243 1.83939-1.73121 4.7067-1.73121 6.60025 0 .91971.91971 1.40659 2.16402 1.35251 3.46243.05408 1.29841-.4328 2.54272-1.3525 3.46243-.86564.8656-2.05586 1.35251-3.30015 1.29841zm3.62472 47.50019h-7.19538V13.06243h7.19538v40.19663z"/><path id="Shape_6_" d="M350.47174 12.19682c.5951 0 1.3525.0541 2.1099.1082.81152.0541 1.5689.1623 2.38043.3246.75741.1082 1.46075.27051 2.10992.37871l1.46072.3246-1.24432 6.27566c-2.54272-.81151-5.19363-1.24431-7.89865-1.13611-1.3525 0-2.6509.1623-4.00342.4328-1.29846.2705-2.16403.4869-2.59686.5951v33.81278h-7.19534V14.73954c2.05581-.7033 4.21981-1.2984 6.32977-1.7312 2.8673-.54101 5.68051-.81152 8.54785-.81152z"/><path id="Shape_7_" d="M371.78732 13.06243h15.25632v6.05925h-15.25632v18.55645c-.0541 1.67711.10819 3.35423.48688 4.97724.2164 1.13611.70334 2.16402 1.40662 3.08373.59512.7574 1.40661 1.2984 2.32632 1.56891 1.02792.3246 2.16403.4869 3.24603.4869 1.78531.0541 3.51651-.1623 5.24775-.7574 1.2984-.4869 2.21814-.8115 2.75912-1.0279l1.40662 5.95104c-1.24433.541-2.48862.9738-3.78705 1.35251-2.00168.5951-4.1116.8656-6.16745.8115-2.32633.0541-4.59851-.2705-6.76254-1.0279-1.6771-.6492-3.19193-1.73122-4.27396-3.13783-1.1361-1.51481-1.9476-3.30012-2.27219-5.13954-.4869-2.32632-.7033-4.70674-.64923-7.08715V1.80954l7.19538-1.24431-.1623 12.4972z"/><g id="Group-3"><path id="Shape_8_" d="M-25.52633-6.84653l.0541-.0541-.0541.0541c-.75741.5951-1.35252 1.40661-1.73122 2.32632.3787-.91971.9738-1.73122 1.73122-2.32632z" class="st0"/><path id="Shape_9_" d="M-27.52805-3.1677c.13525-.45084.40575-.90168.8115-1.35251-.40575.45083-.67625.90167-.8115 1.3525z" class="st0"/><path id="Shape_10_" d="M-5.83378 68.54243c-.41615 0-.93635 0-1.3525-.13525.5202 0 .93635.13525 1.3525.13525z" class="st0"/><path id="Shape_11_" d="M47.83387-7.38754L14.50799-23.34717l-.3246-.1623c-.2164-.1082-.4328-.1623-.7033-.2164-.21641-.0541-.43281-.1082-.64921-.1082-.3246-.0541-.7033-.0541-1.0279-.0541-.70332 0-1.35252 0-2.05583.1082-.2164.0541-.4328.0541-.7033.1082L-24.28202-7.60394c-.3787.1623-.81151.4328-1.13611.7033l-.0541.0541 17.25804 34.7325-12.9841-26.50922H.71237l8.76427 16.17603-3.02962 5.62644-.1082.0541-8.87248-16.44653h-9.68398L3.0387 39.13884l2.16401-4.11163c.70331-1.29841 2.32633-1.83941 3.67884-1.1361 1.2984.7033 1.83941 2.3263 1.1361 3.67882L6.06833 44.9817 3.0387 50.60814l8.87247 17.79904 8.38557-16.55473c-.8656 1.19021-2.59682 1.46071-3.78703.5951-1.08201-.7574-1.40661-2.21812-.8115-3.35423l1.9476-3.89522c.75742-1.29842 2.38042-1.73122 3.67884-.97381 1.1361.6492 1.62301 2.05582 1.1902 3.30012l3.94934-7.79046c-.8656 1.1902-2.59682 1.46071-3.78703.541-1.02791-.7574-1.40661-2.16401-.81151-3.35422l3.89523-7.73637c.6492-1.3525 2.27222-1.89351 3.62473-1.1902s1.89352 2.27221 1.19021 3.62472l-.9738 1.89352 4.97724-9.84628c-.86561 1.24431-2.54273 1.56891-3.73294.7033-1.1361-.7574-1.5148-2.21811-.9197-3.40832l3.84113-7.73637c.6492-1.3525 2.27222-1.89351 3.62473-1.1902 1.3525.6492 1.89351 2.27221 1.1902 3.62472l-2.164 4.38214 6.16744-12.1726c-.7574 1.2984-2.38042 1.78531-3.67883 1.0279-.6492-.3787-1.1361-1.0279-1.29841-1.7853h-3.24603c-1.5148 0-2.70502-1.19022-2.70502-2.70503s1.19022-2.70502 2.70502-2.70502h11.307l-2.70502 5.35594 6.65435-13.1464c-.2164-.2164-.4328-.3787-.6492-.541-.3246-.27051-.70331-.54101-1.13611-.75742zM19.37703 21.0152l-4.05753 7.62816c-.7033 1.2984-2.32632 1.83941-3.67883 1.1361s-1.83941-2.32631-1.1361-3.67882l4.05752-7.62816c.70331-1.29842 2.32632-1.83942 3.67883-1.13612s1.83942 2.38043 1.13611 3.67884zM27.7085 5.21787l-4.05754 7.68226c-.7033 1.29841-2.32631 1.83941-3.67882 1.13611-1.29842-.7033-1.83942-2.32632-1.13611-3.67883l4.76084-9.08887h1.73121c.4328 0 .8656.1082 1.24431.3246 1.35251.7033 1.83941 2.32632 1.1361 3.62473z" class="st1"/><path id="Shape_12_" d="M-25.41813-6.90063c.3787-.2705.7574-.4869 1.1361-.7033L9.04386-23.67178c.2164-.0541.4328-.1082.6492-.1082.7033-.1082 1.40661-.1082 2.10992-.1082.3246 0 .7033 0 1.0279.0541.2164.0541.48691.0541.70331.1082.2164.0541.4869.1082.70331.2164l.3246.1623L47.88797-7.38754c.4328.2164.8115.4869 1.1361.75741.2164.1623.4328.3246.6492.541l1.02792-2.00171c-.54101-.4328-1.1361-.8656-1.78532-1.19021h-.1082L15.4818-25.29478c-1.1361-.541-2.43452-.8115-3.67883-.7574-1.082-.0541-2.16401.0541-3.24603.2705l-.2164.0541-.2164.1082-33.32587 16.06783c-.4328.2164-.8656.4869-1.24431.7574l.9738 1.94762.0541-.0541z" class="st2"/><path id="Shape_13_" d="M61.79178 32.15989l-.0541-.2164-8.33147-35.7063v-.1623c-.4869-1.56891-1.46071-3.02962-2.75913-4.05753l-1.0279 2.00171c.5951.59511 1.1361 1.29842 1.4607 2.05582.10821.2164.16231.4328.21642.6492l8.27737 35.7063c.05409.4869.05409.9197.05409 1.40661 0 .4328-.1082.8115-.1623 1.2443 0 .10821-.0541.2164-.0541.32461-.2164.8115-.5951 1.62302-1.08201 2.32632l-9.95448 12.3349-13.0923 16.17603c-.86561 1.19021-2.21812 1.94762-3.67884 2.16402-.4328.0541-.9197.1082-1.3525.1082H11.91116l8.33147 2.16402h10.00858c2.86732 0 5.24775-1.1361 6.76255-3.13783l23.0468-28.51093.0541-.0541.0541-.0541c1.3525-2.00171 1.94761-4.38213 1.62301-6.76255z" class="st2"/><path id="Shape_14_" d="M-6.48298 68.46128c-.2164 0-.4869-.0541-.7033-.0541-.3246-.0541-.5951-.1082-.91971-.2164l-.4869-.1623c-.3246-.1082-.64921-.2705-.91971-.3787-.4328-.2164-.86561-.4869-1.29841-.8115-.2705-.21642-.54101-.4328-.75741-.64922l-7.68226-9.52167-15.31043-19.04336c-.6492-.9197-1.082-2.00172-1.24431-3.19192-.0541-.2164-.0541-.4328-.0541-.64921 0-.4869 0-.9197.1082-1.40661l8.22327-35.9227c.0541-.3246.1623-.6492.3246-.9738.3787-.9197.9738-1.67712 1.73122-2.32632l-.97381-1.94762c-1.62302 1.13611-2.75913 2.81323-3.19193 4.76084l-8.22327 35.9227v.1082c-.4328 2.43452.1623 4.86903 1.56892 6.87075l.0541.0541.0541.0541 22.99269 28.56503.0541.10821.1082.0541c1.73121 1.73121 4.00343 2.75913 6.43795 2.92142h18.50235v-2.16402H-6.48298z" class="st2"/><path id="Shape_15_" d="M11.911 68.461v2.164h8.332z" class="st2"/><path id="Shape_16_" d="M2.9846 50.77044L-8.2142 27.94005-25.52632-6.84653c-.75741.5951-1.35252 1.40661-1.73122 2.32632l-.3246.9738-8.16917 35.9227c-.1082.4869-.1082.9197-.1082 1.4066 0 .21641 0 .43281.0541.70331.1623 1.13611.5951 2.21812 1.24431 3.19193l15.36453 19.04335 7.68226 9.41348c.2164.21641.4869.4328.7574.64921.37871.3246.81151.5951 1.29842.8115.3246.1623.5951.2705.9197.3787l.4869.1623c.27051.10822.59511.16232.91972.2164.2164.0541.4869.0541.7033.0541h18.39415L3.1469 50.60815l-.1623.1623z" class="st3"/><path id="Shape_17_" d="M-35.85952 33.7829c0-.4869 0-.9197.2705-1.40661" class="st0"/><path id="Shape_18_" d="M-10.1618 67.54157c-.48305-.45083-.96609-.90167-1.35252-1.3525.38643.45083.86947.90167 1.35251 1.3525z" class="st3"/><path id="Shape_19_" d="M-9.4044 68.13668c-.45084-.36067-.90168-.8115-1.35251-1.3525" class="st0"/><path id="Shape_20_" d="M-11.51432 66.13496l-7.68226-9.46757" class="st0"/><path id="Shape_21_" d="M-7.32154 68.43423l-1.21726-.40575" class="st0"/><path id="Shape_22_" d="M-8.106 68.59653c-.47735-.2705-.9547-.67626-1.3525-.94675.3978.2705.87515.67625 1.3525.94675z" class="st3"/><path id="Shape_23_" d="M42.64022 7.76059l-6.16745 12.1726-1.67711 3.35423c-.0541.1082-.1082.2164-.1623.2705l-4.97724 9.79218-2.92143 5.84284c-.0541.1082-.1623.2705-.2164.3787l-3.94933 7.84457c0 .0541 0 .0541-.0541.1082l-1.94762 3.89523c-.0541.1082-.1623.2705-.2164.3787l-8.38557 16.55474h18.34005c.4328 0 .91971-.0541 1.35251-.1082 1.46071-.2164 2.75913-.9738 3.67884-2.16402l13.0923-16.17603 9.95448-12.3349c.4869-.7033.8656-1.46071 1.08201-2.32632.0541-.1082.0541-.2164.0541-.3246.1082-.4328.1623-.8115.1623-1.2443 0-.48691 0-.91972-.0541-1.40662L51.3504-3.33001c-.0541-.2164-.1623-.4328-.2164-.6492-.3246-.7574-.86562-1.4607-1.46073-2.05582L43.01892 7.05728l-.3787.7033z" class="st4"/><path id="Shape_24_" d="M59.92531 33.7829c0 .47044-.2705.88207-.40574 1.35251" class="st0"/><path id="Shape_25_" d="M59.97941 35.35181c-.2705.47339-.541.94676-.94675 1.35251" class="st0"/><path id="Shape_26_" d="M31.60373 68.35308c1.46072-.2164 2.75912-.9738 3.67883-2.16402l13.09231-16.17603" class="st0"/><path id="Shape_27_" d="M59.68186 32.37629c.13525.4869.13525.9197.13525 1.4066" class="st0"/><path id="Shape_28_" d="M18.24092 17.33636c-1.2984-.7033-2.97552-.2164-3.67883 1.13612l-4.05753 7.62816c-.7033 1.2984-.2164 2.97552 1.13611 3.67883 1.29841.7033 2.97552.2164 3.67883-1.13611l4.05753-7.62816c.7033-1.29841.1623-2.97553-1.1361-3.67884z" class="st2"/><path id="Shape_29_" d="M21.27055 43.95378c-1.35251-.6492-2.97553-.1082-3.62473 1.19021l-1.94762 3.89523c-.6492 1.35252-.1082 2.97553 1.24431 3.62473 1.19021.59511 2.59683.2164 3.35423-.8115l2.21812-4.38214c.5951-1.2984.0541-2.86732-1.24431-3.51653z" class="st2"/><path id="Shape_30_" d="M22.51486 47.57851c0-.0541 0-.0541.0541-.1082l-2.21812 4.38214c.1082-.1082.1623-.2164.2164-.3787l1.94762-3.89524z" class="st2"/><path id="Shape_31_" d="M6.06832 45.03579l3.94934-7.41176c.7033-1.2984.2164-2.97552-1.13611-3.67883-1.29841-.7033-2.97553-.2164-3.67884 1.13611L3.0387 39.19294-12.21763 6.78678h9.68398l8.87247 16.44653.1082-.0541 2.97553-5.57234L.65828 1.37674H-21.2524l12.9841 26.50921 11.307 22.72219 3.02962-5.57235z" class="st2"/><path id="Shape_32_" d="M3.039 50.662L-8.214 27.94 2.985 50.77z" class="st2"/><path id="Shape_33_" d="M45.66985 1.70134h-11.307c-1.5148 0-2.70502 1.1902-2.70502 2.70502s1.19022 2.70502 2.70502 2.70502h3.24603c.3246 1.46071 1.78532 2.38042 3.24603 2.05582.7574-.1623 1.40661-.6492 1.78531-1.29841l.3787-.7574 2.65093-5.41005z" class="st2"/><path id="Shape_34_" d="M43.587 7.057L42.64 8.41l.135-.097z" class="st2"/><path id="Shape_35_" d="M38.6368 15.60515c.7033-1.3525.1623-2.97552-1.19022-3.62473-1.35251-.6492-2.97553-.1623-3.62473 1.19021v.0541l-3.84113 7.73637c-.6492 1.3525-.1082 2.97552 1.24431 3.62473 1.19021.5951 2.65092.2164 3.40833-.91971l1.83941-3.67883 2.16402-4.38214z" class="st2"/><path id="Shape_36_" d="M36.47277 19.98729l-1.83941 3.67883c.0541-.1082.1082-.2164.1623-.2705l1.67711-3.40833z" class="st2"/><path id="Shape_37_" d="M30.57582 31.56478c.64921-1.3525.1082-2.97552-1.1902-3.62473s-2.97553-.1082-3.62474 1.19021l-3.84113 7.73636c-.6492 1.35252-.1082 2.97553 1.24432 3.62473 1.1902.59511 2.59681.2164 3.35422-.8115l3.13783-6.22155.9197-1.89352z" class="st2"/><path id="Shape_38_" d="M29.65612 33.4583l-3.13783 6.22155c.1082-.1082.1623-.2705.2164-.3787l2.92143-5.84285z" class="st2"/><path id="Shape_39_" d="M26.57239 1.59314c-.3787-.2164-.8115-.3246-1.2443-.3246h-1.67713l-4.76083 9.08887c-.86561 1.2443-.541 2.92142.7033 3.78703 1.24432.8656 2.92143.541 3.78704-.7033.1082-.1623.2164-.3246.2705-.541l4.05753-7.62817c.7033-1.35251.2164-2.97553-1.13611-3.67883.0541 0 0 0 0 0z" class="st2"/></g></g></g><path id="Shape_40_" d="M-35.80542 34.4862c.1623 1.13611.5951 2.21812 1.24431 3.19194l15.36453 18.98925-15.36453-19.04336c-.6492-.9197-1.082-2.00172-1.24431-3.13782z" class="st0"/><path id="Shape_41_" d="M-35.72427 35.13541c-.13525-.5202-.13525-.93635-.13525-1.35251 0 .41616 0 .83232.13525 1.35251z" class="st0"/><path id="Shape_42_" d="M-6.75348 68.73179c-.47736-.13526-.87516-.2705-1.35251-.541.47735.13524.87515.40574 1.35251.541z" class="st0"/><path id="Shape_43_" d="M12.83088-23.83407c.41616.13525.93635.13525 1.3525.2705-.41615-.13525-.93634-.13525-1.3525-.2705z" class="st0"/><path id="Shape_44_" d="M47.83387-7.38754c.51524.38644.96607.86948 1.35251 1.35251-.38644-.48303-.83727-.96607-1.35251-1.3525z" class="st0"/><path id="Shape_45_" d="M59.60071 35.02721c0 .2705-.13525.541-.13525.8115 0-.2705 0-.541.13525-.8115z" class="st0"/><path id="Shape_46_" d="M13.48009-23.72587c.41615.13525.93635.2705 1.3525.541-.41615-.13525-.83231-.40575-1.3525-.541z" class="st0"/><path id="Shape_47_" d="M47.83387-7.38754L14.50799-23.34717l-.3246-.1623.3246.1623L47.83387-7.38754z" class="st0"/><path id="Shape_48_" d="M12.83088-23.75292c-.3246-.13525-.7033-.13525-1.0279-.13525-.70332 0-1.35252 0-2.05583.2705.6492-.2705 1.35251-.2705 2.05582-.2705.3246 0 .7033 0 1.0279.13525z" class="st0"/><path id="Shape_49_" d="M9.04385-23.67177L-24.28202-7.60394c-.3787.1623-.81151.4328-1.13611.7033.3787-.2705.7574-.4869 1.1361-.7033L9.04386-23.67177z" class="st0"/><path id="Shape_50_" d="M11.91117 68.62359H-6.48298c-.2164 0-.4869 0-.7033-.13526.2164.13526.4869.13526.7033.13526h36.7342c.4328 0 .9197-.13526 1.35251-.2705-.4328.13524-.9197.2705-1.35251.2705H11.91117z" class="st0"/><path id="Shape_51_" d="M59.68186 32.37629L51.3504-3.33001c-.0541-.2164-.1623-.4328-.2164-.6492.1082.2164.1623.4328.2164.6492l8.33146 35.7063z" class="st0"/><path id="Shape_52_" d="M52.4865 44.8735l5.84285-7.24947c.2705-.3787.4869-.7574.7033-1.19021-.2164.4328-.4328.81151-.7033 1.19021L52.4865 44.8735z" class="st0"/><path id="Shape_53_" d="M-27.52805-3.5464l-8.22327 35.92268 8.22327-35.92268c.2705-1.29842 1.0279-2.43453 2.05582-3.30013l.0541-.0541c-1.08201.8115-1.83942 2.00172-2.10992 3.35423z" class="st0"/><path id="Shape_54_" d="M-8.2142 27.94005L-21.1983 1.43084H.71238l8.76427 16.17603-3.02962 5.57234-.1082.0541-8.87248-16.44653h-9.68398L3.0387 39.13884l2.16401-4.11163c.70331-1.29841 2.32633-1.83941 3.67884-1.1361 1.2984.7033 1.83941 2.3263 1.1361 3.67882L6.06833 44.9817 3.0387 50.60814l8.87247 17.79904 8.38557-16.55473c-.8656 1.19021-2.59682 1.46071-3.78703.5951-1.08201-.7574-1.40661-2.21812-.8115-3.35423l1.9476-3.89522c.75742-1.29842 2.38042-1.73122 3.67884-.97381 1.1361.6492 1.62301 2.05582 1.1902 3.30012l3.94934-7.79046c-.8656 1.1902-2.59682 1.46071-3.78703.541-1.02791-.7574-1.40661-2.16401-.81151-3.35422l3.89523-7.73637c.6492-1.3525 2.27222-1.89351 3.62473-1.1902s1.89352 2.27221 1.19021 3.62472l-.9738 1.89352 4.97724-9.84628c-.86561 1.24431-2.54273 1.56891-3.73294.7033-1.1361-.7574-1.5148-2.21811-.9197-3.40832l3.84113-7.73637c.6492-1.3525 2.27222-1.89351 3.62473-1.1902 1.3525.6492 1.89351 2.27221 1.1902 3.62472l-2.164 4.38214 6.16744-12.1726c-.7574 1.2984-2.38042 1.78531-3.67883 1.0279-.6492-.3787-1.1361-1.0279-1.29841-1.7853h-3.24603c-1.5148 0-2.70502-1.19022-2.70502-2.70503s1.19022-2.70502 2.70502-2.70502h11.307l-2.70502 5.35594 6.65435-13.1464c-.2164-.2164-.4328-.3787-.6492-.541-.3787-.27051-.75741-.54101-1.13611-.75742L14.50799-23.34717l-.3246-.1623c-.2164-.1082-.4328-.1623-.7033-.2164-.21641-.0541-.43281-.1082-.64921-.1082-.3246-.0541-.7033-.0541-1.0279-.0541-.70332 0-1.35252 0-2.05583.1082-.2164.0541-.4328.0541-.7033.1082L-24.28202-7.60394c-.3787.1623-.81151.4328-1.13611.7033l-.0541.0541 17.25804 34.7866zm27.10433-17.58264l4.76083-9.08887h1.73122c.4328 0 .8656.1082 1.24431.3246 1.29841.7033 1.83942 2.32632 1.13611 3.67883l-4.11164 7.62816c-.7033 1.29841-2.32631 1.83941-3.67882 1.13611-1.29842-.7033-1.78532-2.32632-1.082-3.67883zm-8.33147 15.79733l4.05753-7.62816c.7033-1.29841 2.32632-1.83942 3.67883-1.13611 1.35251.7033 1.83942 2.32632 1.13611 3.67883l-4.05753 7.62816c-.7033 1.29841-2.32632 1.83942-3.67883 1.13611s-1.83941-2.38042-1.13611-3.67883z" class="st1"/><path id="Shape_55_" d="M-29.69207-4.0333l-8.16917 35.92269v.1082c-.4328 2.43452.1623 4.86903 1.56892 6.87075l.0541.0541.0541.0541 22.99269 28.56503.0541.10821.1082.0541c1.73121 1.7312 4.00343 2.75913 6.43795 2.92142h36.8424c2.86732 0 5.24774-1.1361 6.76255-3.13783l23.0468-28.51093.0541-.0541.0541-.0541c1.4066-1.94761 2.00171-4.38213 1.6771-6.76255l-.05409-.2164-8.33147-35.7604v-.1623c-.7574-2.27222-2.38042-4.21983-4.54444-5.30184h-.1082L15.4818-25.29478c-1.1361-.541-2.43452-.8115-3.67883-.7574-1.082-.0541-2.16401.0541-3.24603.2705l-.2164.0541-.2164.1082-33.32587 16.06783c-2.27222 1.0279-3.89523 3.08372-4.49034 5.51824zm5.46415-3.57064L9.04385-23.67177c.2164-.0541.4328-.1082.6492-.1082.7033-.1082 1.40661-.1082 2.10992-.1082.3246 0 .7033 0 1.0279.0541.2164.0541.48691.0541.70331.1082.2164.0541.4869.1082.70331.2164l.3246.1623L47.88797-7.38754c.4328.2164.8115.4869 1.1361.75741.2164.1623.4328.3246.6492.541.59511.59511 1.13612 1.29842 1.46072 2.05582.1082.2164.1623.4328.2164.6492l8.33147 35.7604c.1082.8656.0541 1.78531-.1623 2.65092 0 .1082-.0541.2164-.0541.3246-.2164.81151-.5951 1.62302-1.08201 2.32632L52.5406 44.9276 35.33667 66.18906c-.86562 1.19022-2.21813 1.94762-3.67884 2.16402-.4328.0541-.9197.1082-1.3525.1082H-6.48299c-.2164 0-.4869-.0541-.7033-.0541-.3246-.0541-.5951-.1082-.91971-.2164-1.29841-.3787-2.48862-1.082-3.46243-2.00172l-7.68226-9.52167-15.31043-19.04336c-.6492-.9197-1.082-2.00172-1.24431-3.19192-.0541-.2164-.0541-.4328-.0541-.64921 0-.4869 0-.9197.1082-1.40661l8.22327-35.9227c.3246-1.3525 1.082-2.48861 2.16402-3.35422.3246-.2705.7033-.541 1.1361-.7033z" class="st2"/><path id="Shape_56_" d="M11.91117 68.46128L3.0387 50.66224l-.1082.1623-11.1447-22.88449-17.31213-34.78658c-1.02791.8115-1.78532 2.00171-2.05582 3.30013l-8.16917 35.92268c-.1082.48691-.1082.91971-.1082 1.40662 0 .2164 0 .4328.0541.7033.1623 1.13611.5951 2.21812 1.24431 3.19193l15.36453 19.04335 7.68226 9.41348c.9738.97381 2.16402 1.62302 3.40833 2.00172.2705.1082.5951.1623.9197.2164.2164.0541.4869.0541.70331.0541h18.39415v.0541z" class="st3"/><path id="Shape_57_" d="M42.64022 7.76059l-6.16745 12.1726-1.67711 3.35423c-.0541.1082-.1082.2164-.1623.2705l-4.97724 9.79218-2.92143 5.84284c-.0541.1082-.1623.2705-.2164.3787l-3.94933 7.84457c0 .0541 0 .0541-.0541.1082l-1.94762 3.89523c-.0541.1082-.1623.2705-.2164.3787l-8.38557 16.55474h18.34005c.4328 0 .91971-.0541 1.35251-.1082 1.46071-.2164 2.75913-.9738 3.67884-2.16402L52.5406 44.81939l5.84285-7.24946c.4869-.7033.8656-1.46071 1.08201-2.32632.0541-.1082.0541-.2164.0541-.3246.2164-.8656.2705-1.73121.1623-2.65092L51.4045-3.43821c-.0541-.2164-.1623-.4328-.2164-.6492-.3246-.7574-.86562-1.46071-1.46072-2.05582L43.07302 6.94908l-.4328.8115z" class="st4"/><path id="Shape_58_" d="M11.64067 29.77947c1.29841.7033 2.97552.2164 3.67883-1.13611l4.05753-7.62816c.7033-1.29841.2164-2.97553-1.1361-3.67884-1.29842-.7033-2.97553-.2164-3.67884 1.13612l-4.05753 7.62816c-.6492 1.3525-.1623 2.97552 1.13611 3.67883z" class="st2"/><path id="Shape_59_" d="M22.51486 47.57851c0-.0541 0-.0541.0541-.1082.541-1.4066-.1623-2.97552-1.56892-3.46242-1.2443-.4869-2.65092.0541-3.30012 1.1902l-1.94762 3.89523c-.6492 1.35252-.1082 2.97553 1.24431 3.62474 1.35251.6492 2.92143.1082 3.62473-1.19022l1.89352-3.94933z" class="st2"/><path id="Shape_60_" d="M3.0387 50.66224l3.02962-5.62645 3.94934-7.41176c.7033-1.2984.2164-2.97552-1.13611-3.67883-1.29841-.7033-2.97553-.2164-3.67884 1.13611L3.0387 39.19294-12.21763 6.78678h9.68398l8.87247 16.44653.1082-.0541 2.97553-5.57234L.65828 1.37674H-21.2524l12.9841 26.50921L2.9846 50.77044l.0541-.1082z" class="st2"/><path id="Shape_61_" d="M43.01892 7.05728l2.70503-5.35594h-11.307c-1.5148 0-2.70501 1.1902-2.70501 2.70502s1.1902 2.70502 2.70502 2.70502h3.24602C37.98758 8.5721 39.4483 9.4918 40.909 9.1672c.7574-.1623 1.40661-.6492 1.78531-1.29841l.0541-.0541.2705-.7574z" class="st2"/><path id="Shape_62_" d="M36.47277 19.98729l2.16402-4.38214c.7033-1.3525.1623-2.97552-1.19021-3.62473-1.35251-.6492-2.97553-.1623-3.62473 1.19021v.0541l-3.84113 7.73637c-.6492 1.3525-.1082 2.97552 1.24431 3.62472 1.35251.64921 2.92142.1082 3.62473-1.1902l1.62301-3.40833z" class="st2"/><path id="Shape_63_" d="M29.65612 33.4583l.9738-1.89352c.64921-1.3525.1082-2.97552-1.1902-3.62473-1.29842-.6492-2.97553-.1082-3.62473 1.19021l-3.84114 7.73636c-.6492 1.35252-.1082 2.97553 1.24431 3.62473 1.35251.64921 2.92143.1082 3.62473-1.1902l2.81323-5.84285z" class="st2"/><path id="Shape_64_" d="M20.02624 14.03624c1.29841.7033 2.92142.2164 3.62472-1.1361l4.05754-7.62817c.7033-1.29841.2164-2.97553-1.13611-3.67883-.3787-.2164-.8115-.3246-1.2443-.3246h-1.67713l-4.76083 9.08887c-.6492 1.35251-.1623 2.92142 1.1361 3.67883z" class="st2"/></g></g></svg>