<svg xmlns="http://www.w3.org/2000/svg" role="img" viewBox="-9.94 -9.94 516.88 233.38"><title>uima.input.svg logo</title><g><path fill="#49830d" stroke="#3a3a3a" stroke-linecap="round" stroke-linejoin="bevel" stroke-opacity=".854" stroke-width="2" d="M-530.679 43H-447.524V126.155H-530.679z" transform="translate(531.679 -21.048)"/><path fill="#253d93" stroke="#3a3a3a" stroke-linecap="round" stroke-linejoin="bevel" stroke-opacity=".854" stroke-width="2" d="M-530.679 130.388H-447.524V213.543H-530.679z" transform="translate(531.679 -21.048)"/><path fill="#e89800" stroke="#3a3a3a" stroke-linecap="round" stroke-linejoin="bevel" stroke-opacity=".854" stroke-width="2" d="M-439.79 -72.77H-356.635V10.385000000000005H-439.79z" transform="rotate(-15 185.902 -2029.774)"/><path fill="#d80028" stroke="#3a3a3a" stroke-linecap="round" stroke-linejoin="bevel" stroke-opacity=".854" stroke-width="2" d="M-443.29 130.388H-360.135V213.543H-443.29z" transform="translate(531.679 -21.048)"/><g fill="#253d93" stroke-width="3.524"><path d="m -389.48316,-64.946482 q 2.93394,0 4.92145,2.034829 2.03483,2.03483 2.03483,4.921448 0,2.886619 -2.03483,4.921448 -2.03483,2.03483 -4.92145,2.03483 -2.83929,0 -4.87412,-2.03483 -2.03483,-2.034829 -2.03483,-4.921448 0,-2.886618 1.98751,-4.921448 2.03483,-2.034829 4.92144,-2.034829 z m 2.93394,21.767942 -9.70093,33.6456679 q -0.80446,2.8866184 -0.80446,3.7857291 0,0.5205378 0.42589,0.9937539 0.42589,0.4258945 0.89911,0.4258945 0.80447,0 1.60894,-0.7098242 2.12947,-1.7508997 5.11073,-6.3410962 l 1.60893,0.946432 q -7.14556,12.4455847 -15.19023,12.4455847 -3.07591,0 -4.92145,-1.70357812 -1.79822,-1.75089968 -1.79822,-4.40091008 0,-1.7508997 0.80446,-4.4482317 l 6.57771,-22.6197318 q 0.94643,-3.265191 0.94643,-4.921447 0,-1.041076 -0.89911,-1.845543 -0.89911,-0.804468 -2.46072,-0.804468 -0.70983,0 -1.70358,0.04732 l 0.61518,-1.892865 16.04203,-2.602689 z" transform="rotate(-15 185.902 -2029.774)"/></g><g fill="#e89800" stroke-width="3.18"><path d="m -551.14309,126.55977 4.2701,39.79729 27.54211,-39.79729 h 20.28295 l -0.51241,1.57994 q -4.18469,0 -6.36244,1.79344 -2.17775,1.79344 -3.71498,7.08836 l -10.67524,37.06442 q -1.02482,3.50148 -1.02482,5.20952 0,1.57993 1.28103,2.56206 1.28102,0.93942 5.03871,1.02482 l -0.38431,1.57994 h -28.90855 l 0.51242,-1.57994 q 4.6544,0 6.87485,-1.75074 2.22045,-1.79344 3.75768,-7.04566 l 10.88875,-37.53414 -33.13594,47.91048 h -1.75074 l -5.20952,-48.8499 -11.05955,38.47356 q -0.68321,2.34856 -0.68321,3.92849 0,2.13505 1.45183,3.45878 1.49453,1.28103 5.03871,1.40913 l -0.42701,1.57994 h -19.13002 l 0.3843,-1.57994 q 3.45878,-0.1281 5.29492,-1.45183 3.24528,-2.39126 4.69711,-7.34457 l 12.51138,-42.78635 q -1.79344,-1.96425 -3.24528,-2.56206 -1.40913,-0.59781 -4.7825,-0.59781 l 0.51241,-1.57994 z" transform="matrix(.90236 0 0 1.10821 531.679 -21.048)"/></g><g fill="#49830d" stroke-width="3.451"><path d="m -391.63012,204.17833 -6.16859,-14.33012 h -27.80614 l -6.16859,14.33012 h -15.75365 l 28.66025,-66.33614 h 14.33012 l 28.66025,66.33614 z m -20.02421,-46.59663 -8.35133,19.265 h 16.60776 z" transform="matrix(.97923 0 0 1.02121 531.679 -21.048)"/></g><g fill="#d80028" stroke-width="3.451"><path d="m -532.52605,52.265067 h 32.43703 v 1.714528 h -1.62185 q -3.66075,0 -5.05091,0.787757 -1.34382,0.741418 -1.94622,2.085237 -0.55607,1.34382 -0.55607,6.7191 v 30.768839 q 0,8.433632 1.25115,11.167602 1.29748,2.73398 4.21681,4.54119 2.91933,1.8072 7.36784,1.8072 5.09725,0 8.66532,-2.27059 3.61441,-2.31693 5.37528,-6.34839 1.8072,-4.031457 1.8072,-14.040598 V 63.571689 q 0,-4.216814 -0.88043,-6.02402 -0.88043,-1.807206 -2.22425,-2.502285 -2.08524,-1.065789 -5.88501,-1.065789 v -1.714528 h 21.73281 v 1.714528 h -1.29748 q -2.6413,0 -4.40217,1.065789 -1.76086,1.065788 -2.54862,3.197364 -0.6024,1.482836 -0.6024,5.328941 v 23.864386 q 0,11.074929 -1.48284,15.986825 -1.43649,4.91189 -7.08981,9.03603 -5.65331,4.12413 -15.43075,4.12413 -8.1556,0 -12.60411,-2.17791 -6.07036,-2.96567 -8.57264,-7.59953 -2.50229,-4.63387 -2.50229,-12.465092 V 63.571689 q 0,-5.421618 -0.6024,-6.7191 -0.6024,-1.343819 -2.08524,-2.131576 -1.48283,-0.787756 -5.46795,-0.741418 z" transform="matrix(.97923 0 0 1.02121 531.679 -21.048)"/></g><g stroke-width=".619"><path d="M-371.38157 224.9594v10.05252h-2.0071V224.9594h-3.60598v-1.83701h9.21906v1.83701zM-363.59954 235.01192h-2.0071v-11.88953h3.12972l3.58897 7.4671 3.58897-7.4671h3.11271v11.88953h-2.0071v-9.2871l-4.15028 8.24953h-1.12262l-4.13327-8.24953z" transform="translate(531.679 -21.048)"/></g><path d="M-325.945 21.833H-319.768V212.333H-325.945z" transform="translate(531.679 -21.048)"/><g fill="#33418f" stroke-width=".969"><path d="M-303.27364 48.426948q1.9844 2.315132 5.37442 2.315132 3.39001 0 5.37441-2.315132 1.9844-2.315132 1.9844-6.283929V26.143804h4.87831v16.205923q0 6.242588-3.43135 9.632602-3.43136 3.348673-8.80577 3.348673-5.37442 0-8.80577-3.348673-3.43136-3.390014-3.43136-9.632602V26.143804h4.87831v15.999215q0 3.968797 1.9844 6.283929zM-274.30477 43.135218v11.906393h-4.63027V33.047858h4.63027v4.010139q1.11622-2.02574 3.05928-3.183306 1.9844-1.157566 4.25819-1.157566 3.72074 0 5.99453 2.27379 2.31514 2.27379 2.31514 6.573321v13.477375h-4.63027V42.969852q0-6.077221-5.04368-6.077221-2.39781 0-4.1755 1.612324-1.77769 1.570982-1.77769 4.630263zM-236.53983 48.46829q0 3.141965-2.27379 5.04368-2.27379 1.860374-5.82917 1.860374-2.39782 0-5.00234-.868175-2.56318-.868174-4.54758-2.439156l2.23245-3.596723q3.84477 2.893915 7.44149 2.893915 1.57099 0 2.4805-.702808.90952-.74415.90952-1.860374 0-1.653666-4.38222-2.976598-.33073-.124025-.49609-.165367-6.86272-1.860373-6.86272-6.201246 0-3.059281 2.35648-4.878313 2.39781-1.860374 6.20124-1.860374 3.80343 0 7.19345 2.232448l-1.73635 3.431357q-2.68721-1.777691-5.82917-1.777691-1.65367 0-2.68721.620125-1.03354.578783-1.03354 1.77769 0 1.074883 1.07488 1.570983.74415.372074 2.06708.702807 1.36428.330734 2.39782.661467 1.03354.330733 1.9844.744149.9922.413417 2.10842 1.157566 2.23245 1.488299 2.23245 4.630264zM-225.59011 36.768606v11.162243q0 1.570982.82683 2.52184.82684.909516 2.31514.909516 1.48829 0 2.85257-1.446958l1.90171 3.26599q-2.43915 2.191107-5.41575 2.191107-2.93526 0-5.04368-2.025741-2.06708-2.067082-2.06708-5.539779V36.768606h-2.76989v-3.720748h2.76989v-6.904054h4.63026v6.904054h5.78783v3.720748zM-202.48142 37.38873q-3.43136 0-5.1677 2.232449-1.73635 2.232448-1.73635 5.994538v9.425894h-4.63027V33.047858h4.63027v4.423556q1.11622-2.067083 3.01794-3.390015 1.94305-1.322932 4.09282-1.364274l.0413 4.671605q-.12402 0-.24805 0zM-182.24534 44.95425V33.047858h4.63027v21.993753h-4.63027v-4.010139q-1.11622 2.02574-3.10062 3.183306-1.94306 1.157566-4.21685 1.157566-3.72074 0-6.03588-2.27379-2.27379-2.273791-2.27379-6.573321V33.047858h4.63027v12.071759q0 6.077221 5.04368 6.077221 2.39781 0 4.1755-1.570982 1.77769-1.612324 1.77769-4.671606zM-161.14107 55.372344q-4.58892 0-7.89625-3.100623-3.30733-3.141965-3.30733-8.185645 0-5.04368 3.43135-8.185645 3.4727-3.183306 8.4337-3.183306 4.96099 0 8.39235 3.431356l-2.72855 3.348673q-2.85257-2.480499-5.74649-2.480499-2.89391 0-5.04368 1.943058-2.10842 1.901715-2.10842 4.960996 0 3.01794 2.10842 5.126364 2.10843 2.108424 5.16771 2.108424 3.10062 0 5.82917-2.811232l2.72855 2.976598q-4.01014 4.051481-9.26053 4.051481zM-141.37266 36.768606v11.162243q0 1.570982.82683 2.52184.82683.909516 2.31513.909516 1.4883 0 2.85257-1.446958l1.90172 3.26599q-2.43916 2.191107-5.41576 2.191107-2.93525 0-5.04368-2.025741-2.06708-2.067082-2.06708-5.539779V36.768606h-2.76989v-3.720748h2.76989v-6.904054h4.63027v6.904054h5.78783v3.720748zM-114.41921 44.95425V33.047858h4.63026v21.993753h-4.63026v-4.010139q-1.11622 2.02574-3.10062 3.183306-1.94306 1.157566-4.21685 1.157566-3.72075 0-6.03588-2.27379-2.27379-2.273791-2.27379-6.573321V33.047858h4.63026v12.071759q0 6.077221 5.04368 6.077221 2.39782 0 4.17551-1.570982 1.77769-1.612324 1.77769-4.671606zM-91.537252 37.38873q-3.431356 0-5.167705 2.232449-1.736349 2.232448-1.736349 5.994538v9.425894h-4.630264V33.047858h4.630264v4.423556q1.116225-2.067083 3.01794-3.390015 1.943057-1.322932 4.092822-1.364274l.04134 4.671605q-.124025 0-.24805 0zM-66.216146 46.070475H-83.45561q.165367 2.397815 2.191107 3.886114 2.02574 1.446957 4.630264 1.446957 4.134164 0 6.283929-2.604523l2.645865 2.893915q-3.555381 3.679406-9.260527 3.679406-4.630264 0-7.896254-3.059282-3.224648-3.100623-3.224648-8.268328 0-5.209046 3.307332-8.268328 3.307331-3.059281 7.772228-3.059281 4.506239 0 7.648204 2.728548 3.141964 2.687207 3.141964 7.441495zM-83.45561 42.43241h12.609201q0-2.76989-1.736349-4.258189-1.736349-1.488299-4.299531-1.488299-2.52184 0-4.54758 1.570983-2.025741 1.52964-2.025741 4.175505zM-52.193588 55.372344q-4.175506 0-7.276129-3.141965-3.100623-3.141965-3.100623-8.268328 0-5.126363 3.183306-8.185645 3.183307-3.059281 7.56552-3.059281 4.423556 0 7.110763 3.720748v-12.07176h4.630263v30.675498h-4.630263v-3.307332q-2.563182 3.638065-7.482837 3.638065zm-5.746488-11.203585q0 3.141965 2.02574 5.126364 2.02574 1.984398 4.754289 1.984398 2.728548 0 4.630263-1.984398 1.901716-2.025741 1.901716-5.167705 0-3.141965-1.901716-5.250389-1.901715-2.108423-4.671605-2.108423-2.76989 0-4.754289 2.108423-1.984398 2.108424-1.984398 5.29173zM-309.76427 63.773175h4.87831v28.897807h-4.87831zM-293.11845 80.76459v11.906392h-4.63026V70.677229h4.63026v4.01014q1.11622-2.025741 3.05928-3.183307 1.9844-1.157566 4.25819-1.157566 3.72075 0 5.99454 2.273791 2.31513 2.27379 2.31513 6.57332v13.477375h-4.63026V80.599223q0-6.077221-5.04368-6.077221-2.39782 0-4.17551 1.612324-1.77769 1.570982-1.77769 4.630264zM-265.55908 68.858197v1.819032h5.78783v3.720748h-5.78783v18.273005h-4.63026V74.397977h-2.76989v-3.720748h2.76989v-1.695007q0-3.472698 2.06708-5.498438 2.10842-2.067082 5.04368-2.067082 2.9766 0 5.41575 2.191107l-1.90171 3.265989q-1.36428-1.446957-2.85258-1.446957-1.48829 0-2.31513.950858-.82683.909516-.82683 2.480498zM-250.71549 86.883152q1.9844 1.984399 5.00234 1.984399 3.01794 0 4.96099-1.984399 1.9844-2.02574 1.9844-5.209046 0-3.183307-1.9844-5.167705-1.94305-2.025741-4.96099-2.025741-3.01794 0-5.00234 2.025741-1.94306 1.984398-1.94306 5.167705 0 3.183306 1.94306 5.209046zm13.27066 2.852574q-3.30733 3.265989-8.26832 3.265989-4.961 0-8.26833-3.265989-3.30733-3.307332-3.30733-8.06162 0-4.754289 3.30733-8.020278 3.30733-3.307332 8.26833-3.307332 4.96099 0 8.26832 3.307332 3.30734 3.265989 3.30734 8.020278 0 4.754288-3.30734 8.06162zM-217.33857 75.018102q-3.43136 0-5.16771 2.232448-1.73635 2.232449-1.73635 5.994538v9.425894h-4.63026V70.677229h4.63026v4.423556q1.11623-2.067082 3.01794-3.390015 1.94306-1.322932 4.09282-1.364274l.0413 4.671606q-.12403 0-.24805 0zM-207.85132 80.76459v11.906392h-4.63026V70.677229h4.63026v4.01014q.9922-2.025741 2.9766-3.183307 2.02574-1.157566 4.34087-1.157566 5.20905 0 7.06942 4.299531 3.26599-4.299531 8.14431-4.299531 3.72074 0 5.99453 2.273791 2.31514 2.27379 2.31514 6.57332v13.477375h-4.63027V80.599223q0-6.077221-5.04368-6.077221-2.35647 0-4.13416 1.529641-1.73635 1.488299-1.81903 4.382214v12.237125h-4.63027V80.599223q0-3.141965-1.11622-4.588922-1.11623-1.488299-3.51404-1.488299-2.39782 0-4.17551 1.612324-1.77769 1.570982-1.77769 4.630264zM-152.75648 92.670982h-4.21685v-2.935256q-2.72855 3.265989-7.31747 3.265989-3.43135 0-5.70515-1.943057-2.23244-1.943057-2.23244-5.167705 0-3.265989 2.39781-4.878313 2.39782-1.612324 6.49064-1.612324h5.99454v-.826833q0-4.382214-4.87832-4.382214-3.05928 0-6.36661 2.232448l-2.06708-2.893914q4.01014-3.183307 9.09516-3.183307 3.88611 0 6.32527 1.984399 2.4805 1.943057 2.4805 6.159904zm-4.63026-8.185645v-1.860373h-5.20905q-5.00234 0-5.00234 3.141964 0 1.612324 1.24025 2.480499 1.24025.826832 3.43136.826832 2.23244 0 3.88611-1.240249 1.65367-1.240249 1.65367-3.348673zM-140.80745 74.397977V85.56022q0 1.570982.82683 2.52184.82684.909516 2.31514.909516 1.4883 0 2.85257-1.446957l1.90172 3.265989q-2.43916 2.191107-5.41576 2.191107-2.93526 0-5.04368-2.02574-2.06708-2.067082-2.06708-5.53978V74.397977h-2.76989v-3.720748h2.76989v-6.904054h4.63026v6.904054h5.78783v3.720748zM-124.60282 92.670982h-4.63026V70.677229h4.63026zm-4.34087-26.375966q-.86818-.868175-.86818-2.067083 0-1.198907.86818-2.067082.86817-.868174 2.06708-.868174 1.19891 0 2.06708.868174.86818.868175.86818 2.067082 0 1.198908-.86818 2.067083-.86817.868174-2.06708.868174-1.19891 0-2.06708-.868174zM-112.80237 86.883152q1.9844 1.984399 5.00234 1.984399 3.01794 0 4.961-1.984399 1.9844-2.02574 1.9844-5.209046 0-3.183307-1.9844-5.167705-1.94306-2.025741-4.961-2.025741-3.01794 0-5.00234 2.025741-1.94306 1.984398-1.94306 5.167705 0 3.183306 1.94306 5.209046zm13.270668 2.852574q-3.307328 3.265989-8.268328 3.265989-4.961 0-8.26833-3.265989-3.30733-3.307332-3.30733-8.06162 0-4.754289 3.30733-8.020278 3.30733-3.307332 8.26833-3.307332 4.961 0 8.268328 3.307332 3.307331 3.265989 3.307331 8.020278 0 4.754288-3.307331 8.06162zM-86.329505 80.76459v11.906392h-4.630263V70.677229h4.630263v4.01014q1.116225-2.025741 3.059282-3.183307 1.984399-1.157566 4.258189-1.157566 3.720747 0 5.994538 2.273791 2.315132 2.27379 2.315132 6.57332v13.477375h-4.630264V80.599223q0-6.077221-5.04368-6.077221-2.397815 0-4.175506 1.612324-1.777691 1.570982-1.777691 4.630264zM-304.88596 130.30035h-4.87831v-28.8978h7.60686l8.72308 18.14898 8.72309-18.14898h7.56552v28.8978h-4.87831v-22.57253l-10.08736 20.05069h-2.72855l-10.04602-20.05069zM-251.99256 130.30035h-4.21685v-2.93525q-2.72855 3.26599-7.31747 3.26599-3.43135 0-5.70515-1.94306-2.23244-1.94306-2.23244-5.16771 0-3.26599 2.39781-4.87831 2.39782-1.61232 6.49064-1.61232h5.99454v-.82684q0-4.38221-4.87832-4.38221-3.05928 0-6.36661 2.23245l-2.06708-2.89392q4.01014-3.1833 9.09516-3.1833 3.88611 0 6.32527 1.9844 2.4805 1.94305 2.4805 6.1599zm-4.63026-8.18564v-1.86038h-5.20905q-5.00234 0-5.00234 3.14197 0 1.61232 1.24025 2.4805 1.24025.82683 3.43136.82683 2.23244 0 3.88611-1.24025 1.65367-1.24025 1.65367-3.34867zM-240.87618 118.39396v11.90639h-4.63026V108.3066h4.63026v4.01014q1.11622-2.02574 3.05928-3.18331 1.9844-1.15756 4.25819-1.15756 3.72075 0 5.99454 2.27379 2.31513 2.27379 2.31513 6.57332v13.47737h-4.63026v-12.07176q0-6.07722-5.04368-6.07722-2.39782 0-4.17551 1.61233-1.77769 1.57098-1.77769 4.63026zM-200.96148 130.30035h-4.21684v-2.93525q-2.72855 3.26599-7.31747 3.26599-3.43136 0-5.70515-1.94306-2.23245-1.94306-2.23245-5.16771 0-3.26599 2.39782-4.87831 2.39781-1.61232 6.49063-1.61232h5.99454v-.82684q0-4.38221-4.87831-4.38221-3.05928 0-6.36661 2.23245l-2.06709-2.89392q4.01014-3.1833 9.09517-3.1833 3.88611 0 6.32527 1.9844 2.48049 1.94305 2.48049 6.1599zm-4.63026-8.18564v-1.86038h-5.20905q-5.00233 0-5.00233 3.14197 0 1.61232 1.24025 2.4805 1.24024.82683 3.43135.82683 2.23245 0 3.88612-1.24025 1.65366-1.24025 1.65366-3.34867zM-174.13527 108.3066v19.18252q0 5.82917-3.1833 8.72309-3.14197 2.93525-8.10297 2.93525-4.96099 0-8.97113-3.10062l2.19111-3.51404q3.22464 2.43916 6.49063 2.43916 3.30733 0 5.20905-1.69501 1.94306-1.69501 1.94306-5.41575v-2.81123q-1.03354 1.94305-2.9766 3.10062-1.90172 1.15756-4.29953 1.15756-4.38222 0-7.19345-3.05928-2.81123-3.05928-2.81123-7.60686 0-4.54758 2.81123-7.60686 2.81123-3.05928 7.15211-3.05928 4.38221 0 7.11076 3.59672v-3.26599zm-17.15678 10.17004q0 2.68721 1.65367 4.67161 1.695 1.94306 4.50624 1.94306 2.85257 0 4.58892-1.90172 1.77769-1.90171 1.77769-4.71295 0-2.85257-1.77769-4.79563-1.77769-1.98439-4.58892-1.98439-2.81124 0-4.50624 2.02574-1.65367 2.02574-1.65367 4.75428zM-146.96154 121.32922H-164.201q.16536 2.39781 2.19111 3.88611 2.02574 1.44696 4.63026 1.44696 4.13416 0 6.28393-2.60452l2.64586 2.89391q-3.55538 3.67941-9.26052 3.67941-4.63027 0-7.89626-3.05928-3.22465-3.10063-3.22465-8.26833 0-5.20905 3.30734-8.26833 3.30733-3.05928 7.77222-3.05928 4.50624 0 7.64821 2.72855 3.14196 2.6872 3.14196 7.44149zm-17.23946-3.63807h12.6092q0-2.76989-1.73635-4.25819-1.73635-1.48829-4.29953-1.48829-2.52184 0-4.54758 1.57098-2.02574 1.52964-2.02574 4.1755zM-137.27985 118.39396v11.90639h-4.63027V108.3066h4.63027v4.01014q.9922-2.02574 2.9766-3.18331 2.02574-1.15756 4.34087-1.15756 5.20904 0 7.06942 4.29953 3.26599-4.29953 8.1443-4.29953 3.72075 0 5.99454 2.27379 2.31513 2.27379 2.31513 6.57332v13.47737h-4.63026v-12.07176q0-6.07722-5.04368-6.07722-2.35648 0-4.13417 1.52964-1.73635 1.4883-1.81903 4.38222v12.23712h-4.63026v-12.07176q0-3.14196-1.11623-4.58892-1.11622-1.4883-3.51404-1.4883-2.39781 0-4.1755 1.61233-1.77769 1.57098-1.77769 4.63026zM-79.539144 121.32922h-17.239464q.165367 2.39781 2.191107 3.88611 2.02574 1.44696 4.630264 1.44696 4.134164 0 6.283929-2.60452l2.645865 2.89391q-3.555381 3.67941-9.260527 3.67941-4.630264 0-7.896254-3.05928-3.224646-3.10063-3.224646-8.26833 0-5.20905 3.30733-8.26833 3.307331-3.05928 7.772228-3.05928 4.506239 0 7.648204 2.72855 3.141964 2.6872 3.141964 7.44149zm-17.239464-3.63807h12.6092q0-2.76989-1.736348-4.25819-1.736349-1.48829-4.299531-1.48829-2.52184 0-4.54758 1.57098-2.025741 1.52964-2.025741 4.1755zM-69.857443 118.39396v11.90639h-4.630264V108.3066h4.630264v4.01014q1.116224-2.02574 3.059281-3.18331 1.984399-1.15756 4.258189-1.15756 3.720748 0 5.994538 2.27379 2.315132 2.27379 2.315132 6.57332v13.47737h-4.630264v-12.07176q0-6.07722-5.04368-6.07722-2.397815 0-4.175506 1.61233-1.77769 1.57098-1.77769 4.63026zM-42.378828 112.02735v11.16224q0 1.57098.826832 2.52184.826833.90952 2.315132.90952 1.488299 0 2.852573-1.44696l1.901716 3.26599q-2.439157 2.19111-5.415755 2.19111-2.935256 0-5.04368-2.02574-2.067082-2.06709-2.067082-5.53978v-11.03822h-2.76989v-3.72075h2.76989v-6.90405h4.630264v6.90405h5.787829v3.72075zM-305.67145 161.3564l-2.89392 6.57332h-5.20904l12.73322-28.8978h5.20905l12.73322 28.8978h-5.20904l-2.89392-6.57332zm12.48517-4.50623l-5.25039-11.9064-5.25038 11.9064zM-268.20817 150.27684q-3.43136 0-5.16771 2.23245-1.73635 2.23245-1.73635 5.99454v9.42589h-4.63026v-21.99375h4.63026v4.42356q1.11623-2.06708 3.01794-3.39002 1.94306-1.32293 4.09282-1.36427l.0413 4.6716q-.12402 0-.24804 0zM-253.59455 168.26046q-4.58892 0-7.89626-3.10062-3.30733-3.14197-3.30733-8.18565 0-5.04368 3.43136-8.18564 3.4727-3.18331 8.43369-3.18331 4.961 0 8.39236 3.43136l-2.72855 3.34867q-2.85257-2.4805-5.74649-2.4805-2.89391 0-5.04368 1.94306-2.10842 1.90171-2.10842 4.96099 0 3.01794 2.10842 5.12637 2.10842 2.10842 5.16771 2.10842 3.10062 0 5.82917-2.81123l2.72855 2.9766q-4.01014 4.05148-9.26053 4.05148zM-234.90102 156.02333v11.90639h-4.63027v-30.63415h4.63027v12.65054q.9922-2.02574 2.9766-3.1833 2.02574-1.15757 4.34087-1.15757 3.72075 0 5.99454 2.27379 2.31513 2.27379 2.31513 6.57332v13.47737h-4.63027v-12.07175q0-6.07723-5.04368-6.07723-2.39781 0-4.1755 1.61233-1.77769 1.57098-1.77769 4.63026zM-208.1743 167.92972h-4.63026v-21.99375h4.63026zm-4.34087-26.37596q-.86818-.86818-.86818-2.06708 0-1.19891.86818-2.06709.86817-.86817 2.06708-.86817 1.19891 0 2.06708.86817.86818.86818.86818 2.06709 0 1.1989-.86818 2.06708-.86817.86817-2.06708.86817-1.19891 0-2.06708-.86817zM-195.79507 149.65672v11.16224q0 1.57099.82684 2.52184.82683.90952 2.31513.90952 1.4883 0 2.85257-1.44696l1.90172 3.26599q-2.43916 2.19111-5.41576 2.19111-2.93525 0-5.04368-2.02574-2.06708-2.06708-2.06708-5.53978v-11.03822h-2.76989v-3.72075h2.76989v-6.90405h4.63026v6.90405h5.78783v3.72075zM-163.75658 158.95859h-17.23947q.16537 2.39781 2.19111 3.88611 2.02574 1.44696 4.63027 1.44696 4.13416 0 6.28392-2.60452l2.64587 2.89391q-3.55538 3.67941-9.26053 3.67941-4.63026 0-7.89625-3.05928-3.22465-3.10063-3.22465-8.26833 0-5.20905 3.30733-8.26833 3.30733-3.05928 7.77223-3.05928 4.50624 0 7.6482 2.72855 3.14197 2.6872 3.14197 7.44149zm-17.23947-3.63807h12.6092q0-2.76989-1.73634-4.25818-1.73635-1.4883-4.29953-1.4883-2.52184 0-4.54759 1.57098-2.02574 1.52964-2.02574 4.1755zM-148.94852 168.26046q-4.58892 0-7.89625-3.10062-3.30733-3.14197-3.30733-8.18565 0-5.04368 3.43135-8.18564 3.4727-3.18331 8.4337-3.18331 4.961 0 8.39235 3.43136l-2.72855 3.34867q-2.85257-2.4805-5.74648-2.4805-2.89392 0-5.04368 1.94306-2.10843 1.90171-2.10843 4.96099 0 3.01794 2.10843 5.12637 2.10842 2.10842 5.1677 2.10842 3.10062 0 5.82917-2.81123l2.72855 2.9766q-4.01014 4.05148-9.26053 4.05148zM-129.18011 149.65672v11.16224q0 1.57099.82683 2.52184.82683.90952 2.31513.90952 1.4883 0 2.85257-1.44696l1.90172 3.26599q-2.43916 2.19111-5.41575 2.19111-2.93526 0-5.04368-2.02574-2.06709-2.06708-2.06709-5.53978v-11.03822h-2.76989v-3.72075h2.76989v-6.90405h4.63027v6.90405h5.78783v3.72075zM-102.22666 157.84236v-11.90639h4.630265v21.99375h-4.630265v-4.01013q-1.11622 2.02574-3.10062 3.1833-1.94306 1.15757-4.21685 1.15757-3.72075 0-6.03588-2.27379-2.27379-2.27379-2.27379-6.57332v-13.47738h4.63026v12.07176q0 6.07722 5.04368 6.07722 2.39782 0 4.17551-1.57098 1.77769-1.61232 1.77769-4.67161zM-79.344701 150.27684q-3.431356 0-5.167705 2.23245-1.736349 2.23245-1.736349 5.99454v9.42589h-4.630264v-21.99375h4.630264v4.42356q1.116224-2.06708 3.01794-3.39002 1.943057-1.32293 4.092822-1.36427l.04134 4.6716q-.124025 0-.24805 0zM-54.023595 158.95859h-17.239464q.165366 2.39781 2.191107 3.88611 2.02574 1.44696 4.630264 1.44696 4.134164 0 6.283929-2.60452l2.645865 2.89391q-3.555381 3.67941-9.260528 3.67941-4.630263 0-7.896253-3.05928-3.224648-3.10063-3.224648-8.26833 0-5.20905 3.307331-8.26833 3.307332-3.05928 7.772229-3.05928 4.506239 0 7.648203 2.72855 3.141965 2.6872 3.141965 7.44149zm-17.239464-3.63807h12.6092q0-2.76989-1.736349-4.25818-1.736349-1.4883-4.29953-1.4883-2.52184 0-4.547581 1.57098-2.02574 1.52964-2.02574 4.1755z" transform="translate(531.679 -21.048)"/></g><g stroke-width=".966"><path d="M-298.79901 188.71992l-1.33547 14.62533q-.10373 1.02429-.10373 1.34843 0 .51863.19449.79091.24635.37601.66125.55753.42787.18152 1.42623.18152l-.14262.47973h-6.9237l.14263-.47973h.29821q.84277 0 1.37436-.36304.37601-.24635.58346-.81684.14262-.40194.27228-1.893l.20745-2.2301h-5.0307l-1.78926 2.42459q-.60939.81684-.76498 1.17988-.15559.35007-.15559.66125 0 .4149.33711.71311.33711.29822 1.11505.32415l-.14262.47973h-5.19926l.14263-.47973q.95946-.0389 1.68554-.63532.73905-.60939 2.19121-2.58018l10.50223-14.28822zm-2.56721 4.31758l-5.09553 6.93666h4.42131zM-290.38426 194.96939l-1.72444 5.89941q2.42459-3.61744 3.70819-4.75842 1.29657-1.14099 2.48942-1.14099.64829 0 1.06319.42787.42787.42787.42787 1.11506 0 .77794-.37601 2.07451l-1.58182 5.45857q-.27228.94649-.27228 1.15395 0 .18152.10373.31117.10373.11669.22042.11669.15559 0 .376-.16855.68719-.54456 1.50403-1.65961l.40193.24635q-1.20581 1.72444-2.28196 2.46348-.75201.50567-1.34844.50567-.47973 0-.76497-.29822-.28525-.28524-.28525-.77794 0-.62235.44083-2.13934l1.50403-5.21222q.28524-.97243.28524-1.51699 0-.25931-.16855-.4149-.16856-.16856-.4149-.16856-.36304 0-.86871.31118-.95946.58346-1.99672 1.93189-1.03725 1.33547-2.1912 3.42295-.60939 1.10209-1.01133 2.41163l-.64829 2.13934h-1.94485l2.35976-8.11654q.4149-1.46513.4149-1.76334 0-.28524-.23338-.49269-.22042-.22042-.55753-.22042-.15559 0-.54456.0519l-.4927.0778-.0778-.46677zM-263.09143 188.71992l-1.33547 14.62533q-.10372 1.02429-.10372 1.34843 0 .51863.19448.79091.24635.37601.66125.55753.42787.18152 1.42623.18152l-.14262.47973h-6.92369l.14262-.47973h.29821q.84277 0 1.37437-.36304.376-.24635.58346-.81684.14262-.40194.27228-1.893l.20745-2.2301h-5.0307l-1.78927 2.42459q-.60939.81684-.76498 1.17988-.15559.35007-.15559.66125 0 .4149.33711.71311.33711.29822 1.11505.32415l-.14262.47973h-5.19925l.14262-.47973q.95946-.0389 1.68554-.63532.73905-.60939 2.19121-2.58018l10.50223-14.28822zm-2.56721 4.31758l-5.09553 6.93666h4.42131zM-254.63778 194.96939l-.89463 2.98212q1.41326-1.65961 2.51535-2.32086 1.11505-.66126 2.269-.66126 1.15394 0 1.97078.92057.81684.9076.81684 2.37273 0 2.85245-2.32086 5.80864-2.32086 2.94322-5.4067 2.94322-.64829 0-1.15395-.14263-.4927-.14262-1.11505-.50566l-.9465 3.34516q-.28525.98539-.28525 1.2836 0 .28525.14263.47973.15559.20745.49269.31118.33711.11669 1.33547.11669l-.11669.47973h-6.10685l.12966-.47973q1.20581-.0519 1.63368-.4149.4149-.36304.88166-2.00969l3.28033-11.35797q.29821-1.07615.29821-1.33546 0-.35008-.20745-.54456-.19448-.19449-.60939-.19449-.376 0-1.05022.0908v-.50566zm-3.02101 10.37258q.80387.95946 2.16527.95946.67422 0 1.37437-.376.70015-.37601 1.3614-1.11506.67422-.73904 1.20581-1.6985.5316-.97243.9465-2.28197.42787-1.30954.42787-2.59314 0-1.03726-.47973-1.58182-.46677-.55753-1.10209-.55753-1.4003 0-2.77466 1.60775-1.3614 1.60775-1.99672 3.76006zM-234.7743 194.96939l-2.52831 8.79076-.28525 1.17988q-.0389.16856-.0389.28525 0 .20745.12966.36304.10373.11669.25932.11669.16855 0 .44083-.20745.50566-.37601 1.34843-1.55589l.44084.31118q-.89464 1.34843-1.84113 2.06155-.9465.70015-1.75037.70015-.55753 0-.84278-.28525-.27228-.27228-.27228-.80387 0-.63532.28525-1.67258l.27228-.97243q-1.69851 2.21714-3.12474 3.09881-1.02429.63532-2.00968.63532-.9465 0-1.63368-.77795-.68719-.79091-.68719-2.16527 0-2.06155 1.23175-4.34352 1.2447-2.29493 3.15066-3.66929 1.49106-1.08913 2.81357-1.08913.7909 0 1.30953.41491.5316.4149.80388 1.37436l.46676-1.47809zm-4.61579.67422q-.82981 0-1.76334.77795-1.3225 1.10208-2.35976 3.26736-1.02429 2.16527-1.02429 3.91564 0 .88167.44083 1.4003.44084.50566 1.01133.50566 1.41326 0 3.07287-2.08748 2.21714-2.77466 2.21714-5.69195 0-1.10208-.42787-1.59478-.42787-.4927-1.16691-.4927zM-223.70158 203.87684q-1.34843 1.62072-2.7228 2.38569-1.37436.75202-2.90432.75202-1.84113 0-2.87839-1.03726-1.02429-1.03726-1.02429-2.78763 0-1.98376 1.10209-3.90268 1.11505-1.91893 2.98211-3.11177 1.88003-1.20582 3.68227-1.20582 1.41326 0 2.11341.59643.70015.58346.70015 1.43919 0 .80388-.4927 1.37437-.36304.44083-.89463.44083-.40194 0-.67422-.25931-.25932-.25932-.25932-.64829 0-.24635.0908-.4538.10373-.20745.40194-.49269.31118-.29822.37601-.42787.0648-.12966.0648-.27228 0-.27228-.24635-.4538-.37601-.25932-1.06319-.25932-1.27064 0-2.51535.89464-1.24471.89463-2.12638 2.54128-1.06319 1.99672-1.06319 3.99344 0 1.3225.75201 2.10044.75202.76498 2.04859.76498.99836 0 1.97079-.4927.98539-.50566 2.20417-1.8152zM-214.39219 188.26612l-3.64337 12.58971q2.35976-3.55261 3.68227-4.71952 1.3225-1.16692 2.52831-1.16692.62236 0 1.03726.42787.4149.42787.4149 1.14099 0 .85573-.36304 2.07451l-1.58181 5.43264q-.29822.98539-.29822 1.08912 0 .18152.10373.29821.11669.11669.25931.11669.16856 0 .38898-.16855.73904-.5705 1.46512-1.58182l.40194.24635q-.44084.68718-1.23174 1.51699-.77795.81684-1.34844 1.14098-.55752.31118-.99836.31118-.47973 0-.79091-.31118-.29821-.29821-.29821-.77794 0-.5705.4538-2.12638l1.49106-5.18629q.28524-.97243.28524-1.52995 0-.25932-.16855-.41491-.15559-.15558-.4149-.15558-.37601 0-.85574.28524-.88167.54456-2.03562 2.02265-.31118.40194-2.07451 3.24143-.54456.9076-.89464 1.98376l-.8298 2.65797h-1.94486l4.26572-14.83278.4538-1.60775q0-.33711-.28525-.59642-.27228-.25932-.67421-.25932-.23339 0-.71312.0778l-.27228.0389v-.50566zM-205.74406 201.81529q-.0908.64829-.0908 1.07616 0 1.15395.81684 1.97079.81684.80387 1.98376.80387.93353 0 1.78927-.376.8687-.38898 2.56721-1.69851l.27228.376q-3.07288 3.04695-5.86051 3.04695-1.89299 0-2.85245-1.19285-.95947-1.19285-.95947-2.63204 0-1.93189 1.19285-3.95454 1.19285-2.02266 2.99508-3.13771 1.80224-1.12802 3.7082-1.12802 1.37436 0 2.03561.55753.66126.55753.66126 1.3225 0 1.07616-.85574 2.06155-1.12802 1.28361-3.31923 2.07452-1.45216.53159-4.0842.8298zm.0908-.63532q1.91893-.22041 3.12474-.75201 1.59478-.71311 2.38569-1.69851.80388-.99836.80388-1.89299 0-.54456-.35008-.88167-.33711-.33711-.97243-.33711-1.3225 0-2.81356 1.41326-1.47809 1.4003-2.17824 4.14903zM-186.34735 189.12186h6.9237q2.7228 0 4.07123 1.17988 1.34844 1.16691 1.34844 2.85245 0 1.33547-.85574 2.59315-.85574 1.25767-2.54128 2.04858-1.68554.77794-3.64337.77794-1.21878 0-3.0988-.44083l-1.4003 4.79732q-.4927 1.71147-.4927 2.25603 0 .4149.35008.68718.35007.27228 1.67257.35008l-.12965.47973h-6.98853l.14263-.47973q1.37436 0 1.90596-.46677.54456-.47973 1.16691-2.61907l2.90432-10.00954q.51863-1.80223.51863-2.41162 0-.4538-.376-.75201-.36304-.29821-1.62072-.36304zm2.42459 8.19433q1.46513.37601 2.35976.37601 1.41327 0 2.56722-.58346 1.16691-.58346 1.8152-1.75037.66125-1.16692.66125-2.42459 0-1.30954-.80388-2.07452-.80387-.76497-2.43755-.76497-.88167 0-2.13935.22041zM-172.87596 195.69548l4.47317-.72609-1.86706 6.30134q2.269-3.87675 4.1231-5.41967 1.05022-.88167 1.71147-.88167.42787 0 .67422.25932.24635.24635.24635.72608 0 .85574-.44084 1.63368-.31117.58346-.89463.58346-.29821 0-.51863-.19449-.20745-.19448-.25931-.59642-.0259-.24635-.11669-.32414-.10373-.10373-.24635-.10373-.22042 0-.41491.10373-.3371.18152-1.02429 1.01132-1.07615 1.27064-2.33383 3.29329-.54456.85574-.93353 1.9319-.54456 1.47809-.62235 1.7763l-.41491 1.63368h-1.98375l2.39866-8.05171q.4149-1.4003.4149-1.99672 0-.23338-.19449-.38897-.25931-.20745-.68718-.20745-.27228 0-.99836.11669zM-152.62352 199.02766q0 1.94486-1.03726 3.85082-1.02429 1.90596-2.86542 3.02101-1.84113 1.11506-3.57854 1.11506-1.7763 0-2.90432-1.12802-1.11505-1.14098-1.11505-2.94322 0-1.90596 1.08912-3.82489 1.10209-1.91892 2.93025-3.03397 1.84113-1.11506 3.55261-1.11506 1.71147 0 2.81356 1.12802 1.11505 1.12802 1.11505 2.93025zm-2.15231-.89463q0-1.20581-.59642-1.84113-.58346-.64829-1.51699-.64829-1.90596 0-3.51371 2.73577-1.59478 2.7228-1.59478 5.41967 0 1.23174.62235 1.90596.62236.66125 1.56885.66125 1.82817 0 3.42295-2.70983 1.60775-2.72281 1.60775-5.5234zM-145.51831 189.83497q.54456 0 .92057.38897.38897.37601.38897.92057 0 .54456-.38897.93353-.37601.37601-.92057.37601-.54456 0-.93353-.37601-.376-.38897-.376-.93353 0-.54456.376-.92057.38897-.38897.93353-.38897zm.20746 5.13442l-3.35813 11.60432q-.89463 3.11177-2.46348 4.48614-1.55589 1.37437-3.37109 1.37437-.81684 0-1.23174-.37601-.42787-.37601-.42787-.89463 0-.40194.32414-.71312.31118-.29821.72608-.29821.37601 0 .66125.24635.23339.19448.23339.44083 0 .33711-.32415.58346-.18152.14262-.18152.23338l.0259.0648q.0389.0519.11669.0778.0778.0259.23338.0259 1.05022 0 1.80223-.67422.73905-.66125 1.32251-2.65797l2.90432-9.95767q.42787-1.46513.42787-1.62072 0-.31117-.28525-.55752-.27228-.24635-.70015-.24635-.16855 0-.38897.0389-.16855.0259-.4927.0778v-.4538zM-141.07106 201.81529q-.0908.64829-.0908 1.07616 0 1.15395.81684 1.97079.81684.80387 1.98375.80387.93354 0 1.78927-.376.86871-.38898 2.56722-1.69851l.27228.376q-3.07288 3.04695-5.86051 3.04695-1.89299 0-2.85246-1.19285-.95946-1.19285-.95946-2.63204 0-1.93189 1.19285-3.95454 1.19284-2.02266 2.99508-3.13771 1.80223-1.12802 3.70819-1.12802 1.37437 0 2.03562.55753.66125.55753.66125 1.3225 0 1.07616-.85574 2.06155-1.12801 1.28361-3.31922 2.07452-1.45216.53159-4.0842.8298zm.0908-.63532q1.91893-.22041 3.12474-.75201 1.59478-.71311 2.38569-1.69851.80387-.99836.80387-1.89299 0-.54456-.35007-.88167-.33711-.33711-.97243-.33711-1.3225 0-2.81356 1.41326-1.47809 1.4003-2.17824 4.14903zM-122.20594 203.87684q-1.34843 1.62072-2.7228 2.38569-1.37437.75202-2.90432.75202-1.84113 0-2.87839-1.03726-1.02429-1.03726-1.02429-2.78763 0-1.98376 1.10208-3.90268 1.11506-1.91893 2.98212-3.11177 1.88003-1.20582 3.68226-1.20582 1.41327 0 2.11341.59643.70015.58346.70015 1.43919 0 .80388-.49269 1.37437-.36304.44083-.89464.44083-.40194 0-.67422-.25931-.25931-.25932-.25931-.64829 0-.24635.0908-.4538.10373-.20745.40194-.49269.31117-.29822.376-.42787.0648-.12966.0648-.27228 0-.27228-.24635-.4538-.376-.25932-1.06319-.25932-1.27064 0-2.51535.89464-1.2447.89463-2.12637 2.54128-1.06319 1.99672-1.06319 3.99344 0 1.3225.75201 2.10044.75201.76498 2.04858.76498.99836 0 1.97079-.4927.9854-.50566 2.20417-1.8152zM-113.79119 191.7539l-1.01132 3.52667h2.03561l-.22041.81684h-2.02266l-2.2301 7.64978q-.36304 1.23174-.36304 1.59478 0 .22042.10373.33711.10372.11669.24635.11669.32414 0 .85573-.4538.31118-.25932 1.38733-1.59478l.42787.32414q-1.19284 1.7374-2.25603 2.45052-.72608.4927-1.46513.4927-.57049 0-.93353-.35008-.36304-.36304-.36304-.92056 0-.70015.4149-2.13935l2.16528-7.50715h-1.95782l.12965-.50566q1.42623-.38897 2.37273-1.15395.9465-.77794 2.11341-2.6839z" transform="translate(531.679 -21.048)"/></g></g></svg>