<svg xmlns="http://www.w3.org/2000/svg" role="img" viewBox="-10.45 -9.95 517.40 233.40"><title>uima.input.svg logo</title><path fill="#49830d" stroke="#3a3a3a" stroke-linecap="round" stroke-linejoin="bevel" stroke-opacity=".854" stroke-width="2" d="M.99959 21.95199h83.155v83.155H.99959z"/><path fill="#253d93" stroke="#3a3a3a" stroke-linecap="round" stroke-linejoin="bevel" stroke-opacity=".854" stroke-width="2" d="M.99959 109.33999h83.155v83.155H.99959z"/><path fill="#e89800" stroke="#3a3a3a" stroke-linecap="round" stroke-linejoin="bevel" stroke-opacity=".854" stroke-width="2" d="M88.0398 22.4876L168.36138.9655l21.5221 80.32156-80.32156 21.5221z"/><path fill="#d80028" stroke="#3a3a3a" stroke-linecap="round" stroke-linejoin="bevel" stroke-opacity=".854" stroke-width="2" d="M88.38859 109.33999h83.155v83.155h-83.155z"/><path d="M138.65736 17.02416q2.83397-.75936 5.2804.69173 2.49216 1.43884 3.23927 4.2271.74711 2.78826-.69173 5.28041-1.43884 2.49215-4.2271 3.23926-2.74255.73486-5.2347-.70398-2.49214-1.43884-3.23926-4.2271-.7471-2.78826.64603-5.26816 1.43884-2.49215 4.22709-3.23926zm8.46793 20.26686l-.66224 35.01q-.02994 2.99647.20277 3.86495.13472.5028.66858.84966.5216.30116.9787.17868.77706-.20821 1.3704-1.10206 1.60375-2.24239 3.2954-7.44779l1.79905.49777q-3.68092 13.87091-11.45148 15.95303-2.9711.7961-5.19467-.37177-2.19012-1.22582-2.87599-3.78554-.45316-1.69124-.37424-4.50487l.49917-23.55142q.06908-3.39888-.35959-4.9987-.26945-1.0056-1.34613-1.54995-1.07669-.54435-2.58509-.14018-.68564.18372-1.63328.48663l.1043-1.9876 14.8218-6.66598z" fill="#253d93" stroke-width="3.524"/><path d="M34.3512 119.20677l3.85315 44.10374 24.85279-44.10374h18.30245l-.46238 1.7509q-3.77608 0-5.74119 1.9875-1.9651 1.98752-3.35223 7.8554l-9.63287 41.07515q-.92475 3.88038-.92475 5.77324 0 1.7509 1.15594 2.8393 1.15594 1.04108 4.54671 1.13572l-.34678 1.7509H40.51623l.46238-1.7509q4.19993 0 6.20357-1.94019 2.00363-1.9875 3.39076-7.80807l9.82553-41.5957-29.90042 53.09486h-1.57979l-4.70084-54.13593-9.97966 42.63677q-.6165 2.6027-.6165 4.3536 0 2.36608 1.31007 3.83305 1.3486 1.41965 4.54672 1.5616l-.38532 1.75091H1.83063l.34678-1.7509q3.12105-.14196 4.7779-1.60893 2.9284-2.65002 4.23847-8.13933l11.28972-47.41625q-1.61832-2.1768-2.9284-2.8393-1.27153-.6625-4.31551-.6625l.46237-1.7509z" fill="#e89800" stroke-width="3.18"/><path d="M148.18374 187.46166l-6.04046-14.63412h-27.22852l-6.04045 14.63412H93.4479l28.06489-67.74337h14.03244l28.0649 67.74337zm-19.60825-47.58511l-8.17785 19.67368h16.26277z" fill="#49830d" stroke-width="3.451"/><path d="M10.21461 32.32578h31.76322v1.7509h-1.58816q-3.5847 0-4.94598.80447-1.3159.75714-1.9058 2.12947-.54451 1.37233-.54451 6.86164V75.2938q0 8.61254 1.22516 11.4045 1.27052 2.79198 4.12921 4.63753 2.85869 1.84554 7.21479 1.84554 4.99137 0 8.48532-2.31876 3.53933-2.36608 5.26362-6.48306 1.76966-4.11698 1.76966-14.33845V43.87226q0-4.30627-.86214-6.15182-.86215-1.84554-2.17805-2.55536-2.04192-1.0884-5.76276-1.0884v-1.7509h21.28136v1.7509h-1.27053q-2.58643 0-4.31073 1.0884-1.72428 1.0884-2.49567 3.26519-.5899 1.5143-.5899 5.44199v24.37063q0 11.30987-1.45203 16.32596-1.40665 5.01609-6.94253 9.22772-5.53588 4.21161-15.11021 4.21161-7.98619 0-12.34229-2.2241-5.94426-3.0286-8.39456-7.76075-2.45031-4.73217-2.45031-12.72952V43.87226q0-5.53663-.58989-6.86164-.58988-1.37233-2.04192-2.1768-1.45203-.80446-5.35437-.75714z" fill="#d80028" stroke-width="3.451"/><path d="M160.29702 203.91139v10.05252h-2.0071v-10.05252h-3.60598v-1.83701h9.21906v1.837zm7.78203 10.05251h-2.0071v-11.88952h3.12972l3.58897 7.4671 3.58897-7.4671h3.11271v11.88953h-2.0071v-9.2871l-4.15028 8.24953h-1.12262l-4.13327-8.24953z" stroke-width=".619"/><path d="M205.73359.78499h6.177v190.5h-6.177z"/><path d="M228.40495 27.37894q1.9844 2.31513 5.37442 2.31513 3.39001 0 5.37441-2.31513 1.9844-2.31514 1.9844-6.28393V5.09579h4.87831v16.20592q0 6.2426-3.43135 9.6326-3.43136 3.34868-8.80577 3.34868-5.37442 0-8.80577-3.34867-3.43136-3.39002-3.43136-9.6326V5.09579h4.87831v15.99922q0 3.9688 1.9844 6.28393zm28.96887-5.29174v11.9064h-4.63027V11.99985h4.63027v4.01013q1.11622-2.02574 3.05928-3.1833 1.9844-1.15757 4.25819-1.15757 3.72074 0 5.99453 2.2738 2.31514 2.27378 2.31514 6.57331V33.9936h-4.63027V21.92184q0-6.07722-5.04368-6.07722-2.39781 0-4.1755 1.61232-1.77769 1.57099-1.77769 4.63027zm37.76494 5.33308q0 3.14196-2.27379 5.04368-2.27379 1.86037-5.82917 1.86037-2.39782 0-5.00234-.86817-2.56318-.86818-4.54758-2.43916l2.23245-3.59672q3.84477 2.89391 7.44149 2.89391 1.57099 0 2.4805-.7028.90952-.74415.90952-1.86038 0-1.65366-4.38222-2.9766-.33073-.12402-.49609-.16536-6.86272-1.86038-6.86272-6.20125 0-3.05928 2.35648-4.87831 2.39781-1.86038 6.20124-1.86038t7.19345 2.23245l-1.73635 3.43136q-2.68721-1.7777-5.82917-1.7777-1.65367 0-2.68721.62013-1.03354.57878-1.03354 1.7777 0 1.07487 1.07488 1.57097.74415.37208 2.06708.70281 1.36428.33074 2.39782.66147t1.9844.74415q.9922.41342 2.10842 1.15756 2.23245 1.4883 2.23245 4.63027zm10.94972-11.69968v11.16224q0 1.57098.82683 2.52184.82684.90951 2.31514.90951 1.48829 0 2.85257-1.44696l1.90171 3.266q-2.43915 2.1911-5.41575 2.1911-2.93526 0-5.04368-2.02574-2.06708-2.06708-2.06708-5.53978V15.7206h-2.76989v-3.72074h2.76989V5.09579h4.63026v6.90406h5.78783v3.72074zm23.10869.62012q-3.43136 0-5.1677 2.23245-1.73635 2.23245-1.73635 5.99454v9.42589h-4.63027V11.99985h4.63027v4.42355q1.11622-2.06708 3.01794-3.39001 1.94305-1.32294 4.09282-1.36428l.0413 4.6716h-.24805zm20.23608 7.56552v-11.9064h4.63027V33.9936h-4.63027v-4.01014q-1.11622 2.02574-3.10062 3.1833-1.94306 1.15757-4.21685 1.15757-3.72074 0-6.03588-2.27379-2.27379-2.27379-2.27379-6.57332V11.99985h4.63027V24.0716q0 6.07723 5.04368 6.07723 2.39781 0 4.1755-1.57099 1.77769-1.61232 1.77769-4.6716zm21.10427 10.41809q-4.58892 0-7.89625-3.10062-3.30733-3.14197-3.30733-8.18565t3.43135-8.18564q3.4727-3.1833 8.4337-3.1833 4.96099 0 8.39235 3.43135l-2.72855 3.34867q-2.85257-2.4805-5.74649-2.4805-2.89391 0-5.04368 1.94306-2.10842 1.90172-2.10842 4.961 0 3.01794 2.10842 5.12636 2.10843 2.10843 5.16771 2.10843 3.10062 0 5.82917-2.81124l2.72855 2.9766q-4.01014 4.05148-9.26053 4.05148zm19.76841-18.60373v11.16224q0 1.57098.82683 2.52184.82683.90951 2.31513.90951t2.85257-1.44696l1.90172 3.266q-2.43916 2.1911-5.41576 2.1911-2.93525 0-5.04368-2.02574-2.06708-2.06708-2.06708-5.53978V15.7206h-2.76989v-3.72074h2.76989V5.09579h4.63027v6.90406h5.78783v3.72074zm26.95345 8.18564v-11.9064h4.63026V33.9936h-4.63026v-4.01014q-1.11622 2.02574-3.10062 3.1833-1.94306 1.15757-4.21685 1.15757-3.72075 0-6.03588-2.27379-2.27379-2.27379-2.27379-6.57332V11.99985h4.63026V24.0716q0 6.07723 5.04368 6.07723 2.39782 0 4.17551-1.57099 1.77769-1.61232 1.77769-4.6716zm22.88196-7.56552q-3.43136 0-5.1677 2.23245-1.73636 2.23245-1.73636 5.99454v9.42589h-4.63026V11.99985h4.63026v4.42355q1.11623-2.06708 3.01794-3.39001 1.94306-1.32294 4.09283-1.36428l.04134 4.6716h-.24805zm25.3211 8.68174h-17.23946q.16537 2.39782 2.1911 3.88612 2.02575 1.44695 4.63027 1.44695 4.13416 0 6.28393-2.60452l2.64587 2.89392q-3.55539 3.6794-9.26053 3.6794-4.63027 0-7.89626-3.05928-3.22464-3.10062-3.22464-8.26833 0-5.20904 3.30733-8.26833 3.30733-3.05928 7.77223-3.05928 4.50623 0 7.6482 2.72855 3.14196 2.6872 3.14196 7.4415zm-17.23946-3.63806h12.6092q0-2.7699-1.73635-4.2582-1.73635-1.48829-4.29953-1.48829-2.52184 0-4.54758 1.57098-2.02574 1.52964-2.02574 4.1755zM479.485 34.32433q-4.1755 0-7.27613-3.14196-3.10062-3.14197-3.10062-8.26833t3.1833-8.18565q3.18331-3.05928 7.56553-3.05928 4.42355 0 7.11076 3.72075V3.3181h4.63026v30.6755h-4.63026v-3.30733q-2.56318 3.63806-7.48284 3.63806zm-5.74649-11.20358q0 3.14196 2.02574 5.12636t4.7543 1.9844q2.72854 0 4.63026-1.9844 1.90171-2.02574 1.90171-5.1677 0-3.14197-1.90171-5.2504-1.90172-2.10842-4.6716-2.10842-2.7699 0-4.7543 2.10843-1.9844 2.10842-1.9844 5.29173zM221.91432 42.72516h4.87831v28.89781h-4.87831zm16.64582 16.99142v11.90639h-4.63026V49.62922h4.63026v4.01014q1.11622-2.02574 3.05928-3.18331 1.9844-1.15757 4.25819-1.15757 3.72075 0 5.99454 2.2738 2.31513 2.27378 2.31513 6.57331v13.47738h-4.63026V59.55121q0-6.07722-5.04368-6.07722-2.39782 0-4.17551 1.61232-1.77769 1.57099-1.77769 4.63027zm27.55937-11.90639v1.81903h5.78783v3.72075h-5.78783v18.273h-4.63026v-18.273h-2.76989v-3.72075h2.76989V47.9342q0-3.4727 2.06708-5.49844 2.10842-2.06708 5.04368-2.06708 2.9766 0 5.41575 2.1911l-1.90171 3.266q-1.36428-1.44696-2.85258-1.44696-1.48829 0-2.31513.95086-.82683.90951-.82683 2.4805zm14.84359 18.02495q1.9844 1.9844 5.00234 1.9844 3.01794 0 4.96099-1.9844 1.9844-2.02574 1.9844-5.20905 0-3.1833-1.9844-5.1677-1.94305-2.02574-4.96099-2.02574t-5.00234 2.02574q-1.94306 1.9844-1.94306 5.1677 0 3.18331 1.94306 5.20905zm13.27066 2.85257q-3.30733 3.266-8.26832 3.266-4.961 0-8.26833-3.266-3.30733-3.30733-3.30733-8.06162 0-4.75428 3.30733-8.02027 3.30733-3.30734 8.26833-3.30734 4.96099 0 8.26832 3.30734 3.30734 3.26599 3.30734 8.02027 0 4.7543-3.30734 8.06162zm20.10626-14.71762q-3.43136 0-5.16771 2.23245-1.73635 2.23245-1.73635 5.99454v9.42589h-4.63026V49.62922h4.63026v4.42355q1.11623-2.06708 3.01794-3.39001 1.94306-1.32293 4.09282-1.36428l.0413 4.67161h-.24805zm9.48725 5.74649v11.90639h-4.63026V49.62922h4.63026v4.01014q.9922-2.02574 2.9766-3.18331 2.02574-1.15757 4.34087-1.15757 5.20905 0 7.06942 4.29953 3.26599-4.29953 8.14431-4.29953 3.72074 0 5.99453 2.2738 2.31514 2.27378 2.31514 6.57331v13.47738h-4.63027V59.55121q0-6.07722-5.04368-6.07722-2.35647 0-4.13416 1.52964-1.73635 1.4883-1.81903 4.38222v12.23712h-4.63027V59.55121q0-3.14196-1.11622-4.58892-1.11623-1.4883-3.51404-1.4883-2.39782 0-4.17551 1.61232-1.77769 1.57099-1.77769 4.63027zm55.09484 11.90639h-4.21685v-2.93526q-2.72855 3.266-7.31747 3.266-3.43135 0-5.70515-1.94306-2.23244-1.94306-2.23244-5.1677 0-3.266 2.39781-4.87832 2.39782-1.61233 6.49064-1.61233h5.99454v-.82683q0-4.38221-4.87832-4.38221-3.05928 0-6.36661 2.23245l-2.06708-2.89392q4.01014-3.1833 9.09516-3.1833 3.88611 0 6.32527 1.9844 2.4805 1.94305 2.4805 6.1599zm-4.63026-8.18564v-1.86038h-5.20905q-5.00234 0-5.00234 3.14197 0 1.61232 1.24025 2.4805 1.24025.82683 3.43136.82683 2.23244 0 3.88611-1.24025t1.65367-3.34868zm16.57929-10.08737v11.16225q0 1.57098.82683 2.52184.82684.90951 2.31514.90951t2.85257-1.44695l1.90172 3.26599q-2.43916 2.1911-5.41576 2.1911-2.93526 0-5.04368-2.02574-2.06708-2.06708-2.06708-5.53978V53.34996h-2.76989v-3.72074h2.76989v-6.90406h4.63026v6.90406h5.78783v3.72075zm16.20463 18.27301h-4.63026V49.62922h4.63026zM402.7349 45.247q-.86818-.86817-.86818-2.06708 0-1.1989.86818-2.06708.86817-.86817 2.06708-.86817 1.19891 0 2.06708.86817.86818.86817.86818 2.06708 0 1.1989-.86818 2.06708-.86817.86818-2.06708.86818-1.19891 0-2.06708-.86818zm16.14132 20.58814q1.9844 1.9844 5.00234 1.9844 3.01794 0 4.961-1.9844 1.9844-2.02574 1.9844-5.20905 0-3.1833-1.9844-5.1677-1.94306-2.02574-4.961-2.02574-3.01794 0-5.00234 2.02574-1.94306 1.9844-1.94306 5.1677 0 3.18331 1.94306 5.20905zm13.27067 2.85257q-3.30733 3.266-8.26833 3.266t-8.26833-3.266q-3.30733-3.30733-3.30733-8.06162 0-4.75428 3.30733-8.02027 3.30733-3.30734 8.26833-3.30734t8.26833 3.30734q3.30733 3.26599 3.30733 8.02027 0 4.7543-3.30733 8.06162zm13.2022-8.97113v11.90639h-4.63027V49.62922h4.63026v4.01014q1.11623-2.02574 3.05929-3.18331 1.9844-1.15757 4.25819-1.15757 3.72074 0 5.99453 2.2738 2.31514 2.27378 2.31514 6.57331v13.47738h-4.63027V59.55121q0-6.07722-5.04368-6.07722-2.39781 0-4.1755 1.61232-1.7777 1.57099-1.7777 4.63027zm-218.55646 49.53576h-4.87831v-28.8978h7.60686l8.72308 18.14898 8.72309-18.14898h7.56552v28.8978h-4.87831V86.6798l-10.08736 20.0507h-2.72855l-10.04602-20.0507zm52.8934 0h-4.21685v-2.93525q-2.72855 3.26599-7.31747 3.26599-3.43135 0-5.70515-1.94306-2.23244-1.94306-2.23244-5.16771 0-3.266 2.39781-4.87831 2.39782-1.61232 6.49064-1.61232h5.99454v-.82684q0-4.38221-4.87832-4.38221-3.05928 0-6.36661 2.23245l-2.06708-2.89392q4.01014-3.1833 9.09516-3.1833 3.88611 0 6.32527 1.9844 2.4805 1.94305 2.4805 6.1599zm-4.63026-8.18564v-1.86038h-5.20905q-5.00234 0-5.00234 3.14197 0 1.61232 1.24025 2.4805 1.24025.82683 3.43136.82683 2.23244 0 3.88611-1.24025t1.65367-3.34867zm15.74664-3.72075v11.90639h-4.63026V87.25859h4.63026v4.01014q1.11622-2.02574 3.05928-3.18331 1.9844-1.15756 4.25819-1.15756 3.72075 0 5.99454 2.27379 2.31513 2.27379 2.31513 6.57332v13.47737h-4.63026V97.18058q0-6.07722-5.04368-6.07722-2.39782 0-4.17551 1.61233-1.77769 1.57098-1.77769 4.63026zm39.9147 11.90639h-4.21684v-2.93525q-2.72855 3.26599-7.31747 3.26599-3.43136 0-5.70515-1.94306-2.23245-1.94306-2.23245-5.16771 0-3.266 2.39782-4.87831 2.39781-1.61232 6.49063-1.61232h5.99454v-.82684q0-4.38221-4.87831-4.38221-3.05928 0-6.36661 2.23245l-2.06709-2.89392q4.01014-3.1833 9.09517-3.1833 3.88611 0 6.32527 1.9844 2.48049 1.94305 2.48049 6.1599zm-4.63026-8.18564v-1.86038h-5.20905q-5.00233 0-5.00233 3.14197 0 1.61232 1.24025 2.4805 1.24024.82683 3.43135.82683 2.23245 0 3.88612-1.24025 1.65366-1.24025 1.65366-3.34867zm31.45647-13.80811v19.18252q0 5.82917-3.1833 8.72309-3.14197 2.93525-8.10297 2.93525-4.96099 0-8.97113-3.10062l2.19111-3.51404q3.22464 2.43916 6.49063 2.43916 3.30733 0 5.20905-1.69501 1.94306-1.69501 1.94306-5.41575v-2.81123q-1.03354 1.94305-2.9766 3.10062-1.90172 1.15756-4.29953 1.15756-4.38222 0-7.19345-3.05928t-2.81123-7.60686q0-4.54758 2.81123-7.60686t7.15211-3.05928q4.38221 0 7.11076 3.59672v-3.266zm-17.15678 10.17004q0 2.6872 1.65367 4.6716 1.695 1.94307 4.50624 1.94307 2.85257 0 4.58892-1.90172 1.77769-1.90171 1.77769-4.71295 0-2.85257-1.77769-4.79563-1.77769-1.9844-4.58892-1.9844-2.81124 0-4.50624 2.02575-1.65367 2.02574-1.65367 4.75428zm44.33051 2.85257h-17.23946q.16536 2.39782 2.19111 3.88612 2.02574 1.44696 4.63026 1.44696 4.13416 0 6.28393-2.60452l2.64586 2.8939q-3.55538 3.67942-9.26052 3.67942-4.63027 0-7.89626-3.05928-3.22465-3.10063-3.22465-8.26833 0-5.20905 3.30734-8.26833 3.30733-3.05928 7.77222-3.05928 4.50624 0 7.64821 2.72855 3.14196 2.6872 3.14196 7.44149zm-17.23946-3.63806h12.6092q0-2.7699-1.73635-4.2582-1.73635-1.48828-4.29953-1.48828-2.52184 0-4.54758 1.57098-2.02574 1.52964-2.02574 4.1755zm26.92115.70281v11.90639h-4.63027V87.25859h4.63027v4.01014q.9922-2.02574 2.9766-3.18331 2.02574-1.15756 4.34087-1.15756 5.20904 0 7.06942 4.29953 3.26599-4.29953 8.1443-4.29953 3.72075 0 5.99454 2.27379 2.31513 2.27379 2.31513 6.57332v13.47737h-4.63026V97.18058q0-6.07722-5.04368-6.07722-2.35648 0-4.13417 1.52964-1.73635 1.4883-1.81903 4.38222v12.23712h-4.63026V97.18058q0-3.14196-1.11623-4.58892-1.11622-1.4883-3.51404-1.4883-2.39781 0-4.1755 1.61233-1.77769 1.57098-1.77769 4.63026zm57.74071 2.93525h-17.23947q.16537 2.39782 2.1911 3.88612 2.02575 1.44696 4.63027 1.44696 4.13417 0 6.28393-2.60452l2.64587 2.8939q-3.55538 3.67942-9.26053 3.67942-4.63026 0-7.89625-3.05928-3.22465-3.10063-3.22465-8.26833 0-5.20905 3.30733-8.26833t7.77223-3.05928q4.50624 0 7.6482 2.72855 3.14197 2.6872 3.14197 7.44149zm-17.23947-3.63806h12.6092q0-2.7699-1.73635-4.2582-1.73635-1.48828-4.29953-1.48828-2.52184 0-4.54758 1.57098-2.02574 1.52964-2.02574 4.1755zm26.92117.70281v11.90639h-4.63027V87.25859h4.63027v4.01014q1.11622-2.02574 3.05928-3.18331 1.9844-1.15756 4.25819-1.15756 3.72075 0 5.99454 2.27379 2.31513 2.27379 2.31513 6.57332v13.47737h-4.63027V97.18058q0-6.07722-5.04368-6.07722-2.39781 0-4.1755 1.61233-1.7777 1.57098-1.7777 4.63026zm27.47861-6.36661v11.16224q0 1.57098.82683 2.52184.82684.90952 2.31514.90952t2.85257-1.44696l1.90172 3.26599q-2.43916 2.1911-5.41576 2.1911-2.93526 0-5.04368-2.02573-2.06708-2.0671-2.06708-5.53978V90.97934h-2.7699v-3.72075h2.7699v-6.90405h4.63026v6.90405h5.78783v3.72075zm-263.29262 49.32905l-2.89392 6.57332h-5.20904l12.73322-28.8978h5.20905l12.73322 28.8978h-5.20904l-2.89392-6.57332zm12.48517-4.50623l-5.25039-11.9064-5.25038 11.9064zm24.97811-6.57333q-3.43136 0-5.16771 2.23245-1.73635 2.23245-1.73635 5.99454v9.42589h-4.63026v-21.99375h4.63026v4.42356q1.11623-2.06708 3.01794-3.39002 1.94306-1.32293 4.09282-1.36427l.0413 4.6716h-.24804zm14.61362 17.98362q-4.58892 0-7.89626-3.10062-3.30733-3.14197-3.30733-8.18565t3.43136-8.18564q3.4727-3.18331 8.43369-3.18331 4.961 0 8.39236 3.43136l-2.72855 3.34867q-2.85257-2.4805-5.74649-2.4805-2.89391 0-5.04368 1.94306-2.10842 1.9017-2.10842 4.96099 0 3.01794 2.10842 5.12637 2.10842 2.10842 5.16771 2.10842 3.10062 0 5.82917-2.81123l2.72855 2.9766q-4.01014 4.05148-9.26053 4.05148zm18.69353-12.23713v11.90639h-4.63027v-30.63415h4.63027v12.65054q.9922-2.02574 2.9766-3.1833 2.02574-1.15757 4.34087-1.15757 3.72075 0 5.99454 2.27379 2.31513 2.27379 2.31513 6.57332v13.47737h-4.63027v-12.07175q0-6.07723-5.04368-6.07723-2.39781 0-4.1755 1.61233-1.77769 1.57098-1.77769 4.63026zm26.72672 11.90638h-4.63026v-21.99374h4.63026zm-4.34087-26.37595q-.86818-.86818-.86818-2.06708 0-1.19891.86818-2.0671.86817-.86816 2.06708-.86816 1.19891 0 2.06708.86817.86818.86818.86818 2.06709 0 1.1989-.86818 2.06708-.86817.86817-2.06708.86817-1.19891 0-2.06708-.86817zm16.7201 8.10295v11.16225q0 1.57099.82684 2.52184.82683.90952 2.31513.90952t2.85257-1.44696l1.90172 3.26599q-2.43916 2.1911-5.41576 2.1911-2.93525 0-5.04368-2.02573-2.06708-2.06708-2.06708-5.53978V128.6087h-2.76989v-3.72075h2.76989v-6.90405h4.63026v6.90405h5.78783v3.72075zm32.03849 9.30188h-17.23947q.16537 2.3978 2.19111 3.8861 2.02574 1.44697 4.63027 1.44697 4.13416 0 6.28392-2.60452l2.64587 2.8939q-3.55538 3.67942-9.26053 3.67942-4.63026 0-7.89625-3.05928-3.22465-3.10063-3.22465-8.26833 0-5.20905 3.30733-8.26833t7.77223-3.05928q4.50624 0 7.6482 2.72855 3.14197 2.6872 3.14197 7.44149zm-17.23947-3.63807h12.6092q0-2.7699-1.73634-4.25818-1.73635-1.4883-4.29953-1.4883-2.52184 0-4.54759 1.57098-2.02574 1.52964-2.02574 4.1755zm32.04753 12.93994q-4.58892 0-7.89625-3.10062-3.30733-3.14197-3.30733-8.18565t3.43135-8.18564q3.4727-3.18331 8.4337-3.18331t8.39235 3.43136l-2.72855 3.34867q-2.85257-2.4805-5.74648-2.4805-2.89392 0-5.04368 1.94306-2.10843 1.9017-2.10843 4.96099 0 3.01794 2.10843 5.12637 2.10842 2.10842 5.1677 2.10842 3.10062 0 5.82917-2.81123l2.72855 2.9766q-4.01014 4.05148-9.26053 4.05148zm19.76841-18.60375v11.16225q0 1.57099.82683 2.52184.82683.90952 2.31513.90952t2.85257-1.44696l1.90172 3.26599q-2.43916 2.1911-5.41575 2.1911-2.93526 0-5.04368-2.02573-2.06709-2.06708-2.06709-5.53978V128.6087h-2.76989v-3.72075h2.76989v-6.90405h4.63027v6.90405h5.78783v3.72075zm26.95345 8.18565v-11.9064h4.63026v21.99376h-4.63026v-4.01013q-1.11622 2.02574-3.10062 3.1833-1.94306 1.15757-4.21685 1.15757-3.72075 0-6.03588-2.2738-2.27379-2.27378-2.27379-6.57331v-13.47738h4.63026v12.07176q0 6.07722 5.04368 6.07722 2.39782 0 4.17551-1.57098 1.77769-1.61232 1.77769-4.67161zm22.88196-7.56552q-3.43136 0-5.1677 2.23245-1.73635 2.23245-1.73635 5.99454v9.42589h-4.63027v-21.99375h4.63026v4.42356q1.11623-2.06708 3.01794-3.39002 1.94306-1.32293 4.09283-1.36427l.04134 4.6716h-.24805zm25.32111 8.68175h-17.23947q.16537 2.3978 2.1911 3.8861 2.02575 1.44697 4.63027 1.44697 4.13417 0 6.28393-2.60452l2.64587 2.8939q-3.55538 3.67942-9.26053 3.67942-4.63026 0-7.89625-3.05928-3.22465-3.10063-3.22465-8.26833 0-5.20905 3.30733-8.26833t7.77223-3.05928q4.50624 0 7.6482 2.72855 3.14196 2.6872 3.14196 7.44149zm-17.23947-3.63807h12.6092q0-2.7699-1.73635-4.25818-1.73635-1.4883-4.29953-1.4883-2.52184 0-4.54758 1.57098-2.02574 1.52964-2.02574 4.1755z" fill="#33418f" stroke-width=".969"/><path d="M232.87958 167.6719l-1.33547 14.62534q-.10373 1.02429-.10373 1.34843 0 .51863.19449.7909.24635.37602.66125.55754.42787.18152 1.42623.18152l-.14262.47973h-6.9237l.14263-.47973h.29821q.84277 0 1.37436-.36304.37601-.24635.58346-.81684.14262-.40194.27228-1.893l.20745-2.2301h-5.0307l-1.78926 2.42459q-.60939.81684-.76498 1.17988-.15559.35007-.15559.66125 0 .4149.33711.7131.33711.29823 1.11505.32416l-.14262.47973h-5.19926l.14263-.47973q.95946-.0389 1.68554-.63532.73905-.6094 2.19121-2.58018l10.50223-14.28822zm-2.56721 4.31759l-5.09553 6.93666h4.42131zm10.98196 1.93189l-1.72444 5.8994q2.42459-3.61743 3.70819-4.75841 1.29657-1.141 2.48942-1.141.64829 0 1.06319.42788.42787.42787.42787 1.11506 0 .77794-.37601 2.0745l-1.58182 5.45858q-.27228.94649-.27228 1.15395 0 .18152.10373.31117.10373.11669.22042.11669.15559 0 .376-.16855.68719-.54456 1.50403-1.65961l.40193.24635q-1.20581 1.72444-2.28196 2.46348-.75201.50567-1.34844.50567-.47973 0-.76497-.29822-.28525-.28524-.28525-.77794 0-.62235.44083-2.13934l1.50403-5.21222q.28524-.97243.28524-1.517 0-.2593-.16855-.4149-.16856-.16855-.4149-.16855-.36304 0-.86871.31118-.95946.58346-1.99672 1.93189-1.03725 1.33547-2.1912 3.42295-.60939 1.10209-1.01133 2.41163l-.64829 2.13934h-1.94485l2.35976-8.11654q.4149-1.46513.4149-1.76334 0-.28524-.23338-.4927-.22042-.22041-.55753-.22041-.15559 0-.54456.0519l-.4927.0778-.0778-.46677zm27.29283-6.24948l-1.33547 14.62534q-.10372 1.02429-.10372 1.34843 0 .51863.19448.7909.24635.37602.66125.55754.42787.18152 1.42623.18152l-.14262.47973h-6.92369l.14262-.47973h.29821q.84277 0 1.37437-.36304.376-.24635.58346-.81684.14262-.40194.27228-1.893l.20745-2.2301h-5.0307l-1.78927 2.42459q-.60939.81684-.76498 1.17988-.15559.35007-.15559.66125 0 .4149.33711.7131.33711.29823 1.11505.32416l-.14262.47973h-5.19925l.14262-.47973q.95946-.0389 1.68554-.63532.73905-.6094 2.19121-2.58018l10.50223-14.28822zm-2.56721 4.31759l-5.09553 6.93666h4.42131zm11.02086 1.93189l-.89463 2.98212q1.41326-1.65961 2.51535-2.32086 1.11505-.66126 2.269-.66126 1.15394 0 1.97078.92057.81684.9076.81684 2.37273 0 2.85245-2.32086 5.80864-2.32086 2.94322-5.4067 2.94322-.64829 0-1.15395-.14263-.4927-.14262-1.11505-.50566l-.9465 3.34516q-.28525.98539-.28525 1.2836 0 .28525.14263.47973.15559.20745.49269.31118.33711.11669 1.33547.11669l-.11669.47973h-6.10685l.12966-.47973q1.20581-.0519 1.63368-.4149.4149-.36304.88166-2.0097l3.28033-11.35796q.29821-1.07615.29821-1.33546 0-.35008-.20745-.54456-.19448-.1945-.60939-.1945-.376 0-1.05022.0908v-.50565zm-3.02101 10.37258q.80387.95946 2.16527.95946.67422 0 1.37437-.376.70015-.37601 1.3614-1.11506.67422-.73904 1.20581-1.6985.5316-.97243.9465-2.28197.42787-1.30954.42787-2.59314 0-1.03726-.47973-1.58182-.46677-.55753-1.10209-.55753-1.4003 0-2.77466 1.60775-1.3614 1.60775-1.99672 3.76006zm22.88449-10.37258l-2.52831 8.79076-.28525 1.17988q-.0389.16856-.0389.28525 0 .20745.12966.36304.10373.11669.25932.11669.16855 0 .44083-.20745.50566-.37601 1.34843-1.5559l.44084.31119q-.89464 1.34843-1.84113 2.06155-.9465.70015-1.75037.70015-.55753 0-.84278-.28525-.27228-.27228-.27228-.80387 0-.63532.28525-1.67258l.27228-.97243q-1.69851 2.21714-3.12474 3.0988-1.02429.63533-2.00968.63533-.9465 0-1.63368-.77795-.68719-.79091-.68719-2.16527 0-2.06155 1.23175-4.34352 1.2447-2.29493 3.15066-3.6693 1.49106-1.08912 2.81357-1.08912.7909 0 1.30953.4149.5316.4149.80388 1.37437l.46676-1.4781zm-4.61579.67422q-.82981 0-1.76334.77795-1.3225 1.10208-2.35976 3.26736-1.02429 2.16527-1.02429 3.91564 0 .88167.44083 1.4003.44084.50566 1.01133.50566 1.41326 0 3.07287-2.08748 2.21714-2.77466 2.21714-5.69195 0-1.10208-.42787-1.59478-.42787-.4927-1.16691-.4927zm15.68851 8.23323q-1.34843 1.62072-2.7228 2.38569-1.37436.75202-2.90432.75202-1.84113 0-2.87839-1.03726-1.02429-1.03726-1.02429-2.78763 0-1.98376 1.10209-3.90268 1.11505-1.91893 2.98211-3.11177 1.88003-1.20582 3.68227-1.20582 1.41326 0 2.11341.59643.70015.58346.70015 1.43919 0 .80388-.4927 1.37437-.36304.44083-.89463.44083-.40194 0-.67422-.25931-.25932-.25932-.25932-.6483 0-.24634.0908-.4538.10373-.20744.40194-.49268.31118-.29822.37601-.42787.0648-.12966.0648-.27228 0-.27228-.24635-.4538-.37601-.25932-1.06319-.25932-1.27064 0-2.51535.89464-1.24471.89463-2.12638 2.54128-1.06319 1.99672-1.06319 3.99344 0 1.3225.75201 2.10044.75202.76498 2.04859.76498.99836 0 1.97079-.4927.98539-.50566 2.20417-1.8152zm9.30939-15.61073l-3.64337 12.58972q2.35976-3.55261 3.68227-4.71952 1.3225-1.16692 2.52831-1.16692.62236 0 1.03726.42787.4149.42787.4149 1.14099 0 .85573-.36304 2.0745l-1.58181 5.43265q-.29822.98539-.29822 1.08912 0 .18152.10373.2982.11669.1167.25931.1167.16856 0 .38898-.16855.73904-.5705 1.46512-1.58182l.40194.24635q-.44084.68718-1.23174 1.51699-.77795.81684-1.34844 1.14098-.55752.31118-.99836.31118-.47973 0-.79091-.31118-.29821-.29821-.29821-.77794 0-.5705.4538-2.12638l1.49106-5.1863q.28524-.97242.28524-1.52994 0-.25932-.16855-.41491-.15559-.15558-.4149-.15558-.37601 0-.85574.28524-.88167.54456-2.03562 2.02265-.31118.40194-2.07451 3.24143-.54456.9076-.89464 1.98376l-.8298 2.65797h-1.94486l4.26572-14.83278.4538-1.60775q0-.33711-.28525-.59642-.27228-.25932-.67421-.25932-.23339 0-.71312.0778l-.27228.0389v-.50566zm8.64813 13.54918q-.0908.64829-.0908 1.07616 0 1.15395.81684 1.97079.81684.80387 1.98376.80387.93353 0 1.78927-.376.8687-.38898 2.56721-1.69851l.27228.376q-3.07288 3.04695-5.86051 3.04695-1.89299 0-2.85245-1.19285-.95947-1.19285-.95947-2.63204 0-1.9319 1.19285-3.95454 1.19285-2.02266 2.99508-3.13771 1.80224-1.12802 3.7082-1.12802 1.37436 0 2.03561.55753.66126.55753.66126 1.3225 0 1.07616-.85574 2.06155-1.12802 1.2836-3.31923 2.07452-1.45216.53159-4.0842.8298zm.0908-.63532q1.91893-.22041 3.12474-.75201 1.59478-.71311 2.38569-1.69851.80388-.99836.80388-1.893 0-.54455-.35008-.88166-.33711-.33711-.97243-.33711-1.3225 0-2.81356 1.41326-1.47809 1.4003-2.17824 4.14903zm19.30591-12.05811h6.9237q2.7228 0 4.07123 1.17988 1.34844 1.1669 1.34844 2.85245 0 1.33547-.85574 2.59315-.85574 1.25767-2.54128 2.04858-1.68554.77794-3.64337.77794-1.21878 0-3.0988-.44083l-1.4003 4.79732q-.4927 1.71147-.4927 2.25603 0 .4149.35008.68718.35007.27228 1.67257.35008l-.12965.47973h-6.98853l.14263-.47973q1.37436 0 1.90596-.46677.54456-.47973 1.16691-2.61907l2.90432-10.00954q.51863-1.80223.51863-2.41162 0-.4538-.376-.75201-.36304-.29821-1.62072-.36304zm2.42459 8.19433q1.46513.376 2.35976.376 1.41327 0 2.56722-.58345 1.16691-.58346 1.8152-1.75037.66125-1.16692.66125-2.4246 0-1.30953-.80388-2.07451-.80387-.76497-2.43755-.76497-.88167 0-2.13935.2204zm11.0468-1.62071l4.47317-.7261-1.86706 6.30135q2.269-3.87675 4.1231-5.41967 1.05022-.88167 1.71147-.88167.42787 0 .67422.25932.24635.24635.24635.72608 0 .85574-.44084 1.63368-.31117.58346-.89463.58346-.29821 0-.51863-.1945-.20745-.19447-.25931-.59641-.0259-.24635-.11669-.32414-.10373-.10373-.24635-.10373-.22042 0-.41491.10373-.3371.18152-1.02429 1.01132-1.07615 1.27064-2.33383 3.29329-.54456.85574-.93353 1.9319-.54456 1.47809-.62235 1.7763l-.41491 1.63368h-1.98375l2.39866-8.05171q.4149-1.4003.4149-1.99672 0-.23338-.19449-.38897-.25931-.20745-.68718-.20745-.27228 0-.99836.11669zm20.25244 3.33218q0 1.94486-1.03726 3.85082-1.02429 1.90596-2.86542 3.021-1.84113 1.11507-3.57854 1.11507-1.7763 0-2.90432-1.12802-1.11505-1.14098-1.11505-2.94322 0-1.90596 1.08912-3.8249 1.10209-1.91891 2.93025-3.03396 1.84113-1.11506 3.55261-1.11506 1.71147 0 2.81356 1.12802 1.11505 1.12802 1.11505 2.93025zm-2.15231-.89463q0-1.20581-.59642-1.84113-.58346-.6483-1.51699-.6483-1.90596 0-3.51371 2.73578-1.59478 2.7228-1.59478 5.41967 0 1.23174.62235 1.90596.62236.66125 1.56885.66125 1.82817 0 3.42295-2.70983 1.60775-2.72281 1.60775-5.5234zm9.25752-8.29806q.54456 0 .92057.38897.38897.376.38897.92057 0 .54456-.38897.93353-.37601.376-.92057.376-.54456 0-.93353-.376-.376-.38897-.376-.93353 0-.54456.376-.92057.38897-.38897.93353-.38897zm.20746 5.13442l-3.35813 11.60432q-.89463 3.11177-2.46348 4.48614-1.55589 1.37437-3.37109 1.37437-.81684 0-1.23174-.37601-.42787-.37601-.42787-.89463 0-.40194.32414-.71312.31118-.29821.72608-.29821.37601 0 .66125.24635.23339.19448.23339.44083 0 .3371-.32415.58346-.18152.14262-.18152.23338l.0259.0648q.0389.0519.11669.0778.0778.0259.23338.0259 1.05022 0 1.80223-.67422.73905-.66125 1.32251-2.65797l2.90432-9.95767q.42787-1.46513.42787-1.62072 0-.31117-.28525-.55752-.27228-.24635-.70015-.24635-.16855 0-.38897.0389-.16855.0259-.4927.0778v-.4538zm4.23979 6.8459q-.0908.64829-.0908 1.07616 0 1.15395.81684 1.97079.81684.80387 1.98375.80387.93354 0 1.78927-.376.86871-.38898 2.56722-1.69851l.27228.376q-3.07288 3.04695-5.86051 3.04695-1.89299 0-2.85246-1.19285-.95946-1.19285-.95946-2.63204 0-1.9319 1.19285-3.95454 1.19284-2.02266 2.99508-3.13771 1.80223-1.12802 3.70819-1.12802 1.37437 0 2.03562.55753.66125.55753.66125 1.3225 0 1.07616-.85574 2.06155-1.12801 1.2836-3.31922 2.07452-1.45216.53159-4.0842.8298zm.0908-.63532q1.91893-.22041 3.12474-.75201 1.59478-.71311 2.38569-1.69851.80387-.99836.80387-1.893 0-.54455-.35007-.88166-.33711-.33711-.97243-.33711-1.3225 0-2.81356 1.41326-1.47809 1.4003-2.17824 4.14903zm18.77432 2.69687q-1.34843 1.62072-2.7228 2.38569-1.37437.75202-2.90432.75202-1.84113 0-2.87839-1.03726-1.02429-1.03726-1.02429-2.78763 0-1.98376 1.10208-3.90268 1.11506-1.91893 2.98212-3.11177 1.88003-1.20582 3.68226-1.20582 1.41327 0 2.11341.59643.70015.58346.70015 1.43919 0 .80388-.49269 1.37437-.36304.44083-.89464.44083-.40194 0-.67422-.25931-.25931-.25932-.25931-.6483 0-.24634.0908-.4538.10373-.20744.40194-.49268.31117-.29822.376-.42787.0648-.12966.0648-.27228 0-.27228-.24635-.4538-.376-.25932-1.06319-.25932-1.27064 0-2.51535.89464-1.2447.89463-2.12637 2.54128-1.06319 1.99672-1.06319 3.99344 0 1.3225.75201 2.10044.75201.76498 2.04858.76498.99836 0 1.97079-.4927.9854-.50566 2.20417-1.8152zm8.41475-12.12294l-1.01132 3.52667h2.03561l-.22041.81684h-2.02266l-2.2301 7.64978q-.36304 1.23174-.36304 1.59478 0 .22042.10373.3371.10372.1167.24635.1167.32414 0 .85573-.4538.31118-.25932 1.38733-1.59478l.42787.32414q-1.19284 1.7374-2.25603 2.45052-.72608.4927-1.46513.4927-.57049 0-.93353-.35008-.36304-.36304-.36304-.92056 0-.70015.4149-2.13935l2.16528-7.50715h-1.95782l.12965-.50566q1.42623-.38897 2.37273-1.15395.9465-.77794 2.11341-2.6839z" stroke-width=".966"/></svg>