<svg xmlns="http://www.w3.org/2000/svg" role="img" viewBox="-1.12 -0.12 209.24 214.24"><title>virtual-kubelet.input.svg logo</title><defs><clipPath id="clip-path"><path d="M204.09338 198.21754h-3.626v7.108a2.70035 2.70035 0 00.46044 1.76982 1.842 1.842 0 001.46765.53238 4.1224 4.1224 0 00.80576-.08633 3.08214 3.08214 0 00.777-.259l.08632 2.21586a6.5581 6.5581 0 01-1.07915.27339 7.258 7.258 0 01-1.223.10072 3.8982 3.8982 0 01-2.9497-1.06476 4.45236 4.45236 0 01-1.02161-3.19431v-7.39581h-2.61875v-2.21587h2.61875v-3.91373h2.67632v3.91373h3.626zm-10.904 4.48929v.46044a3.702 3.702 0 01-.02878.46044h-10.82039a4.09175 4.09175 0 00.38849 1.62593 4.278 4.278 0 00.964 1.32376 4.50274 4.50274 0 003.07919 1.19427 4.55555 4.55555 0 002.38854-.60433 4.87426 4.87426 0 001.58275-1.46765l1.89933 1.5252A6.74344 6.74344 0 01190.067 209.34a8.31269 8.31269 0 01-6.17276.15827 6.64864 6.64864 0 01-2.27343-1.45326 6.73712 6.73712 0 01-1.49643-2.259 7.61814 7.61814 0 01-.54677-2.93531 7.83231 7.83231 0 01.53238-2.92091 6.68476 6.68476 0 011.48201-2.28779 6.78406 6.78406 0 012.24463-1.482 7.69048 7.69048 0 015.5109-.04317 5.60653 5.60653 0 012.072 1.4101 6.3517 6.3517 0 011.30937 2.23026 8.854 8.854 0 01.46043 2.94964zm-2.73385-1.09355a5.14492 5.14492 0 00-.27339-1.51081 3.46942 3.46942 0 00-.71944-1.22305 3.3826 3.3826 0 00-1.17989-.82016 4.17635 4.17635 0 00-1.6547-.30216 4.37346 4.37346 0 00-1.62593.30216 4.22156 4.22156 0 00-1.32375.82016 4.3187 4.3187 0 00-.9209 1.22305 3.90134 3.90134 0 00-.41727 1.51081zm-15.16314 8.02892h-2.70507v-21.75578h2.70507zm-6.99031-6.93537v.46044a3.702 3.702 0 01-.02878.46044h-10.82039a4.09175 4.09175 0 00.38849 1.62593 4.27772 4.27772 0 00.96407 1.32376 4.50264 4.50264 0 003.07918 1.19427 4.55554 4.55554 0 002.38853-.60433 4.87453 4.87453 0 001.58277-1.46765l1.89931 1.5252a6.74349 6.74349 0 01-2.57559 2.11515 8.31272 8.31272 0 01-6.17277.15827 6.64864 6.64864 0 01-2.27343-1.45326 6.73727 6.73727 0 01-1.49643-2.259 7.61814 7.61814 0 01-.54677-2.93531 7.83231 7.83231 0 01.53238-2.92091 6.68476 6.68476 0 011.48206-2.28781 6.78416 6.78416 0 012.24463-1.482 7.69048 7.69048 0 015.5109-.04317 5.60653 5.60653 0 012.072 1.4101 6.35155 6.35155 0 011.30937 2.23026 8.85374 8.85374 0 01.46039 2.94962zm-2.73385-1.09355a5.14492 5.14492 0 00-.27339-1.51081 3.46912 3.46912 0 00-.71944-1.22305 3.3826 3.3826 0 00-1.17989-.82016 4.17631 4.17631 0 00-1.6547-.30216 4.3735 4.3735 0 00-1.62593.30216 4.22168 4.22168 0 00-1.32375.82016 4.31848 4.31848 0 00-.92089 1.22305 3.90153 3.90153 0 00-.41728 1.51081zm-17.00488 1.17988a5.961 5.961 0 00-.28778-1.84176 4.7 4.7 0 00-.86333-1.58276 4.13276 4.13276 0 00-1.42449-1.09354 4.55007 4.55007 0 00-1.97126-.40289 4.34085 4.34085 0 00-1.88492.40289 4.43329 4.43329 0 00-1.45326 1.09354 5.04475 5.04475 0 00-.93528 1.58276 5.45193 5.45193 0 000 3.74107 4.87106 4.87106 0 00.93528 1.56838 4.52946 4.52946 0 001.45326 1.07916 4.341 4.341 0 001.88492.40288 4.41668 4.41668 0 001.97126-.41727 4.29085 4.29085 0 001.42449-1.10794 4.7 4.7 0 00.86333-1.58276 5.961 5.961 0 00.28773-1.84176zm-9.06492 4.69073v2.15831h-2.61875v-21.75578h2.70509v10.15845h.08633a5.7089 5.7089 0 011.92809-1.71226 5.8324 5.8324 0 012.93531-.705 6.86529 6.86529 0 012.777.54678 6.39757 6.39757 0 012.15831 1.5252 6.85824 6.85824 0 011.39571 2.28781 7.9527 7.9527 0 01.48921 2.80581 8.0713 8.0713 0 01-.48921 2.82019 6.95141 6.95141 0 01-1.38132 2.3022 6.37945 6.37945 0 01-2.1583 1.5396 6.95934 6.95934 0 01-2.849.56116 6.27316 6.27316 0 01-2.79142-.64749 5.2491 5.2491 0 01-2.12952-1.88493zm-10.27095 2.15831q-.05748-.518-.08633-1.16548t-.02877-1.07916h-.05757a4.45565 4.45565 0 01-1.741 1.85615 5.03607 5.03607 0 01-2.71947.7626 5.56381 5.56381 0 01-2.28782-.43166 4.22066 4.22066 0 01-1.58276-1.19427 5.103 5.103 0 01-.92088-1.76982 7.476 7.476 0 01-.30216-2.1583v-8.46059h2.70508v7.5397a9.53008 9.53008 0 00.12951 1.59715 3.81826 3.81826 0 00.47482 1.33816 2.57491 2.57491 0 00.94966.92088 3.10658 3.10658 0 001.554.34533 3.26256 3.26256 0 002.64752-1.22305 4.97857 4.97857 0 001.00722-3.26624v-7.25193h2.70508v10.70523q0 .54678.02878 1.4101t.08633 1.5252zm-25.17769-11.39589h.05756l9.09369-8.97857h3.94251l-9.89945 9.3239 10.50378 11.05056h-4.08641l-9.55412-10.53256h-.05756v10.53256h-2.849v-20.37446h2.849zM88.22735 209.6422h-2.70508v-21.75578h2.70508zM77.237 203.13849q-1.00722 0-2.08637.08633a9.63767 9.63767 0 00-1.95686.34533 3.70065 3.70065 0 00-1.45327.777 1.76739 1.76739 0 00-.57555 1.38132 1.91083 1.91083 0 00.2446 1.00722 2.03238 2.03238 0 00.6475.66188 2.60521 2.60521 0 00.8921.35971 4.98212 4.98212 0 001.00722.10073 3.72411 3.72411 0 002.92091-1.13671 4.12285 4.12285 0 001.02161-2.86336v-.71944zm.66189-2.331a2.71367 2.71367 0 00-.92089-2.259 3.81159 3.81159 0 00-2.44609-.73383 5.37038 5.37038 0 00-2.17269.44606 5.50165 5.50165 0 00-1.71226 1.13671l-1.43888-1.72665a7.26478 7.26478 0 012.46048-1.49643 8.79407 8.79407 0 013.12236-.54678 7.05017 7.05017 0 012.5468.41728 4.81654 4.81654 0 011.76981 1.13671 4.65636 4.65636 0 011.036 1.69787 6.267 6.267 0 01.34533 2.10076v5.95694q0 .69066.04318 1.45326a7.46372 7.46372 0 00.15827 1.25182h-2.44612a8.51808 8.51808 0 01-.23023-1.95686h-.08633a5.23852 5.23852 0 01-1.88492 1.69786 5.65483 5.65483 0 01-2.69071.60433 7.04793 7.04793 0 01-1.68347-.21583 4.89209 4.89209 0 01-1.59715-.705 3.982 3.982 0 01-1.19427-1.295 3.852 3.852 0 01-.47483-1.98565 3.49183 3.49183 0 01.83455-2.46047 5.28673 5.28673 0 012.18708-1.38132 12.35118 12.35118 0 013.05042-.61872q1.69788-.14388 3.42453-.14389zm-16.084 8.83469q-.05754-.518-.08633-1.16548t-.02878-1.07916h-.05755a4.45542 4.45542 0 01-1.741 1.85615 5.0363 5.0363 0 01-2.71948.7626 5.56405 5.56405 0 01-2.28781-.43166 4.22043 4.22043 0 01-1.58276-1.19427 5.10228 5.10228 0 01-.92087-1.76982 7.476 7.476 0 01-.30217-2.1583v-8.46059h2.70508v7.5397a9.53115 9.53115 0 00.1295 1.59715 3.81866 3.81866 0 00.47483 1.33816 2.57488 2.57488 0 00.94965.92088 3.10666 3.10666 0 001.554.34533 3.26263 3.26263 0 002.64753-1.22305 4.97834 4.97834 0 001.00721-3.26624v-7.25193h2.70509v10.70525q0 .54678.02878 1.4101t.08632 1.5252zm-12.86097-11.42464H45.328v7.108a2.70071 2.70071 0 00.46043 1.76982 1.84186 1.84186 0 001.46766.53238 4.12263 4.12263 0 00.80576-.08633 3.08193 3.08193 0 00.777-.259l.08633 2.21586a6.56029 6.56029 0 01-1.07916.27339 7.25782 7.25782 0 01-1.223.10072 3.89815 3.89815 0 01-2.94969-1.06476 4.45259 4.45259 0 01-1.0216-3.19431v-7.39581h-2.61882v-2.21587h2.61875v-3.91373H45.328v3.91373h3.62595zm-17.20631.71944q0-.54678-.02878-1.4101t-.08633-1.52521h2.56119q.05756.518.08634 1.19427t.02877 1.10793h.08633a4.72068 4.72068 0 011.68349-1.94248 4.40786 4.40786 0 012.48925-.73383 4.19825 4.19825 0 011.06477.11512l-.11511 2.50363a5.09059 5.09059 0 00-1.23743-.14388 3.75449 3.75449 0 00-1.69788.35972 3.46668 3.46668 0 00-1.19426.964 4.0756 4.0756 0 00-.705 1.39571 5.89448 5.89448 0 00-.23022 1.65471v7.16559h-2.70513zm-4.7169-7.85626a1.608 1.608 0 01-.53238 1.23743 1.82612 1.82612 0 01-1.2806.48922 1.74774 1.74774 0 01-1.26621-.50361 1.642 1.642 0 01-.518-1.223 1.67525 1.67525 0 01.518-1.25182 1.74778 1.74778 0 011.26621-.50361 1.79715 1.79715 0 011.2806.50361 1.653 1.653 0 01.53238 1.25178zm-.46044 18.56148h-2.70508v-13.64053h2.70508zM12.328 205.95868h.08633l6.12967-16.69094h3.07919L13.623 209.6422h-2.64751L3.0329 189.26774h3.16553z" class="cls-1"/></clipPath><clipPath id="clip-path-2"><path d="M-37.46-49.355h281.235v307.396H-37.46z" class="cls-2"/></clipPath><clipPath id="clip-path-3"><path d="M103.158 4.276L38.647 35.341l-15.936 69.807 44.646 55.983h71.605l44.642-55.983-15.932-69.807-64.514-31.065z" class="cls-1"/></clipPath><clipPath id="clip-path-5"><path d="M103.158 4.276L38.647 35.341l-15.936 69.807 44.646 55.983h71.605l44.642-55.983-15.932-69.807-64.514-31.065z" class="cls-2"/></clipPath><clipPath id="clip-path-7"><path d="M22.711 4.276h160.892v156.968H22.711z" class="cls-2"/></clipPath><clipPath id="clip-path-10"><path d="M38.656 35.353l62.913 115.426 66.095-115.426H38.656z" class="cls-1"/></clipPath><clipPath id="clip-path-12"><path d="M103.158 4.016l64.422 31.355-26.333 46.081H63.778L38.735 35.371l64.423-31.355z" class="cls-1"/></clipPath><style>.cls-1,.cls-2,.cls-8{fill:none}.cls-1{clip-rule:evenodd}.cls-5{clip-path:url(#clip-path-2)}.cls-7{clip-path:url(#clip-path-3)}.cls-8{stroke:#383d49;stroke-miterlimit:10;stroke-width:16px}.cls-11{clip-path:url(#clip-path-7)}.cls-13{fill:#3a6ede}</style></defs><g clip-path="url(#clip-path)"><g class="cls-5"><path fill="#0073f2" d="M-3.507 181.346h214.141v35.211H-3.507z"/></g></g><g class="cls-7"><g class="cls-5"><path d="M103.158 4.276L38.647 35.341l-15.936 69.807 44.646 55.983h71.605l44.642-55.983-15.932-69.807-64.514-31.065z" class="cls-8"/></g></g><g clip-path="url(#clip-path-5)"><g class="cls-5"><g style="isolation:isolate"><g class="cls-11"><g class="cls-7"><g class="cls-11"><path d="M103.158 4.276L38.647 35.341l-15.936 69.807 44.646 55.983h71.605l44.642-55.983-15.932-69.807-64.514-31.065z" class="cls-8"/></g></g><g clip-path="url(#clip-path-10)"><g class="cls-11"><path d="M32.116 28.813h142.089V157.32H32.116z" class="cls-13"/></g></g></g></g></g></g><g clip-path="url(#clip-path-12)"><g class="cls-5"><path d="M32.195-2.524H174.12v90.516H32.195z" class="cls-13"/></g></g></svg>