<svg xmlns="http://www.w3.org/2000/svg" role="img" viewBox="-1.12 -0.12 209.24 214.24"><title>virtual-kubelet.input.svg logo</title><defs><clipPath id="clip-path"><path d="M204.093 198.218h-3.626v7.108a2.7 2.7 0 00.46 1.77 1.842 1.842 0 001.468.532 4.122 4.122 0 00.806-.087 3.082 3.082 0 00.777-.259l.087 2.216a6.558 6.558 0 01-1.08.274 7.258 7.258 0 01-1.223.1 3.898 3.898 0 01-2.95-1.064 4.452 4.452 0 01-1.02-3.195v-7.395h-2.62v-2.216h2.62v-3.914h2.675v3.914h3.626zm-10.904 4.489v.46a3.702 3.702 0 01-.028.46h-10.82a4.092 4.092 0 00.388 1.627 4.278 4.278 0 00.964 1.323 4.503 4.503 0 003.079 1.195 4.556 4.556 0 002.388-.605 4.874 4.874 0 001.583-1.467l1.9 1.525a6.743 6.743 0 01-2.576 2.115 8.313 8.313 0 01-6.173.158 6.649 6.649 0 01-2.273-1.453 6.737 6.737 0 01-1.497-2.259 7.618 7.618 0 01-.546-2.935 7.832 7.832 0 01.532-2.921 6.685 6.685 0 011.482-2.288 6.784 6.784 0 012.245-1.482 7.69 7.69 0 015.51-.043 5.607 5.607 0 012.073 1.41 6.352 6.352 0 011.309 2.23 8.854 8.854 0 01.46 2.95zm-2.733-1.094a5.145 5.145 0 00-.274-1.51 3.47 3.47 0 00-.72-1.224 3.383 3.383 0 00-1.18-.82 4.176 4.176 0 00-1.654-.302 4.373 4.373 0 00-1.626.302 4.222 4.222 0 00-1.324.82 4.319 4.319 0 00-.92 1.223 3.901 3.901 0 00-.418 1.511zm-15.164 8.03h-2.705v-21.757h2.705zm-6.99-6.936v.46a3.702 3.702 0 01-.029.46h-10.82a4.092 4.092 0 00.388 1.627 4.278 4.278 0 00.964 1.323 4.503 4.503 0 003.08 1.195 4.556 4.556 0 002.388-.605 4.875 4.875 0 001.583-1.467l1.9 1.525a6.743 6.743 0 01-2.576 2.115 8.313 8.313 0 01-6.173.158 6.649 6.649 0 01-2.274-1.453 6.737 6.737 0 01-1.496-2.259 7.618 7.618 0 01-.547-2.935 7.832 7.832 0 01.533-2.921 6.685 6.685 0 011.482-2.288 6.784 6.784 0 012.244-1.482 7.69 7.69 0 015.511-.043 5.607 5.607 0 012.072 1.41 6.352 6.352 0 011.31 2.23 8.854 8.854 0 01.46 2.95zm-2.734-1.094a5.145 5.145 0 00-.273-1.51 3.47 3.47 0 00-.72-1.224 3.383 3.383 0 00-1.18-.82 4.176 4.176 0 00-1.654-.302 4.373 4.373 0 00-1.626.302 4.222 4.222 0 00-1.324.82 4.318 4.318 0 00-.92 1.223 3.902 3.902 0 00-.418 1.511zm-17.005 1.18a5.961 5.961 0 00-.287-1.842 4.7 4.7 0 00-.864-1.582 4.133 4.133 0 00-1.424-1.094 4.55 4.55 0 00-1.972-.403 4.34 4.34 0 00-1.884.403 4.433 4.433 0 00-1.454 1.094 5.045 5.045 0 00-.935 1.582 5.452 5.452 0 000 3.741 4.871 4.871 0 00.935 1.569 4.53 4.53 0 001.454 1.079 4.341 4.341 0 001.884.403 4.417 4.417 0 001.972-.417 4.29 4.29 0 001.424-1.108 4.7 4.7 0 00.864-1.583 5.961 5.961 0 00.287-1.842zm-9.065 4.69v2.16h-2.618v-21.757h2.705v10.159h.086a5.709 5.709 0 011.928-1.712 5.832 5.832 0 012.936-.705 6.865 6.865 0 012.777.546 6.398 6.398 0 012.158 1.526 6.858 6.858 0 011.396 2.287 7.953 7.953 0 01.489 2.806 8.071 8.071 0 01-.49 2.82 6.951 6.951 0 01-1.38 2.303 6.38 6.38 0 01-2.16 1.54 6.96 6.96 0 01-2.848.56 6.273 6.273 0 01-2.792-.647 5.25 5.25 0 01-2.129-1.885zm-10.27 2.16q-.058-.519-.087-1.166t-.029-1.08h-.057a4.456 4.456 0 01-1.741 1.857 5.036 5.036 0 01-2.72.762 5.564 5.564 0 01-2.287-.431 4.22 4.22 0 01-1.583-1.195 5.103 5.103 0 01-.921-1.77 7.476 7.476 0 01-.302-2.158v-8.46h2.705v7.54a9.53 9.53 0 00.13 1.597 3.818 3.818 0 00.474 1.338 2.575 2.575 0 00.95.92 3.107 3.107 0 001.554.346 3.263 3.263 0 002.647-1.223 4.979 4.979 0 001.008-3.266v-7.252h2.705v10.705q0 .547.028 1.41t.087 1.525zm-25.178-11.397h.057l9.094-8.978h3.943l-9.9 9.324 10.504 11.05h-4.087l-9.554-10.532h-.057v10.532h-2.85v-20.374h2.85zm-15.823 11.396h-2.705v-21.756h2.705zm-10.99-6.504q-1.007 0-2.086.087a9.638 9.638 0 00-1.957.345 3.7 3.7 0 00-1.454.777 1.767 1.767 0 00-.575 1.381 1.91 1.91 0 00.245 1.008 2.032 2.032 0 00.647.662 2.605 2.605 0 00.892.36 4.982 4.982 0 001.007.1 3.724 3.724 0 002.921-1.137 4.123 4.123 0 001.022-2.863v-.72zm.662-2.33a2.714 2.714 0 00-.921-2.26 3.812 3.812 0 00-2.446-.733 5.37 5.37 0 00-2.173.446 5.502 5.502 0 00-1.712 1.136l-1.439-1.726a7.265 7.265 0 012.46-1.497 8.794 8.794 0 013.123-.546 7.05 7.05 0 012.547.417 4.817 4.817 0 011.77 1.137 4.656 4.656 0 011.036 1.697 6.267 6.267 0 01.345 2.101v5.957q0 .69.043 1.453a7.464 7.464 0 00.158 1.252h-2.446a8.518 8.518 0 01-.23-1.957h-.086a5.239 5.239 0 01-1.885 1.698 5.655 5.655 0 01-2.691.605 7.048 7.048 0 01-1.683-.216 4.892 4.892 0 01-1.598-.705 3.982 3.982 0 01-1.194-1.295 3.852 3.852 0 01-.475-1.986 3.492 3.492 0 01.835-2.46 5.287 5.287 0 012.187-1.382 12.351 12.351 0 013.05-.618q1.698-.144 3.425-.144zm-16.084 8.834q-.058-.518-.086-1.165t-.03-1.08h-.057a4.455 4.455 0 01-1.74 1.857 5.036 5.036 0 01-2.72.762 5.564 5.564 0 01-2.288-.431 4.22 4.22 0 01-1.583-1.195 5.102 5.102 0 01-.92-1.77 7.476 7.476 0 01-.303-2.158v-8.46h2.705v7.54a9.531 9.531 0 00.13 1.597 3.819 3.819 0 00.475 1.338 2.575 2.575 0 00.95.92 3.107 3.107 0 001.553.346 3.263 3.263 0 002.648-1.223 4.978 4.978 0 001.007-3.266v-7.252h2.705v10.705q0 .547.029 1.41t.086 1.525zm-12.861-11.424h-3.626v7.108a2.7 2.7 0 00.46 1.77 1.842 1.842 0 001.468.532 4.123 4.123 0 00.806-.087 3.082 3.082 0 00.777-.259l.086 2.216a6.56 6.56 0 01-1.079.274 7.258 7.258 0 01-1.223.1 3.898 3.898 0 01-2.95-1.064 4.453 4.453 0 01-1.021-3.195v-7.395h-2.62v-2.216h2.62v-3.914h2.676v3.914h3.626zm-17.206.719q0-.547-.03-1.41t-.086-1.525h2.562q.057.518.086 1.194t.029 1.108h.086a4.72 4.72 0 011.684-1.943 4.408 4.408 0 012.489-.733 4.198 4.198 0 011.065.115l-.115 2.503a5.09 5.09 0 00-1.238-.144 3.754 3.754 0 00-1.698.36 3.467 3.467 0 00-1.194.964 4.076 4.076 0 00-.705 1.396 5.894 5.894 0 00-.23 1.655v7.165h-2.705zm-4.717-7.856a1.608 1.608 0 01-.533 1.237 1.826 1.826 0 01-1.28.49 1.748 1.748 0 01-1.266-.504 1.642 1.642 0 01-.518-1.223 1.675 1.675 0 01.518-1.252 1.748 1.748 0 011.266-.504 1.797 1.797 0 011.28.504 1.653 1.653 0 01.533 1.252zm-.46 18.561h-2.706v-13.64h2.705zm-14.243-3.683h.086l6.13-16.691h3.08l-8.001 20.374h-2.648l-7.942-20.374h3.165z" class="cls-1"/></clipPath><clipPath id="clip-path-2"><path d="M-37.46-49.355h281.235v307.396H-37.46z" class="cls-2"/></clipPath><clipPath id="clip-path-3"><path d="M103.158 4.276L38.647 35.341l-15.936 69.807 44.646 55.983h71.605l44.642-55.983-15.932-69.807-64.514-31.065z" class="cls-1"/></clipPath><clipPath id="clip-path-5"><path d="M103.158 4.276L38.647 35.341l-15.936 69.807 44.646 55.983h71.605l44.642-55.983-15.932-69.807-64.514-31.065z" class="cls-2"/></clipPath><clipPath id="clip-path-7"><path d="M22.711 4.276h160.892v156.968H22.711z" class="cls-2"/></clipPath><clipPath id="clip-path-10"><path d="M38.656 35.353l62.913 115.426 66.095-115.426H38.656z" class="cls-1"/></clipPath><clipPath id="clip-path-12"><path d="M103.158 4.016l64.422 31.355-26.333 46.081H63.778L38.735 35.371l64.423-31.355z" class="cls-1"/></clipPath><style>.cls-1,.cls-2,.cls-8{fill:none}.cls-1{clip-rule:evenodd}.cls-5{clip-path:url(#clip-path-2)}.cls-7{clip-path:url(#clip-path-3)}.cls-8{stroke:#383d49;stroke-miterlimit:10;stroke-width:16px}.cls-11{clip-path:url(#clip-path-7)}.cls-13{fill:#3a6ede}</style></defs><g clip-path="url(#clip-path)"><g class="cls-5"><path fill="#0073f2" d="M-3.507 181.346h214.141v35.211H-3.507z"/></g></g><g class="cls-7"><g class="cls-5"><path d="M103.158 4.276L38.647 35.341l-15.936 69.807 44.646 55.983h71.605l44.642-55.983-15.932-69.807-64.514-31.065z" class="cls-8"/></g></g><g clip-path="url(#clip-path-5)"><g class="cls-5"><g style="isolation:isolate"><g class="cls-11"><g class="cls-7"><g class="cls-11"><path d="M103.158 4.276L38.647 35.341l-15.936 69.807 44.646 55.983h71.605l44.642-55.983-15.932-69.807-64.514-31.065z" class="cls-8"/></g></g><g clip-path="url(#clip-path-10)"><g class="cls-11"><path d="M32.116 28.813h142.089V157.32H32.116z" class="cls-13"/></g></g></g></g></g></g><g clip-path="url(#clip-path-12)"><g class="cls-5"><path d="M32.195-2.524H174.12v90.516H32.195z" class="cls-13"/></g></g></svg>