<svg xmlns="http://www.w3.org/2000/svg" role="img" viewBox="212.51 184.76 155.48 75.23"><title>white.input.svg logo</title><path fill="#fff" d="M125.5 159.438h317v121h-317z"/><path fill="#007f00" stroke="#000" stroke-width="1.5" d="M216.418 222.495h0c0-18.777 33.13-34 74-34h0c19.626 0 38.448 3.582 52.325 9.959 13.878 6.376 21.675 15.024 21.675 24.041h0c0 18.778-33.131 34-74 34h0c-40.87 0-74-15.222-74-34zm37 0h0c0 9.39 16.565 17 37 17 20.434 0 37-7.61 37-17 0-9.389-16.566-17-37-17h0c-20.435 0-37 7.611-37 17z"/></svg>