<svg xmlns="http://www.w3.org/2000/svg" role="img" viewBox="-0.01 -0.01 442.52 107.52"><title>white-1.input.svg logo</title><defs><style>.cls-1{fill:#fff}</style></defs><g id="its-pronounced"><g id="kyoob-cuttle"><path id="kkkkkkk" d="M141.302 55.60467c.823-.926 1.646-1.852 2.572-2.778.926-1.029 1.75-1.955 2.572-2.88.823-1.03 1.646-1.956 2.367-2.779s1.44-1.646 1.954-2.263h9.98c-1.955 2.263-3.91 4.527-5.864 6.584q-2.778 3.087-6.173 6.482a41.55359 41.55359 0 013.498 3.704c1.234 1.44 2.366 2.88 3.498 4.32a43.93387 43.93387 0 013.086 4.528c.926 1.543 1.75 2.88 2.367 4.115h-9.671c-.618-1.029-1.338-2.058-2.058-3.19a37.45741 37.45741 0 00-2.47-3.6 29.58289 29.58289 0 00-2.777-3.498 17.67839 17.67839 0 00-2.778-2.778v12.963h-8.436v-42.49l8.436-1.338v24.898" class="cls-1"/><path id="uuuuuuu" d="M190.48 73.60866a40.03706 40.03706 0 01-5.555 1.132 39.771 39.771 0 01-7.1.514 16.57685 16.57685 0 01-6.378-1.028 9.45 9.45 0 01-5.967-7.202 24.19462 24.19462 0 01-.618-5.556v-16.564h8.437v15.535c0 2.675.309 4.63 1.029 5.865s2.057 1.852 4.012 1.852a13.118 13.118 0 001.955-.103c.72-.103 1.235-.103 1.852-.206v-22.943h8.436l-.103 28.704" class="cls-1"/><path id="bbbbbbb" d="M217.539 59.51366c0-5.452-1.955-8.127-5.968-8.127a10.98851 10.98851 0 00-2.572.308 7.775 7.775 0 00-2.057.823v15.33c.411.103.926.103 1.543.206.617 0 1.337.103 2.058.103a6.37 6.37 0 005.247-2.367 10.55006 10.55006 0 001.749-6.276m8.539.206a18.63 18.63 0 01-1.029 6.482 13.24211 13.24211 0 01-2.983 4.938 15.823 15.823 0 01-4.836 3.19 18.82878 18.82878 0 01-6.585 1.028c-1.028 0-2.057-.103-3.189-.205s-2.16-.206-3.292-.31c-1.029-.102-2.058-.308-3.087-.514a13.00421 13.00421 0 01-2.572-.72v-41.565l8.437-1.337v14.815a14.36906 14.36906 0 012.983-.926 17.02771 17.02771 0 013.293-.308 13.03587 13.03587 0 015.555 1.131 11.142 11.142 0 014.116 3.087 12.408 12.408 0 012.469 4.938 29.21582 29.21582 0 01.72 6.276" class="cls-1"/><path id="eeeeeee0" d="M231.12 60.02867a17.55739 17.55739 0 011.234-6.893 15.744 15.744 0 013.19-4.939 11.991 11.991 0 014.526-2.983 13.75006 13.75006 0 015.35-1.03 13.168 13.168 0 019.98 3.91c2.469 2.572 3.703 6.38 3.703 11.317a9.41275 9.41275 0 01-.102 1.647c0 .514-.103 1.028-.103 1.543H239.76a5.64 5.64 0 002.47 4.115 9.7891 9.7891 0 005.761 1.543 21.80469 21.80469 0 004.527-.411 18.45509 18.45509 0 003.704-1.029l1.131 6.893c-.411.206-1.028.412-1.851.72a10.37186 10.37186 0 01-2.573.515 23.22189 23.22189 0 01-2.983.411c-1.029.103-2.16.206-3.19.206a18.09009 18.09009 0 01-6.996-1.234 15.14775 15.14775 0 01-4.938-3.19 14.84973 14.84973 0 01-2.88-4.938 24.16491 24.16491 0 01-.824-6.173m19.857-3.292a6.65169 6.65169 0 00-.412-2.058 6.25388 6.25388 0 00-.926-1.852 4.915 4.915 0 00-4.115-1.852 6.21592 6.21592 0 00-2.47.514 4.092 4.092 0 00-1.645 1.235 5.39485 5.39485 0 00-1.03 1.852 15.045 15.045 0 00-.514 2.058h11.112" class="cls-1"/><path id="rrrrrrr" d="M283.487 52.31266a15.45966 15.45966 0 00-2.675-.515 17.02725 17.02725 0 00-3.292-.309 18.13791 18.13791 0 00-1.955.206 16.16251 16.16251 0 00-1.646.309v22.737h-8.437v-28.293a43.76238 43.76238 0 015.35-1.44 28.942 28.942 0 016.893-.72 10.01508 10.01508 0 011.646.102 14.05921 14.05921 0 011.955.206c.618.103 1.235.206 1.955.309.617.103 1.235.309 1.646.411l-1.44 6.997" class="cls-1"/><path id="nnnnnnn" d="M289.454 45.93366a49.74625 49.74625 0 0112.655-1.646 15.69309 15.69309 0 016.276 1.028 8.81314 8.81314 0 014.012 2.778 12.01812 12.01812 0 012.058 4.321 22.95026 22.95026 0 01.617 5.556v16.77h-8.437v-15.74c0-2.675-.308-4.63-1.028-5.762s-2.058-1.646-4.013-1.646a13.11635 13.11635 0 00-1.955.103 10.19255 10.19255 0 00-1.851.206v22.943h-8.334v-28.91" class="cls-1"/><path id="eeeeeee1" d="M321.348 60.02867a17.55611 17.55611 0 011.234-6.893 15.74452 15.74452 0 013.19-4.939 11.9903 11.9903 0 014.527-2.983 13.75007 13.75007 0 015.35-1.03 13.168 13.168 0 019.98 3.91c2.468 2.572 3.703 6.38 3.703 11.317a9.4131 9.4131 0 01-.103 1.647c0 .514-.103 1.028-.103 1.543H329.99a5.64 5.64 0 002.47 4.115 9.789 9.789 0 005.76 1.543 21.80363 21.80363 0 004.528-.411 18.45539 18.45539 0 003.703-1.029l1.132 6.893c-.411.206-1.029.412-1.852.72a10.37115 10.37115 0 01-2.572.515 23.22923 23.22923 0 01-2.984.411c-1.028.103-2.16.206-3.189.206a18.09012 18.09012 0 01-6.996-1.234 15.14761 15.14761 0 01-4.938-3.19 14.84982 14.84982 0 01-2.881-4.938 24.15987 24.15987 0 01-.823-6.173m19.856-3.292a6.65225 6.65225 0 00-.411-2.058 6.25484 6.25484 0 00-.926-1.852 4.915 4.915 0 00-4.116-1.852 6.21585 6.21585 0 00-2.469.514 4.092 4.092 0 00-1.646 1.235 5.3961 5.3961 0 00-1.029 1.852 15.03553 15.03553 0 00-.514 2.058h11.111" class="cls-1"/><path id="ttttttt" d="M355.608 37.49666l8.436-1.337v8.745h10.083v6.996h-10.083v10.494a8.27285 8.27285 0 00.926 4.218c.618 1.03 1.955 1.544 3.807 1.544a25.22678 25.22678 0 002.778-.206 16.727 16.727 0 002.675-.72l1.234 6.584a16.38508 16.38508 0 01-3.395 1.029 19.77872 19.77872 0 01-4.63.411 15.72314 15.72314 0 01-5.76-.925 9.52211 9.52211 0 01-3.602-2.573 10.2078 10.2078 0 01-1.955-4.115 26.66542 26.66542 0 01-.514-5.247v-24.898" class="cls-1"/><path id="eeeeeee2" d="M378.448 60.02867a17.55579 17.55579 0 011.235-6.893 15.74434 15.74434 0 013.189-4.939 11.99022 11.99022 0 014.527-2.983 13.75 13.75 0 015.35-1.03 13.168 13.168 0 019.98 3.91c2.469 2.572 3.703 6.38 3.703 11.317a9.41311 9.41311 0 01-.103 1.647c0 .514-.103 1.028-.103 1.543H387.09a5.64 5.64 0 002.47 4.115 9.789 9.789 0 005.76 1.543 21.80347 21.80347 0 004.528-.411 18.4553 18.4553 0 003.703-1.029l1.132 6.893c-.411.206-1.029.412-1.852.72a10.37115 10.37115 0 01-2.572.515 23.22767 23.22767 0 01-2.983.411c-1.03.103-2.16.206-3.19.206a18.09009 18.09009 0 01-6.996-1.234 15.14751 15.14751 0 01-4.938-3.19 14.84993 14.84993 0 01-2.88-4.938 20.34309 20.34309 0 01-.824-6.173m19.754-3.292a6.65225 6.65225 0 00-.412-2.058 6.25367 6.25367 0 00-.926-1.852 4.915 4.915 0 00-4.115-1.852 6.21585 6.21585 0 00-2.47.514 4.092 4.092 0 00-1.646 1.235 5.39518 5.39518 0 00-1.028 1.852 15.0375 15.0375 0 00-.515 2.058h11.112" class="cls-1"/><path id="sssssss" d="M421.35 68.56766a8.454 8.454 0 003.293-.411 1.802 1.802 0 00.925-1.75c0-.72-.411-1.234-1.234-1.748a19.51607 19.51607 0 00-3.807-1.75c-1.337-.514-2.572-1.028-3.6-1.543a10.2851 10.2851 0 01-2.676-1.852 8.04586 8.04586 0 01-1.749-2.675 9.96757 9.96757 0 01-.617-3.703 7.828 7.828 0 013.086-6.585c2.058-1.646 4.939-2.47 8.54-2.47a29.26725 29.26725 0 015.247.515 19.02139 19.02139 0 013.91 1.03l-1.441 6.584c-1.029-.309-2.058-.618-3.19-.926a14.394 14.394 0 00-3.806-.412c-2.675 0-3.91.72-3.91 2.16a3.00425 3.00425 0 00.206.927 1.72808 1.72808 0 00.72.823c.309.206.823.514 1.338.823.617.308 1.337.514 2.263.926a33.93712 33.93712 0 014.63 2.057 7.68194 7.68194 0 012.778 2.161 5.374 5.374 0 011.44 2.572 10.67694 10.67694 0 01.412 3.292 7.669 7.669 0 01-3.293 6.688c-2.16 1.543-5.247 2.263-9.362 2.263a23.78307 23.78307 0 01-6.584-.72 18.77879 18.77879 0 01-3.601-1.132l1.44-6.893a31.44184 31.44184 0 004.424 1.337 18.93155 18.93155 0 004.218.412" class="cls-1"/></g></g><path d="M64.023 60.57866a1.65024 1.65024 0 00-.393-.03 1.69393 1.69393 0 00-.655.17 1.712 1.712 0 00-.829 2.218l-.012.017 3.92 9.47a20.00807 20.00807 0 008.087-10.159l-10.101-1.707zm-15.717 1.342a1.71 1.71 0 00-1.64-1.33 1.68081 1.68081 0 00-.337.03l-.017-.021-10.013 1.7a20.084 20.084 0 008.062 10.087l3.88-9.376-.03-.037a1.693 1.693 0 00.095-1.053zm8.386 3.677a1.709 1.709 0 00-3.014.004h-.008l-4.924 8.904a20.05694 20.05694 0 0010.946.563q1.01-.23 1.973-.551l-4.936-8.92zm15.588-20.683l-7.576 6.78.004.022a1.712 1.712 0 00.671 2.939l.009.041 9.814 2.827a20.352 20.352 0 00-2.922-12.609zm-14.075.759a1.712 1.712 0 002.718 1.305l.03.013 8.29-5.878a20.155 20.155 0 00-11.623-5.603l.576 10.16zm-8.779 1.343a1.71 1.71 0 002.714-1.31l.042-.02.576-10.176a20.533 20.533 0 00-2.069.356 19.979 19.979 0 00-9.623 5.244l8.344 5.915zm-4.448 7.689a1.71 1.71 0 00.672-2.94l.008-.04-7.618-6.814a19.973 19.973 0 00-2.835 12.645l9.765-2.818zm7.399 2.993l2.81 1.351 2.802-1.348.696-3.025-1.939-2.425h-3.121l-1.945 2.421z" class="cls-1"/><path d="M101.644 63.65866l-8.008-34.783a6.252 6.252 0 00-3.352-4.17L57.87 9.22966a6.246 6.246 0 00-5.38 0l-32.407 15.484a6.25 6.25 0 00-3.353 4.17l-7.995 34.782a6.12 6.12 0 00-.002 2.67 6.20649 6.20649 0 00.226.79 6.02163 6.02163 0 00.617 1.253c.11.168.226.331.352.489l22.432 27.89c.098.121.206.232.313.345a6.17014 6.17014 0 001.183.98 6.4 6.4 0 001.773.771 6.11154 6.11154 0 001.576.217h.349l35.624-.008a5.97577 5.97577 0 00.648-.038 6.18989 6.18989 0 00.914-.174 6.36921 6.36921 0 00.635-.203c.162-.062.324-.124.48-.199a6.4091 6.4091 0 00.68-.378 6.116 6.116 0 001.488-1.317l.684-.85 21.74-27.045a6.06 6.06 0 00.969-1.74 6.28546 6.28546 0 00.23-.792 6.10509 6.10509 0 00-.002-2.67zm-33.621 13.528a6.6698 6.6698 0 00.323.783 1.523 1.523 0 00-.15 1.144 18.09518 18.09518 0 001.72 3.08 16.12144 16.12144 0 011.04 1.546c.078.145.18.369.254.522a1.949 1.949 0 11-3.507 1.658c-.074-.152-.177-.354-.24-.497a16.20884 16.20884 0 01-.563-1.778 18.06766 18.06766 0 00-1.331-3.262 1.533 1.533 0 00-.99-.601c-.062-.107-.292-.528-.415-.746a25.104 25.104 0 01-17.902-.046l-.439.796a1.576 1.576 0 00-.836.407 13.5673 13.5673 0 00-1.502 3.485 16.0392 16.0392 0 01-.56 1.778c-.062.142-.166.342-.24.493v.004l-.003.004a1.948 1.948 0 11-3.502-1.662c.073-.154.171-.377.248-.522a16.16651 16.16651 0 011.04-1.55 18.95043 18.95043 0 001.756-3.156 1.92507 1.92507 0 00-.173-1.097l.353-.846a25.24393 25.24393 0 01-11.187-13.967l-.845.144a2.15106 2.15106 0 00-1.116-.393 18.16711 18.16711 0 00-3.381.995 16.35528 16.35528 0 01-1.741.667c-.14.038-.342.077-.502.112-.013.004-.024.01-.037.013l-.03.003a1.947 1.947 0 11-.861-3.78l.028-.007.017-.005c.162-.038.37-.092.518-.12a16.2117 16.2117 0 011.861-.15 18.10666 18.10666 0 003.477-.571 2.6821 2.6821 0 00.834-.841l.812-.237a25.102 25.102 0 013.959-17.5l-.622-.554a2.155 2.155 0 00-.39-1.12 18.09344 18.09344 0 00-2.885-2.027 16.201 16.201 0 01-1.608-.94c-.118-.088-.274-.22-.402-.324l-.029-.02a2.056 2.056 0 01-.477-2.86 1.869 1.869 0 011.546-.684 2.312 2.312 0 011.352.51c.132.104.313.242.43.343a16.20515 16.20515 0 011.278 1.356 18.10212 18.10212 0 002.615 2.363 1.53193 1.53193 0 001.152.112c.111.082.486.35.7.497a24.953 24.953 0 0112.675-7.241 25.3043 25.3043 0 013.507-.539l.046-.82a2.115 2.115 0 00.63-1.004 18.144 18.144 0 00-.216-3.518 16.30572 16.30572 0 01-.265-1.845c-.005-.141.003-.336.005-.497 0-.018-.005-.036-.005-.054a1.95 1.95 0 113.88-.002c0 .17.01.396.004.552a16.14087 16.14087 0 01-.266 1.844 18.16979 18.16979 0 00-.22 3.519 1.537 1.537 0 00.634.97c.007.14.03.608.047.866a25.42209 25.42209 0 0116.102 7.78l.738-.527a2.15588 2.15588 0 001.177-.128 18.17027 18.17027 0 002.615-2.366 16.095 16.095 0 011.281-1.356c.119-.102.299-.239.43-.343a1.95 1.95 0 112.417 3.033c-.13.105-.302.252-.427.345a16.134 16.134 0 01-1.612.94 18.15327 18.15327 0 00-2.885 2.027 1.534 1.534 0 00-.364 1.099c-.108.099-.487.435-.688.617a25.205 25.205 0 014.041 17.458l.783.228a2.181 2.181 0 00.837.842 18.13931 18.13931 0 003.478.572 16.38367 16.38367 0 011.86.149c.163.03.399.095.565.133a1.947 1.947 0 11-.863 3.78l-.028-.004c-.013-.003-.025-.01-.038-.013-.16-.035-.361-.07-.501-.107a16.15288 16.15288 0 01-1.74-.672 18.14463 18.14463 0 00-3.384-.995 1.534 1.534 0 00-1.086.403q-.413-.079-.829-.145a25.243 25.243 0 01-11.182 14.067z" class="cls-1"/></svg>