<svg xmlns="http://www.w3.org/2000/svg" role="img" viewBox="-5.22 -4.97 401.18 171.93"><title>white-10.input.svg logo</title><defs><clipPath id="clip-path"><path d="M10.366 10.745h37.821v37.821H10.366z" class="cls-1" transform="rotate(-135.213 29.277 29.656)"/></clipPath><clipPath id="clip-path-2"><path d="M91.267 18.248h22.184v22.184H91.267z" class="cls-1" transform="rotate(-135.213 102.36 29.34)"/></clipPath><style>.cls-1{fill:#fff}.cls-2{opacity:.6}</style></defs><path d="M45.25266 138.4832a30.334 30.334 0 0 0 10.868 8.99737 32.57655 32.57655 0 0 0 14.89977 3.38255 32.00564 32.00564 0 0 0 12.23614-2.087 21.23954 21.23954 0 0 0 8.13322-5.686 21.9319 21.9319 0 0 0 4.4631-8.42224 37.613 37.613 0 0 0 1.3674-10.29142v-12.0924h-.28757a25.96224 25.96224 0 0 1-11.22891 9.78894 34.63865 34.63865 0 0 1-13.96373 2.87858 36.31666 36.31666 0 0 1-13.74732-2.591 34.96818 34.96818 0 0 1-11.157-7.12528 32.78585 32.78585 0 0 1-7.48547-10.86947 34.1079 34.1079 0 0 1-2.73552-13.67543 35.77409 35.77409 0 0 1 2.59174-13.67615 35.1544 35.1544 0 0 1 7.12528-11.08442 32.13981 32.13981 0 0 1 10.79685-7.41357 34.7819 34.7819 0 0 1 13.74805-2.66363 38.4439 38.4439 0 0 1 6.40563.57586 30.33376 30.33376 0 0 1 6.76582 2.01588A31.168 31.168 0 0 1 96.93273 68.8091h.28757V57.58017h9.50134v66.79625a54.19694 54.19694 0 0 1-1.36812 11.65955 28.801 28.801 0 0 1-5.32581 11.372 30.33079 30.33079 0 0 1-11.01252 8.63864q-7.05521 3.453-18.42683 3.45372a46.28292 46.28292 0 0 1-17.994-3.30993 41.81951 41.81951 0 0 1-14.3958-10.22172zm1.72685-48.0804a25.7937 25.7937 0 0 0 1.944 10.00386 26.28207 26.28207 0 0 0 5.3258 8.20583 25.75569 25.75569 0 0 0 7.91755 5.61483 23.29854 23.29854 0 0 0 9.86153 2.087 26.40714 26.40714 0 0 0 18.1378-7.12528 22.93428 22.93428 0 0 0 5.54294-8.13467 26.20142 26.20142 0 0 0 1.79946-10.65157A28.66066 28.66066 0 0 0 95.781 80.39748a24.03124 24.03124 0 0 0-5.039-8.20583 24.34848 24.34848 0 0 0-8.06132-5.6141 26.241 26.241 0 0 0-10.6523-2.08705 23.32049 23.32049 0 0 0-9.86153 2.08705 25.82667 25.82667 0 0 0-7.91755 5.6141 26.34081 26.34081 0 0 0-5.3258 8.20583 25.814 25.814 0 0 0-1.94399 10.00532zm98.46497 34.54875h-10.36477V23.03069h31.38188q15.54715 0 24.5449 6.76582 8.9952 6.76873 8.99737 20.442a25.46852 25.46852 0 0 1-6.69393 17.92286q-6.69465 7.27088-19.36214 8.42078l29.36745 48.36942H190.6463l-27.92744-47.3615h-17.27438zm0-56.86282h18.4261a41.42083 41.42083 0 0 0 11.73217-1.43929 21.78832 21.78832 0 0 0 7.70187-3.81463 13.93071 13.93071 0 0 0 4.17481-5.6141 18.6287 18.6287 0 0 0 1.29551-6.98222 18.24867 18.24867 0 0 0-1.29551-6.83771 14.48673 14.48673 0 0 0-4.17481-5.68672 20.36065 20.36065 0 0 0-7.70187-3.81463 43.56175 43.56175 0 0 0-11.73217-1.3674h-18.4261zm75.71882-45.05804h29.65576q15.54606 0 24.54344 6.76582 8.9952 6.76873 8.99737 20.442 0 13.678-8.99737 20.51387-8.99737 6.83844-24.54344 6.83771H231.5288v47.36148h-10.3655zm10.3655 45.058h16.69925a41.43135 41.43135 0 0 0 11.73216-1.43929 21.80073 21.80073 0 0 0 7.70187-3.81463 13.93554 13.93554 0 0 0 4.17409-5.6141 18.6145 18.6145 0 0 0 1.2955-6.98222 18.23448 18.23448 0 0 0-1.2955-6.83771 14.492 14.492 0 0 0-4.17409-5.68672 20.37144 20.37144 0 0 0-7.70187-3.81463 43.57286 43.57286 0 0 0-11.73216-1.3674H231.5288zm156.90869 40.74021a39.52988 39.52988 0 0 1-6.40491 7.34168 40.48762 40.48762 0 0 1-8.70981 5.97356 49.67506 49.67506 0 0 1-10.58044 3.95913 48.89034 48.89034 0 0 1-12.02119 1.43929 54.52194 54.52194 0 0 1-21.08828-4.0303A50.59235 50.59235 0 0 1 301.6328 95.441a55.77871 55.77871 0 0 1-4.0303-21.44992 55.78285 55.78285 0 0 1 4.0303-21.44919 50.58642 50.58642 0 0 1 28.00006-28.07122 54.509 54.509 0 0 1 21.08828-4.031 51.52506 51.52506 0 0 1 19.00268 3.74273 38.33082 38.33082 0 0 1 16.26644 12.38065l-9.06854 6.76582a24.81628 24.81628 0 0 0-4.31932-4.89445 31.53161 31.53161 0 0 0-6.26112-4.3186 39.09168 39.09168 0 0 0-7.55809-3.02309 29.242 29.242 0 0 0-8.062-1.15172 41.34487 41.34487 0 0 0-17.562 3.59899 39.88515 39.88515 0 0 0-13.17146 9.6444 42.42921 42.42921 0 0 0-8.27845 14.03634 50.29092 50.29092 0 0 0 0 33.54082 42.41113 42.41113 0 0 0 8.27845 14.03561 39.83627 39.83627 0 0 0 13.17146 9.64513 41.30106 41.30106 0 0 0 17.56195 3.599 44.50266 44.50266 0 0 0 7.98943-.71892 33.18418 33.18418 0 0 0 7.77449-2.44723 29.41506 29.41506 0 0 0 7.1979-4.6795 34.69181 34.69181 0 0 0 6.26113-7.41285z" class="cls-1"/><g class="cls-2"><path d="M29.37642 56.4L2.5337 29.75614 29.17758 2.9134 56.0203 29.55729z" class="cls-1"/><g clip-path="url(#clip-path)"><path d="M3.006 2.913l-.473 4.188V2.913h.473z" class="cls-1"/><path d="M3.632 2.913l-1.099 9.722V7.101l.473-4.188h.626z" class="cls-1"/><path d="M4.257 2.913L2.533 18.168v-5.533l1.099-9.722h.625z" class="cls-1"/><path d="M4.882 2.913L2.533 23.702v-5.534L4.257 2.913h.625z" class="cls-1"/><path d="M5.507 2.913L2.533 29.236v-5.534L4.882 2.913h.625z" class="cls-1"/><path d="M6.133 2.913l-3.6 31.857v-5.534L5.507 2.913h.626z" class="cls-1"/><path d="M6.758 2.913l-4.225 37.39V34.77l3.6-31.857h.625z" class="cls-1"/><path d="M7.383 2.913l-4.85 42.924v-5.534l4.225-37.39h.625z" class="cls-1"/><path d="M8.008 2.913L2.533 51.371v-5.534l4.85-42.924h.625z" class="cls-1"/><path d="M8.634 2.913l-6.04 53.454-.061-.007v-4.989L8.008 2.913h.626z" class="cls-1"/><path d="M9.259 2.913L3.215 56.4h-.331l-.29-.033 6.04-53.454h.625z" class="cls-1"/><path d="M9.884 2.913L3.841 56.4h-.626L9.259 2.913h.625z" class="cls-1"/><path d="M10.51 2.913L4.466 56.4h-.625L9.884 2.913h.626z" class="cls-1"/><path d="M11.135 2.913L5.091 56.4h-.625L10.51 2.913h.625z" class="cls-1"/><path d="M11.76 2.913L5.717 56.4h-.626l6.044-53.487h.625z" class="cls-1"/><path d="M12.385 2.913L6.342 56.4h-.625L11.76 2.913h.625z" class="cls-1"/><path d="M13.011 2.913L6.967 56.4h-.625l6.043-53.487h.626z" class="cls-1"/><path d="M13.636 2.913L7.592 56.4h-.625l6.044-53.487h.625z" class="cls-1"/><path d="M14.261 2.913L8.218 56.4h-.626l6.044-53.487h.625z" class="cls-1"/><path d="M14.886 2.913L8.843 56.4h-.625l6.043-53.487h.625z" class="cls-1"/><path d="M15.512 2.913L9.468 56.4h-.625l6.043-53.487h.626z" class="cls-1"/><path d="M16.137 2.913L10.093 56.4h-.625l6.044-53.487h.625z" class="cls-1"/><path d="M16.762 2.913L10.719 56.4h-.626l6.044-53.487h.625z" class="cls-1"/><path d="M17.387 2.913L11.344 56.4h-.625l6.043-53.487h.625z" class="cls-1"/><path d="M18.013 2.913L11.969 56.4h-.625l6.043-53.487h.626z" class="cls-1"/><path d="M18.638 2.913L12.594 56.4h-.625l6.044-53.487h.625z" class="cls-1"/><path d="M19.263 2.913L13.22 56.4h-.626l6.044-53.487h.625z" class="cls-1"/><path d="M19.888 2.913L13.845 56.4h-.625l6.043-53.487h.625z" class="cls-1"/><path d="M20.514 2.913L14.47 56.4h-.625l6.043-53.487h.626z" class="cls-1"/><path d="M21.139 2.913L15.095 56.4h-.625l6.044-53.487h.625z" class="cls-1"/><path d="M21.764 2.913L15.721 56.4h-.626l6.044-53.487h.625z" class="cls-1"/><path d="M22.389 2.913L16.346 56.4h-.625l6.043-53.487h.625z" class="cls-1"/><path d="M23.015 2.913L16.971 56.4h-.625l6.043-53.487h.626z" class="cls-1"/><path d="M23.64 2.913L17.596 56.4h-.625l6.044-53.487h.625z" class="cls-1"/><path d="M24.265 2.913L18.222 56.4h-.626L23.64 2.913h.625z" class="cls-1"/><path d="M24.891 2.913L18.847 56.4h-.625l6.043-53.487h.626z" class="cls-1"/><path d="M25.516 2.913L19.472 56.4h-.625l6.044-53.487h.625z" class="cls-1"/><path d="M26.141 2.913L20.097 56.4h-.625l6.044-53.487h.625z" class="cls-1"/><path d="M26.766 2.913L20.723 56.4h-.626l6.044-53.487h.625z" class="cls-1"/><path d="M27.392 2.913L21.348 56.4h-.625l6.043-53.487h.626z" class="cls-1"/><path d="M28.017 2.913L21.973 56.4h-.625l6.044-53.487h.625z" class="cls-1"/><path d="M28.642 2.913L22.599 56.4h-.626l6.044-53.487h.625z" class="cls-1"/><path d="M29.267 2.913L23.224 56.4h-.625l6.043-53.487h.625z" class="cls-1"/><path d="M29.893 2.913L23.849 56.4h-.625l6.043-53.487h.626z" class="cls-1"/><path d="M30.518 2.913L24.474 56.4h-.625l6.044-53.487h.625z" class="cls-1"/><path d="M31.143 2.913L25.1 56.4h-.626l6.044-53.487h.625z" class="cls-1"/><path d="M31.768 2.913L25.725 56.4H25.1l6.043-53.487h.625z" class="cls-1"/><path d="M32.394 2.913L26.35 56.4h-.625l6.043-53.487h.626z" class="cls-1"/><path d="M33.019 2.913L26.975 56.4h-.625l6.044-53.487h.625z" class="cls-1"/><path d="M33.644 2.913L27.601 56.4h-.626l6.044-53.487h.625z" class="cls-1"/><path d="M34.269 2.913L28.226 56.4h-.625l6.043-53.487h.625z" class="cls-1"/><path d="M34.895 2.913L28.851 56.4h-.625l6.043-53.487h.626z" class="cls-1"/><path d="M35.52 2.913L29.476 56.4h-.625l6.044-53.487h.625z" class="cls-1"/><path d="M36.145 2.913L30.102 56.4h-.626L35.52 2.913h.625z" class="cls-1"/><path d="M36.77 2.913L30.727 56.4h-.625l6.043-53.487h.625z" class="cls-1"/><path d="M37.396 2.913L31.352 56.4h-.625L36.77 2.913h.626z" class="cls-1"/><path d="M38.021 2.913L31.977 56.4h-.625l6.044-53.487h.625z" class="cls-1"/><path d="M38.646 2.913L32.603 56.4h-.626l6.044-53.487h.625z" class="cls-1"/><path d="M39.271 2.913L33.228 56.4h-.625l6.043-53.487h.625z" class="cls-1"/><path d="M39.897 2.913L33.853 56.4h-.625l6.043-53.487h.626z" class="cls-1"/><path d="M40.522 2.913L34.478 56.4h-.625l6.044-53.487h.625z" class="cls-1"/><path d="M41.147 2.913L35.104 56.4h-.626l6.044-53.487h.625z" class="cls-1"/><path d="M41.773 2.913L35.729 56.4h-.625l6.043-53.487h.626z" class="cls-1"/><path d="M42.398 2.913L36.354 56.4h-.625l6.044-53.487h.625z" class="cls-1"/><path d="M43.023 2.913L36.979 56.4h-.625l6.044-53.487h.625z" class="cls-1"/><path d="M43.648 2.913L37.605 56.4h-.626l6.044-53.487h.625z" class="cls-1"/><path d="M44.274 2.913L38.23 56.4h-.625l6.043-53.487h.626z" class="cls-1"/><path d="M44.899 2.913L38.855 56.4h-.625l6.044-53.487h.625z" class="cls-1"/><path d="M45.524 2.913L39.481 56.4h-.626l6.044-53.487h.625z" class="cls-1"/><path d="M55.67 2.913l.35.039V56.4H39.481l6.043-53.487H55.67z" class="cls-1"/></g></g><g class="cls-2"><path d="M102.41902 45.02705L86.67436 29.39902l15.62803-15.74466 15.74467 15.62803z" class="cls-1"/><g clip-path="url(#clip-path-2)"><path d="M118.046 22.817l-.427-9.164h.427v9.164z" class="cls-1"/><path d="M118.046 32.446l-.875-18.793h.448l.427 9.164v9.629z" class="cls-1"/><path d="M118.046 42.075l-1.324-28.422h.449l.875 18.793v9.629z" class="cls-1"/><path d="M117.735 45.027l-1.461-31.374h.448l1.324 28.422v2.952h-.311z" class="cls-1"/><path d="M117.286 45.027l-1.461-31.374h.449l1.461 31.374h-.449z" class="cls-1"/><path d="M116.838 45.027l-1.461-31.374h.448l1.461 31.374h-.448z" class="cls-1"/><path d="M116.389 45.027l-1.461-31.374h.449l1.461 31.374h-.449z" class="cls-1"/><path d="M115.941 45.027l-1.461-31.374h.448l1.461 31.374h-.448z" class="cls-1"/><path d="M115.493 45.027l-1.462-31.374h.449l1.461 31.374h-.448z" class="cls-1"/><path d="M115.044 45.027l-1.461-31.374h.448l1.462 31.374h-.449z" class="cls-1"/><path d="M114.596 45.027l-1.462-31.374h.449l1.461 31.374h-.448z" class="cls-1"/><path d="M114.147 45.027l-1.461-31.374h.448l1.462 31.374h-.449z" class="cls-1"/><path d="M113.699 45.027l-1.462-31.374h.449l1.461 31.374h-.448z" class="cls-1"/><path d="M113.25 45.027l-1.461-31.374h.448l1.462 31.374h-.449z" class="cls-1"/><path d="M112.802 45.027l-1.462-31.374h.449l1.461 31.374h-.448z" class="cls-1"/><path d="M112.353 45.027l-1.461-31.374h.448l1.462 31.374h-.449z" class="cls-1"/><path d="M111.905 45.027l-1.462-31.374h.449l1.461 31.374h-.448z" class="cls-1"/><path d="M111.456 45.027l-1.461-31.374h.448l1.462 31.374h-.449z" class="cls-1"/><path d="M111.008 45.027l-1.461-31.374h.448l1.461 31.374h-.448z" class="cls-1"/><path d="M110.559 45.027l-1.461-31.374h.449l1.461 31.374h-.449z" class="cls-1"/><path d="M110.111 45.027l-1.461-31.374h.448l1.461 31.374h-.448z" class="cls-1"/><path d="M109.662 45.027l-1.461-31.374h.449l1.461 31.374h-.449z" class="cls-1"/><path d="M109.214 45.027l-1.461-31.374h.448l1.461 31.374h-.448z" class="cls-1"/><path d="M108.765 45.027l-1.461-31.374h.449l1.461 31.374h-.449z" class="cls-1"/><path d="M108.317 45.027l-1.461-31.374h.448l1.461 31.374h-.448z" class="cls-1"/><path d="M107.868 45.027l-1.461-31.374h.449l1.461 31.374h-.449z" class="cls-1"/><path d="M107.42 45.027l-1.461-31.374h.448l1.461 31.374h-.448z" class="cls-1"/><path d="M106.972 45.027l-1.462-31.374h.449l1.461 31.374h-.448z" class="cls-1"/><path d="M106.523 45.027l-1.461-31.374h.448l1.462 31.374h-.449z" class="cls-1"/><path d="M106.075 45.027l-1.462-31.374h.449l1.461 31.374h-.448z" class="cls-1"/><path d="M105.626 45.027l-1.461-31.374h.448l1.462 31.374h-.449z" class="cls-1"/><path d="M105.178 45.027l-1.462-31.374h.449l1.461 31.374h-.448z" class="cls-1"/><path d="M104.729 45.027l-1.461-31.374h.448l1.462 31.374h-.449z" class="cls-1"/><path d="M104.281 45.027l-1.462-31.374h.449l1.461 31.374h-.448z" class="cls-1"/><path d="M103.832 45.027l-1.461-31.374h.448l1.462 31.374h-.449z" class="cls-1"/><path d="M103.384 45.027l-1.462-31.374h.449l1.461 31.374h-.448z" class="cls-1"/><path d="M102.935 45.027l-1.461-31.374h.448l1.462 31.374h-.449z" class="cls-1"/><path d="M102.487 45.027l-1.461-31.374h.448l1.461 31.374h-.448z" class="cls-1"/><path d="M102.038 45.027l-1.461-31.374h.449l1.461 31.374h-.449z" class="cls-1"/><path d="M101.59 45.027l-1.461-31.374h.448l1.461 31.374h-.448z" class="cls-1"/><path d="M101.141 45.027L99.68 13.653h.449l1.461 31.374h-.449z" class="cls-1"/><path d="M100.693 45.027l-1.461-31.374h.448l1.461 31.374h-.448z" class="cls-1"/><path d="M100.244 45.027l-1.461-31.374h.449l1.461 31.374h-.449z" class="cls-1"/><path d="M99.796 45.027l-1.461-31.374h.448l1.461 31.374h-.448z" class="cls-1"/><path d="M99.347 45.027l-1.461-31.374h.449l1.461 31.374h-.449z" class="cls-1"/><path d="M98.899 45.027l-1.461-31.374h.448l1.461 31.374h-.448z" class="cls-1"/><path d="M98.45 45.027l-1.461-31.374h.449l1.461 31.374h-.449z" class="cls-1"/><path d="M98.002 45.027l-1.461-31.374h.448l1.461 31.374h-.448z" class="cls-1"/><path d="M97.554 45.027l-1.462-31.374h.449l1.461 31.374h-.448z" class="cls-1"/><path d="M97.105 45.027l-1.461-31.374h.448l1.462 31.374h-.449z" class="cls-1"/><path d="M96.657 45.027l-1.462-31.374h.449l1.461 31.374h-.448z" class="cls-1"/><path d="M96.208 45.027l-1.461-31.374h.448l1.462 31.374h-.449z" class="cls-1"/><path d="M95.76 45.027l-1.462-31.374h.449l1.461 31.374h-.448z" class="cls-1"/><path d="M95.311 45.027L93.85 13.653h.448l1.462 31.374h-.449z" class="cls-1"/><path d="M94.863 45.027l-1.462-31.374h.449l1.461 31.374h-.448z" class="cls-1"/><path d="M94.414 45.027l-1.461-31.374h.448l1.462 31.374h-.449z" class="cls-1"/><path d="M93.966 45.027l-1.462-31.374h.449l1.461 31.374h-.448z" class="cls-1"/><path d="M93.517 45.027l-1.461-31.374h.448l1.462 31.374h-.449z" class="cls-1"/><path d="M93.069 45.027l-1.461-31.374h.448l1.461 31.374h-.448z" class="cls-1"/><path d="M92.62 45.027l-1.461-31.374h.449l1.461 31.374h-.449z" class="cls-1"/><path d="M92.172 45.027l-1.461-31.374h.448l1.461 31.374h-.448z" class="cls-1"/><path d="M91.723 45.027l-1.461-31.374h.449l1.461 31.374h-.449z" class="cls-1"/><path d="M91.275 45.027l-1.461-31.374h.448l1.461 31.374h-.448z" class="cls-1"/><path d="M90.826 45.027l-1.461-31.374h.449l1.461 31.374h-.449z" class="cls-1"/><path d="M90.378 45.027l-1.461-31.374h.448l1.461 31.374h-.448z" class="cls-1"/><path d="M89.929 45.027l-1.461-31.374h.449l1.461 31.374h-.449z" class="cls-1"/><path d="M89.481 45.027L88.02 13.653h.448l1.461 31.374h-.448z" class="cls-1"/><path d="M89.033 45.027l-1.462-31.374h.449l1.461 31.374h-.448z" class="cls-1"/><path d="M88.584 45.027l-1.461-31.374h.448l1.462 31.374h-.449z" class="cls-1"/><path d="M88.136 45.027l-1.462-31.374h.449l1.461 31.374h-.448z" class="cls-1"/><path d="M87.687 45.027l-1.014-21.783v-9.591h.001l1.462 31.374h-.449z" class="cls-1"/><path d="M87.239 45.027l-.566-12.154v-9.629l1.014 21.783h-.448z" class="cls-1"/><path d="M86.79 45.027l-.117-2.525v-9.629l.566 12.154h-.449z" class="cls-1"/><path d="M86.673 42.502l.117 2.525h-.117v-2.525z" class="cls-1"/></g></g><path d="M30.353 13.486L14.218 29.742l16.255 16.135 13.752-.051-14.421-14.305 71.209-.264-6.241 6.283 6.876-.025 8.068-8.128-8.128-8.067-6.876.025L101 27.583l-71.209.264 14.313-14.412-13.751.051z" class="cls-1"/></svg>