<svg xmlns="http://www.w3.org/2000/svg" role="img" viewBox="-1.20 19.05 361.40 322.90"><title>white-8.input.svg logo</title><defs><style>.cls-1{fill:#fff}</style></defs><path d="M166.80981 150.62274l-1.91162-1.91168-50.45062 50.45062c-.11816.11817-.22705.24829-.34216.37073a17.07167 17.07167 0 0 0-2.21021 2.855c-.21289.336-.41772.67426-.606 1.01312l-.08306.08313c-.24939.49866-.49872 1.08045-.748 1.57917a17.36186 17.36186 0 0 0-1.32984 6.7323 18.00008 18.00008 0 0 0 5.23621 12.71649l10.14 10.14 42.22222-42.22223a29.472 29.472 0 0 0 .08308-41.80665z" class="cls-1"/><path d="M344.84155 100.089l-21.693-21.69293a29.50428 29.50428 0 0 0-39.64569-1.91162c-.748.58178-1.413 1.2467-2.161 1.91162L267.3786 92.35931l-2.49341 2.49347-.08313.08307 51.78046 51.78046a44.60571 44.60571 0 0 1 3.657 4.23889c.03144.04157.05872.08545.09.12714.74451 4.47406 1.32428 9.03027 1.73853 13.58673l-.08313.08313c-.41559-4.57135-.99738-9.14258-1.82856-13.63074a35.17992 35.17992 0 0 0-3.657-4.23889L264.80206 95.019 208.201 38.41785a42.13919 42.13919 0 0 0-59.34393 0L31.91467 155.27716a42.1006 42.1006 0 0 0-6.23358 51.28174c.02185.03644.0376.07117.05829.10754L14.5437 217.69629a29.54675 29.54675 0 0 0 0 41.8067l21.69293 21.69293a29.66858 29.66858 0 0 0 34.40949 5.40247 28.61667 28.61667 0 0 0 7.39721-5.40247l6.8985-6.8985 2.49347-2.49342.78961-.78962 51.98822 51.98828a42.13913 42.13913 0 0 0 59.34388 0l117.02551-116.85929a41.86653 41.86653 0 0 0 9.22577-45.21441l-1.87012 1.87005 1.95319-1.95318c-.01575-.03895-.035-.07648-.05084-.11542l18.91784-18.91785a29.5216 29.5216 0 0 0 .08319-41.72356zm-91.59186 68.8178c.14521-.249.28016-.49793.40723-.74689-.12726.24933-.26233.49872-.40777.74805zm.76825-1.49493c.22821-.498.4358-.9961.64331-1.49408l.00086-.002c.41559-.99737.748-2.07788 1.08044-3.07525-.33245 1.0805-.66485 2.07788-1.08044 3.07525-.20776.4987-.41559.99742-.64417 1.49608zM26.0285 206.21149c.01709.09436.04151.19171.06287.28692-.0246-.09167-.04852-.18408-.07782-.272zm143.7735 48.30462a33.61008 33.61008 0 0 1-47.54162 0l-8.81018-8.81018-25.22535 25.22534-28.17585-28.1759 28.13434 28.13434 25.26685-25.26685-10.05688-10.05686a32.6239 32.6239 0 0 1-5.98425-8.14526 33.96538 33.96538 0 0 1-1.413-28.259 24.30736 24.30736 0 0 1 1.413-2.99212 32.62159 32.62159 0 0 1 5.98425-8.14527l50.40906-50.40905.04156.04156 27.01227-27.01233a33.61009 33.61009 0 0 1 47.54163 0l10.30617 10.30621-11.05416 11.05426.04151.04157-.04157.04156-10.38934-10.38934a17.557 17.557 0 0 0-12.63343-5.31933 15.29751 15.29751 0 0 0-3.40771.33245 17.897 17.897 0 0 0-9.22571 4.90375l-27.01227 27.01227 1.91162 1.91168a29.54675 29.54675 0 0 1 0 41.8067l-42.30535 42.30536 8.81012 8.81018a17.85874 17.85874 0 0 0 12.71655 5.23621 17.069 17.069 0 0 0 6.7323-1.32983c.49872-.24933 1.0805-.49872 1.57916-.74805.08313 0 .08313-.08307.16626-.08307a18.56031 18.56031 0 0 0 4.1557-3.07526l34.07709-34.077-.33246-.33246a29.54664 29.54664 0 0 1 0-41.8067l.082-.082a29.54659 29.54659 0 0 0 .001 41.8056l.291.29089-.04156.04157L203.879 220.356l43.38586-43.38587a22.2845 22.2845 0 0 0 2.32715-2.49347 34.24069 34.24069 0 0 1-2.32715 2.5766L203.879 220.43909h.00006z" class="cls-1"/></svg>