<svg xmlns="http://www.w3.org/2000/svg" role="img" viewBox="212.51 184.76 155.48 75.23"><title>white.input.svg logo</title><path fill="#fff" d="M125.5 159.438h317v121h-317z"/><path fill="#007f00" stroke="#000" stroke-width="1.5" d="M216.4175 222.4953h0c0-18.77767 33.13094-34 74-34h0c19.62602 0 38.44822 3.58214 52.3259 9.95837 13.8777 6.37624 21.67411 15.02427 21.67411 24.04164h0c0 18.77767-33.13093 34-74 34h0c-40.86907 0-74-15.22233-74-34zm37 0h0c0 9.38884 16.56548 17 37 17 20.43455 0 37.00001-7.61116 37.00001-17 0-9.38883-16.56547-17-37-17h0c-20.43453 0-37 7.61117-37 17z"/></svg>