<svg xmlns="http://www.w3.org/2000/svg" role="img" viewBox="-10.70 24.30 5756.40 1316.40"><title>zeit.input.svg logo</title><style>svg {enable-background:new 0 0 5728 1328}</style><style/><g id="Page-1"><g id="Complete-logo-_x28_white-on-black_x29_"><linearGradient id="Triangle-3_1_" x1="123.697" x2="105.532" y1="6820.456" y2="6840.095" gradientTransform="matrix(50.9832 0 0 -45.2264 -4581.417 310411.156)" gradientUnits="userSpaceOnUse"><stop offset="0" stop-color="#fff"/><stop offset="1"/></linearGradient><path id="Triangle-3" fill="url(#Triangle-3_1_)" d="M717.3 138.2L1333.2 1230.9 101.4 1230.9z"/><path id="ZEIT" fill="#333" d="M2173.2,959.7h494.1v-85.8h-370.9l364.8-520.7v-74.9h-482v85.8h358.8l-364.8,520.7V959.7z M3184.4,959.7h443.4v-85.8h-343.1V655.2h298.4v-85.8h-298.4V364.1h343.1v-85.8h-443.4V959.7z M4161.7,959.7h432.5v-85.8h-165.5 V364.1h165.5v-85.8h-432.5v85.8h166.7v509.8h-166.7V959.7z M5305.8,959.7H5406V364.1h232v-85.8h-561.8v85.8h229.5V959.7z"/></g></g></svg>