<svg xmlns="http://www.w3.org/2000/svg" role="img" viewBox="-2.61 -2.61 889.72 543.22"><title>zipkin.input.svg logo</title><style>svg {fill-rule:evenodd;clip-rule:evenodd}</style><g transform="translate(-147.142 -489.518) scale(1.97717)"><clipPath id="a"><path d="M297.97 254.996c-24.502.001-44.363 19.862-44.363 44.364.012 18.531 11.545 35.102 28.916 41.556v5.675l5.736 5.741-.659 41.828-149.649-.094c-2.371-.006-4.424-1.733-4.424-1.733-2.243-2.267 1.512-11.638 1.512-11.638l2.829-6.035c1.343-3.006 1.835-3.144 2.619-4.589-3.184.289-4.974.663-7.17 1.245-6.674 1.886-9.977 3.174-17.661 6.622-7.539 3.582-10.666 5.048-15.729 8.266-8.085 4.687-11.907 7.738-18.149 11.599.458.389.939.692 1.44.957 4.978 3.209 8.844 6.069 15.873 10.143 5.063 3.218 8.19 4.684 15.729 8.266 7.684 3.448 10.987 4.736 17.661 6.622 2.196.582 3.986.95 7.17 1.24-.784-1.446-1.276-1.577-2.619-4.584l-2.829-6.035s-3.755-9.371-1.512-11.638c0 0 1.005-.828 2.409-1.339.797-.147 1.637-.272 2.486-.394l43.045-.028 107.589.316.405 11.87 1.66 17.523 1.025 11.227 11.958-.005.997-10.929 1.655-17.877.438-11.809 162.516.858 21.271.692c4.83.402 9.527 1.256 13.791 2.43l7.507 2.209c1.497-1.324 2.234-2.494 2.652-3.975.584-1.938.512-4.132.532-5.785-.068-1.565-.056-3.775-.349-5.254-.458-1.442-1.15-2.651-2.647-3.976l-7.507 2.209c-3.47.977-8.264 2.023-13.797 2.425l-21.52 1.102H306.358l-.072-41.816 5.741-5.183-.006-6.234c17.573-6.334 30.288-22.993 30.312-41.672 0-24.502-19.862-44.363-44.363-44.363zm-.105 7.945c24.953.414 36.781 20.345 36.568 36.623-.243 18.513-15.845 35.815-36.242 36.436-20.113 0-36.418-16.305-36.418-36.419 0-20.114 15.978-36.64 36.092-36.64z"/></clipPath><g clip-path="url(#a)"><path fill-opacity=".997" fill-rule="nonzero" d="M297.97 254.996c-24.502.001-44.363 19.862-44.363 44.364.012 18.531 11.545 35.102 28.916 41.556v5.675l5.736 5.741-.659 41.828-149.649-.094c-2.371-.006-4.424-1.733-4.424-1.733-2.243-2.267 1.512-11.638 1.512-11.638l2.829-6.035c1.343-3.006 1.835-3.144 2.619-4.589-3.184.289-4.974.663-7.17 1.245-6.674 1.886-9.977 3.174-17.661 6.622-7.539 3.582-10.666 5.048-15.729 8.266-8.085 4.687-11.907 7.738-18.149 11.599.458.389.939.692 1.44.957 4.978 3.209 8.844 6.069 15.873 10.143 5.063 3.218 8.19 4.684 15.729 8.266 7.684 3.448 10.987 4.736 17.661 6.622 2.196.582 3.986.95 7.17 1.24-.784-1.446-1.276-1.577-2.619-4.584l-2.829-6.035s-3.755-9.371-1.512-11.638c0 0 1.005-.828 2.409-1.339.797-.147 1.637-.272 2.486-.394l43.045-.028 107.589.316.405 11.87 1.66 17.523 1.025 11.227 11.958-.005.997-10.929 1.655-17.877.438-11.809 162.516.858 21.271.692c4.83.402 9.527 1.256 13.791 2.43l7.507 2.209c1.497-1.324 2.234-2.494 2.652-3.975.584-1.938.512-4.132.532-5.785-.068-1.565-.056-3.775-.349-5.254-.458-1.442-1.15-2.651-2.647-3.976l-7.507 2.209c-3.47.977-8.264 2.023-13.797 2.425l-21.52 1.102H306.358l-.072-41.816 5.741-5.183-.006-6.234c17.573-6.334 30.288-22.993 30.312-41.672 0-24.502-19.862-44.363-44.363-44.363zm-.105 7.945c24.953.414 36.781 20.345 36.568 36.623-.243 18.513-15.845 35.815-36.242 36.436-20.113 0-36.418-16.305-36.418-36.419 0-20.114 15.978-36.64 36.092-36.64z"/><path fill="#231f20" fill-opacity=".997" fill-rule="nonzero" d="M297.97224 254.995c-24.50145.00026-44.36396 19.86277-44.36422 44.36422.01243 18.53166 11.5419 35.10328 28.9131 41.55752v5.67478l5.73933 5.73933-.66225 41.82714-149.64814-.09234c-2.37067-.00609-4.4225-1.73435-4.4225-1.73435-2.24288-2.26641 1.5105-11.6382 1.5105-11.6382l2.82998-6.03382c1.34355-3.00672 1.83753-3.14087 2.6207-4.58629-3.18374.2892-4.97708.66014-7.17338 1.24222-6.67437 1.88568-9.9732 3.17315-17.65721 6.62093-7.53824 3.58245-10.66773 5.04798-15.73105 8.2661-8.08513 4.68735-11.90941 7.73852-18.15092 11.59879.4572.38946.94165.69691 1.44303.96229 4.9776 3.20886 8.84316 6.0653 15.87154 10.13961 5.06333 3.21812 8.19255 4.68524 15.73078 8.2677 7.68429 3.44777 10.98311 4.7355 17.65722 6.62092 2.19656.58208 3.98964.9517 7.17337 1.24089-.78317-1.44542-1.27688-1.57956-2.62043-4.58655l-2.83024-6.03222s-3.75311-9.37339-1.51024-11.63954c0 0 1.00409-.83079 2.40823-1.3417.79719-.14684 1.64068-.2712 2.48867-.39264l43.04448-.02646 107.58818.31776.40587 11.86682 1.65973 17.52254 1.02102 11.22784 11.9618-.0045.99324-10.92622 1.65523-17.8784.44239-11.80808 162.51402.85408 21.26983.69717c4.82864.4027 9.53028 1.25466 13.79535 2.42861l7.50358 2.20768c1.49754-1.32424 2.23043-2.4937 2.64847-3.97403.58473-1.9386.5133-4.12962.53446-5.78326-.06879-1.565-.05556-3.77957-.3466-5.25885-.45773-1.44145-1.15358-2.6498-2.64848-3.97404l-7.50622 2.20742c-3.47133.97631-8.26292 2.02591-13.79535 2.4286l-21.51854 1.10305H306.36005l-.07461-41.81893 5.74118-5.18212-.00529-6.23384c17.57254-6.33491 30.28893-22.99464 30.31327-41.67394-.00026-24.50144-19.86065-44.36343-44.36236-44.36369zm-.10769 7.94649c24.95362.4138 36.77916 20.34775 36.5659 36.62596-.24289 18.5126-15.84005 35.81104-36.23702 36.43175-20.1136.00027-36.4188-16.30519-36.4188-36.41879s15.97632-36.63892 36.08992-36.63892z"/></g></g><path fill="#231f20" stroke="#231f20" stroke-width="1.483" d="M147.8656 429.88582l58.0418.21749-42.01881 75.88972 39.61853-.03362-.21946 12.95245-61.31402.09095L183.9094 442.688h-36.2613l.2175-12.80218zm120.8822-.10874h12.87533l-.01186 89.25143H268.8249l-.0771-89.25143zm188.09016.10874l12.65587-.10874-.05734 34.6934 36.71209-34.6756 18.36.15421-45.09727 42.93622 45.12297 46.0918h-18.30464l-36.9019-38.03285.09886 38.23649h-12.59062l.00198-89.29493zm128.41126.10875l12.87335-.2175v89.13479l-12.7646.10874-.10875-89.02603zm82.37088-3.38294l62.83446 63.90609.5971-61.53349 12.5926.09095.10875 93.01992-63.55218-63.78944-.07513 60.9344-12.83777-.21946.33217-92.40897z"/><path fill="#231f20" stroke="#231f20" stroke-width="1.483" d="M351.88345 429.77708c9.38167.1463 26.51187.10874 26.51187.10874 4.57517.47452 9.32434 2.69488 13.16993 5.56771 4.26476 3.79617 6.76785 7.40648 7.75249 11.61192.77702 5.80695.7533 10.64706.19178 16.20489-1.47497 5.91174-3.7408 9.53391-7.05256 13.14422-4.1224 3.43632-7.61409 5.00027-12.67762 6.1411-4.40513.46463-10.55611.38554-15.50694.41718l.30844 36.546h-12.8358l.13841-89.74176zm12.34347 40.26704l.1641-27.4194 9.7356-.0336c5.27706.52395 8.40692 1.77945 10.4869 4.20346 2.11755 3.0824 2.66523 5.01806 2.72652 8.50974.28273 2.11755-.00593 4.88756-1.74386 8.62046-1.51847 2.12348-1.66676 2.74629-4.28453 4.26673-3.07648 1.26935-1.18828 1.03802-7.60815 1.84273l-9.47658.00988z"/></svg>