<svg xmlns="http://www.w3.org/2000/svg" role="img" viewBox="-2.61 -2.61 889.72 543.22"><title>zipkin.input.svg logo</title><style>svg {fill-rule:evenodd;clip-rule:evenodd}</style><g transform="translate(-147.142 -489.518) scale(1.97717)"><clipPath id="a"><path d="M297.97 254.996c-24.502.001-44.363 19.862-44.363 44.364.012 18.531 11.545 35.102 28.916 41.556v5.675l5.736 5.741-.659 41.828-149.649-.094c-2.371-.006-4.424-1.733-4.424-1.733-2.243-2.267 1.512-11.638 1.512-11.638l2.829-6.035c1.343-3.006 1.835-3.144 2.619-4.589-3.184.289-4.974.663-7.17 1.245-6.674 1.886-9.977 3.174-17.661 6.622-7.539 3.582-10.666 5.048-15.729 8.266-8.085 4.687-11.907 7.738-18.149 11.599.458.389.939.692 1.44.957 4.978 3.209 8.844 6.069 15.873 10.143 5.063 3.218 8.19 4.684 15.729 8.266 7.684 3.448 10.987 4.736 17.661 6.622 2.196.582 3.986.95 7.17 1.24-.784-1.446-1.276-1.577-2.619-4.584l-2.829-6.035s-3.755-9.371-1.512-11.638c0 0 1.005-.828 2.409-1.339.797-.147 1.637-.272 2.486-.394l43.045-.028 107.589.316.405 11.87 1.66 17.523 1.025 11.227 11.958-.005.997-10.929 1.655-17.877.438-11.809 162.516.858 21.271.692c4.83.402 9.527 1.256 13.791 2.43l7.507 2.209c1.497-1.324 2.234-2.494 2.652-3.975.584-1.938.512-4.132.532-5.785-.068-1.565-.056-3.775-.349-5.254-.458-1.442-1.15-2.651-2.647-3.976l-7.507 2.209c-3.47.977-8.264 2.023-13.797 2.425l-21.52 1.102H306.358l-.072-41.816 5.741-5.183-.006-6.234c17.573-6.334 30.288-22.993 30.312-41.672 0-24.502-19.862-44.363-44.363-44.363zm-.105 7.945c24.953.414 36.781 20.345 36.568 36.623-.243 18.513-15.845 35.815-36.242 36.436-20.113 0-36.418-16.305-36.418-36.419 0-20.114 15.978-36.64 36.092-36.64z"/></clipPath><g clip-path="url(#a)"><path fill-opacity=".997" fill-rule="nonzero" d="M297.97 254.996c-24.502.001-44.363 19.862-44.363 44.364.012 18.531 11.545 35.102 28.916 41.556v5.675l5.736 5.741-.659 41.828-149.649-.094c-2.371-.006-4.424-1.733-4.424-1.733-2.243-2.267 1.512-11.638 1.512-11.638l2.829-6.035c1.343-3.006 1.835-3.144 2.619-4.589-3.184.289-4.974.663-7.17 1.245-6.674 1.886-9.977 3.174-17.661 6.622-7.539 3.582-10.666 5.048-15.729 8.266-8.085 4.687-11.907 7.738-18.149 11.599.458.389.939.692 1.44.957 4.978 3.209 8.844 6.069 15.873 10.143 5.063 3.218 8.19 4.684 15.729 8.266 7.684 3.448 10.987 4.736 17.661 6.622 2.196.582 3.986.95 7.17 1.24-.784-1.446-1.276-1.577-2.619-4.584l-2.829-6.035s-3.755-9.371-1.512-11.638c0 0 1.005-.828 2.409-1.339.797-.147 1.637-.272 2.486-.394l43.045-.028 107.589.316.405 11.87 1.66 17.523 1.025 11.227 11.958-.005.997-10.929 1.655-17.877.438-11.809 162.516.858 21.271.692c4.83.402 9.527 1.256 13.791 2.43l7.507 2.209c1.497-1.324 2.234-2.494 2.652-3.975.584-1.938.512-4.132.532-5.785-.068-1.565-.056-3.775-.349-5.254-.458-1.442-1.15-2.651-2.647-3.976l-7.507 2.209c-3.47.977-8.264 2.023-13.797 2.425l-21.52 1.102H306.358l-.072-41.816 5.741-5.183-.006-6.234c17.573-6.334 30.288-22.993 30.312-41.672 0-24.502-19.862-44.363-44.363-44.363zm-.105 7.945c24.953.414 36.781 20.345 36.568 36.623-.243 18.513-15.845 35.815-36.242 36.436-20.113 0-36.418-16.305-36.418-36.419 0-20.114 15.978-36.64 36.092-36.64z"/><path fill="#231f20" fill-opacity=".997" fill-rule="nonzero" d="M297.96968 254.995c-24.50117.00026-44.36345 19.86255-44.36372 44.36372.01244 18.53144 11.54178 35.10288 28.91278 41.55705v5.6747l5.73926 5.73928-.66224 41.82666-149.64645-.09234c-2.37063-.00609-4.42245-1.73432-4.42245-1.73432-2.24285-2.2664 1.51049-11.63808 1.51049-11.63808l2.82994-6.03375c1.34354-3.00669 1.83751-3.14083 2.62067-4.58623-3.1837.28919-4.97702.66013-7.1733 1.2422-6.67429 1.88566-9.97307 3.17311-17.657 6.62085-7.53815 3.58242-10.6676 5.04792-15.73087 8.26601-8.08504 4.6873-11.90928 7.73844-18.15072 11.59866.4572.38946.94164.6969 1.44302.96228 4.97754 3.20882 8.84306 6.06523 15.87136 10.1395 5.06327 3.21808 8.19245 4.68518 15.7306 8.2676 7.6842 3.44773 10.98298 4.73544 17.65701 6.62084 2.19655.58208 3.9896.9517 7.1733 1.24088-.78316-1.4454-1.27687-1.57954-2.6204-4.5865l-2.83022-6.03215s-3.75306-9.37328-1.51022-11.6394c0 0 1.00408-.83079 2.4082-1.34169.79719-.14684 1.64067-.2712 2.48865-.39264l43.04399-.02646 107.58696.31777.40586 11.86667 1.65971 17.52234 1.02102 11.22772 11.96166-.0045.99323-10.9261 1.65522-17.8782.44237-11.80793 162.51218.85406 21.26959.69717c4.82858.40269 9.53017 1.25464 13.7952 2.42858l7.50349 2.20765c1.49752-1.32422 2.2304-2.49366 2.64845-3.97399.58472-1.93858.51328-4.12956.53445-5.78319-.0688-1.56499-.05557-3.77952-.3466-5.25879-.45773-1.44143-1.15357-2.64977-2.64845-3.974l-7.50613 2.2074c-3.4713.9763-8.26284 2.02589-13.7952 2.42858l-21.5183 1.10303H306.3574l-.0746-41.81845 5.74111-5.18207-.00529-6.23377c17.57235-6.33484 30.2886-22.99438 30.31293-41.67346-.00026-24.50117-19.86043-44.36293-44.36186-44.36319zm-.10769 7.9464c24.95334.4138 36.77874 20.34752 36.56549 36.62554-.24288 18.5124-15.83988 35.81064-36.23661 36.43134-20.11337.00027-36.41838-16.305-36.41838-36.41838 0-20.11337 15.97613-36.6385 36.0895-36.6385z"/></g></g><path fill="#231f20" stroke="#231f20" stroke-width="1.4828775" d="M147.8656 429.88582l58.0418.21749-42.01881 75.88972 39.61853-.03362-.21946 12.95245-61.31402.09095L183.9094 442.688h-36.2613l.2175-12.80218zm120.8822-.10874h12.87533l-.01186 89.25143H268.8249l-.0771-89.25143zm188.09016.10874l12.65587-.10874-.05734 34.6934 36.71209-34.6756 18.36.15421-45.09727 42.93622 45.12297 46.0918h-18.30464l-36.9019-38.03285.09886 38.23649h-12.59062l.00198-89.29493zm128.41126.10875l12.87335-.2175v89.13479l-12.7646.10874-.10875-89.02603zm82.37088-3.38294l62.83446 63.90609.5971-61.53349 12.5926.09095.10875 93.01992-63.55218-63.78944-.07513 60.9344-12.83777-.21946.33217-92.40897z"/><path fill="#231f20" stroke="#231f20" stroke-width="1.4828775" d="M351.88288 429.77747c9.38167.1463 26.51187.10874 26.51187.10874 4.57517.47452 9.32433 2.69488 13.16993 5.56771 4.26475 3.79617 6.76785 7.40648 7.75248 11.61192.77703 5.80695.7533 10.64706.19179 16.20489-1.47497 5.91173-3.7408 9.5339-7.05257 13.14422-4.1224 3.43632-7.61408 5.00026-12.67761 6.1411-4.40514.46463-10.55611.38554-15.50695.41717l.30844 36.54601h-12.83579l.1384-89.74176zm12.34347 40.26704l.1641-27.4194 9.73559-.0336c5.27707.52394 8.40693 1.77945 10.4869 4.20346 2.11756 3.0824 2.66523 5.01806 2.72653 8.50974.28273 2.11755-.00594 4.88756-1.74387 8.62046-1.51846 2.12348-1.66675 2.74629-4.28453 4.26673-3.07647 1.26934-1.18827 1.03802-7.60815 1.84272l-9.47657.00989z"/></svg>