<svg xmlns="http://www.w3.org/2000/svg" role="img" viewBox="-2.61 -2.61 889.72 543.22"><title>zipkin.input.svg logo</title><style>svg {fill-rule:evenodd;clip-rule:evenodd}</style><g id="picture" transform="translate(-147.142 -489.518) scale(1.97717)"><g id="Clip"><clipPath id="_clip1"><path d="M297.97 254.996c-24.502.001-44.363 19.862-44.363 44.364.012 18.531 11.545 35.102 28.916 41.556v5.675l5.736 5.741-.659 41.828-149.649-.094c-2.371-.006-4.424-1.733-4.424-1.733-2.243-2.267 1.512-11.638 1.512-11.638l2.829-6.035c1.343-3.006 1.835-3.144 2.619-4.589-3.184.289-4.974.663-7.17 1.245-6.674 1.886-9.977 3.174-17.661 6.622-7.539 3.582-10.666 5.048-15.729 8.266-8.085 4.687-11.907 7.738-18.149 11.599.458.389.939.692 1.44.957 4.978 3.209 8.844 6.069 15.873 10.143 5.063 3.218 8.19 4.684 15.729 8.266 7.684 3.448 10.987 4.736 17.661 6.622 2.196.582 3.986.95 7.17 1.24-.784-1.446-1.276-1.577-2.619-4.584l-2.829-6.035s-3.755-9.371-1.512-11.638c0 0 1.005-.828 2.409-1.339.797-.147 1.637-.272 2.486-.394l43.045-.028 107.589.316.405 11.87 1.66 17.523 1.025 11.227 11.958-.005.997-10.929 1.655-17.877.438-11.809 162.516.858 21.271.692c4.83.402 9.527 1.256 13.791 2.43l7.507 2.209c1.497-1.324 2.234-2.494 2.652-3.975.584-1.938.512-4.132.532-5.785-.068-1.565-.056-3.775-.349-5.254-.458-1.442-1.15-2.651-2.647-3.976l-7.507 2.209c-3.47.977-8.264 2.023-13.797 2.425l-21.52 1.102H306.358l-.072-41.816 5.741-5.183-.006-6.234c17.573-6.334 30.288-22.993 30.312-41.672 0-24.502-19.862-44.363-44.363-44.363zm-.105 7.945c24.953.414 36.781 20.345 36.568 36.623-.243 18.513-15.845 35.815-36.242 36.436-20.113 0-36.418-16.305-36.418-36.419 0-20.114 15.978-36.64 36.092-36.64z"/></clipPath><g clip-path="url(#_clip1)"><path id="path27" fill-opacity=".997" fill-rule="nonzero" d="M297.97 254.996c-24.502.001-44.363 19.862-44.363 44.364.012 18.531 11.545 35.102 28.916 41.556v5.675l5.736 5.741-.659 41.828-149.649-.094c-2.371-.006-4.424-1.733-4.424-1.733-2.243-2.267 1.512-11.638 1.512-11.638l2.829-6.035c1.343-3.006 1.835-3.144 2.619-4.589-3.184.289-4.974.663-7.17 1.245-6.674 1.886-9.977 3.174-17.661 6.622-7.539 3.582-10.666 5.048-15.729 8.266-8.085 4.687-11.907 7.738-18.149 11.599.458.389.939.692 1.44.957 4.978 3.209 8.844 6.069 15.873 10.143 5.063 3.218 8.19 4.684 15.729 8.266 7.684 3.448 10.987 4.736 17.661 6.622 2.196.582 3.986.95 7.17 1.24-.784-1.446-1.276-1.577-2.619-4.584l-2.829-6.035s-3.755-9.371-1.512-11.638c0 0 1.005-.828 2.409-1.339.797-.147 1.637-.272 2.486-.394l43.045-.028 107.589.316.405 11.87 1.66 17.523 1.025 11.227 11.958-.005.997-10.929 1.655-17.877.438-11.809 162.516.858 21.271.692c4.83.402 9.527 1.256 13.791 2.43l7.507 2.209c1.497-1.324 2.234-2.494 2.652-3.975.584-1.938.512-4.132.532-5.785-.068-1.565-.056-3.775-.349-5.254-.458-1.442-1.15-2.651-2.647-3.976l-7.507 2.209c-3.47.977-8.264 2.023-13.797 2.425l-21.52 1.102H306.358l-.072-41.816 5.741-5.183-.006-6.234c17.573-6.334 30.288-22.993 30.312-41.672 0-24.502-19.862-44.363-44.363-44.363zm-.105 7.945c24.953.414 36.781 20.345 36.568 36.623-.243 18.513-15.845 35.815-36.242 36.436-20.113 0-36.418-16.305-36.418-36.419 0-20.114 15.978-36.64 36.092-36.64z"/><path fill="#231f20" fill-opacity=".997" fill-rule="nonzero" d="M819.611 0c-92.604.001-167.675 75.072-167.676 167.676.047 70.041 43.623 132.674 109.278 157.068v21.448l21.692 21.692-2.503 158.087-565.6-.349c-8.96-.023-16.715-6.555-16.715-6.555-8.477-8.566 5.709-43.987 5.709-43.987l10.696-22.805c5.078-11.364 6.945-11.871 9.905-17.334-12.033 1.093-18.811 2.495-27.112 4.695-25.226 7.127-37.694 11.993-66.736 25.024-28.491 13.54-40.319 19.079-59.456 31.242-30.558 17.716-45.012 29.248-68.602 43.838 1.728 1.472 3.559 2.634 5.454 3.637 18.813 12.128 33.423 22.924 59.987 38.323 19.137 12.163 30.964 17.708 59.455 31.248 29.043 13.031 41.511 17.898 66.736 25.024 8.302 2.2 15.079 3.597 27.112 4.69-2.96-5.463-4.826-5.97-9.904-17.335l-10.697-22.799s-14.185-35.427-5.708-43.992c0 0 3.795-3.14 9.102-5.071 3.013-.555 6.201-1.025 9.406-1.484l162.688-.1 406.633 1.201 1.534 44.851 6.273 66.227 3.859 42.436 45.21-.017 3.754-41.296 6.256-67.572 1.672-44.629 614.227 3.228 80.39 2.635c18.25 1.522 36.02 4.742 52.14 9.179l28.36 8.344c5.66-5.005 8.43-9.425 10.01-15.02 2.21-7.327 1.94-15.608 2.02-21.858-.26-5.915-.21-14.285-1.31-19.876-1.73-5.448-4.36-10.015-10.01-15.02l-28.37 8.343c-13.12 3.69-31.23 7.657-52.14 9.179l-81.33 4.169H851.313l-.282-158.056 21.699-19.586-.02-23.561c66.416-23.943 114.478-86.909 114.57-157.508C987.279 75.07 912.216.001 819.611 0zm-.407 30.034c94.313 1.564 139.008 76.905 138.202 138.429-.918 69.969-59.868 135.349-136.959 137.695-76.02.001-137.646-61.626-137.646-137.646 0-76.02 60.383-138.478 136.403-138.478z" transform="translate(81.117 254.995) scale(.26458)" id="path21-0-4"/></g></g><path id="path57" fill="#231f20" stroke="#231f20" stroke-width=".75" d="M149.207 465.01l29.356.11-21.252 38.383 20.038-.017-.111 6.551-31.011.046 21.21-38.598h-18.34l.11-6.475z"/><path id="path59" fill="#231f20" stroke="#231f20" stroke-width=".75" d="M210.346 464.955h6.512l-.006 45.141h-6.467l-.039-45.141z"/><path id="path63" fill="#231f20" stroke="#231f20" stroke-width=".75" d="M305.477 465.01l6.401-.055-.029 17.547 18.568-17.538 9.286.078-22.809 21.716 22.822 23.312h-9.258l-18.664-19.236.05 19.339h-6.368l.001-45.163z"/><path id="path65" fill="#231f20" stroke="#231f20" stroke-width=".75" d="M370.424 465.065l6.511-.11v45.082l-6.456.055-.055-45.027z"/><path id="path67" fill="#231f20" stroke="#231f20" stroke-width=".75" d="M412.085 463.354l31.78 32.322.302-31.122 6.369.046.055 47.047-32.143-32.263-.038 30.819-6.493-.111.168-46.738z"/><path fill="#231f20" stroke="#231f20" stroke-width=".75" d="M252.393 464.955c4.745.074 13.409.055 13.409.055 2.314.24 4.716 1.363 6.661 2.816 2.157 1.92 3.423 3.746 3.921 5.873.393 2.937.381 5.385.097 8.196-.746 2.99-1.892 4.822-3.567 6.648-2.085 1.738-3.851 2.529-6.412 3.106-2.228.235-5.339.195-7.843.211l.156 18.484h-6.492l.07-45.389zm6.243 20.366l.083-13.868 4.924-.017c2.669.265 4.252.9 5.304 2.126 1.071 1.559 1.348 2.538 1.379 4.304.143 1.071-.003 2.472-.882 4.36-.768 1.074-.843 1.389-2.167 2.158-1.556.642-.601.525-3.848.932l-4.793.005z"/></g></svg>